<?xml version="1.0" encoding="utf-8"?>
<svg x="981.768pt" y="293.264pt" width="37.4159pt" height="37.298pt" viewBox="981.768 293.264 37.4159 37.298" xmlns="http://www.w3.org/2000/svg" xmlns:xlink="http://www.w3.org/1999/xlink">
  <defs>
    <title>Path</title>
    <g id="1">
      <defs>
        <path id="2" d="M1000.48,293.264 C1010.81,293.264,1019.18,301.614,1019.18,311.914 C1019.18,322.213,1010.81,330.563,1000.48,330.563 C990.144,330.563,981.768,322.213,981.768,311.914 C981.768,301.614,990.144,293.264,1000.48,293.264 z"/>
      </defs>
      <use xlink:href="#2" style="fill:#000000;fill-opacity:1;fill-rule:evenodd;opacity:1;stroke:none;"/>
      <use xlink:href="#2" style="fill:none;opacity:1;stroke:#000000;stroke-linecap:butt;stroke-linejoin:miter;stroke-miterlimit:10;stroke-opacity:1;stroke-width:0;"/>
    </g>
  </defs>
  <use xlink:href="#1"/>
  <defs>
    <title>Text</title>
    <g id="3">
      <defs>
        <path id="4" d="M998.311,321.47 C998.311,321.47,1002.28,321.47,1002.28,321.47 C1002.28,321.47,1002.28,325.178,1002.28,325.178 C1002.28,325.178,998.311,325.178,998.311,325.178 C998.311,325.178,998.311,321.47,998.311,321.47 z M991.587,307.189 C991.587,304.622,992.399,302.557,994.021,300.994 C995.644,299.431,997.872,298.649,1000.71,298.649 C1003.33,298.649,1005.42,299.318,1007,300.655 C1008.58,301.992,1009.37,303.701,1009.37,305.781 C1009.37,307.04,1009.08,308.063,1008.5,308.847 C1007.92,309.631,1006.75,310.784,1005,312.306 C1003.72,313.411,1002.89,314.347,1002.51,315.114 C1002.13,315.88,1001.94,317.012,1001.94,318.51 C1001.94,318.51,998.391,318.51,998.391,318.51 C998.391,316.81,998.617,315.441,999.07,314.401 C999.522,313.361,1000.51,312.169,1002.04,310.826 C1002.04,310.826,1003.64,309.418,1003.64,309.418 C1004.12,309.013,1004.5,308.591,1004.8,308.152 C1005.33,307.379,1005.59,306.577,1005.59,305.745 C1005.59,304.58,1005.21,303.57,1004.43,302.714 C1003.65,301.858,1002.36,301.43,1000.57,301.43 C998.345,301.43,996.808,302.167,995.957,303.641 C995.478,304.461,995.205,305.644,995.139,307.189 C995.139,307.189,991.587,307.189,991.587,307.189 z"/>
      </defs>
      <use xlink:href="#4" style="fill:#000000;fill-opacity:1;fill-rule:nonzero;opacity:1;stroke:none;"/>
      <use xlink:href="#4" style="fill:#ffffff;fill-opacity:1;fill-rule:nonzero;opacity:1;stroke:none;"/>
    </g>
  </defs>
  <use xlink:href="#3"/>
</svg>
