<?xml version="1.0" encoding="utf-8"?>
<svg x="77.6749pt" y="186.728pt" width="297.35pt" height="145.294pt" viewBox="77.6749 186.728 297.35 145.294" xmlns="http://www.w3.org/2000/svg" xmlns:xlink="http://www.w3.org/1999/xlink">
  <defs>
    <title>Shape 19</title>
    <g id="1">
      <defs>
        <path id="2" d="M369.883,203.59 C377.3,213.388,369.8,227.318,367.377,238.511 C366.063,244.582,366.138,248.964,369.07,254.304 C370.186,256.337,373.538,258.245,373.525,258.839 C373.512,259.398,370.205,261.805,369.774,262.239 C368.136,263.889,367.678,265.031,366.887,267.246 C364.741,273.255,367.704,280.183,369.37,285.871 C369.996,288.01,373.579,304.478,370.809,310.76 C370.575,311.282,370.403,311.656,370.403,311.656 C364.336,323.927,350.019,328.393,337.693,329.723 C331.305,330.413,325.152,329.353,318.856,328.754 C300.77,327.034,283.021,324.084,265,322.035 C252.477,320.611,234.478,317.979,225.631,329.885 C225.631,329.885,225.2,330.399,225.2,330.399 C224.927,330.694,224.769,330.353,224.769,330.353 C215.922,318.447,197.924,321.079,185.4,322.503 C167.379,324.552,149.63,327.502,131.544,329.222 C125.248,329.821,119.095,330.881,112.708,330.191 C100.382,328.861,86.4883,322.881,80.7632,311.232 C80.7632,311.232,80.7632,311.232,80.7632,311.232 C76.4232,302.818,82.9001,289.448,85.3228,278.47 C86.6367,272.516,86.5624,268.218,83.6304,262.981 C82.5141,260.987,79.1617,259.116,79.1755,258.534 C79.1884,257.985,82.4948,255.624,82.9258,255.199 C84.5641,253.58,85.0224,252.46,85.8132,250.288 C87.9593,244.394,84.9963,237.599,83.3302,232.021 C82.7037,229.923,79.1206,213.772,81.8908,207.61 C82.1251,207.099,82.297,206.731,82.297,206.731 C88.3646,194.697,102.681,190.316,115.007,189.012 C121.395,188.335,127.548,189.375,133.844,189.962 C151.93,191.649,169.679,194.543,187.7,196.552 C200.224,197.949,218.222,200.53,227.069,188.853 C227.069,188.853,227.5,188.349,227.5,188.349 C227.774,188.06,227.931,188.394,227.931,188.394 C236.778,200.071,254.776,197.49,267.3,196.094 C285.321,194.084,303.07,191.19,321.156,189.503 C327.452,188.916,333.605,187.876,339.993,188.553 C352.319,189.858,365.649,194.684,371.717,206.719"/>
      </defs>
      <use xlink:href="#2" style="fill:#fdff7f;fill-opacity:1;fill-rule:evenodd;opacity:1;stroke:none;"/>
      <use xlink:href="#2" style="fill:none;opacity:1;stroke:#000000;stroke-linecap:butt;stroke-linejoin:miter;stroke-miterlimit:10;stroke-opacity:1;stroke-width:3;"/>
    </g>
  </defs>
  <use xlink:href="#1"/>
  <defs>
    <title>Path</title>
    <g id="3">
      <defs>
        <path id="4" d="M352.307,203.088 C353.425,203.088,354.332,203.969,354.332,205.056 C354.332,206.143,353.425,207.024,352.307,207.024 C351.188,207.024,350.281,206.143,350.281,205.056 C350.281,203.969,351.188,203.088,352.307,203.088 z"/>
      </defs>
      <use xlink:href="#4" style="fill:#000000;fill-opacity:1;fill-rule:evenodd;opacity:1;stroke:none;"/>
      <use xlink:href="#4" style="fill:none;opacity:1;stroke:#000000;stroke-linecap:butt;stroke-linejoin:miter;stroke-miterlimit:10;stroke-opacity:1;stroke-width:0;"/>
    </g>
  </defs>
  <use xlink:href="#3"/>
  <defs>
    <title>Path Copy</title>
    <g id="5">
      <defs>
        <path id="6" d="M254.079,203.088 C255.198,203.088,256.105,203.969,256.105,205.056 C256.105,206.143,255.198,207.024,254.079,207.024 C252.96,207.024,252.054,206.143,252.054,205.056 C252.054,203.969,252.96,203.088,254.079,203.088 z"/>
      </defs>
      <use xlink:href="#6" style="fill:#000000;fill-opacity:1;fill-rule:evenodd;opacity:1;stroke:none;"/>
      <use xlink:href="#6" style="fill:none;opacity:1;stroke:#000000;stroke-linecap:butt;stroke-linejoin:miter;stroke-miterlimit:10;stroke-opacity:1;stroke-width:0;"/>
    </g>
  </defs>
  <use xlink:href="#5"/>
  <defs>
    <title>Path Copy Copy</title>
    <g id="7">
      <defs>
        <path id="8" d="M160.37,203.088 C161.489,203.088,162.396,203.969,162.396,205.056 C162.396,206.143,161.489,207.024,160.37,207.024 C159.251,207.024,158.345,206.143,158.345,205.056 C158.345,203.969,159.251,203.088,160.37,203.088 z"/>
      </defs>
      <use xlink:href="#8" style="fill:#000000;fill-opacity:1;fill-rule:evenodd;opacity:1;stroke:none;"/>
      <use xlink:href="#8" style="fill:none;opacity:1;stroke:#000000;stroke-linecap:butt;stroke-linejoin:miter;stroke-miterlimit:10;stroke-opacity:1;stroke-width:0;"/>
    </g>
  </defs>
  <use xlink:href="#7"/>
  <defs>
    <title>Path Copy Copy Copy</title>
    <g id="9">
      <defs>
        <path id="10" d="M104.876,234.923 C105.995,234.923,106.902,235.804,106.902,236.891 C106.902,237.978,105.995,238.859,104.876,238.859 C103.758,238.859,102.851,237.978,102.851,236.891 C102.851,235.804,103.758,234.923,104.876,234.923 z"/>
      </defs>
      <use xlink:href="#10" style="fill:#000000;fill-opacity:1;fill-rule:evenodd;opacity:1;stroke:none;"/>
      <use xlink:href="#10" style="fill:none;opacity:1;stroke:#000000;stroke-linecap:butt;stroke-linejoin:miter;stroke-miterlimit:10;stroke-opacity:1;stroke-width:0;"/>
    </g>
  </defs>
  <use xlink:href="#9"/>
  <defs>
    <title>Path Copy Copy Copy Copy</title>
    <g id="11">
      <defs>
        <path id="12" d="M179.745,310.421 C180.864,310.421,181.771,311.302,181.771,312.389 C181.771,313.476,180.864,314.357,179.745,314.357 C178.627,314.357,177.72,313.476,177.72,312.389 C177.72,311.302,178.627,310.421,179.745,310.421 z"/>
      </defs>
      <use xlink:href="#12" style="fill:#000000;fill-opacity:1;fill-rule:evenodd;opacity:1;stroke:none;"/>
      <use xlink:href="#12" style="fill:none;opacity:1;stroke:#000000;stroke-linecap:butt;stroke-linejoin:miter;stroke-miterlimit:10;stroke-opacity:1;stroke-width:0;"/>
    </g>
  </defs>
  <use xlink:href="#11"/>
  <defs>
    <title>Path Copy Copy Copy Copy Copy</title>
    <g id="13">
      <defs>
        <path id="14" d="M118.397,310.421 C119.515,310.421,120.422,311.302,120.422,312.389 C120.422,313.476,119.515,314.357,118.397,314.357 C117.278,314.357,116.371,313.476,116.371,312.389 C116.371,311.302,117.278,310.421,118.397,310.421 z"/>
      </defs>
      <use xlink:href="#14" style="fill:#000000;fill-opacity:1;fill-rule:evenodd;opacity:1;stroke:none;"/>
      <use xlink:href="#14" style="fill:none;opacity:1;stroke:#000000;stroke-linecap:butt;stroke-linejoin:miter;stroke-miterlimit:10;stroke-opacity:1;stroke-width:0;"/>
    </g>
  </defs>
  <use xlink:href="#13"/>
  <defs>
    <title>Path Copy Copy Copy Copy Copy Copy</title>
    <g id="15">
      <defs>
        <path id="16" d="M129.965,310.654 C131.084,310.654,131.991,311.535,131.991,312.622 C131.991,313.709,131.084,314.59,129.965,314.59 C128.847,314.59,127.94,313.709,127.94,312.622 C127.94,311.535,128.847,310.654,129.965,310.654 z"/>
      </defs>
      <use xlink:href="#16" style="fill:#000000;fill-opacity:1;fill-rule:evenodd;opacity:1;stroke:none;"/>
      <use xlink:href="#16" style="fill:none;opacity:1;stroke:#000000;stroke-linecap:butt;stroke-linejoin:miter;stroke-miterlimit:10;stroke-opacity:1;stroke-width:0;"/>
    </g>
  </defs>
  <use xlink:href="#15"/>
  <defs>
    <title>Path Copy Copy Copy Copy Copy Copy Copy</title>
    <g id="17">
      <defs>
        <path id="18" d="M144.029,310.421 C145.148,310.421,146.055,311.302,146.055,312.389 C146.055,313.476,145.148,314.357,144.029,314.357 C142.911,314.357,142.004,313.476,142.004,312.389 C142.004,311.302,142.911,310.421,144.029,310.421 z"/>
      </defs>
      <use xlink:href="#18" style="fill:#000000;fill-opacity:1;fill-rule:evenodd;opacity:1;stroke:none;"/>
      <use xlink:href="#18" style="fill:none;opacity:1;stroke:#000000;stroke-linecap:butt;stroke-linejoin:miter;stroke-miterlimit:10;stroke-opacity:1;stroke-width:0;"/>
    </g>
  </defs>
  <use xlink:href="#17"/>
  <defs>
    <title>Path Copy Copy Copy Copy Copy Copy Copy Copy</title>
    <g id="19">
      <defs>
        <path id="20" d="M154.395,310.421 C155.513,310.421,156.42,311.302,156.42,312.389 C156.42,313.476,155.513,314.357,154.395,314.357 C153.276,314.357,152.369,313.476,152.369,312.389 C152.369,311.302,153.276,310.421,154.395,310.421 z"/>
      </defs>
      <use xlink:href="#20" style="fill:#000000;fill-opacity:1;fill-rule:evenodd;opacity:1;stroke:none;"/>
      <use xlink:href="#20" style="fill:none;opacity:1;stroke:#000000;stroke-linecap:butt;stroke-linejoin:miter;stroke-miterlimit:10;stroke-opacity:1;stroke-width:0;"/>
    </g>
  </defs>
  <use xlink:href="#19"/>
  <defs>
    <title>Path Copy Copy Copy Copy Copy Copy Copy Copy Copy</title>
    <g id="21">
      <defs>
        <path id="22" d="M166.817,310.421 C167.935,310.421,168.842,311.302,168.842,312.389 C168.842,313.476,167.935,314.357,166.817,314.357 C165.698,314.357,164.791,313.476,164.791,312.389 C164.791,311.302,165.698,310.421,166.817,310.421 z"/>
      </defs>
      <use xlink:href="#22" style="fill:#000000;fill-opacity:1;fill-rule:evenodd;opacity:1;stroke:none;"/>
      <use xlink:href="#22" style="fill:none;opacity:1;stroke:#000000;stroke-linecap:butt;stroke-linejoin:miter;stroke-miterlimit:10;stroke-opacity:1;stroke-width:0;"/>
    </g>
  </defs>
  <use xlink:href="#21"/>
  <defs>
    <title>Path Copy Copy Copy Copy Copy</title>
    <g id="23">
      <defs>
        <path id="24" d="M191.662,310.421 C192.781,310.421,193.687,311.302,193.687,312.389 C193.687,313.476,192.781,314.357,191.662,314.357 C190.543,314.357,189.637,313.476,189.637,312.389 C189.637,311.302,190.543,310.421,191.662,310.421 z"/>
      </defs>
      <use xlink:href="#24" style="fill:#000000;fill-opacity:1;fill-rule:evenodd;opacity:1;stroke:none;"/>
      <use xlink:href="#24" style="fill:none;opacity:1;stroke:#000000;stroke-linecap:butt;stroke-linejoin:miter;stroke-miterlimit:10;stroke-opacity:1;stroke-width:0;"/>
    </g>
  </defs>
  <use xlink:href="#23"/>
  <defs>
    <title>Path Copy Copy Copy Copy Copy Copy</title>
    <g id="25">
      <defs>
        <path id="26" d="M203.562,310.421 C204.681,310.421,205.588,311.302,205.588,312.389 C205.588,313.476,204.681,314.357,203.562,314.357 C202.444,314.357,201.537,313.476,201.537,312.389 C201.537,311.302,202.444,310.421,203.562,310.421 z"/>
      </defs>
      <use xlink:href="#26" style="fill:#000000;fill-opacity:1;fill-rule:evenodd;opacity:1;stroke:none;"/>
      <use xlink:href="#26" style="fill:none;opacity:1;stroke:#000000;stroke-linecap:butt;stroke-linejoin:miter;stroke-miterlimit:10;stroke-opacity:1;stroke-width:0;"/>
    </g>
  </defs>
  <use xlink:href="#25"/>
  <defs>
    <title>Path Copy Copy Copy Copy Copy Copy Copy</title>
    <g id="27">
      <defs>
        <path id="28" d="M104.876,310.421 C105.995,310.421,106.902,311.302,106.902,312.389 C106.902,313.476,105.995,314.357,104.876,314.357 C103.758,314.357,102.851,313.476,102.851,312.389 C102.851,311.302,103.758,310.421,104.876,310.421 z"/>
      </defs>
      <use xlink:href="#28" style="fill:#000000;fill-opacity:1;fill-rule:evenodd;opacity:1;stroke:none;"/>
      <use xlink:href="#28" style="fill:none;opacity:1;stroke:#000000;stroke-linecap:butt;stroke-linejoin:miter;stroke-miterlimit:10;stroke-opacity:1;stroke-width:0;"/>
    </g>
  </defs>
  <use xlink:href="#27"/>
  <defs>
    <title>Path Copy Copy Copy Copy Copy Copy Copy Copy</title>
    <g id="29">
      <defs>
        <path id="30" d="M104.876,298.338 C105.995,298.338,106.902,299.22,106.902,300.306 C106.902,301.393,105.995,302.274,104.876,302.274 C103.758,302.274,102.851,301.393,102.851,300.306 C102.851,299.22,103.758,298.338,104.876,298.338 z"/>
      </defs>
      <use xlink:href="#30" style="fill:#000000;fill-opacity:1;fill-rule:evenodd;opacity:1;stroke:none;"/>
      <use xlink:href="#30" style="fill:none;opacity:1;stroke:#000000;stroke-linecap:butt;stroke-linejoin:miter;stroke-miterlimit:10;stroke-opacity:1;stroke-width:0;"/>
    </g>
  </defs>
  <use xlink:href="#29"/>
  <defs>
    <title>Path Copy Copy Copy Copy Copy Copy Copy Copy Copy</title>
    <g id="31">
      <defs>
        <path id="32" d="M104.876,289.483 C105.995,289.483,106.902,290.364,106.902,291.451 C106.902,292.538,105.995,293.419,104.876,293.419 C103.758,293.419,102.851,292.538,102.851,291.451 C102.851,290.364,103.758,289.483,104.876,289.483 z"/>
      </defs>
      <use xlink:href="#32" style="fill:#000000;fill-opacity:1;fill-rule:evenodd;opacity:1;stroke:none;"/>
      <use xlink:href="#32" style="fill:none;opacity:1;stroke:#000000;stroke-linecap:butt;stroke-linejoin:miter;stroke-miterlimit:10;stroke-opacity:1;stroke-width:0;"/>
    </g>
  </defs>
  <use xlink:href="#31"/>
  <defs>
    <title>Path Copy Copy Copy Copy Copy Copy Copy Copy Copy Copy</title>
    <g id="33">
      <defs>
        <path id="34" d="M104.876,278.7 C105.995,278.7,106.902,279.581,106.902,280.668 C106.902,281.754,105.995,282.635,104.876,282.635 C103.758,282.635,102.851,281.754,102.851,280.668 C102.851,279.581,103.758,278.7,104.876,278.7 z"/>
      </defs>
      <use xlink:href="#34" style="fill:#000000;fill-opacity:1;fill-rule:evenodd;opacity:1;stroke:none;"/>
      <use xlink:href="#34" style="fill:none;opacity:1;stroke:#000000;stroke-linecap:butt;stroke-linejoin:miter;stroke-miterlimit:10;stroke-opacity:1;stroke-width:0;"/>
    </g>
  </defs>
  <use xlink:href="#33"/>
  <defs>
    <title>Path Copy Copy Copy Copy Copy Copy Copy Copy Copy Copy Copy</title>
    <g id="35">
      <defs>
        <path id="36" d="M104.876,267.773 C105.995,267.773,106.902,268.654,106.902,269.741 C106.902,270.828,105.995,271.709,104.876,271.709 C103.758,271.709,102.851,270.828,102.851,269.741 C102.851,268.654,103.758,267.773,104.876,267.773 z"/>
      </defs>
      <use xlink:href="#36" style="fill:#000000;fill-opacity:1;fill-rule:evenodd;opacity:1;stroke:none;"/>
      <use xlink:href="#36" style="fill:none;opacity:1;stroke:#000000;stroke-linecap:butt;stroke-linejoin:miter;stroke-miterlimit:10;stroke-opacity:1;stroke-width:0;"/>
    </g>
  </defs>
  <use xlink:href="#35"/>
  <defs>
    <title>Path Copy Copy Copy Copy Copy Copy Copy Copy Copy Copy Copy Copy</title>
    <g id="37">
      <defs>
        <path id="38" d="M104.876,257.407 C105.995,257.407,106.902,258.288,106.902,259.375 C106.902,260.462,105.995,261.343,104.876,261.343 C103.758,261.343,102.851,260.462,102.851,259.375 C102.851,258.288,103.758,257.407,104.876,257.407 z"/>
      </defs>
      <use xlink:href="#38" style="fill:#000000;fill-opacity:1;fill-rule:evenodd;opacity:1;stroke:none;"/>
      <use xlink:href="#38" style="fill:none;opacity:1;stroke:#000000;stroke-linecap:butt;stroke-linejoin:miter;stroke-miterlimit:10;stroke-opacity:1;stroke-width:0;"/>
    </g>
  </defs>
  <use xlink:href="#37"/>
  <defs>
    <title>Path Copy Copy Copy Copy Copy Copy Copy Copy Copy Copy Copy Copy Copy</title>
    <g id="39">
      <defs>
        <path id="40" d="M104.876,246.42 C105.995,246.42,106.902,247.302,106.902,248.388 C106.902,249.475,105.995,250.356,104.876,250.356 C103.758,250.356,102.851,249.475,102.851,248.388 C102.851,247.302,103.758,246.42,104.876,246.42 z"/>
      </defs>
      <use xlink:href="#40" style="fill:#000000;fill-opacity:1;fill-rule:evenodd;opacity:1;stroke:none;"/>
      <use xlink:href="#40" style="fill:none;opacity:1;stroke:#000000;stroke-linecap:butt;stroke-linejoin:miter;stroke-miterlimit:10;stroke-opacity:1;stroke-width:0;"/>
    </g>
  </defs>
  <use xlink:href="#39"/>
  <defs>
    <title>Path Copy Copy Copy Copy</title>
    <g id="41">
      <defs>
        <path id="42" d="M104.876,224.365 C105.995,224.365,106.902,225.246,106.902,226.333 C106.902,227.42,105.995,228.301,104.876,228.301 C103.758,228.301,102.851,227.42,102.851,226.333 C102.851,225.246,103.758,224.365,104.876,224.365 z"/>
      </defs>
      <use xlink:href="#42" style="fill:#000000;fill-opacity:1;fill-rule:evenodd;opacity:1;stroke:none;"/>
      <use xlink:href="#42" style="fill:none;opacity:1;stroke:#000000;stroke-linecap:butt;stroke-linejoin:miter;stroke-miterlimit:10;stroke-opacity:1;stroke-width:0;"/>
    </g>
  </defs>
  <use xlink:href="#41"/>
  <defs>
    <title>Path Copy Copy Copy Copy Copy</title>
    <g id="43">
      <defs>
        <path id="44" d="M104.876,213.7 C105.995,213.7,106.902,214.581,106.902,215.668 C106.902,216.754,105.995,217.636,104.876,217.636 C103.758,217.636,102.851,216.754,102.851,215.668 C102.851,214.581,103.758,213.7,104.876,213.7 z"/>
      </defs>
      <use xlink:href="#44" style="fill:#000000;fill-opacity:1;fill-rule:evenodd;opacity:1;stroke:none;"/>
      <use xlink:href="#44" style="fill:none;opacity:1;stroke:#000000;stroke-linecap:butt;stroke-linejoin:miter;stroke-miterlimit:10;stroke-opacity:1;stroke-width:0;"/>
    </g>
  </defs>
  <use xlink:href="#43"/>
  <defs>
    <title>Path Copy Copy Copy Copy Copy Copy</title>
    <g id="45">
      <defs>
        <path id="46" d="M104.876,203.088 C105.995,203.088,106.902,203.969,106.902,205.056 C106.902,206.143,105.995,207.024,104.876,207.024 C103.758,207.024,102.851,206.143,102.851,205.056 C102.851,203.969,103.758,203.088,104.876,203.088 z"/>
      </defs>
      <use xlink:href="#46" style="fill:#000000;fill-opacity:1;fill-rule:evenodd;opacity:1;stroke:none;"/>
      <use xlink:href="#46" style="fill:none;opacity:1;stroke:#000000;stroke-linecap:butt;stroke-linejoin:miter;stroke-miterlimit:10;stroke-opacity:1;stroke-width:0;"/>
    </g>
  </defs>
  <use xlink:href="#45"/>
  <defs>
    <title>Path Copy Copy Copy Copy Copy Copy Copy</title>
    <g id="47">
      <defs>
        <path id="48" d="M115.325,203.088 C116.444,203.088,117.351,203.969,117.351,205.056 C117.351,206.143,116.444,207.024,115.325,207.024 C114.207,207.024,113.3,206.143,113.3,205.056 C113.3,203.969,114.207,203.088,115.325,203.088 z"/>
      </defs>
      <use xlink:href="#48" style="fill:#000000;fill-opacity:1;fill-rule:evenodd;opacity:1;stroke:none;"/>
      <use xlink:href="#48" style="fill:none;opacity:1;stroke:#000000;stroke-linecap:butt;stroke-linejoin:miter;stroke-miterlimit:10;stroke-opacity:1;stroke-width:0;"/>
    </g>
  </defs>
  <use xlink:href="#47"/>
  <defs>
    <title>Path Copy Copy Copy Copy Copy Copy Copy Copy</title>
    <g id="49">
      <defs>
        <path id="50" d="M127.94,203.088 C129.059,203.088,129.965,203.969,129.965,205.056 C129.965,206.143,129.059,207.024,127.94,207.024 C126.821,207.024,125.915,206.143,125.915,205.056 C125.915,203.969,126.821,203.088,127.94,203.088 z"/>
      </defs>
      <use xlink:href="#50" style="fill:#000000;fill-opacity:1;fill-rule:evenodd;opacity:1;stroke:none;"/>
      <use xlink:href="#50" style="fill:none;opacity:1;stroke:#000000;stroke-linecap:butt;stroke-linejoin:miter;stroke-miterlimit:10;stroke-opacity:1;stroke-width:0;"/>
    </g>
  </defs>
  <use xlink:href="#49"/>
  <defs>
    <title>Path Copy Copy Copy Copy Copy Copy Copy Copy Copy</title>
    <g id="51">
      <defs>
        <path id="52" d="M137.956,203.088 C139.075,203.088,139.981,203.969,139.981,205.056 C139.981,206.143,139.075,207.024,137.956,207.024 C136.837,207.024,135.931,206.143,135.931,205.056 C135.931,203.969,136.837,203.088,137.956,203.088 z"/>
      </defs>
      <use xlink:href="#52" style="fill:#000000;fill-opacity:1;fill-rule:evenodd;opacity:1;stroke:none;"/>
      <use xlink:href="#52" style="fill:none;opacity:1;stroke:#000000;stroke-linecap:butt;stroke-linejoin:miter;stroke-miterlimit:10;stroke-opacity:1;stroke-width:0;"/>
    </g>
  </defs>
  <use xlink:href="#51"/>
  <defs>
    <title>Path Copy Copy Copy Copy Copy Copy Copy Copy Copy Copy</title>
    <g id="53">
      <defs>
        <path id="54" d="M148.08,203.088 C149.199,203.088,150.106,203.969,150.106,205.056 C150.106,206.143,149.199,207.024,148.08,207.024 C146.962,207.024,146.055,206.143,146.055,205.056 C146.055,203.969,146.962,203.088,148.08,203.088 z"/>
      </defs>
      <use xlink:href="#54" style="fill:#000000;fill-opacity:1;fill-rule:evenodd;opacity:1;stroke:none;"/>
      <use xlink:href="#54" style="fill:none;opacity:1;stroke:#000000;stroke-linecap:butt;stroke-linejoin:miter;stroke-miterlimit:10;stroke-opacity:1;stroke-width:0;"/>
    </g>
  </defs>
  <use xlink:href="#53"/>
  <defs>
    <title>Path Copy Copy Copy</title>
    <g id="55">
      <defs>
        <path id="56" d="M171.972,203.088 C173.09,203.088,173.997,203.969,173.997,205.056 C173.997,206.143,173.09,207.024,171.972,207.024 C170.853,207.024,169.946,206.143,169.946,205.056 C169.946,203.969,170.853,203.088,171.972,203.088 z"/>
      </defs>
      <use xlink:href="#56" style="fill:#000000;fill-opacity:1;fill-rule:evenodd;opacity:1;stroke:none;"/>
      <use xlink:href="#56" style="fill:none;opacity:1;stroke:#000000;stroke-linecap:butt;stroke-linejoin:miter;stroke-miterlimit:10;stroke-opacity:1;stroke-width:0;"/>
    </g>
  </defs>
  <use xlink:href="#55"/>
  <defs>
    <title>Path Copy Copy Copy Copy</title>
    <g id="57">
      <defs>
        <path id="58" d="M184.949,203.088 C186.067,203.088,186.974,203.969,186.974,205.056 C186.974,206.143,186.067,207.024,184.949,207.024 C183.83,207.024,182.923,206.143,182.923,205.056 C182.923,203.969,183.83,203.088,184.949,203.088 z"/>
      </defs>
      <use xlink:href="#58" style="fill:#000000;fill-opacity:1;fill-rule:evenodd;opacity:1;stroke:none;"/>
      <use xlink:href="#58" style="fill:none;opacity:1;stroke:#000000;stroke-linecap:butt;stroke-linejoin:miter;stroke-miterlimit:10;stroke-opacity:1;stroke-width:0;"/>
    </g>
  </defs>
  <use xlink:href="#57"/>
  <defs>
    <title>Path Copy Copy Copy Copy Copy</title>
    <g id="59">
      <defs>
        <path id="60" d="M195.713,203.088 C196.831,203.088,197.738,203.969,197.738,205.056 C197.738,206.143,196.831,207.024,195.713,207.024 C194.594,207.024,193.687,206.143,193.687,205.056 C193.687,203.969,194.594,203.088,195.713,203.088 z"/>
      </defs>
      <use xlink:href="#60" style="fill:#000000;fill-opacity:1;fill-rule:evenodd;opacity:1;stroke:none;"/>
      <use xlink:href="#60" style="fill:none;opacity:1;stroke:#000000;stroke-linecap:butt;stroke-linejoin:miter;stroke-miterlimit:10;stroke-opacity:1;stroke-width:0;"/>
    </g>
  </defs>
  <use xlink:href="#59"/>
  <defs>
    <title>Path Copy Copy Copy Copy Copy Copy</title>
    <g id="61">
      <defs>
        <path id="62" d="M207.613,203.088 C208.732,203.088,209.639,203.969,209.639,205.056 C209.639,206.143,208.732,207.024,207.613,207.024 C206.495,207.024,205.588,206.143,205.588,205.056 C205.588,203.969,206.495,203.088,207.613,203.088 z"/>
      </defs>
      <use xlink:href="#62" style="fill:#000000;fill-opacity:1;fill-rule:evenodd;opacity:1;stroke:none;"/>
      <use xlink:href="#62" style="fill:none;opacity:1;stroke:#000000;stroke-linecap:butt;stroke-linejoin:miter;stroke-miterlimit:10;stroke-opacity:1;stroke-width:0;"/>
    </g>
  </defs>
  <use xlink:href="#61"/>
  <defs>
    <title>Path Copy Copy Copy Copy Copy Copy Copy</title>
    <g id="63">
      <defs>
        <path id="64" d="M219.633,203.088 C220.752,203.088,221.659,203.969,221.659,205.056 C221.659,206.143,220.752,207.024,219.633,207.024 C218.515,207.024,217.608,206.143,217.608,205.056 C217.608,203.969,218.515,203.088,219.633,203.088 z"/>
      </defs>
      <use xlink:href="#64" style="fill:#000000;fill-opacity:1;fill-rule:evenodd;opacity:1;stroke:none;"/>
      <use xlink:href="#64" style="fill:none;opacity:1;stroke:#000000;stroke-linecap:butt;stroke-linejoin:miter;stroke-miterlimit:10;stroke-opacity:1;stroke-width:0;"/>
    </g>
  </defs>
  <use xlink:href="#63"/>
  <defs>
    <title>Path Copy Copy Copy Copy Copy Copy Copy Copy</title>
    <g id="65">
      <defs>
        <path id="66" d="M231.115,203.088 C232.234,203.088,233.141,203.969,233.141,205.056 C233.141,206.143,232.234,207.024,231.115,207.024 C229.997,207.024,229.09,206.143,229.09,205.056 C229.09,203.969,229.997,203.088,231.115,203.088 z"/>
      </defs>
      <use xlink:href="#66" style="fill:#000000;fill-opacity:1;fill-rule:evenodd;opacity:1;stroke:none;"/>
      <use xlink:href="#66" style="fill:none;opacity:1;stroke:#000000;stroke-linecap:butt;stroke-linejoin:miter;stroke-miterlimit:10;stroke-opacity:1;stroke-width:0;"/>
    </g>
  </defs>
  <use xlink:href="#65"/>
  <defs>
    <title>Path Copy Copy Copy Copy Copy Copy Copy Copy Copy</title>
    <g id="67">
      <defs>
        <path id="68" d="M242.238,203.088 C243.357,203.088,244.264,203.969,244.264,205.056 C244.264,206.143,243.357,207.024,242.238,207.024 C241.12,207.024,240.213,206.143,240.213,205.056 C240.213,203.969,241.12,203.088,242.238,203.088 z"/>
      </defs>
      <use xlink:href="#68" style="fill:#000000;fill-opacity:1;fill-rule:evenodd;opacity:1;stroke:none;"/>
      <use xlink:href="#68" style="fill:none;opacity:1;stroke:#000000;stroke-linecap:butt;stroke-linejoin:miter;stroke-miterlimit:10;stroke-opacity:1;stroke-width:0;"/>
    </g>
  </defs>
  <use xlink:href="#67"/>
  <defs>
    <title>Path Copy Copy</title>
    <g id="69">
      <defs>
        <path id="70" d="M263.273,203.088 C264.391,203.088,265.298,203.969,265.298,205.056 C265.298,206.143,264.391,207.024,263.273,207.024 C262.154,207.024,261.247,206.143,261.247,205.056 C261.247,203.969,262.154,203.088,263.273,203.088 z"/>
      </defs>
      <use xlink:href="#70" style="fill:#000000;fill-opacity:1;fill-rule:evenodd;opacity:1;stroke:none;"/>
      <use xlink:href="#70" style="fill:none;opacity:1;stroke:#000000;stroke-linecap:butt;stroke-linejoin:miter;stroke-miterlimit:10;stroke-opacity:1;stroke-width:0;"/>
    </g>
  </defs>
  <use xlink:href="#69"/>
  <defs>
    <title>Path Copy Copy Copy</title>
    <g id="71">
      <defs>
        <path id="72" d="M277.91,203.088 C279.029,203.088,279.936,203.969,279.936,205.056 C279.936,206.143,279.029,207.024,277.91,207.024 C276.792,207.024,275.885,206.143,275.885,205.056 C275.885,203.969,276.792,203.088,277.91,203.088 z"/>
      </defs>
      <use xlink:href="#72" style="fill:#000000;fill-opacity:1;fill-rule:evenodd;opacity:1;stroke:none;"/>
      <use xlink:href="#72" style="fill:none;opacity:1;stroke:#000000;stroke-linecap:butt;stroke-linejoin:miter;stroke-miterlimit:10;stroke-opacity:1;stroke-width:0;"/>
    </g>
  </defs>
  <use xlink:href="#71"/>
  <defs>
    <title>Path Copy Copy Copy Copy</title>
    <g id="73">
      <defs>
        <path id="74" d="M290.128,203.088 C291.247,203.088,292.154,203.969,292.154,205.056 C292.154,206.143,291.247,207.024,290.128,207.024 C289.01,207.024,288.103,206.143,288.103,205.056 C288.103,203.969,289.01,203.088,290.128,203.088 z"/>
      </defs>
      <use xlink:href="#74" style="fill:#000000;fill-opacity:1;fill-rule:evenodd;opacity:1;stroke:none;"/>
      <use xlink:href="#74" style="fill:none;opacity:1;stroke:#000000;stroke-linecap:butt;stroke-linejoin:miter;stroke-miterlimit:10;stroke-opacity:1;stroke-width:0;"/>
    </g>
  </defs>
  <use xlink:href="#73"/>
  <defs>
    <title>Path Copy Copy Copy Copy Copy</title>
    <g id="75">
      <defs>
        <path id="76" d="M303.072,203.088 C304.191,203.088,305.097,203.969,305.097,205.056 C305.097,206.143,304.191,207.024,303.072,207.024 C301.953,207.024,301.047,206.143,301.047,205.056 C301.047,203.969,301.953,203.088,303.072,203.088 z"/>
      </defs>
      <use xlink:href="#76" style="fill:#000000;fill-opacity:1;fill-rule:evenodd;opacity:1;stroke:none;"/>
      <use xlink:href="#76" style="fill:none;opacity:1;stroke:#000000;stroke-linecap:butt;stroke-linejoin:miter;stroke-miterlimit:10;stroke-opacity:1;stroke-width:0;"/>
    </g>
  </defs>
  <use xlink:href="#75"/>
  <defs>
    <title>Path Copy Copy Copy Copy Copy Copy</title>
    <g id="77">
      <defs>
        <path id="78" d="M313.354,203.088 C314.473,203.088,315.38,203.969,315.38,205.056 C315.38,206.143,314.473,207.024,313.354,207.024 C312.236,207.024,311.329,206.143,311.329,205.056 C311.329,203.969,312.236,203.088,313.354,203.088 z"/>
      </defs>
      <use xlink:href="#78" style="fill:#000000;fill-opacity:1;fill-rule:evenodd;opacity:1;stroke:none;"/>
      <use xlink:href="#78" style="fill:none;opacity:1;stroke:#000000;stroke-linecap:butt;stroke-linejoin:miter;stroke-miterlimit:10;stroke-opacity:1;stroke-width:0;"/>
    </g>
  </defs>
  <use xlink:href="#77"/>
  <defs>
    <title>Path Copy Copy Copy Copy Copy Copy Copy</title>
    <g id="79">
      <defs>
        <path id="80" d="M325.512,203.088 C326.631,203.088,327.537,203.969,327.537,205.056 C327.537,206.143,326.631,207.024,325.512,207.024 C324.393,207.024,323.486,206.143,323.486,205.056 C323.486,203.969,324.393,203.088,325.512,203.088 z"/>
      </defs>
      <use xlink:href="#80" style="fill:#000000;fill-opacity:1;fill-rule:evenodd;opacity:1;stroke:none;"/>
      <use xlink:href="#80" style="fill:none;opacity:1;stroke:#000000;stroke-linecap:butt;stroke-linejoin:miter;stroke-miterlimit:10;stroke-opacity:1;stroke-width:0;"/>
    </g>
  </defs>
  <use xlink:href="#79"/>
  <defs>
    <title>Path Copy Copy Copy Copy Copy Copy Copy Copy</title>
    <g id="81">
      <defs>
        <path id="82" d="M339.182,203.088 C340.3,203.088,341.207,203.969,341.207,205.056 C341.207,206.143,340.3,207.024,339.182,207.024 C338.063,207.024,337.156,206.143,337.156,205.056 C337.156,203.969,338.063,203.088,339.182,203.088 z"/>
      </defs>
      <use xlink:href="#82" style="fill:#000000;fill-opacity:1;fill-rule:evenodd;opacity:1;stroke:none;"/>
      <use xlink:href="#82" style="fill:none;opacity:1;stroke:#000000;stroke-linecap:butt;stroke-linejoin:miter;stroke-miterlimit:10;stroke-opacity:1;stroke-width:0;"/>
    </g>
  </defs>
  <use xlink:href="#81"/>
  <defs>
    <title>Path Copy</title>
    <g id="83">
      <defs>
        <path id="84" d="M330.238,311.471 C331.356,311.471,332.263,312.352,332.263,313.439 C332.263,314.526,331.356,315.407,330.238,315.407 C329.119,315.407,328.212,314.526,328.212,313.439 C328.212,312.352,329.119,311.471,330.238,311.471 z"/>
      </defs>
      <use xlink:href="#84" style="fill:#000000;fill-opacity:1;fill-rule:evenodd;opacity:1;stroke:none;"/>
      <use xlink:href="#84" style="fill:none;opacity:1;stroke:#000000;stroke-linecap:butt;stroke-linejoin:miter;stroke-miterlimit:10;stroke-opacity:1;stroke-width:0;"/>
    </g>
  </defs>
  <use xlink:href="#83"/>
  <defs>
    <title>Path Copy Copy</title>
    <g id="85">
      <defs>
        <path id="86" d="M214.423,310.654 C215.541,310.654,216.448,311.535,216.448,312.622 C216.448,313.709,215.541,314.59,214.423,314.59 C213.304,314.59,212.397,313.709,212.397,312.622 C212.397,311.535,213.304,310.654,214.423,310.654 z"/>
      </defs>
      <use xlink:href="#86" style="fill:#000000;fill-opacity:1;fill-rule:evenodd;opacity:1;stroke:none;"/>
      <use xlink:href="#86" style="fill:none;opacity:1;stroke:#000000;stroke-linecap:butt;stroke-linejoin:miter;stroke-miterlimit:10;stroke-opacity:1;stroke-width:0;"/>
    </g>
  </defs>
  <use xlink:href="#85"/>
  <defs>
    <title>Path Copy Copy Copy</title>
    <g id="87">
      <defs>
        <path id="88" d="M227.5,310.768 C228.619,310.768,229.525,311.649,229.525,312.736 C229.525,313.822,228.619,314.704,227.5,314.704 C226.381,314.704,225.475,313.822,225.475,312.736 C225.475,311.649,226.381,310.768,227.5,310.768 z"/>
      </defs>
      <use xlink:href="#88" style="fill:#000000;fill-opacity:1;fill-rule:evenodd;opacity:1;stroke:none;"/>
      <use xlink:href="#88" style="fill:none;opacity:1;stroke:#000000;stroke-linecap:butt;stroke-linejoin:miter;stroke-miterlimit:10;stroke-opacity:1;stroke-width:0;"/>
    </g>
  </defs>
  <use xlink:href="#87"/>
  <defs>
    <title>Path Copy Copy Copy Copy</title>
    <g id="89">
      <defs>
        <path id="90" d="M241.11,310.654 C242.229,310.654,243.135,311.535,243.135,312.622 C243.135,313.709,242.229,314.59,241.11,314.59 C239.991,314.59,239.085,313.709,239.085,312.622 C239.085,311.535,239.991,310.654,241.11,310.654 z"/>
      </defs>
      <use xlink:href="#90" style="fill:#000000;fill-opacity:1;fill-rule:evenodd;opacity:1;stroke:none;"/>
      <use xlink:href="#90" style="fill:none;opacity:1;stroke:#000000;stroke-linecap:butt;stroke-linejoin:miter;stroke-miterlimit:10;stroke-opacity:1;stroke-width:0;"/>
    </g>
  </defs>
  <use xlink:href="#89"/>
  <defs>
    <title>Path Copy Copy Copy Copy Copy</title>
    <g id="91">
      <defs>
        <path id="92" d="M254.578,314.59 C255.696,314.59,256.603,313.734,256.603,312.679 C256.603,311.623,255.696,310.768,254.578,310.768 C253.459,310.768,252.552,311.623,252.552,312.679 C252.552,313.734,253.459,314.59,254.578,314.59 z"/>
      </defs>
      <use xlink:href="#92" style="fill:#000000;fill-opacity:1;fill-rule:evenodd;opacity:1;stroke:none;"/>
      <use xlink:href="#92" style="fill:none;opacity:1;stroke:#000000;stroke-linecap:butt;stroke-linejoin:miter;stroke-miterlimit:10;stroke-opacity:1;stroke-width:0;"/>
    </g>
  </defs>
  <use xlink:href="#91"/>
  <defs>
    <title>Path Copy Copy Copy Copy Copy Copy</title>
    <g id="93">
      <defs>
        <path id="94" d="M266.281,310.768 C267.399,310.768,268.306,311.649,268.306,312.736 C268.306,313.822,267.399,314.704,266.281,314.704 C265.162,314.704,264.255,313.822,264.255,312.736 C264.255,311.649,265.162,310.768,266.281,310.768 z"/>
      </defs>
      <use xlink:href="#94" style="fill:#000000;fill-opacity:1;fill-rule:evenodd;opacity:1;stroke:none;"/>
      <use xlink:href="#94" style="fill:none;opacity:1;stroke:#000000;stroke-linecap:butt;stroke-linejoin:miter;stroke-miterlimit:10;stroke-opacity:1;stroke-width:0;"/>
    </g>
  </defs>
  <use xlink:href="#93"/>
  <defs>
    <title>Path Copy Copy Copy Copy Copy Copy Copy</title>
    <g id="95">
      <defs>
        <path id="96" d="M278.058,310.768 C279.177,310.768,280.084,311.649,280.084,312.736 C280.084,313.822,279.177,314.704,278.058,314.704 C276.94,314.704,276.033,313.822,276.033,312.736 C276.033,311.649,276.94,310.768,278.058,310.768 z"/>
      </defs>
      <use xlink:href="#96" style="fill:#000000;fill-opacity:1;fill-rule:evenodd;opacity:1;stroke:none;"/>
      <use xlink:href="#96" style="fill:none;opacity:1;stroke:#000000;stroke-linecap:butt;stroke-linejoin:miter;stroke-miterlimit:10;stroke-opacity:1;stroke-width:0;"/>
    </g>
  </defs>
  <use xlink:href="#95"/>
  <defs>
    <title>Path Copy Copy Copy Copy Copy Copy Copy Copy</title>
    <g id="97">
      <defs>
        <path id="98" d="M289.761,310.768 C290.88,310.768,291.787,311.649,291.787,312.736 C291.787,313.822,290.88,314.704,289.761,314.704 C288.643,314.704,287.736,313.822,287.736,312.736 C287.736,311.649,288.643,310.768,289.761,310.768 z"/>
      </defs>
      <use xlink:href="#98" style="fill:#000000;fill-opacity:1;fill-rule:evenodd;opacity:1;stroke:none;"/>
      <use xlink:href="#98" style="fill:none;opacity:1;stroke:#000000;stroke-linecap:butt;stroke-linejoin:miter;stroke-miterlimit:10;stroke-opacity:1;stroke-width:0;"/>
    </g>
  </defs>
  <use xlink:href="#97"/>
  <defs>
    <title>Path Copy Copy Copy Copy Copy Copy Copy Copy Copy</title>
    <g id="99">
      <defs>
        <path id="100" d="M302.346,311.471 C303.465,311.471,304.372,312.352,304.372,313.439 C304.372,314.526,303.465,315.407,302.346,315.407 C301.228,315.407,300.321,314.526,300.321,313.439 C300.321,312.352,301.228,311.471,302.346,311.471 z"/>
      </defs>
      <use xlink:href="#100" style="fill:#000000;fill-opacity:1;fill-rule:evenodd;opacity:1;stroke:none;"/>
      <use xlink:href="#100" style="fill:none;opacity:1;stroke:#000000;stroke-linecap:butt;stroke-linejoin:miter;stroke-miterlimit:10;stroke-opacity:1;stroke-width:0;"/>
    </g>
  </defs>
  <use xlink:href="#99"/>
  <defs>
    <title>Path Copy Copy Copy Copy Copy Copy Copy Copy Copy Copy</title>
    <g id="101">
      <defs>
        <path id="102" d="M315.702,311.471 C316.821,311.471,317.727,312.352,317.727,313.439 C317.727,314.526,316.821,315.407,315.702,315.407 C314.583,315.407,313.677,314.526,313.677,313.439 C313.677,312.352,314.583,311.471,315.702,311.471 z"/>
      </defs>
      <use xlink:href="#102" style="fill:#000000;fill-opacity:1;fill-rule:evenodd;opacity:1;stroke:none;"/>
      <use xlink:href="#102" style="fill:none;opacity:1;stroke:#000000;stroke-linecap:butt;stroke-linejoin:miter;stroke-miterlimit:10;stroke-opacity:1;stroke-width:0;"/>
    </g>
  </defs>
  <use xlink:href="#101"/>
  <defs>
    <title>Path Copy</title>
    <g id="103">
      <defs>
        <path id="104" d="M352.307,262.285 C353.425,262.285,354.332,263.166,354.332,264.252 C354.332,265.339,353.425,266.22,352.307,266.22 C351.188,266.22,350.281,265.339,350.281,264.252 C350.281,263.166,351.188,262.285,352.307,262.285 z"/>
      </defs>
      <use xlink:href="#104" style="fill:#000000;fill-opacity:1;fill-rule:evenodd;opacity:1;stroke:none;"/>
      <use xlink:href="#104" style="fill:none;opacity:1;stroke:#000000;stroke-linecap:butt;stroke-linejoin:miter;stroke-miterlimit:10;stroke-opacity:1;stroke-width:0;"/>
    </g>
  </defs>
  <use xlink:href="#103"/>
  <defs>
    <title>Path Copy Copy</title>
    <g id="105">
      <defs>
        <path id="106" d="M352.307,293.221 C353.425,293.221,354.332,294.102,354.332,295.189 C354.332,296.276,353.425,297.157,352.307,297.157 C351.188,297.157,350.281,296.276,350.281,295.189 C350.281,294.102,351.188,293.221,352.307,293.221 z"/>
      </defs>
      <use xlink:href="#106" style="fill:#000000;fill-opacity:1;fill-rule:evenodd;opacity:1;stroke:none;"/>
      <use xlink:href="#106" style="fill:none;opacity:1;stroke:#000000;stroke-linecap:butt;stroke-linejoin:miter;stroke-miterlimit:10;stroke-opacity:1;stroke-width:0;"/>
    </g>
  </defs>
  <use xlink:href="#105"/>
  <defs>
    <title>Path Copy Copy Copy</title>
    <g id="107">
      <defs>
        <path id="108" d="M342.348,311.471 C343.466,311.471,344.373,312.352,344.373,313.439 C344.373,314.526,343.466,315.407,342.348,315.407 C341.229,315.407,340.322,314.526,340.322,313.439 C340.322,312.352,341.229,311.471,342.348,311.471 z"/>
      </defs>
      <use xlink:href="#108" style="fill:#000000;fill-opacity:1;fill-rule:evenodd;opacity:1;stroke:none;"/>
      <use xlink:href="#108" style="fill:none;opacity:1;stroke:#000000;stroke-linecap:butt;stroke-linejoin:miter;stroke-miterlimit:10;stroke-opacity:1;stroke-width:0;"/>
    </g>
  </defs>
  <use xlink:href="#107"/>
  <defs>
    <title>Path Copy Copy Copy Copy</title>
    <g id="109">
      <defs>
        <path id="110" d="M352.307,311.471 C353.425,311.471,354.332,312.352,354.332,313.439 C354.332,314.526,353.425,315.407,352.307,315.407 C351.188,315.407,350.281,314.526,350.281,313.439 C350.281,312.352,351.188,311.471,352.307,311.471 z"/>
      </defs>
      <use xlink:href="#110" style="fill:#000000;fill-opacity:1;fill-rule:evenodd;opacity:1;stroke:none;"/>
      <use xlink:href="#110" style="fill:none;opacity:1;stroke:#000000;stroke-linecap:butt;stroke-linejoin:miter;stroke-miterlimit:10;stroke-opacity:1;stroke-width:0;"/>
    </g>
  </defs>
  <use xlink:href="#109"/>
  <defs>
    <title>Path Copy Copy Copy Copy Copy</title>
    <g id="111">
      <defs>
        <path id="112" d="M352.307,302.782 C353.425,302.782,354.332,303.663,354.332,304.75 C354.332,305.837,353.425,306.718,352.307,306.718 C351.188,306.718,350.281,305.837,350.281,304.75 C350.281,303.663,351.188,302.782,352.307,302.782 z"/>
      </defs>
      <use xlink:href="#112" style="fill:#000000;fill-opacity:1;fill-rule:evenodd;opacity:1;stroke:none;"/>
      <use xlink:href="#112" style="fill:none;opacity:1;stroke:#000000;stroke-linecap:butt;stroke-linejoin:miter;stroke-miterlimit:10;stroke-opacity:1;stroke-width:0;"/>
    </g>
  </defs>
  <use xlink:href="#111"/>
  <defs>
    <title>Path Copy Copy Copy</title>
    <g id="113">
      <defs>
        <path id="114" d="M352.307,282.465 C353.425,282.465,354.332,283.346,354.332,284.433 C354.332,285.52,353.425,286.401,352.307,286.401 C351.188,286.401,350.281,285.52,350.281,284.433 C350.281,283.346,351.188,282.465,352.307,282.465 z"/>
      </defs>
      <use xlink:href="#114" style="fill:#000000;fill-opacity:1;fill-rule:evenodd;opacity:1;stroke:none;"/>
      <use xlink:href="#114" style="fill:none;opacity:1;stroke:#000000;stroke-linecap:butt;stroke-linejoin:miter;stroke-miterlimit:10;stroke-opacity:1;stroke-width:0;"/>
    </g>
  </defs>
  <use xlink:href="#113"/>
  <defs>
    <title>Path Copy Copy Copy Copy</title>
    <g id="115">
      <defs>
        <path id="116" d="M352.307,272.005 C353.425,272.005,354.332,272.886,354.332,273.972 C354.332,275.059,353.425,275.94,352.307,275.94 C351.188,275.94,350.281,275.059,350.281,273.972 C350.281,272.886,351.188,272.005,352.307,272.005 z"/>
      </defs>
      <use xlink:href="#116" style="fill:#000000;fill-opacity:1;fill-rule:evenodd;opacity:1;stroke:none;"/>
      <use xlink:href="#116" style="fill:none;opacity:1;stroke:#000000;stroke-linecap:butt;stroke-linejoin:miter;stroke-miterlimit:10;stroke-opacity:1;stroke-width:0;"/>
    </g>
  </defs>
  <use xlink:href="#115"/>
  <defs>
    <title>Path Copy</title>
    <g id="117">
      <defs>
        <path id="118" d="M352.307,231.409 C353.425,231.409,354.332,232.29,354.332,233.377 C354.332,234.463,353.425,235.345,352.307,235.345 C351.188,235.345,350.281,234.463,350.281,233.377 C350.281,232.29,351.188,231.409,352.307,231.409 z"/>
      </defs>
      <use xlink:href="#118" style="fill:#000000;fill-opacity:1;fill-rule:evenodd;opacity:1;stroke:none;"/>
      <use xlink:href="#118" style="fill:none;opacity:1;stroke:#000000;stroke-linecap:butt;stroke-linejoin:miter;stroke-miterlimit:10;stroke-opacity:1;stroke-width:0;"/>
    </g>
  </defs>
  <use xlink:href="#117"/>
  <defs>
    <title>Path Copy Copy</title>
    <g id="119">
      <defs>
        <path id="120" d="M352.307,221.411 C353.425,221.411,354.332,222.292,354.332,223.379 C354.332,224.466,353.425,225.347,352.307,225.347 C351.188,225.347,350.281,224.466,350.281,223.379 C350.281,222.292,351.188,221.411,352.307,221.411 z"/>
      </defs>
      <use xlink:href="#120" style="fill:#000000;fill-opacity:1;fill-rule:evenodd;opacity:1;stroke:none;"/>
      <use xlink:href="#120" style="fill:none;opacity:1;stroke:#000000;stroke-linecap:butt;stroke-linejoin:miter;stroke-miterlimit:10;stroke-opacity:1;stroke-width:0;"/>
    </g>
  </defs>
  <use xlink:href="#119"/>
  <defs>
    <title>Path Copy Copy Copy</title>
    <g id="121">
      <defs>
        <path id="122" d="M352.307,241.673 C353.425,241.673,354.332,242.554,354.332,243.641 C354.332,244.728,353.425,245.609,352.307,245.609 C351.188,245.609,350.281,244.728,350.281,243.641 C350.281,242.554,351.188,241.673,352.307,241.673 z"/>
      </defs>
      <use xlink:href="#122" style="fill:#000000;fill-opacity:1;fill-rule:evenodd;opacity:1;stroke:none;"/>
      <use xlink:href="#122" style="fill:none;opacity:1;stroke:#000000;stroke-linecap:butt;stroke-linejoin:miter;stroke-miterlimit:10;stroke-opacity:1;stroke-width:0;"/>
    </g>
  </defs>
  <use xlink:href="#121"/>
  <defs>
    <title>Path Copy Copy Copy Copy</title>
    <g id="123">
      <defs>
        <path id="124" d="M352.307,251.588 C353.425,251.588,354.332,252.469,354.332,253.556 C354.332,254.642,353.425,255.523,352.307,255.523 C351.188,255.523,350.281,254.642,350.281,253.556 C350.281,252.469,351.188,251.588,352.307,251.588 z"/>
      </defs>
      <use xlink:href="#124" style="fill:#000000;fill-opacity:1;fill-rule:evenodd;opacity:1;stroke:none;"/>
      <use xlink:href="#124" style="fill:none;opacity:1;stroke:#000000;stroke-linecap:butt;stroke-linejoin:miter;stroke-miterlimit:10;stroke-opacity:1;stroke-width:0;"/>
    </g>
  </defs>
  <use xlink:href="#123"/>
  <defs>
    <title>Path Copy Copy Copy</title>
    <g id="125">
      <defs>
        <path id="126" d="M352.307,211.429 C353.425,211.429,354.332,212.31,354.332,213.397 C354.332,214.484,353.425,215.365,352.307,215.365 C351.188,215.365,350.281,214.484,350.281,213.397 C350.281,212.31,351.188,211.429,352.307,211.429 z"/>
      </defs>
      <use xlink:href="#126" style="fill:#000000;fill-opacity:1;fill-rule:evenodd;opacity:1;stroke:none;"/>
      <use xlink:href="#126" style="fill:none;opacity:1;stroke:#000000;stroke-linecap:butt;stroke-linejoin:miter;stroke-miterlimit:10;stroke-opacity:1;stroke-width:0;"/>
    </g>
  </defs>
  <use xlink:href="#125"/>
</svg>
