<?xml version="1.0" encoding="utf-8"?>
<svg x="847.454pt" y="230.619pt" width="20pt" height="23pt" viewBox="847.454 230.619 20 23" xmlns="http://www.w3.org/2000/svg" xmlns:xlink="http://www.w3.org/1999/xlink">
  <defs>
    <title>Shape 84 Copy</title>
    <g id="1">
      <defs>
        <path id="2" d="M850.187,234.739 C850.187,234.739,850.029,250.275,850.029,250.275 M864.371,234.739 C864.371,234.739,864.208,250.243,864.208,250.243 M850.029,250.097 C850.029,251.628,851.392,252.869,853.075,252.869 M864.208,250.097 C864.208,251.628,862.845,252.869,861.163,252.869 M853.643,252.867 C853.643,252.867,861.264,252.867,861.264,252.867 M853.643,252.867 C853.643,252.867,852.997,252.867,852.997,252.867 M854.539,238.284 C854.539,238.284,854.498,249.311,854.498,249.311 M860.064,238.284 C860.064,238.284,860.119,249.311,860.119,249.311 M852.975,234.141 C852.975,232.61,854.339,231.369,856.021,231.369 M861.642,234.141 C861.642,232.61,860.279,231.369,858.596,231.369 M856.021,231.369 C856.021,231.369,858.596,231.369,858.596,231.369 M847.454,234.739 C847.454,234.739,867.454,234.739,867.454,234.739"/>
      </defs>
      <use xlink:href="#2" style="fill:none;opacity:1;stroke:#000000;stroke-linecap:butt;stroke-linejoin:miter;stroke-miterlimit:10;stroke-opacity:1;stroke-width:1.5;"/>
    </g>
  </defs>
  <use xlink:href="#1"/>
</svg>
