<?xml version="1.0" encoding="utf-8"?>
<svg x="292.5pt" y="67.5pt" width="45pt" height="45pt" viewBox="292.5 67.5 45 45" xmlns="http://www.w3.org/2000/svg" xmlns:xlink="http://www.w3.org/1999/xlink">
  <g id="1">
    <title>Group</title>
    <defs>
      <title>Shape 2</title>
      <g id="2">
        <defs>
          <path id="3" d="M315.782,82.3493 C316.721,81.6794,317.357,80.3954,317.357,78.9214 C317.357,76.7557,315.985,75,314.292,75 C312.6,75,311.228,76.7557,311.228,78.9214 C311.228,80.5156,311.971,81.8875,313.039,82.5007 C313.039,82.5007,313.039,83.5779,313.039,83.5779 C303.041,84.7231,295.21,95.2249,295.21,108.011 C295.21,108.011,334.501,108.011,334.501,108.011 C334.501,94.8476,326.201,84.1052,315.782,83.5011 C315.782,83.5011,315.782,82.3493,315.782,82.3493 z"/>
        </defs>
        <use xlink:href="#3" style="fill:#5e5858;fill-opacity:1;fill-rule:evenodd;opacity:1;stroke:none;"/>
      </g>
    </defs>
    <use xlink:href="#2"/>
    <defs>
      <title>Path</title>
      <g id="4">
        <defs>
          <path id="5" d="M300.786,73.0296 C301.375,73.0296,303.361,77.7308,301.706,80.4802 C299.21,84.6269,300.071,87.4069,299.493,87.4956 C298.962,87.5772,295.67,83.0906,298.155,80.2908 C300.684,77.4414,300.197,73.0296,300.786,73.0296 z"/>
        </defs>
        <use xlink:href="#5" style="fill:#5e5858;fill-opacity:1;fill-rule:evenodd;opacity:1;stroke:none;"/>
      </g>
    </defs>
    <use xlink:href="#4"/>
    <defs>
      <title>Path</title>
      <g id="6">
        <defs>
          <path id="7" d="M315.596,67.5 C315.927,67.5,316.975,69.6517,316.449,70.2053 C314.978,71.757,315.161,74.0997,314.83,74.0997 C314.499,74.0997,312.62,72.2563,313.78,71.0484 C315.385,69.3766,315.265,67.5,315.596,67.5 z"/>
        </defs>
        <use xlink:href="#7" style="fill:#5e5858;fill-opacity:1;fill-rule:evenodd;opacity:1;stroke:none;"/>
      </g>
    </defs>
    <use xlink:href="#6"/>
    <defs>
      <title>Path</title>
      <g id="8">
        <defs>
          <path id="9" d="M331.098,71.3571 C331.527,71.3571,333.05,75.7123,332.344,77.3273 C330.312,81.9717,330.315,85.879,329.886,85.879 C329.457,85.879,326.243,82.6979,328.385,79.1414 C331.64,73.7377,330.668,71.3571,331.098,71.3571 z"/>
        </defs>
        <use xlink:href="#9" style="fill:#5e5858;fill-opacity:1;fill-rule:evenodd;opacity:1;stroke:none;"/>
      </g>
    </defs>
    <use xlink:href="#8"/>
    <defs>
      <title>Path</title>
      <g id="10">
        <defs>
          <path id="11" d="M312.015,87.8402 C313.371,90.9464,307.107,91.1036,304.462,95.5664 C301.773,100.104,302.125,105.664,300.16,105.432 C297.801,105.154,299.391,99.0792,302.148,94.6061 C305.09,89.8328,311.229,86.0411,312.015,87.8402 z"/>
        </defs>
        <use xlink:href="#11" style="fill:#ffffff;fill-opacity:1;fill-rule:evenodd;opacity:1;stroke:none;"/>
      </g>
    </defs>
    <use xlink:href="#10"/>
    <defs>
      <title>Smart Rectangle</title>
      <g id="12">
        <defs>
          <path id="13" d="M337.5,110.694 C337.5,111.691,336.691,112.5,335.694,112.5 C335.694,112.5,294.306,112.5,294.306,112.5 C293.309,112.5,292.5,111.691,292.5,110.694 C292.5,109.697,293.309,108.888,294.306,108.888 C294.306,108.888,335.694,108.888,335.694,108.888 C336.691,108.888,337.5,109.697,337.5,110.694 z"/>
        </defs>
        <use xlink:href="#13" style="fill:#5e5858;fill-opacity:1;fill-rule:nonzero;opacity:1;stroke:none;"/>
      </g>
    </defs>
    <use xlink:href="#12"/>
  </g>
</svg>
