<?xml version="1.0" encoding="utf-8"?>
<svg x="30pt" y="-37.5pt" width="45pt" height="45pt" viewBox="30 -37.5 45 45" xmlns="http://www.w3.org/2000/svg" xmlns:xlink="http://www.w3.org/1999/xlink">
  <g id="1">
    <title>Group</title>
    <defs>
      <title>Shape 2</title>
      <g id="2">
        <defs>
          <path id="3" d="M53.2818,-22.6507 C54.2213,-23.3206,54.8567,-24.6046,54.8567,-26.0786 C54.8567,-28.2443,53.4847,-30,51.7923,-30 C50.0999,-30,48.7279,-28.2443,48.7279,-26.0786 C48.7279,-24.4844,49.4712,-23.1125,50.5385,-22.4993 C50.5385,-22.4993,50.5385,-21.4221,50.5385,-21.4221 C40.5406,-20.2769,32.7103,-9.77509,32.7103,3.01099 C32.7103,3.01099,72.0007,3.01099,72.0007,3.01099 C72.0007,-10.1524,63.7015,-20.8948,53.2818,-21.4989 C53.2818,-21.4989,53.2818,-22.6507,53.2818,-22.6507 z"/>
        </defs>
        <use xlink:href="#3" style="fill:#595959;fill-opacity:1;fill-rule:evenodd;opacity:1;stroke:none;"/>
      </g>
    </defs>
    <use xlink:href="#2"/>
    <defs>
      <title>Path</title>
      <g id="4">
        <defs>
          <path id="5" d="M38.2856,-31.9704 C38.8745,-31.9704,40.8607,-27.2692,39.206,-24.5198 C36.7103,-20.3731,37.571,-17.5931,36.9935,-17.5044 C36.4625,-17.4228,33.1702,-21.9094,35.6551,-24.7092 C38.184,-27.5586,37.6966,-31.9704,38.2856,-31.9704 z"/>
        </defs>
        <use xlink:href="#5" style="fill:#595959;fill-opacity:1;fill-rule:evenodd;opacity:1;stroke:none;"/>
      </g>
    </defs>
    <use xlink:href="#4"/>
    <defs>
      <title>Path</title>
      <g id="6">
        <defs>
          <path id="7" d="M53.096,-37.5 C53.4268,-37.5,54.4747,-35.3483,53.9495,-34.7947 C52.4775,-33.243,52.6608,-30.9003,52.3301,-30.9003 C51.9993,-30.9003,50.1198,-32.7437,51.2796,-33.9516 C52.8848,-35.6234,52.7653,-37.5,53.096,-37.5 z"/>
        </defs>
        <use xlink:href="#7" style="fill:#595959;fill-opacity:1;fill-rule:evenodd;opacity:1;stroke:none;"/>
      </g>
    </defs>
    <use xlink:href="#6"/>
    <defs>
      <title>Path</title>
      <g id="8">
        <defs>
          <path id="9" d="M68.5976,-33.6428 C69.0268,-33.6428,70.5504,-29.2877,69.844,-27.6727 C67.8124,-23.0283,67.8153,-19.121,67.386,-19.121 C66.9568,-19.121,63.743,-22.3021,65.8852,-25.8586 C69.14,-31.2623,68.1684,-33.6428,68.5976,-33.6428 z"/>
        </defs>
        <use xlink:href="#9" style="fill:#595959;fill-opacity:1;fill-rule:evenodd;opacity:1;stroke:none;"/>
      </g>
    </defs>
    <use xlink:href="#8"/>
    <defs>
      <title>Path</title>
      <g id="10">
        <defs>
          <path id="11" d="M49.5151,-17.1598 C50.8714,-14.0536,44.607,-13.8964,41.9625,-9.4336 C39.2734,-4.89555,39.6252,0.663751,37.6599,0.431951 C35.3007,0.153685,36.891,-5.92079,39.6479,-10.3939 C42.5899,-15.1672,48.7295,-18.9589,49.5151,-17.1598 z"/>
        </defs>
        <use xlink:href="#11" style="fill:#ffffff;fill-opacity:1;fill-rule:evenodd;opacity:1;stroke:none;"/>
      </g>
    </defs>
    <use xlink:href="#10"/>
    <defs>
      <title>Smart Rectangle</title>
      <g id="12">
        <defs>
          <path id="13" d="M75,5.69406 C75,6.69145,74.1915,7.5,73.1941,7.5 C73.1941,7.5,31.8059,7.5,31.8059,7.5 C30.8085,7.5,30,6.69145,30,5.69406 C30,4.69667,30.8085,3.88813,31.8059,3.88813 C31.8059,3.88813,73.1941,3.88813,73.1941,3.88813 C74.1915,3.88813,75,4.69667,75,5.69406 z"/>
        </defs>
        <use xlink:href="#13" style="fill:#595959;fill-opacity:1;fill-rule:nonzero;opacity:1;stroke:none;"/>
      </g>
    </defs>
    <use xlink:href="#12"/>
  </g>
</svg>
