<?xml version="1.0" encoding="utf-8"?>
<svg x="292.5pt" y="15pt" width="45pt" height="45pt" viewBox="292.5 15 45 45" xmlns="http://www.w3.org/2000/svg" xmlns:xlink="http://www.w3.org/1999/xlink">
  <g id="1">
    <title>Group</title>
    <g id="2">
      <title>Group</title>
      <defs>
        <title>Path</title>
        <g id="3">
          <defs>
            <path id="4" d="M315,15 C327.426,15,337.5,25.0736,337.5,37.5 C337.5,49.9264,327.426,60,315,60 C302.574,60,292.5,49.9264,292.5,37.5 C292.5,25.0736,302.574,15,315,15 z"/>
          </defs>
          <use xlink:href="#4" style="fill:#ffa441;fill-opacity:1;fill-rule:evenodd;opacity:1;stroke:none;"/>
        </g>
      </defs>
      <use xlink:href="#3"/>
      <defs>
        <title>Path</title>
        <g id="5">
          <defs>
            <path id="6" d="M316.508,17.6006 C319.257,18.0742,321.31,19.4621,321.094,20.7007 C320.878,21.9393,318.474,22.5595,315.726,22.0859 C312.977,21.6124,310.924,20.2244,311.14,18.9859 C311.356,17.7473,313.759,17.1271,316.508,17.6006 z"/>
          </defs>
          <use xlink:href="#6" style="fill:#f28521;fill-opacity:1;fill-rule:evenodd;opacity:1;stroke:none;"/>
        </g>
      </defs>
      <use xlink:href="#5"/>
      <g id="7">
        <title>Group</title>
        <defs>
          <title>Path</title>
          <g id="8">
            <defs>
              <path id="9" d="M306.674,20.5361 C307.061,20.5361,307.375,20.8443,307.375,21.2244 C307.375,21.6045,307.061,21.9126,306.674,21.9126 C306.287,21.9126,305.973,21.6045,305.973,21.2244 C305.973,20.8443,306.287,20.5361,306.674,20.5361 z"/>
            </defs>
            <use xlink:href="#9" style="fill:#ed802b;fill-opacity:1;fill-rule:evenodd;opacity:1;stroke:none;"/>
          </g>
        </defs>
        <use xlink:href="#8"/>
        <defs>
          <title>Path Copy</title>
          <g id="10">
            <defs>
              <path id="11" d="M298.457,45.1819 C298.844,45.1819,299.158,45.49,299.158,45.8701 C299.158,46.2503,298.844,46.5584,298.457,46.5584 C298.07,46.5584,297.756,46.2503,297.756,45.8701 C297.756,45.49,298.07,45.1819,298.457,45.1819 z"/>
            </defs>
            <use xlink:href="#11" style="fill:#ed802b;fill-opacity:1;fill-rule:evenodd;opacity:1;stroke:none;"/>
          </g>
        </defs>
        <use xlink:href="#10"/>
        <defs>
          <title>Path Copy Copy</title>
          <g id="12">
            <defs>
              <path id="13" d="M309.945,41.938 C310.332,41.938,310.646,42.2461,310.646,42.6262 C310.646,43.0063,310.332,43.3145,309.945,43.3145 C309.558,43.3145,309.244,43.0063,309.244,42.6262 C309.244,42.2461,309.558,41.938,309.945,41.938 z"/>
            </defs>
            <use xlink:href="#13" style="fill:#ed802b;fill-opacity:1;fill-rule:evenodd;opacity:1;stroke:none;"/>
          </g>
        </defs>
        <use xlink:href="#12"/>
        <defs>
          <title>Path Copy Copy Copy</title>
          <g id="14">
            <defs>
              <path id="15" d="M322.282,32.2706 C322.669,32.2706,322.982,32.5788,322.982,32.9589 C322.982,33.339,322.669,33.6471,322.282,33.6471 C321.894,33.6471,321.581,33.339,321.581,32.9589 C321.581,32.5788,321.894,32.2706,322.282,32.2706 z"/>
            </defs>
            <use xlink:href="#15" style="fill:#ed802b;fill-opacity:1;fill-rule:evenodd;opacity:1;stroke:none;"/>
          </g>
        </defs>
        <use xlink:href="#14"/>
        <defs>
          <title>Path Copy Copy Copy Copy</title>
          <g id="16">
            <defs>
              <path id="17" d="M327.558,21.8365 C327.945,21.8365,328.259,22.1447,328.259,22.5248 C328.259,22.9049,327.945,23.213,327.558,23.213 C327.171,23.213,326.857,22.9049,326.857,22.5248 C326.857,22.1447,327.171,21.8365,327.558,21.8365 z"/>
            </defs>
            <use xlink:href="#17" style="fill:#ed802b;fill-opacity:1;fill-rule:evenodd;opacity:1;stroke:none;"/>
          </g>
        </defs>
        <use xlink:href="#16"/>
        <defs>
          <title>Path Copy Copy Copy Copy Copy</title>
          <g id="18">
            <defs>
              <path id="19" d="M326.497,25.5939 C326.884,25.5939,327.198,25.902,327.198,26.2821 C327.198,26.6622,326.884,26.9704,326.497,26.9704 C326.11,26.9704,325.796,26.6622,325.796,26.2821 C325.796,25.902,326.11,25.5939,326.497,25.5939 z"/>
            </defs>
            <use xlink:href="#19" style="fill:#ed802b;fill-opacity:1;fill-rule:evenodd;opacity:1;stroke:none;"/>
          </g>
        </defs>
        <use xlink:href="#18"/>
        <defs>
          <title>Path Copy Copy Copy Copy Copy Copy</title>
          <g id="20">
            <defs>
              <path id="21" d="M331.637,28.3781 C332.024,28.3781,332.338,28.6862,332.338,29.0664 C332.338,29.4465,332.024,29.7546,331.637,29.7546 C331.25,29.7546,330.936,29.4465,330.936,29.0664 C330.936,28.6862,331.25,28.3781,331.637,28.3781 z"/>
            </defs>
            <use xlink:href="#21" style="fill:#ed802b;fill-opacity:1;fill-rule:evenodd;opacity:1;stroke:none;"/>
          </g>
        </defs>
        <use xlink:href="#20"/>
        <defs>
          <title>Path Copy Copy Copy Copy Copy Copy Copy</title>
          <g id="22">
            <defs>
              <path id="23" d="M334.575,35.4603 C334.962,35.4603,335.275,35.7685,335.275,36.1486 C335.275,36.5287,334.962,36.8368,334.575,36.8368 C334.187,36.8368,333.874,36.5287,333.874,36.1486 C333.874,35.7685,334.187,35.4603,334.575,35.4603 z"/>
            </defs>
            <use xlink:href="#23" style="fill:#ed802b;fill-opacity:1;fill-rule:evenodd;opacity:1;stroke:none;"/>
          </g>
        </defs>
        <use xlink:href="#22"/>
        <defs>
          <title>Path Copy Copy Copy Copy Copy Copy Copy Copy</title>
          <g id="24">
            <defs>
              <path id="25" d="M333.895,41.2991 C334.282,41.2991,334.596,41.6072,334.596,41.9873 C334.596,42.3674,334.282,42.6756,333.895,42.6756 C333.508,42.6756,333.194,42.3674,333.194,41.9873 C333.194,41.6072,333.508,41.2991,333.895,41.2991 z"/>
            </defs>
            <use xlink:href="#25" style="fill:#ed802b;fill-opacity:1;fill-rule:evenodd;opacity:1;stroke:none;"/>
          </g>
        </defs>
        <use xlink:href="#24"/>
        <defs>
          <title>Path Copy Copy Copy Copy Copy Copy Copy Copy Copy</title>
          <g id="26">
            <defs>
              <path id="27" d="M331.746,47.1379 C332.133,47.1379,332.447,47.446,332.447,47.8261 C332.447,48.2062,332.133,48.5144,331.746,48.5144 C331.359,48.5144,331.045,48.2062,331.045,47.8261 C331.045,47.446,331.359,47.1379,331.746,47.1379 z"/>
            </defs>
            <use xlink:href="#27" style="fill:#ed802b;fill-opacity:1;fill-rule:evenodd;opacity:1;stroke:none;"/>
          </g>
        </defs>
        <use xlink:href="#26"/>
        <defs>
          <title>Path Copy Copy Copy Copy Copy Copy Copy Copy Copy Copy</title>
          <g id="28">
            <defs>
              <path id="29" d="M328.863,32.5409 C329.25,32.5409,329.564,32.8491,329.564,33.2292 C329.564,33.6093,329.25,33.9174,328.863,33.9174 C328.476,33.9174,328.162,33.6093,328.162,33.2292 C328.162,32.8491,328.476,32.5409,328.863,32.5409 z"/>
            </defs>
            <use xlink:href="#29" style="fill:#ed802b;fill-opacity:1;fill-rule:evenodd;opacity:1;stroke:none;"/>
          </g>
        </defs>
        <use xlink:href="#28"/>
        <defs>
          <title>Path Copy Copy Copy Copy Copy Copy Copy Copy Copy Copy Copy</title>
          <g id="30">
            <defs>
              <path id="31" d="M330.25,38.9473 C330.637,38.9473,330.951,39.2555,330.951,39.6356 C330.951,40.0157,330.637,40.3238,330.25,40.3238 C329.863,40.3238,329.549,40.0157,329.549,39.6356 C329.549,39.2555,329.863,38.9473,330.25,38.9473 z"/>
            </defs>
            <use xlink:href="#31" style="fill:#ed802b;fill-opacity:1;fill-rule:evenodd;opacity:1;stroke:none;"/>
          </g>
        </defs>
        <use xlink:href="#30"/>
        <defs>
          <title>Path Copy Copy Copy Copy Copy Copy Copy Copy Copy Copy Copy Copy</title>
          <g id="32">
            <defs>
              <path id="33" d="M327.041,46.9757 C327.428,46.9757,327.742,47.2838,327.742,47.6639 C327.742,48.044,327.428,48.3522,327.041,48.3522 C326.654,48.3522,326.34,48.044,326.34,47.6639 C326.34,47.2838,326.654,46.9757,327.041,46.9757 z"/>
            </defs>
            <use xlink:href="#33" style="fill:#ed802b;fill-opacity:1;fill-rule:evenodd;opacity:1;stroke:none;"/>
          </g>
        </defs>
        <use xlink:href="#32"/>
        <defs>
          <title>Path Copy Copy Copy Copy Copy Copy Copy Copy Copy Copy Copy Copy Copy</title>
          <g id="34">
            <defs>
              <path id="35" d="M325.001,38.0553 C325.388,38.0553,325.702,38.3635,325.702,38.7436 C325.702,39.1237,325.388,39.4318,325.001,39.4318 C324.614,39.4318,324.3,39.1237,324.3,38.7436 C324.3,38.3635,324.614,38.0553,325.001,38.0553 z"/>
            </defs>
            <use xlink:href="#35" style="fill:#ed802b;fill-opacity:1;fill-rule:evenodd;opacity:1;stroke:none;"/>
          </g>
        </defs>
        <use xlink:href="#34"/>
        <defs>
          <title>Path Copy Copy Copy Copy</title>
          <g id="36">
            <defs>
              <path id="37" d="M319.002,26.927 C319.389,26.927,319.703,27.2351,319.703,27.6152 C319.703,27.9953,319.389,28.3035,319.002,28.3035 C318.615,28.3035,318.301,27.9953,318.301,27.6152 C318.301,27.2351,318.615,26.927,319.002,26.927 z"/>
            </defs>
            <use xlink:href="#37" style="fill:#ed802b;fill-opacity:1;fill-rule:evenodd;opacity:1;stroke:none;"/>
          </g>
        </defs>
        <use xlink:href="#36"/>
        <defs>
          <title>Path Copy Copy Copy Copy Copy</title>
          <g id="38">
            <defs>
              <path id="39" d="M316.214,31.3394 C316.601,31.3394,316.915,31.6475,316.915,32.0276 C316.915,32.4077,316.601,32.7159,316.214,32.7159 C315.826,32.7159,315.513,32.4077,315.513,32.0276 C315.513,31.6475,315.826,31.3394,316.214,31.3394 z"/>
            </defs>
            <use xlink:href="#39" style="fill:#ed802b;fill-opacity:1;fill-rule:evenodd;opacity:1;stroke:none;"/>
          </g>
        </defs>
        <use xlink:href="#38"/>
        <defs>
          <title>Path Copy Copy Copy Copy Copy Copy</title>
          <g id="40">
            <defs>
              <path id="41" d="M316.928,40.0354 C317.315,40.0354,317.629,40.3435,317.629,40.7236 C317.629,41.1037,317.315,41.4119,316.928,41.4119 C316.54,41.4119,316.227,41.1037,316.227,40.7236 C316.227,40.3435,316.54,40.0354,316.928,40.0354 z"/>
            </defs>
            <use xlink:href="#41" style="fill:#ed802b;fill-opacity:1;fill-rule:evenodd;opacity:1;stroke:none;"/>
          </g>
        </defs>
        <use xlink:href="#40"/>
        <defs>
          <title>Path Copy Copy Copy Copy Copy Copy Copy</title>
          <g id="42">
            <defs>
              <path id="43" d="M321.039,51.8618 C321.426,51.8618,321.74,52.17,321.74,52.5501 C321.74,52.9302,321.426,53.2383,321.039,53.2383 C320.652,53.2383,320.338,52.9302,320.338,52.5501 C320.338,52.17,320.652,51.8618,321.039,51.8618 z"/>
            </defs>
            <use xlink:href="#43" style="fill:#ed802b;fill-opacity:1;fill-rule:evenodd;opacity:1;stroke:none;"/>
          </g>
        </defs>
        <use xlink:href="#42"/>
        <defs>
          <title>Path Copy Copy Copy Copy Copy Copy Copy Copy</title>
          <g id="44">
            <defs>
              <path id="45" d="M320.299,55.5373 C320.686,55.5373,321,55.8455,321,56.2256 C321,56.6057,320.686,56.9138,320.299,56.9138 C319.912,56.9138,319.598,56.6057,319.598,56.2256 C319.598,55.8455,319.912,55.5373,320.299,55.5373 z"/>
            </defs>
            <use xlink:href="#45" style="fill:#ed802b;fill-opacity:1;fill-rule:evenodd;opacity:1;stroke:none;"/>
          </g>
        </defs>
        <use xlink:href="#44"/>
        <defs>
          <title>Path Copy Copy Copy Copy Copy Copy Copy Copy Copy</title>
          <g id="46">
            <defs>
              <path id="47" d="M313.773,56.0346 C314.16,56.0346,314.474,56.3428,314.474,56.7229 C314.474,57.103,314.16,57.4111,313.773,57.4111 C313.386,57.4111,313.072,57.103,313.072,56.7229 C313.072,56.3428,313.386,56.0346,313.773,56.0346 z"/>
            </defs>
            <use xlink:href="#47" style="fill:#ed802b;fill-opacity:1;fill-rule:evenodd;opacity:1;stroke:none;"/>
          </g>
        </defs>
        <use xlink:href="#46"/>
        <defs>
          <title>Path Copy Copy Copy Copy Copy Copy Copy Copy Copy Copy</title>
          <g id="48">
            <defs>
              <path id="49" d="M307.965,54.9752 C308.352,54.9752,308.666,55.2833,308.666,55.6635 C308.666,56.0436,308.352,56.3517,307.965,56.3517 C307.578,56.3517,307.264,56.0436,307.264,55.6635 C307.264,55.2833,307.578,54.9752,307.965,54.9752 z"/>
            </defs>
            <use xlink:href="#49" style="fill:#ed802b;fill-opacity:1;fill-rule:evenodd;opacity:1;stroke:none;"/>
          </g>
        </defs>
        <use xlink:href="#48"/>
        <defs>
          <title>Path Copy Copy Copy Copy Copy Copy Copy Copy Copy Copy Copy</title>
          <g id="50">
            <defs>
              <path id="51" d="M309.292,49.6781 C309.679,49.6781,309.993,49.9863,309.993,50.3664 C309.993,50.7465,309.679,51.0546,309.292,51.0546 C308.905,51.0546,308.591,50.7465,308.591,50.3664 C308.591,49.9863,308.905,49.6781,309.292,49.6781 z"/>
            </defs>
            <use xlink:href="#51" style="fill:#ed802b;fill-opacity:1;fill-rule:evenodd;opacity:1;stroke:none;"/>
          </g>
        </defs>
        <use xlink:href="#50"/>
        <defs>
          <title>Path Copy Copy Copy Copy Copy Copy Copy Copy Copy Copy Copy Copy</title>
          <g id="52">
            <defs>
              <path id="53" d="M313.904,46.4567 C314.291,46.4567,314.605,46.7648,314.605,47.1449 C314.605,47.525,314.291,47.8332,313.904,47.8332 C313.517,47.8332,313.203,47.525,313.203,47.1449 C313.203,46.7648,313.517,46.4567,313.904,46.4567 z"/>
            </defs>
            <use xlink:href="#53" style="fill:#ed802b;fill-opacity:1;fill-rule:evenodd;opacity:1;stroke:none;"/>
          </g>
        </defs>
        <use xlink:href="#52"/>
        <defs>
          <title>Path Copy Copy Copy</title>
          <g id="54">
            <defs>
              <path id="55" d="M311.325,36.4889 C311.712,36.4889,312.026,36.797,312.026,37.1771 C312.026,37.5572,311.712,37.8654,311.325,37.8654 C310.938,37.8654,310.624,37.5572,310.624,37.1771 C310.624,36.797,310.938,36.4889,311.325,36.4889 z"/>
            </defs>
            <use xlink:href="#55" style="fill:#ed802b;fill-opacity:1;fill-rule:evenodd;opacity:1;stroke:none;"/>
          </g>
        </defs>
        <use xlink:href="#54"/>
        <defs>
          <title>Path Copy Copy Copy Copy</title>
          <g id="56">
            <defs>
              <path id="57" d="M303.952,41.0173 C304.339,41.0173,304.653,41.3254,304.653,41.7055 C304.653,42.0856,304.339,42.3938,303.952,42.3938 C303.565,42.3938,303.251,42.0856,303.251,41.7055 C303.251,41.3254,303.565,41.0173,303.952,41.0173 z"/>
            </defs>
            <use xlink:href="#57" style="fill:#ed802b;fill-opacity:1;fill-rule:evenodd;opacity:1;stroke:none;"/>
          </g>
        </defs>
        <use xlink:href="#56"/>
        <defs>
          <title>Path Copy Copy Copy Copy Copy</title>
          <g id="58">
            <defs>
              <path id="59" d="M296.806,38.1236 C297.193,38.1236,297.507,38.4317,297.507,38.8119 C297.507,39.192,297.193,39.5001,296.806,39.5001 C296.419,39.5001,296.105,39.192,296.105,38.8119 C296.105,38.4317,296.419,38.1236,296.806,38.1236 z"/>
            </defs>
            <use xlink:href="#59" style="fill:#ed802b;fill-opacity:1;fill-rule:evenodd;opacity:1;stroke:none;"/>
          </g>
        </defs>
        <use xlink:href="#58"/>
        <defs>
          <title>Path Copy Copy Copy Copy Copy Copy</title>
          <g id="60">
            <defs>
              <path id="61" d="M302.931,35.0984 C303.318,35.0984,303.632,35.4066,303.632,35.7867 C303.632,36.1668,303.318,36.4749,302.931,36.4749 C302.544,36.4749,302.23,36.1668,302.23,35.7867 C302.23,35.4066,302.544,35.0984,302.931,35.0984 z"/>
            </defs>
            <use xlink:href="#61" style="fill:#ed802b;fill-opacity:1;fill-rule:evenodd;opacity:1;stroke:none;"/>
          </g>
        </defs>
        <use xlink:href="#60"/>
        <defs>
          <title>Path Copy Copy Copy Copy Copy Copy Copy</title>
          <g id="62">
            <defs>
              <path id="63" d="M298.583,31.7605 C298.97,31.7605,299.284,32.0687,299.284,32.4488 C299.284,32.8289,298.97,33.137,298.583,33.137 C298.195,33.137,297.882,32.8289,297.882,32.4488 C297.882,32.0687,298.195,31.7605,298.583,31.7605 z"/>
            </defs>
            <use xlink:href="#63" style="fill:#ed802b;fill-opacity:1;fill-rule:evenodd;opacity:1;stroke:none;"/>
          </g>
        </defs>
        <use xlink:href="#62"/>
        <defs>
          <title>Path Copy Copy Copy Copy Copy Copy Copy Copy</title>
          <g id="64">
            <defs>
              <path id="65" d="M301.649,26.1998 C302.036,26.1998,302.35,26.508,302.35,26.8881 C302.35,27.2682,302.036,27.5763,301.649,27.5763 C301.262,27.5763,300.948,27.2682,300.948,26.8881 C300.948,26.508,301.262,26.1998,301.649,26.1998 z"/>
            </defs>
            <use xlink:href="#65" style="fill:#ed802b;fill-opacity:1;fill-rule:evenodd;opacity:1;stroke:none;"/>
          </g>
        </defs>
        <use xlink:href="#64"/>
        <defs>
          <title>Path Copy Copy Copy Copy Copy Copy Copy Copy Copy</title>
          <g id="66">
            <defs>
              <path id="67" d="M307.598,31.256 C307.985,31.256,308.299,31.5642,308.299,31.9443 C308.299,32.3244,307.985,32.6325,307.598,32.6325 C307.211,32.6325,306.897,32.3244,306.897,31.9443 C306.897,31.5642,307.211,31.256,307.598,31.256 z"/>
            </defs>
            <use xlink:href="#67" style="fill:#ed802b;fill-opacity:1;fill-rule:evenodd;opacity:1;stroke:none;"/>
          </g>
        </defs>
        <use xlink:href="#66"/>
        <defs>
          <title>Path Copy Copy Copy Copy Copy Copy Copy Copy Copy Copy</title>
          <g id="68">
            <defs>
              <path id="69" d="M309.82,26.0251 C310.207,26.0251,310.521,26.3332,310.521,26.7133 C310.521,27.0934,310.207,27.4016,309.82,27.4016 C309.433,27.4016,309.119,27.0934,309.119,26.7133 C309.119,26.3332,309.433,26.0251,309.82,26.0251 z"/>
            </defs>
            <use xlink:href="#69" style="fill:#ed802b;fill-opacity:1;fill-rule:evenodd;opacity:1;stroke:none;"/>
          </g>
        </defs>
        <use xlink:href="#68"/>
      </g>
      <defs>
        <title>Shape 49</title>
        <g id="70">
          <defs>
            <path id="71" d="M313.366,20.2341 C313.117,20.1629,312.978,19.896,313.171,19.6877 C313.354,19.4909,313.656,19.7676,313.854,19.548 C313.985,19.4014,313.879,18.9212,314.167,18.893 C314.443,18.8659,314.602,19.3003,314.889,19.2451 C315.174,19.1904,315.174,18.7338,315.485,18.7317 C315.948,18.7286,316.03,19.301,316.536,19.3353 C316.896,19.3596,317.026,18.8316,317.288,18.878 C317.619,18.9368,317.381,19.4673,317.745,19.5938 C318.098,19.716,318.213,19.2571,318.51,19.3417 C318.886,19.4489,318.668,19.7506,318.873,19.9424 C319.107,20.1625,319.578,20.0164,319.722,20.3815 C319.802,20.5863,319.558,20.754,319.592,20.8497 C319.66,21.0398,319.843,21.1287,319.8,21.3607 C319.742,21.676,319.451,21.4713,319.259,21.5641 C319.072,21.6546,319.158,21.9347,318.954,22.011 C318.715,22.101,318.385,21.8278,318.148,21.9023 C317.896,21.9815,317.93,22.3782,317.68,22.4428 C317.234,22.5575,317.138,22.0005,316.785,21.9421 C316.379,21.875,316.287,22.4065,315.873,22.387 C315.464,22.3676,315.486,21.9463,315.253,21.7326 C315.065,21.5604,314.802,21.7533,314.585,21.6521 C314.258,21.4995,314.355,21.2603,314.15,21.0644 C313.944,20.8678,313.563,21.155,313.319,20.9938 C313.084,20.8387,313.315,20.5876,313.372,20.3955 C313.372,20.3955,313.366,20.2341,313.366,20.2341 z"/>
          </defs>
          <use xlink:href="#71" style="fill:#75ba42;fill-opacity:1;fill-rule:evenodd;opacity:1;stroke:none;"/>
        </g>
      </defs>
      <use xlink:href="#70"/>
    </g>
    <g id="72">
      <title>Face Copy</title>
      <defs>
        <title>Shape 67</title>
        <g id="73">
          <defs>
            <path id="74" d="M313.121,41.8458 C313.121,43.834,312.018,45,310.195,45 C308.373,45,307.263,43.8372,307.263,41.849"/>
          </defs>
          <use xlink:href="#74" style="fill:none;opacity:1;stroke:#000000;stroke-linecap:butt;stroke-linejoin:miter;stroke-miterlimit:10;stroke-opacity:1;stroke-width:0.5;"/>
        </g>
      </defs>
      <use xlink:href="#73"/>
      <defs>
        <title>Shape 30</title>
        <g id="75">
          <defs>
            <path id="76" d="M300.901,34.2753 C302.656,34.2753,304.076,35.6975,304.076,37.4517 C304.076,39.206,302.656,40.6282,300.901,40.6282 C299.146,40.6282,297.726,39.206,297.726,37.4517 C297.726,35.6975,299.146,34.2753,300.901,34.2753 z"/>
          </defs>
          <use xlink:href="#76" style="fill:#000000;fill-opacity:1;fill-rule:evenodd;opacity:1;stroke:none;"/>
          <use xlink:href="#76" style="fill:none;opacity:1;stroke:#000000;stroke-linecap:butt;stroke-linejoin:miter;stroke-miterlimit:10;stroke-opacity:1;stroke-width:1;"/>
        </g>
      </defs>
      <use xlink:href="#75"/>
      <defs>
        <title>Shape 35</title>
        <g id="77">
          <defs>
            <path id="78" d="M301.658,34.5753 C301.207,35.0129,301.469,34.994,301.418,35.1506 C301.447,35.2751,301.476,35.428,301.527,35.6057 C301.622,35.964,301.775,36.4206,301.921,36.8786 C302.074,37.3374,302.248,37.786,302.379,38.1312 C302.452,38.303,302.51,38.4458,302.569,38.5586 C302.707,38.6518,302.481,38.7982,303.115,38.8696 C303.617,38.4574,303.384,38.2637,303.384,37.8697 C303.326,37.4969,303.202,37.0192,303.028,36.5043 C302.86,35.9902,302.671,35.5365,302.489,35.2023 C302.241,34.8928,302.314,34.5942,301.658,34.5753 z"/>
          </defs>
          <use xlink:href="#78" style="fill:#ffffff;fill-opacity:1;fill-rule:nonzero;opacity:1;stroke:none;"/>
        </g>
      </defs>
      <use xlink:href="#77"/>
      <defs>
        <title>Shape 28</title>
        <g id="79">
          <defs>
            <path id="80" d="M319.325,34.1799 C321.08,34.1799,322.5,35.6021,322.5,37.3563 C322.5,39.1106,321.08,40.5328,319.325,40.5328 C317.57,40.5328,316.15,39.1106,316.15,37.3563 C316.15,35.6021,317.57,34.1799,319.325,34.1799 z"/>
          </defs>
          <use xlink:href="#80" style="fill:#000000;fill-opacity:1;fill-rule:evenodd;opacity:1;stroke:none;"/>
          <use xlink:href="#80" style="fill:none;opacity:1;stroke:#000000;stroke-linecap:butt;stroke-linejoin:miter;stroke-miterlimit:10;stroke-opacity:1;stroke-width:1;"/>
        </g>
      </defs>
      <use xlink:href="#79"/>
      <defs>
        <title>Shape 37</title>
        <g id="81">
          <defs>
            <path id="82" d="M320.476,34.5753 C320.024,35.0129,320.286,34.994,320.235,35.1506 C320.257,35.2751,320.293,35.428,320.344,35.6057 C320.439,35.964,320.585,36.4206,320.738,36.8786 C320.891,37.3374,321.065,37.786,321.197,38.1312 C321.262,38.303,321.328,38.4458,321.386,38.5586 C321.524,38.6518,321.298,38.7982,321.925,38.8696 C322.434,38.4574,322.201,38.2637,322.201,37.8697 C322.136,37.4969,322.019,37.0192,321.845,36.5043 C321.67,35.9902,321.48,35.5365,321.306,35.2023 C321.058,34.8928,321.131,34.5942,320.476,34.5753 z"/>
          </defs>
          <use xlink:href="#82" style="fill:#ffffff;fill-opacity:1;fill-rule:nonzero;opacity:1;stroke:none;"/>
        </g>
      </defs>
      <use xlink:href="#81"/>
    </g>
  </g>
</svg>
