<?xml version="1.0" encoding="utf-8"?>
<svg x="82.5pt" y="120pt" width="45pt" height="45pt" viewBox="82.5 120 45 45" xmlns="http://www.w3.org/2000/svg" xmlns:xlink="http://www.w3.org/1999/xlink">
  <g id="1">
    <title>Group</title>
    <g id="2">
      <title>Group</title>
      <g id="3">
        <title>Group Copy Copy Copy Copy</title>
        <defs>
          <title>Path</title>
          <g id="4">
            <defs>
              <path id="5" d="M103.033,124.591 C106.105,124.591,108.595,126.964,108.595,129.891 C108.595,132.819,106.105,135.192,103.033,135.192 C99.9612,135.192,97.471,132.819,97.471,129.891 C97.471,126.964,99.9612,124.591,103.033,124.591 z"/>
            </defs>
            <use xlink:href="#5" style="fill:#f9d670;fill-opacity:1;fill-rule:evenodd;opacity:1;stroke:none;"/>
            <use xlink:href="#5" style="fill:none;opacity:1;stroke:#d6ae77;stroke-linecap:butt;stroke-linejoin:miter;stroke-miterlimit:10;stroke-opacity:1;stroke-width:0.5;"/>
          </g>
        </defs>
        <use xlink:href="#4"/>
        <defs>
          <title>Path Copy</title>
          <g id="6">
            <defs>
              <path id="7" d="M103.335,126.387 C105.224,126.387,106.755,127.847,106.755,129.647 C106.755,131.448,105.224,132.908,103.335,132.908 C101.445,132.908,99.9138,131.448,99.9138,129.647 C99.9138,127.847,101.445,126.387,103.335,126.387 z"/>
            </defs>
            <use xlink:href="#7" style="fill:#f9d670;fill-opacity:1;fill-rule:evenodd;opacity:1;stroke:none;"/>
            <use xlink:href="#7" style="fill:none;opacity:1;stroke:#d6ae77;stroke-linecap:butt;stroke-linejoin:miter;stroke-miterlimit:10;stroke-opacity:1;stroke-width:0.5;"/>
          </g>
        </defs>
        <use xlink:href="#6"/>
        <defs>
          <title>Path Copy Copy</title>
          <g id="8">
            <defs>
              <path id="9" d="M103.407,128.228 C104.471,128.228,105.334,129.051,105.334,130.065 C105.334,131.079,104.471,131.901,103.407,131.901 C102.343,131.901,101.48,131.079,101.48,130.065 C101.48,129.051,102.343,128.228,103.407,128.228 z"/>
            </defs>
            <use xlink:href="#9" style="fill:#f9d670;fill-opacity:1;fill-rule:evenodd;opacity:1;stroke:none;"/>
            <use xlink:href="#9" style="fill:none;opacity:1;stroke:#d6ae77;stroke-linecap:butt;stroke-linejoin:miter;stroke-miterlimit:10;stroke-opacity:1;stroke-width:0.5;"/>
          </g>
        </defs>
        <use xlink:href="#8"/>
      </g>
      <defs>
        <title>Path Copy</title>
        <g id="10">
          <defs>
            <path id="11" d="M117.639,131.077 C125.334,132.314,126.403,135.445,126.403,136.601 C126.403,140.122,116.826,142.976,105.012,142.976 C93.1984,142.976,83.6213,140.122,83.6213,136.601 C83.6213,134.95,85.7257,133.446,89.1783,132.314"/>
          </defs>
          <use xlink:href="#11" style="fill:#f9d670;fill-opacity:1;fill-rule:evenodd;opacity:1;stroke:none;"/>
          <use xlink:href="#11" style="fill:none;opacity:1;stroke:#f7e9c1;stroke-linecap:butt;stroke-linejoin:miter;stroke-miterlimit:10;stroke-opacity:1;stroke-width:2;"/>
        </g>
      </defs>
      <use xlink:href="#10"/>
      <defs>
        <title>Path Copy</title>
        <g id="12">
          <defs>
            <path id="13" d="M123.73,123.011 C123.73,123.011,127.045,126.904,127.045,126.904 C127.045,126.904,119.204,135.163,119.204,135.163 C119.204,135.163,116.951,133.33,116.951,133.33 C116.951,133.33,123.73,123.011,123.73,123.011 z"/>
          </defs>
          <use xlink:href="#13" style="fill:#d59f5b;fill-opacity:1;fill-rule:evenodd;opacity:1;stroke:none;"/>
        </g>
      </defs>
      <use xlink:href="#12"/>
      <defs>
        <title>Path</title>
        <g id="14">
          <defs>
            <path id="15" d="M120.658,120 C120.658,120,125.4,122.09,125.4,122.09 C125.4,122.09,117.975,132.78,117.975,132.78 C117.975,132.78,113.864,131.483,113.864,131.483 C113.864,131.483,120.658,120,120.658,120 z"/>
          </defs>
          <use xlink:href="#15" style="fill:#f0bc79;fill-opacity:1;fill-rule:evenodd;opacity:1;stroke:none;"/>
        </g>
      </defs>
      <use xlink:href="#14"/>
      <g id="16">
        <title>Group Copy Copy Copy</title>
        <defs>
          <title>Path</title>
          <g id="17">
            <defs>
              <path id="18" d="M112.173,125.975 C116.052,125.975,119.197,128.476,119.197,131.562 C119.197,134.647,116.052,137.149,112.173,137.149 C108.294,137.149,105.149,134.647,105.149,131.562 C105.149,128.476,108.294,125.975,112.173,125.975 z"/>
            </defs>
            <use xlink:href="#18" style="fill:#f9d670;fill-opacity:1;fill-rule:evenodd;opacity:1;stroke:none;"/>
            <use xlink:href="#18" style="fill:none;opacity:1;stroke:#d6ae77;stroke-linecap:butt;stroke-linejoin:miter;stroke-miterlimit:10;stroke-opacity:1;stroke-width:0.5;"/>
          </g>
        </defs>
        <use xlink:href="#17"/>
        <defs>
          <title>Path Copy</title>
          <g id="19">
            <defs>
              <path id="20" d="M112.554,127.869 C114.94,127.869,116.874,129.407,116.874,131.305 C116.874,133.202,114.94,134.741,112.554,134.741 C110.168,134.741,108.234,133.202,108.234,131.305 C108.234,129.407,110.168,127.869,112.554,127.869 z"/>
            </defs>
            <use xlink:href="#20" style="fill:#f9d670;fill-opacity:1;fill-rule:evenodd;opacity:1;stroke:none;"/>
            <use xlink:href="#20" style="fill:none;opacity:1;stroke:#d6ae77;stroke-linecap:butt;stroke-linejoin:miter;stroke-miterlimit:10;stroke-opacity:1;stroke-width:0.5;"/>
          </g>
        </defs>
        <use xlink:href="#19"/>
        <defs>
          <title>Path Copy Copy</title>
          <g id="21">
            <defs>
              <path id="22" d="M112.646,129.809 C113.99,129.809,115.079,130.676,115.079,131.745 C115.079,132.814,113.99,133.68,112.646,133.68 C111.302,133.68,110.212,132.814,110.212,131.745 C110.212,130.676,111.302,129.809,112.646,129.809 z"/>
            </defs>
            <use xlink:href="#22" style="fill:#f9d670;fill-opacity:1;fill-rule:evenodd;opacity:1;stroke:none;"/>
            <use xlink:href="#22" style="fill:none;opacity:1;stroke:#d6ae77;stroke-linecap:butt;stroke-linejoin:miter;stroke-miterlimit:10;stroke-opacity:1;stroke-width:0.5;"/>
          </g>
        </defs>
        <use xlink:href="#21"/>
      </g>
      <g id="23">
        <title>Group Copy Copy Copy</title>
        <defs>
          <title>Path</title>
          <g id="24">
            <defs>
              <path id="25" d="M95.4032,126.933 C98.8831,126.933,101.704,129.306,101.704,132.233 C101.704,135.161,98.8831,137.534,95.4032,137.534 C91.9232,137.534,89.1022,135.161,89.1022,132.233 C89.1022,129.306,91.9232,126.933,95.4032,126.933 z"/>
            </defs>
            <use xlink:href="#25" style="fill:#f9d670;fill-opacity:1;fill-rule:evenodd;opacity:1;stroke:none;"/>
            <use xlink:href="#25" style="fill:none;opacity:1;stroke:#d6ae77;stroke-linecap:butt;stroke-linejoin:miter;stroke-miterlimit:10;stroke-opacity:1;stroke-width:0.5;"/>
          </g>
        </defs>
        <use xlink:href="#24"/>
        <defs>
          <title>Path Copy</title>
          <g id="26">
            <defs>
              <path id="27" d="M95.745,128.729 C97.8853,128.729,99.6204,130.189,99.6204,131.989 C99.6204,133.79,97.8853,135.25,95.745,135.25 C93.6046,135.25,91.8695,133.79,91.8695,131.989 C91.8695,130.189,93.6046,128.729,95.745,128.729 z"/>
            </defs>
            <use xlink:href="#27" style="fill:#f9d670;fill-opacity:1;fill-rule:evenodd;opacity:1;stroke:none;"/>
            <use xlink:href="#27" style="fill:none;opacity:1;stroke:#d6ae77;stroke-linecap:butt;stroke-linejoin:miter;stroke-miterlimit:10;stroke-opacity:1;stroke-width:0.5;"/>
          </g>
        </defs>
        <use xlink:href="#26"/>
        <defs>
          <title>Path Copy Copy</title>
          <g id="28">
            <defs>
              <path id="29" d="M95.8273,130.57 C97.0329,130.57,98.0103,131.393,98.0103,132.407 C98.0103,133.421,97.0329,134.243,95.8273,134.243 C94.6216,134.243,93.6442,133.421,93.6442,132.407 C93.6442,131.393,94.6216,130.57,95.8273,130.57 z"/>
            </defs>
            <use xlink:href="#29" style="fill:#f9d670;fill-opacity:1;fill-rule:evenodd;opacity:1;stroke:none;"/>
            <use xlink:href="#29" style="fill:none;opacity:1;stroke:#d6ae77;stroke-linecap:butt;stroke-linejoin:miter;stroke-miterlimit:10;stroke-opacity:1;stroke-width:0.5;"/>
          </g>
        </defs>
        <use xlink:href="#28"/>
      </g>
      <g id="30">
        <title>Group Copy Copy</title>
        <defs>
          <title>Path</title>
          <g id="31">
            <defs>
              <path id="32" d="M100.782,130.679 C104.48,130.679,107.478,133.053,107.478,135.98 C107.478,138.908,104.48,141.281,100.782,141.281 C97.0837,141.281,94.0856,138.908,94.0856,135.98 C94.0856,133.053,97.0837,130.679,100.782,130.679 z"/>
            </defs>
            <use xlink:href="#32" style="fill:#f9d670;fill-opacity:1;fill-rule:evenodd;opacity:1;stroke:none;"/>
            <use xlink:href="#32" style="fill:none;opacity:1;stroke:#d6ae77;stroke-linecap:butt;stroke-linejoin:miter;stroke-miterlimit:10;stroke-opacity:1;stroke-width:0.5;"/>
          </g>
        </defs>
        <use xlink:href="#31"/>
        <defs>
          <title>Path Copy</title>
          <g id="33">
            <defs>
              <path id="34" d="M101.145,132.476 C103.42,132.476,105.264,133.936,105.264,135.736 C105.264,137.537,103.42,138.996,101.145,138.996 C98.8706,138.996,97.0267,137.537,97.0267,135.736 C97.0267,133.936,98.8706,132.476,101.145,132.476 z"/>
            </defs>
            <use xlink:href="#34" style="fill:#f9d670;fill-opacity:1;fill-rule:evenodd;opacity:1;stroke:none;"/>
            <use xlink:href="#34" style="fill:none;opacity:1;stroke:#d6ae77;stroke-linecap:butt;stroke-linejoin:miter;stroke-miterlimit:10;stroke-opacity:1;stroke-width:0.5;"/>
          </g>
        </defs>
        <use xlink:href="#33"/>
        <defs>
          <title>Path Copy Copy</title>
          <g id="35">
            <defs>
              <path id="36" d="M101.233,134.317 C102.514,134.317,103.553,135.139,103.553,136.154 C103.553,137.168,102.514,137.99,101.233,137.99 C99.9514,137.99,98.9127,137.168,98.9127,136.154 C98.9127,135.139,99.9514,134.317,101.233,134.317 z"/>
            </defs>
            <use xlink:href="#36" style="fill:#f9d670;fill-opacity:1;fill-rule:evenodd;opacity:1;stroke:none;"/>
            <use xlink:href="#36" style="fill:none;opacity:1;stroke:#d6ae77;stroke-linecap:butt;stroke-linejoin:miter;stroke-miterlimit:10;stroke-opacity:1;stroke-width:0.5;"/>
          </g>
        </defs>
        <use xlink:href="#35"/>
      </g>
      <g id="37">
        <title>Group Copy</title>
        <defs>
          <title>Path</title>
          <g id="38">
            <defs>
              <path id="39" d="M92.1967,132.349 C95.4608,132.349,98.1068,134.722,98.1068,137.649 C98.1068,140.577,96.0625,141.855,92.7984,141.855 C89.5344,141.855,86.2866,140.577,86.2866,137.649 C86.2866,134.722,88.9327,132.349,92.1967,132.349 z"/>
            </defs>
            <use xlink:href="#39" style="fill:#f9d670;fill-opacity:1;fill-rule:evenodd;opacity:1;stroke:none;"/>
            <use xlink:href="#39" style="fill:none;opacity:1;stroke:#d6ae77;stroke-linecap:butt;stroke-linejoin:miter;stroke-miterlimit:10;stroke-opacity:1;stroke-width:0.5;"/>
          </g>
        </defs>
        <use xlink:href="#38"/>
        <defs>
          <title>Path Copy</title>
          <g id="40">
            <defs>
              <path id="41" d="M92.5173,134.145 C94.5248,134.145,96.1523,135.605,96.1523,137.405 C96.1523,139.206,94.5248,140.666,92.5173,140.666 C90.5098,140.666,88.8823,139.206,88.8823,137.405 C88.8823,135.605,90.5098,134.145,92.5173,134.145 z"/>
            </defs>
            <use xlink:href="#41" style="fill:#f9d670;fill-opacity:1;fill-rule:evenodd;opacity:1;stroke:none;"/>
            <use xlink:href="#41" style="fill:none;opacity:1;stroke:#d6ae77;stroke-linecap:butt;stroke-linejoin:miter;stroke-miterlimit:10;stroke-opacity:1;stroke-width:0.5;"/>
          </g>
        </defs>
        <use xlink:href="#40"/>
        <defs>
          <title>Path Copy Copy</title>
          <g id="42">
            <defs>
              <path id="43" d="M92.5945,135.986 C93.7254,135.986,94.6421,136.809,94.6421,137.823 C94.6421,138.837,93.7254,139.659,92.5945,139.659 C91.4636,139.659,90.5469,138.837,90.5469,137.823 C90.5469,136.809,91.4636,135.986,92.5945,135.986 z"/>
            </defs>
            <use xlink:href="#43" style="fill:#f9d670;fill-opacity:1;fill-rule:evenodd;opacity:1;stroke:none;"/>
            <use xlink:href="#43" style="fill:none;opacity:1;stroke:#d6ae77;stroke-linecap:butt;stroke-linejoin:miter;stroke-miterlimit:10;stroke-opacity:1;stroke-width:0.5;"/>
          </g>
        </defs>
        <use xlink:href="#42"/>
      </g>
      <g id="44">
        <title>Group Copy Copy</title>
        <defs>
          <title>Path</title>
          <g id="45">
            <defs>
              <path id="46" d="M115.768,131.479 C120.531,131.479,125.09,134.109,125.09,137.255 C125.09,140.4,120.681,142.186,115.917,142.186 C111.154,142.186,107.143,140.318,107.143,137.173 C107.143,134.028,111.005,131.479,115.768,131.479 z"/>
            </defs>
            <use xlink:href="#46" style="fill:#f9d670;fill-opacity:1;fill-rule:evenodd;opacity:1;stroke:none;"/>
            <use xlink:href="#46" style="fill:none;opacity:1;stroke:#d6ae77;stroke-linecap:butt;stroke-linejoin:miter;stroke-miterlimit:10;stroke-opacity:1;stroke-width:0.5;"/>
          </g>
        </defs>
        <use xlink:href="#45"/>
        <defs>
          <title>Path Copy</title>
          <g id="47">
            <defs>
              <path id="48" d="M116.236,133.409 C119.165,133.409,121.54,134.977,121.54,136.911 C121.54,138.846,119.165,140.414,116.236,140.414 C113.306,140.414,110.931,138.846,110.931,136.911 C110.931,134.977,113.306,133.409,116.236,133.409 z"/>
            </defs>
            <use xlink:href="#48" style="fill:#f9d670;fill-opacity:1;fill-rule:evenodd;opacity:1;stroke:none;"/>
            <use xlink:href="#48" style="fill:none;opacity:1;stroke:#d6ae77;stroke-linecap:butt;stroke-linejoin:miter;stroke-miterlimit:10;stroke-opacity:1;stroke-width:0.5;"/>
          </g>
        </defs>
        <use xlink:href="#47"/>
        <defs>
          <title>Path Copy Copy</title>
          <g id="49">
            <defs>
              <path id="50" d="M116.348,135.387 C117.998,135.387,119.336,136.27,119.336,137.36 C119.336,138.449,117.998,139.333,116.348,139.333 C114.698,139.333,113.36,138.449,113.36,137.36 C113.36,136.27,114.698,135.387,116.348,135.387 z"/>
            </defs>
            <use xlink:href="#50" style="fill:#f9d670;fill-opacity:1;fill-rule:evenodd;opacity:1;stroke:none;"/>
            <use xlink:href="#50" style="fill:none;opacity:1;stroke:#d6ae77;stroke-linecap:butt;stroke-linejoin:miter;stroke-miterlimit:10;stroke-opacity:1;stroke-width:0.5;"/>
          </g>
        </defs>
        <use xlink:href="#49"/>
      </g>
      <g id="51">
        <title>Group Copy Copy Copy Copy Copy</title>
        <defs>
          <title>Path</title>
          <g id="52">
            <defs>
              <path id="53" d="M116.756,135.652 C120.572,135.652,123.665,138.026,123.665,140.953 C123.665,143.881,120.572,146.254,116.756,146.254 C112.941,146.254,109.848,143.881,109.848,140.953 C109.848,138.026,112.941,135.652,116.756,135.652 z"/>
            </defs>
            <use xlink:href="#53" style="fill:#f9d670;fill-opacity:1;fill-rule:evenodd;opacity:1;stroke:none;"/>
            <use xlink:href="#53" style="fill:none;opacity:1;stroke:#d6ae77;stroke-linecap:butt;stroke-linejoin:miter;stroke-miterlimit:10;stroke-opacity:1;stroke-width:0.5;"/>
          </g>
        </defs>
        <use xlink:href="#52"/>
        <defs>
          <title>Path Copy</title>
          <g id="54">
            <defs>
              <path id="55" d="M117.131,137.449 C119.478,137.449,121.38,138.909,121.38,140.709 C121.38,142.51,119.478,143.969,117.131,143.969 C114.784,143.969,112.882,142.51,112.882,140.709 C112.882,138.909,114.784,137.449,117.131,137.449 z"/>
            </defs>
            <use xlink:href="#55" style="fill:#f9d670;fill-opacity:1;fill-rule:evenodd;opacity:1;stroke:none;"/>
            <use xlink:href="#55" style="fill:none;opacity:1;stroke:#d6ae77;stroke-linecap:butt;stroke-linejoin:miter;stroke-miterlimit:10;stroke-opacity:1;stroke-width:0.5;"/>
          </g>
        </defs>
        <use xlink:href="#54"/>
        <defs>
          <title>Path Copy Copy</title>
          <g id="56">
            <defs>
              <path id="57" d="M117.221,139.29 C118.543,139.29,119.615,140.112,119.615,141.127 C119.615,142.141,118.543,142.963,117.221,142.963 C115.9,142.963,114.828,142.141,114.828,141.127 C114.828,140.112,115.9,139.29,117.221,139.29 z"/>
            </defs>
            <use xlink:href="#57" style="fill:#f9d670;fill-opacity:1;fill-rule:evenodd;opacity:1;stroke:none;"/>
            <use xlink:href="#57" style="fill:none;opacity:1;stroke:#d6ae77;stroke-linecap:butt;stroke-linejoin:miter;stroke-miterlimit:10;stroke-opacity:1;stroke-width:0.5;"/>
          </g>
        </defs>
        <use xlink:href="#56"/>
      </g>
      <g id="58">
        <title>Group Copy</title>
        <defs>
          <title>Path</title>
          <g id="59">
            <defs>
              <path id="60" d="M106.033,137.118 C108.56,137.118,110.609,138.914,110.609,141.129 C110.609,143.344,108.56,145.14,106.033,145.14 C103.506,145.14,101.457,143.344,101.457,141.129 C101.457,138.914,103.506,137.118,106.033,137.118 z"/>
            </defs>
            <use xlink:href="#60" style="fill:#f9d670;fill-opacity:1;fill-rule:evenodd;opacity:1;stroke:none;"/>
            <use xlink:href="#60" style="fill:none;opacity:1;stroke:#d6ae77;stroke-linecap:butt;stroke-linejoin:miter;stroke-miterlimit:10;stroke-opacity:1;stroke-width:0.5;"/>
          </g>
        </defs>
        <use xlink:href="#59"/>
        <defs>
          <title>Path Copy</title>
          <g id="61">
            <defs>
              <path id="62" d="M106.281,138.477 C107.836,138.477,109.096,139.582,109.096,140.944 C109.096,142.307,107.836,143.411,106.281,143.411 C104.727,143.411,103.467,142.307,103.467,140.944 C103.467,139.582,104.727,138.477,106.281,138.477 z"/>
            </defs>
            <use xlink:href="#62" style="fill:#f9d670;fill-opacity:1;fill-rule:evenodd;opacity:1;stroke:none;"/>
            <use xlink:href="#62" style="fill:none;opacity:1;stroke:#d6ae77;stroke-linecap:butt;stroke-linejoin:miter;stroke-miterlimit:10;stroke-opacity:1;stroke-width:0.5;"/>
          </g>
        </defs>
        <use xlink:href="#61"/>
        <defs>
          <title>Path Copy Copy</title>
          <g id="63">
            <defs>
              <path id="64" d="M106.341,139.87 C107.217,139.87,107.926,140.493,107.926,141.26 C107.926,142.028,107.217,142.65,106.341,142.65 C105.465,142.65,104.756,142.028,104.756,141.26 C104.756,140.493,105.465,139.87,106.341,139.87 z"/>
            </defs>
            <use xlink:href="#64" style="fill:#f9d670;fill-opacity:1;fill-rule:evenodd;opacity:1;stroke:none;"/>
            <use xlink:href="#64" style="fill:none;opacity:1;stroke:#d6ae77;stroke-linecap:butt;stroke-linejoin:miter;stroke-miterlimit:10;stroke-opacity:1;stroke-width:0.5;"/>
          </g>
        </defs>
        <use xlink:href="#63"/>
      </g>
      <g id="65">
        <title>Group</title>
        <defs>
          <title>Path</title>
          <g id="66">
            <defs>
              <path id="67" d="M97.6442,135.842 C101.46,135.842,104.553,138.215,104.553,141.143 C104.553,144.07,101.46,146.443,97.6442,146.443 C93.8286,146.443,90.7355,144.07,90.7355,141.143 C90.7355,138.215,93.8286,135.842,97.6442,135.842 z"/>
            </defs>
            <use xlink:href="#67" style="fill:#f9d670;fill-opacity:1;fill-rule:evenodd;opacity:1;stroke:none;"/>
            <use xlink:href="#67" style="fill:none;opacity:1;stroke:#d6ae77;stroke-linecap:butt;stroke-linejoin:miter;stroke-miterlimit:10;stroke-opacity:1;stroke-width:0.5;"/>
          </g>
        </defs>
        <use xlink:href="#66"/>
        <defs>
          <title>Path Copy</title>
          <g id="68">
            <defs>
              <path id="69" d="M98.0189,137.638 C100.366,137.638,102.268,139.098,102.268,140.899 C102.268,142.699,100.366,144.159,98.0189,144.159 C95.6722,144.159,93.7698,142.699,93.7698,140.899 C93.7698,139.098,95.6722,137.638,98.0189,137.638 z"/>
            </defs>
            <use xlink:href="#69" style="fill:#f9d670;fill-opacity:1;fill-rule:evenodd;opacity:1;stroke:none;"/>
            <use xlink:href="#69" style="fill:none;opacity:1;stroke:#d6ae77;stroke-linecap:butt;stroke-linejoin:miter;stroke-miterlimit:10;stroke-opacity:1;stroke-width:0.5;"/>
          </g>
        </defs>
        <use xlink:href="#68"/>
        <defs>
          <title>Path Copy Copy</title>
          <g id="70">
            <defs>
              <path id="71" d="M98.1092,139.48 C99.4311,139.48,100.503,140.302,100.503,141.316 C100.503,142.33,99.4311,143.153,98.1092,143.153 C96.7872,143.153,95.7156,142.33,95.7156,141.316 C95.7156,140.302,96.7872,139.48,98.1092,139.48 z"/>
            </defs>
            <use xlink:href="#71" style="fill:#f9d670;fill-opacity:1;fill-rule:evenodd;opacity:1;stroke:none;"/>
            <use xlink:href="#71" style="fill:none;opacity:1;stroke:#d6ae77;stroke-linecap:butt;stroke-linejoin:miter;stroke-miterlimit:10;stroke-opacity:1;stroke-width:0.5;"/>
          </g>
        </defs>
        <use xlink:href="#70"/>
      </g>
      <g id="72">
        <title>Group</title>
        <defs>
          <title>Shape 85</title>
          <g id="73">
            <defs>
              <path id="74" d="M127.271,136.572 C129.361,154.524,116.743,165.665,104.903,164.969 C89.9799,164.092,80.9937,154.336,82.7606,136.825 C85.3983,141.765,95.8441,142.976,104.733,142.976 C114.243,142.976,124.295,140.958,127.271,136.572 z"/>
            </defs>
            <use xlink:href="#74" style="fill:#f9f8e8;fill-opacity:1;fill-rule:evenodd;opacity:1;stroke:none;"/>
          </g>
        </defs>
        <use xlink:href="#73"/>
        <defs>
          <title>Shape 97</title>
          <g id="75">
            <defs>
              <path id="76" d="M127.343,143.541 C127.568,141.354,127.557,139.027,127.271,136.572 C124.295,140.958,114.243,142.976,104.733,142.976 C95.8441,142.976,85.3983,141.765,82.7606,136.825 C82.4845,139.561,82.4043,141.31,82.6349,143.663 C82.6349,143.663,82.7719,143.76,82.7719,143.76 C92.8938,148.059,105.261,149.198,115.782,147.218 C119.403,146.536,123.753,144.611,127.021,143.655 C127.021,143.655,127.343,143.541,127.343,143.541 z"/>
            </defs>
            <use xlink:href="#76" style="fill:#fd627c;fill-opacity:1;fill-rule:evenodd;opacity:1;stroke:none;"/>
          </g>
        </defs>
        <use xlink:href="#75"/>
        <defs>
          <title>Path</title>
          <g id="77">
            <defs>
              <path id="78" d="M86.0129,154.501 C90.463,158.67,122.294,159.388,124.626,152.821 C124.626,152.821,123.588,154.795,123.588,154.795 C120.242,160.777,89.8442,159.323,86.5459,155.596 C86.5459,155.596,86.0129,154.501,86.0129,154.501 z"/>
            </defs>
            <use xlink:href="#78" style="fill:#fd627c;fill-opacity:1;fill-rule:evenodd;opacity:1;stroke:none;"/>
          </g>
        </defs>
        <use xlink:href="#77"/>
        <defs>
          <title>Path</title>
          <g id="79">
            <defs>
              <path id="80" d="M88.7723,158.366 C91.1024,161.419,118.718,161.702,121.426,157.678 C121.426,157.678,119.469,159.619,119.469,159.619 C116.407,162.251,93.2943,162.071,90.4584,160.031 C90.4584,160.031,88.7723,158.366,88.7723,158.366 z"/>
            </defs>
            <use xlink:href="#80" style="fill:#fd627c;fill-opacity:1;fill-rule:evenodd;opacity:1;stroke:none;"/>
          </g>
        </defs>
        <use xlink:href="#79"/>
      </g>
      <defs>
        <title>Shape 101</title>
        <g id="81">
          <defs>
            <path id="82" d="M126.613,136.585 C127.127,140.052,116.826,142.976,105.012,142.976 C96.521,142.976,84.3766,140.673,83.4963,136.355"/>
          </defs>
          <use xlink:href="#82" style="fill:none;opacity:1;stroke:#f7e9c1;stroke-linecap:butt;stroke-linejoin:miter;stroke-miterlimit:10;stroke-opacity:1;stroke-width:1.5;"/>
        </g>
      </defs>
      <use xlink:href="#81"/>
    </g>
    <g id="83">
      <title>Face Copy</title>
      <defs>
        <title>Shape 67</title>
        <g id="84">
          <defs>
            <path id="85" d="M109.326,155.122 C109.326,157.111,108.223,158.277,106.4,158.277 C104.578,158.277,103.468,157.114,103.468,155.126"/>
          </defs>
          <use xlink:href="#85" style="fill:none;opacity:1;stroke:#000000;stroke-linecap:butt;stroke-linejoin:miter;stroke-miterlimit:10;stroke-opacity:1;stroke-width:0.5;"/>
        </g>
      </defs>
      <use xlink:href="#84"/>
      <defs>
        <title>Shape 30</title>
        <g id="86">
          <defs>
            <path id="87" d="M97.1058,147.552 C98.8608,147.552,100.281,148.974,100.281,150.728 C100.281,152.483,98.8608,153.905,97.1058,153.905 C95.3508,153.905,93.9307,152.483,93.9307,150.728 C93.9307,148.974,95.3508,147.552,97.1058,147.552 z"/>
          </defs>
          <use xlink:href="#87" style="fill:#000000;fill-opacity:1;fill-rule:evenodd;opacity:1;stroke:none;"/>
          <use xlink:href="#87" style="fill:none;opacity:1;stroke:#000000;stroke-linecap:butt;stroke-linejoin:miter;stroke-miterlimit:10;stroke-opacity:1;stroke-width:1;"/>
        </g>
      </defs>
      <use xlink:href="#86"/>
      <defs>
        <title>Shape 35</title>
        <g id="88">
          <defs>
            <path id="89" d="M97.8631,147.852 C97.4117,148.29,97.6738,148.271,97.6228,148.427 C97.652,148.552,97.6811,148.705,97.7321,148.882 C97.8268,149.241,97.9797,149.697,98.1253,150.155 C98.2782,150.614,98.453,151.063,98.584,151.408 C98.6568,151.58,98.7152,151.722,98.7734,151.835 C98.9118,151.928,98.686,152.075,99.3195,152.146 C99.8221,151.734,99.589,151.54,99.589,151.146 C99.5308,150.773,99.4069,150.296,99.2323,149.781 C99.0647,149.267,98.8753,148.813,98.6933,148.479 C98.4457,148.169,98.5185,147.871,97.8631,147.852 z"/>
          </defs>
          <use xlink:href="#89" style="fill:#ffffff;fill-opacity:1;fill-rule:nonzero;opacity:1;stroke:none;"/>
        </g>
      </defs>
      <use xlink:href="#88"/>
      <defs>
        <title>Shape 28</title>
        <g id="90">
          <defs>
            <path id="91" d="M115.53,147.456 C117.285,147.456,118.705,148.879,118.705,150.633 C118.705,152.387,117.285,153.809,115.53,153.809 C113.775,153.809,112.355,152.387,112.355,150.633 C112.355,148.879,113.775,147.456,115.53,147.456 z"/>
          </defs>
          <use xlink:href="#91" style="fill:#000000;fill-opacity:1;fill-rule:evenodd;opacity:1;stroke:none;"/>
          <use xlink:href="#91" style="fill:none;opacity:1;stroke:#000000;stroke-linecap:butt;stroke-linejoin:miter;stroke-miterlimit:10;stroke-opacity:1;stroke-width:1;"/>
        </g>
      </defs>
      <use xlink:href="#90"/>
      <defs>
        <title>Shape 37</title>
        <g id="92">
          <defs>
            <path id="93" d="M116.68,147.852 C116.229,148.29,116.491,148.271,116.44,148.427 C116.462,148.552,116.498,148.705,116.549,148.882 C116.644,149.241,116.789,149.697,116.942,150.155 C117.095,150.614,117.27,151.063,117.401,151.408 C117.467,151.58,117.532,151.722,117.59,151.835 C117.729,151.928,117.503,152.075,118.129,152.146 C118.639,151.734,118.406,151.54,118.406,151.146 C118.341,150.773,118.224,150.296,118.049,149.781 C117.875,149.267,117.685,148.813,117.51,148.479 C117.263,148.169,117.336,147.871,116.68,147.852 z"/>
          </defs>
          <use xlink:href="#93" style="fill:#ffffff;fill-opacity:1;fill-rule:nonzero;opacity:1;stroke:none;"/>
        </g>
      </defs>
      <use xlink:href="#92"/>
    </g>
  </g>
</svg>
