<?xml version="1.0" encoding="utf-8"?>
<svg x="1231.54pt" y="392.5pt" width="124.546pt" height="136.714pt" viewBox="1231.54 392.5 124.546 136.714" xmlns="http://www.w3.org/2000/svg" xmlns:xlink="http://www.w3.org/1999/xlink">
  <g id="1">
    <title>Group</title>
    <defs>
      <title>Shape 152</title>
      <g id="2">
        <defs>
          <path id="3" d="M1348.99,464.358 C1348.99,464.358,1334.15,521.036,1334.15,521.036 C1309.41,535.878,1262.12,525.983,1262.12,525.983 C1262.12,525.983,1245.1,471.562,1245.1,471.562 C1245.1,471.562,1344.05,464.358,1344.05,464.358"/>
        </defs>
        <use xlink:href="#3" style="fill:#c6b199;fill-opacity:1;fill-rule:evenodd;opacity:1;stroke:none;"/>
      </g>
    </defs>
    <use xlink:href="#2"/>
    <defs>
      <title>Shape 154</title>
      <g id="4">
        <defs>
          <path id="5" d="M1292.86,392.852 C1296.34,393.643,1297.12,399.557,1295.74,402.199 C1294.85,403.884,1292.54,404.873,1290.8,405.386 C1286.49,406.658,1285.83,401.265,1282.2,400.497 C1272.25,398.39,1265.25,408.379,1266.78,417.423 C1264.51,417.317,1262.33,416.325,1260.02,416.78 C1252.04,418.347,1242.71,428.846,1247.79,437.104 C1236.74,439.109,1229.35,453.413,1232.12,463.836 C1232.76,466.237,1239.63,475.271,1242.18,476.463 C1250.04,480.141,1261.2,478.558,1269.5,477.3 C1277.29,476.118,1284.96,475.238,1292.64,473.337 C1299.05,471.752,1305.2,469.375,1311.69,468.119 C1315.14,467.452,1319.07,467.48,1322.59,467.386 C1326.99,467.269,1331.96,466.685,1336.31,467.423 C1341.57,468.315,1346.91,472.014,1351.48,467.626 C1353.71,465.479,1354.62,461.701,1355.31,458.796 C1357.72,448.784,1354.42,435.983,1346.49,429.184 C1344.1,427.132,1341.76,424.851,1338.78,423.683 C1337.88,423.328,1334.1,422.707,1333.66,422.057 C1333.29,421.52,1332.51,414.539,1328.5,411.661 C1325.65,409.621,1322.55,408.97,1319.07,409.042 C1317.99,409.064,1316.04,410.068,1315.07,409.724 C1314.93,409.673,1315.65,406.839,1315.67,406.439 C1315.78,404.605,1314.76,401.884,1314.08,400.182 C1310.96,392.403,1296.19,391.909,1292.86,392.852 C1292.86,392.852,1292.86,392.852,1292.86,392.852 z"/>
        </defs>
        <use xlink:href="#5" style="fill:#ff7bac;fill-opacity:1;fill-rule:evenodd;opacity:1;stroke:none;"/>
      </g>
    </defs>
    <use xlink:href="#4"/>
    <defs>
      <title>Path</title>
      <g id="6">
        <defs>
          <path id="7" d="M1254.72,436.996 C1258.35,435.376,1262.77,435.083,1266.64,434.58 C1272.85,433.775,1279.73,433.173,1285.97,433.91 C1293.82,434.834,1301.58,437.312,1309.41,438.193 C1314.31,438.743,1321.63,437.633,1325.74,434.796 C1327.54,433.552,1328.89,432.147,1330.19,430.394 C1330.41,430.063,1331.91,428.05,1330.49,428.337 C1330.5,428.367,1330.51,428.397,1330.52,428.427 C1331.7,428.001,1330.38,430.009,1330.11,430.337 C1328.81,432.085,1327.47,433.48,1325.68,434.718 C1321.61,437.535,1314.3,438.65,1309.42,438.101 C1301.6,437.222,1293.84,434.744,1285.98,433.818 C1279.73,433.083,1272.84,433.686,1266.63,434.491 C1262.76,434.994,1258.33,435.286,1254.68,436.914 C1254.69,436.941,1254.71,436.969,1254.72,436.996 z"/>
        </defs>
        <use xlink:href="#7" style="fill:#000000;fill-opacity:0.407051;fill-rule:nonzero;opacity:1;stroke:none;"/>
      </g>
    </defs>
    <use xlink:href="#6"/>
    <defs>
      <title>Path</title>
      <g id="8">
        <defs>
          <path id="9" d="M1273.88,418.613 C1278.45,418.174,1283.11,418.395,1287.65,419.09 C1290.47,419.521,1293.16,420.667,1296.08,420.393 C1300.01,420.022,1304.76,418.032,1307.87,415.603 C1308.83,414.852,1309.5,413.796,1310.45,413.077 C1310.43,413.053,1310.42,413.029,1310.4,413.005 C1309.43,413.738,1308.76,414.794,1307.82,415.532 C1304.72,417.95,1299.98,419.936,1296.07,420.303 C1293.18,420.577,1290.49,419.437,1287.66,419.001 C1283.12,418.305,1278.45,418.084,1273.87,418.523 C1273.88,418.553,1273.88,418.583,1273.88,418.613 z"/>
        </defs>
        <use xlink:href="#9" style="fill:#000000;fill-opacity:0.496795;fill-rule:nonzero;opacity:1;stroke:none;"/>
      </g>
    </defs>
    <use xlink:href="#8"/>
    <defs>
      <title>Smart Rectangle</title>
      <g id="10">
        <defs>
          <path id="11" d="M1344.05,451.965 C1344.05,453.332,1342.94,454.439,1341.57,454.439 C1340.21,454.439,1339.1,453.332,1339.1,451.965 C1339.1,451.965,1339.1,444.351,1339.1,444.351 C1339.1,442.985,1340.21,441.877,1341.57,441.877 C1342.94,441.877,1344.05,442.985,1344.05,444.351 C1344.05,444.351,1344.05,451.965,1344.05,451.965 z"/>
        </defs>
        <use xlink:href="#11" style="fill:#ff7bac;fill-opacity:1;fill-rule:nonzero;opacity:1;stroke:none;"/>
      </g>
    </defs>
    <use xlink:href="#10"/>
    <defs>
      <title>Smart Rectangle Copy Copy Copy Copy</title>
      <g id="12">
        <defs>
          <path id="13" d="M1284.13,409.697 C1285.06,410.7,1285,412.266,1283.99,413.193 C1282.99,414.12,1281.42,414.057,1280.5,413.054 C1280.5,413.054,1275.33,407.461,1275.33,407.461 C1274.88,406.979,1274.65,406.34,1274.67,405.684 C1274.7,405.029,1274.99,404.41,1275.47,403.965 C1276.47,403.038,1278.04,403.1,1278.96,404.104 C1278.96,404.104,1284.13,409.697,1284.13,409.697 z"/>
        </defs>
        <use xlink:href="#13" style="fill:#ffffff;fill-opacity:1;fill-rule:nonzero;opacity:1;stroke:none;"/>
      </g>
    </defs>
    <use xlink:href="#12"/>
    <defs>
      <title>Smart Rectangle Copy</title>
      <g id="14">
        <defs>
          <path id="15" d="M1344.05,451.965 C1344.05,453.332,1342.94,454.439,1341.57,454.439 C1340.21,454.439,1339.1,453.332,1339.1,451.965 C1339.1,451.965,1339.1,444.351,1339.1,444.351 C1339.1,442.985,1340.21,441.877,1341.57,441.877 C1342.94,441.877,1344.05,442.985,1344.05,444.351 C1344.05,444.351,1344.05,451.965,1344.05,451.965 z"/>
        </defs>
        <use xlink:href="#15" style="fill:#ffffff;fill-opacity:1;fill-rule:nonzero;opacity:1;stroke:none;"/>
      </g>
    </defs>
    <use xlink:href="#14"/>
    <defs>
      <title>Smart Rectangle Copy Copy</title>
      <g id="16">
        <defs>
          <path id="17" d="M1323.84,448.487 C1324.93,449.312,1325.14,450.864,1324.31,451.952 C1323.49,453.041,1321.94,453.255,1320.85,452.429 C1320.85,452.429,1314.78,447.83,1314.78,447.83 C1314.26,447.433,1313.91,446.845,1313.82,446.195 C1313.73,445.546,1313.91,444.887,1314.3,444.364 C1315.13,443.275,1316.68,443.062,1317.77,443.887 C1317.77,443.887,1323.84,448.487,1323.84,448.487 z"/>
        </defs>
        <use xlink:href="#17" style="fill:#fbed21;fill-opacity:1;fill-rule:nonzero;opacity:1;stroke:none;"/>
      </g>
    </defs>
    <use xlink:href="#16"/>
    <defs>
      <title>Smart Rectangle Copy Copy Copy</title>
      <g id="18">
        <defs>
          <path id="19" d="M1291.31,467.463 C1289.97,467.704,1288.68,466.808,1288.44,465.464 C1288.33,464.818,1288.47,464.152,1288.85,463.614 C1289.22,463.076,1289.8,462.709,1290.44,462.593 C1290.44,462.593,1297.94,461.253,1297.94,461.253 C1299.28,461.012,1300.57,461.908,1300.81,463.252 C1301.05,464.597,1300.15,465.882,1298.81,466.123 C1298.81,466.123,1291.31,467.463,1291.31,467.463 z"/>
        </defs>
        <use xlink:href="#19" style="fill:#ffffff;fill-opacity:1;fill-rule:nonzero;opacity:1;stroke:none;"/>
      </g>
    </defs>
    <use xlink:href="#18"/>
    <defs>
      <title>Smart Rectangle Copy Copy Copy Copy Copy</title>
      <g id="20">
        <defs>
          <path id="21" d="M1307.11,431.493 C1306.17,432.482,1304.6,432.518,1303.62,431.576 C1303.14,431.123,1302.87,430.5,1302.85,429.844 C1302.83,429.188,1303.08,428.553,1303.53,428.078 C1303.53,428.078,1308.79,422.568,1308.79,422.568 C1309.73,421.58,1311.3,421.543,1312.29,422.486 C1313.28,423.429,1313.31,424.994,1312.37,425.983 C1312.37,425.983,1307.11,431.493,1307.11,431.493 z"/>
        </defs>
        <use xlink:href="#21" style="fill:#ffffff;fill-opacity:1;fill-rule:nonzero;opacity:1;stroke:none;"/>
      </g>
    </defs>
    <use xlink:href="#20"/>
    <defs>
      <title>Smart Rectangle Copy</title>
      <g id="22">
        <defs>
          <path id="23" d="M1256.66,422.729 C1257,421.406,1258.35,420.607,1259.67,420.945 C1260.31,421.108,1260.85,421.516,1261.19,422.08 C1261.52,422.645,1261.62,423.319,1261.46,423.954 C1261.46,423.954,1259.57,431.332,1259.57,431.332 C1259.23,432.656,1257.89,433.454,1256.56,433.116 C1255.24,432.778,1254.44,431.431,1254.78,430.107 C1254.78,430.107,1256.66,422.729,1256.66,422.729 z"/>
        </defs>
        <use xlink:href="#23" style="fill:#fbed21;fill-opacity:1;fill-rule:nonzero;opacity:1;stroke:none;"/>
      </g>
    </defs>
    <use xlink:href="#22"/>
    <defs>
      <title>Smart Rectangle Copy Copy</title>
      <g id="24">
        <defs>
          <path id="25" d="M1288.63,422.998 C1289.96,422.667,1291.3,423.473,1291.63,424.798 C1291.79,425.435,1291.69,426.109,1291.35,426.671 C1291.01,427.234,1290.47,427.639,1289.83,427.798 C1289.83,427.798,1282.44,429.644,1282.44,429.644 C1281.12,429.975,1279.77,429.169,1279.44,427.843 C1279.11,426.518,1279.92,425.175,1281.24,424.844 C1281.24,424.844,1288.63,422.998,1288.63,422.998 z"/>
        </defs>
        <use xlink:href="#25" style="fill:#3da8f4;fill-opacity:1;fill-rule:nonzero;opacity:1;stroke:none;"/>
      </g>
    </defs>
    <use xlink:href="#24"/>
    <defs>
      <title>Smart Rectangle Copy Copy Copy</title>
      <g id="26">
        <defs>
          <path id="27" d="M1309.77,406.39 C1311.13,406.49,1312.15,407.676,1312.05,409.038 C1311.95,410.401,1310.77,411.424,1309.41,411.324 C1309.41,411.324,1301.81,410.767,1301.81,410.767 C1300.45,410.667,1299.43,409.481,1299.53,408.119 C1299.63,406.756,1300.81,405.733,1302.17,405.833 C1302.17,405.833,1309.77,406.39,1309.77,406.39 z"/>
        </defs>
        <use xlink:href="#27" style="fill:#fbed21;fill-opacity:1;fill-rule:nonzero;opacity:1;stroke:none;"/>
      </g>
    </defs>
    <use xlink:href="#26"/>
    <defs>
      <title>Smart Rectangle Copy Copy Copy Copy Copy</title>
      <g id="28">
        <defs>
          <path id="29" d="M1292.3,444.497 C1293.45,443.773,1294.98,444.125,1295.7,445.283 C1296.05,445.839,1296.16,446.511,1296.02,447.15 C1295.87,447.79,1295.47,448.344,1294.92,448.692 C1294.92,448.692,1288.46,452.729,1288.46,452.729 C1287.3,453.453,1285.78,453.101,1285.05,451.943 C1284.33,450.785,1284.68,449.258,1285.84,448.534 C1285.84,448.534,1292.3,444.497,1292.3,444.497 z"/>
        </defs>
        <use xlink:href="#29" style="fill:#fbed21;fill-opacity:1;fill-rule:nonzero;opacity:1;stroke:none;"/>
      </g>
    </defs>
    <use xlink:href="#28"/>
    <defs>
      <title>Smart Rectangle Copy Copy Copy Copy Copy Copy</title>
      <g id="30">
        <defs>
          <path id="31" d="M1331.24,462.425 C1330.55,463.602,1329.03,463.993,1327.86,463.299 C1327.29,462.965,1326.88,462.421,1326.72,461.786 C1326.55,461.15,1326.65,460.476,1326.98,459.911 C1326.98,459.911,1330.85,453.353,1330.85,453.353 C1331.55,452.177,1333.06,451.786,1334.24,452.48 C1335.42,453.174,1335.81,454.691,1335.11,455.868 C1335.11,455.868,1331.24,462.425,1331.24,462.425 z"/>
        </defs>
        <use xlink:href="#31" style="fill:#3da8f4;fill-opacity:1;fill-rule:nonzero;opacity:1;stroke:none;"/>
      </g>
    </defs>
    <use xlink:href="#30"/>
    <defs>
      <title>Smart Rectangle Copy Copy Copy Copy Copy Copy Copy</title>
      <g id="32">
        <defs>
          <path id="33" d="M1329.28,423.768 C1330.27,424.713,1330.3,426.279,1329.36,427.266 C1328.41,428.253,1326.85,428.288,1325.86,427.343 C1325.86,427.343,1320.36,422.079,1320.36,422.079 C1319.88,421.626,1319.61,421.002,1319.59,420.347 C1319.58,419.691,1319.83,419.056,1320.28,418.582 C1321.22,417.595,1322.79,417.56,1323.78,418.504 C1323.78,418.504,1329.28,423.768,1329.28,423.768 z"/>
        </defs>
        <use xlink:href="#33" style="fill:#3da8f4;fill-opacity:1;fill-rule:nonzero;opacity:1;stroke:none;"/>
      </g>
    </defs>
    <use xlink:href="#32"/>
    <defs>
      <title>Smart Rectangle Copy Copy Copy Copy Copy Copy Copy Copy</title>
      <g id="34">
        <defs>
          <path id="35" d="M1251.21,464.735 C1252.37,464.01,1253.89,464.362,1254.62,465.521 C1254.96,466.077,1255.08,466.749,1254.93,467.388 C1254.78,468.027,1254.39,468.582,1253.83,468.93 C1253.83,468.93,1247.37,472.967,1247.37,472.967 C1246.22,473.691,1244.69,473.339,1243.96,472.181 C1243.24,471.022,1243.59,469.496,1244.75,468.772 C1244.75,468.772,1251.21,464.735,1251.21,464.735 z"/>
        </defs>
        <use xlink:href="#35" style="fill:#fbed21;fill-opacity:1;fill-rule:nonzero;opacity:1;stroke:none;"/>
      </g>
    </defs>
    <use xlink:href="#34"/>
    <defs>
      <title>Smart Rectangle Copy Copy Copy Copy Copy Copy</title>
      <g id="36">
        <defs>
          <path id="37" d="M1257.85,457.629 C1257.21,458.834,1255.71,459.288,1254.5,458.644 C1253.93,458.335,1253.49,457.808,1253.3,457.18 C1253.11,456.553,1253.18,455.875,1253.49,455.296 C1253.49,455.296,1257.08,448.582,1257.08,448.582 C1257.72,447.377,1259.22,446.923,1260.43,447.567 C1261.63,448.211,1262.09,449.71,1261.44,450.915 C1261.44,450.915,1257.85,457.629,1257.85,457.629 z"/>
        </defs>
        <use xlink:href="#37" style="fill:#ffffff;fill-opacity:1;fill-rule:nonzero;opacity:1;stroke:none;"/>
      </g>
    </defs>
    <use xlink:href="#36"/>
    <defs>
      <title>Smart Rectangle Copy Copy Copy Copy Copy Copy Copy</title>
      <g id="38">
        <defs>
          <path id="39" d="M1312.84,454.231 C1313.39,455.478,1312.84,456.941,1311.59,457.499 C1310.34,458.057,1308.88,457.498,1308.32,456.251 C1308.32,456.251,1305.22,449.313,1305.22,449.313 C1304.95,448.714,1304.93,448.033,1305.17,447.42 C1305.4,446.807,1305.87,446.313,1306.47,446.045 C1307.71,445.487,1309.18,446.046,1309.73,447.293 C1309.73,447.293,1312.84,454.231,1312.84,454.231 z"/>
        </defs>
        <use xlink:href="#39" style="fill:#ffffff;fill-opacity:1;fill-rule:nonzero;opacity:1;stroke:none;"/>
      </g>
    </defs>
    <use xlink:href="#38"/>
    <defs>
      <title>Smart Rectangle Copy Copy Copy Copy Copy Copy Copy Copy</title>
      <g id="40">
        <defs>
          <path id="41" d="M1269.37,441.815 C1268.15,441.197,1267.67,439.708,1268.28,438.49 C1268.9,437.272,1270.39,436.786,1271.61,437.404 C1271.61,437.404,1278.39,440.846,1278.39,440.846 C1278.97,441.143,1279.41,441.66,1279.62,442.284 C1279.82,442.908,1279.77,443.587,1279.47,444.172 C1278.85,445.39,1277.36,445.876,1276.15,445.257 C1276.15,445.257,1269.37,441.815,1269.37,441.815 z"/>
        </defs>
        <use xlink:href="#41" style="fill:#ffffff;fill-opacity:1;fill-rule:nonzero;opacity:1;stroke:none;"/>
      </g>
    </defs>
    <use xlink:href="#40"/>
    <defs>
      <title>Smart Rectangle Copy Copy Copy Copy Copy Copy Copy Copy</title>
      <g id="42">
        <defs>
          <path id="43" d="M1244.06,448.065 C1242.75,448.435,1241.38,447.668,1241.01,446.353 C1240.83,445.722,1240.91,445.045,1241.23,444.473 C1241.56,443.901,1242.09,443.48,1242.72,443.302 C1242.72,443.302,1250.05,441.242,1250.05,441.242 C1251.37,440.872,1252.73,441.639,1253.1,442.954 C1253.47,444.269,1252.71,445.635,1251.39,446.005 C1251.39,446.005,1244.06,448.065,1244.06,448.065 z"/>
        </defs>
        <use xlink:href="#43" style="fill:#3da8f4;fill-opacity:1;fill-rule:nonzero;opacity:1;stroke:none;"/>
      </g>
    </defs>
    <use xlink:href="#42"/>
    <defs>
      <title>Smart Rectangle Copy Copy Copy Copy Copy Copy Copy Copy Copy</title>
      <g id="44">
        <defs>
          <path id="45" d="M1276.25,466.422 C1276.21,467.788,1275.08,468.866,1273.71,468.83 C1272.35,468.794,1271.27,467.657,1271.3,466.291 C1271.3,466.291,1271.51,458.68,1271.51,458.68 C1271.54,457.314,1272.68,456.236,1274.04,456.272 C1275.41,456.308,1276.49,457.445,1276.45,458.81 C1276.45,458.81,1276.25,466.422,1276.25,466.422 z"/>
        </defs>
        <use xlink:href="#45" style="fill:#3da8f4;fill-opacity:1;fill-rule:nonzero;opacity:1;stroke:none;"/>
      </g>
    </defs>
    <use xlink:href="#44"/>
    <defs>
      <title>Path</title>
      <g id="46">
        <defs>
          <path id="47" d="M1299.2,478.572 C1299.26,491.88,1299.33,505.187,1299.39,518.495 C1299.54,518.494,1299.69,518.493,1299.84,518.493 C1299.78,505.185,1299.71,491.878,1299.65,478.57 C1299.5,478.571,1299.35,478.572,1299.2,478.572 z"/>
        </defs>
        <use xlink:href="#47" style="fill:#000000;fill-opacity:0.294872;fill-rule:nonzero;opacity:1;stroke:none;"/>
      </g>
    </defs>
    <use xlink:href="#46"/>
    <defs>
      <title>Path Copy</title>
      <g id="48">
        <defs>
          <path id="49" d="M1329.82,478.713 C1328.08,491.907,1326.34,505.1,1324.59,518.293 C1324.74,518.312,1324.89,518.332,1325.04,518.352 C1326.78,505.159,1328.52,491.965,1330.26,478.772 C1330.12,478.753,1329.97,478.733,1329.82,478.713 z"/>
        </defs>
        <use xlink:href="#49" style="fill:#000000;fill-opacity:0.294872;fill-rule:nonzero;opacity:1;stroke:none;"/>
      </g>
    </defs>
    <use xlink:href="#48"/>
    <defs>
      <title>Path Copy Copy</title>
      <g id="50">
        <defs>
          <path id="51" d="M1280.09,478.772 C1281.83,491.965,1283.57,505.159,1285.31,518.352 C1285.46,518.332,1285.61,518.312,1285.76,518.293 C1284.02,505.1,1282.28,491.907,1280.53,478.713 C1280.38,478.733,1280.24,478.753,1280.09,478.772 z"/>
        </defs>
        <use xlink:href="#51" style="fill:#000000;fill-opacity:0.294872;fill-rule:nonzero;opacity:1;stroke:none;"/>
      </g>
    </defs>
    <use xlink:href="#50"/>
    <defs>
      <title>Path Copy Copy Copy</title>
      <g id="52">
        <defs>
          <path id="53" d="M1315.44,478.713 C1313.7,491.907,1311.96,505.1,1310.22,518.293 C1310.37,518.312,1310.52,518.332,1310.66,518.352 C1312.41,505.159,1314.15,491.965,1315.89,478.772 C1315.74,478.753,1315.59,478.733,1315.44,478.713 z"/>
        </defs>
        <use xlink:href="#53" style="fill:#000000;fill-opacity:0.294872;fill-rule:nonzero;opacity:1;stroke:none;"/>
      </g>
    </defs>
    <use xlink:href="#52"/>
    <defs>
      <title>Path Copy Copy Copy Copy</title>
      <g id="54">
        <defs>
          <path id="55" d="M1264.66,478.772 C1266.41,491.965,1268.15,505.159,1269.89,518.352 C1270.04,518.332,1270.19,518.312,1270.34,518.293 C1268.59,505.1,1266.85,491.907,1265.11,478.713 C1264.96,478.733,1264.81,478.753,1264.66,478.772 z"/>
        </defs>
        <use xlink:href="#55" style="fill:#000000;fill-opacity:0.294872;fill-rule:nonzero;opacity:1;stroke:none;"/>
      </g>
    </defs>
    <use xlink:href="#54"/>
    <g id="56">
      <title>Group Copy Copy</title>
      <defs>
        <title>Path</title>
        <g id="57">
          <defs>
            <path id="58" d="M1323.59,494.94 C1328.35,494.94,1332.22,498.804,1332.22,503.572 C1332.22,508.339,1328.35,512.204,1323.59,512.204 C1318.82,512.204,1314.95,508.339,1314.95,503.572 C1314.95,498.804,1318.82,494.94,1323.59,494.94 z"/>
            <path id="59" d="M1323.59,495.413 C1328.08,495.46,1331.71,499.082,1331.71,503.572 C1331.71,508.057,1328.07,511.69,1323.59,511.699 C1319.11,511.697,1315.44,508.069,1315.46,503.572 C1315.45,499.068,1319.1,495.472,1323.59,495.413 z M1323.59,494.48 C1318.54,494.407,1314.46,498.541,1314.45,503.572 C1314.47,508.61,1318.53,512.712,1323.59,512.709 C1328.64,512.718,1332.73,508.622,1332.73,503.572 C1332.73,498.526,1328.63,494.419,1323.59,494.48 z"/>
          </defs>
          <use xlink:href="#58" style="fill:#000000;fill-opacity:1;fill-rule:evenodd;opacity:1;stroke:none;"/>
          <use xlink:href="#59" style="fill:#000000;fill-opacity:1;fill-rule:nonzero;opacity:1;stroke:none;"/>
        </g>
      </defs>
      <use xlink:href="#57"/>
      <defs>
        <title>Path Copy</title>
        <g id="60">
          <defs>
            <path id="61" d="M1273.52,495.2 C1278.29,495.2,1282.15,499.064,1282.15,503.832 C1282.15,508.599,1278.29,512.464,1273.52,512.464 C1268.75,512.464,1264.89,508.599,1264.89,503.832 C1264.89,499.064,1268.75,495.2,1273.52,495.2 z"/>
            <path id="62" d="M1273.52,495.673 C1278.01,495.72,1281.64,499.342,1281.64,503.832 C1281.64,508.317,1278,511.95,1273.52,511.959 C1269.04,511.957,1265.38,508.329,1265.39,503.832 C1265.38,499.328,1269.03,495.732,1273.52,495.673 z M1273.52,494.74 C1268.47,494.667,1264.39,498.801,1264.38,503.832 C1264.4,508.87,1268.46,512.972,1273.52,512.969 C1278.57,512.978,1282.66,508.882,1282.66,503.832 C1282.66,498.786,1278.56,494.679,1273.52,494.74 z"/>
          </defs>
          <use xlink:href="#61" style="fill:#000000;fill-opacity:1;fill-rule:evenodd;opacity:1;stroke:none;"/>
          <use xlink:href="#62" style="fill:#000000;fill-opacity:1;fill-rule:nonzero;opacity:1;stroke:none;"/>
        </g>
      </defs>
      <use xlink:href="#60"/>
      <defs>
        <title>Path</title>
        <g id="63">
          <defs>
            <path id="64" d="M1290.32,515.657 C1290.29,520.702,1294.08,524.862,1298.81,524.859 C1298.81,524.538,1298.81,524.217,1298.81,523.895 C1294.68,523.892,1291.28,520.244,1291.24,515.657 C1290.94,515.657,1290.63,515.657,1290.32,515.657 z"/>
          </defs>
          <use xlink:href="#64" style="fill:#000000;fill-opacity:1;fill-rule:nonzero;opacity:1;stroke:none;"/>
        </g>
      </defs>
      <use xlink:href="#63"/>
      <defs>
        <title>Path Copy</title>
        <g id="65">
          <defs>
            <path id="66" d="M1306.39,515.657 C1306.35,520.244,1302.95,523.892,1298.81,523.895 C1298.81,524.217,1298.81,524.538,1298.81,524.859 C1303.55,524.862,1307.34,520.702,1307.31,515.657 C1307,515.657,1306.69,515.657,1306.39,515.657 z"/>
          </defs>
          <use xlink:href="#66" style="fill:#000000;fill-opacity:1;fill-rule:nonzero;opacity:1;stroke:none;"/>
        </g>
      </defs>
      <use xlink:href="#65"/>
      <defs>
        <title>Path</title>
        <g id="67">
          <defs>
            <path id="68" d="M1275.9,496.942 C1276.35,496.789,1277.46,498.862,1278.38,501.572 C1279.29,504.282,1279.67,506.603,1279.22,506.756 C1278.77,506.908,1275.45,497.094,1275.9,496.942 z"/>
            <path id="69" d="M1276.06,497.413 C1275.5,497.269,1276.19,497.583,1276.53,498.419 C1276.96,499.221,1277.46,500.398,1277.91,501.731 C1278.36,503.064,1278.68,504.302,1278.82,505.202 C1279.06,506.072,1278.71,506.738,1279.06,506.286 C1279.84,506.413,1279.38,506.408,1279.37,506.154 C1279.25,505.926,1279.08,505.564,1278.9,505.121 C1278.53,504.239,1278.11,503.023,1277.69,501.806 C1277.27,500.588,1276.9,499.355,1276.64,498.433 C1276.52,497.97,1276.42,497.585,1276.38,497.33 C1276.24,497.12,1276.6,496.838,1276.06,497.413 z M1275.74,496.473 C1275.09,497.083,1275.46,497.142,1275.41,497.497 C1275.47,497.807,1275.56,498.213,1275.69,498.689 C1275.95,499.645,1276.34,500.885,1276.76,502.12 C1277.17,503.357,1277.62,504.575,1277.99,505.495 C1278.18,505.953,1278.34,506.333,1278.49,506.614 C1278.74,506.868,1278.49,507.136,1279.38,507.225 C1280.18,506.621,1279.87,506.05,1279.8,505.044 C1279.64,504.068,1279.31,502.79,1278.85,501.413 C1278.38,500.036,1277.87,498.822,1277.41,497.949 C1276.85,497.109,1276.76,496.462,1275.74,496.473 z"/>
          </defs>
          <use xlink:href="#68" style="fill:#ffffff;fill-opacity:1;fill-rule:evenodd;opacity:1;stroke:none;"/>
          <use xlink:href="#69" style="fill:#ffffff;fill-opacity:1;fill-rule:nonzero;opacity:1;stroke:none;"/>
        </g>
      </defs>
      <use xlink:href="#67"/>
      <defs>
        <title>Path Copy</title>
        <g id="70">
          <defs>
            <path id="71" d="M1327.03,496.942 C1327.49,496.789,1328.59,498.862,1329.51,501.572 C1330.43,504.282,1330.8,506.603,1330.35,506.756 C1329.9,506.908,1326.58,497.094,1327.03,496.942 z"/>
            <path id="72" d="M1327.19,497.413 C1326.63,497.269,1327.32,497.583,1327.66,498.419 C1328.09,499.221,1328.59,500.398,1329.04,501.731 C1329.49,503.064,1329.81,504.302,1329.96,505.202 C1330.19,506.072,1329.84,506.738,1330.19,506.286 C1330.97,506.413,1330.51,506.408,1330.5,506.154 C1330.38,505.926,1330.22,505.564,1330.04,505.121 C1329.66,504.239,1329.24,503.023,1328.82,501.806 C1328.4,500.588,1328.03,499.355,1327.77,498.433 C1327.65,497.97,1327.56,497.585,1327.52,497.33 C1327.37,497.12,1327.73,496.838,1327.19,497.413 z M1326.88,496.473 C1326.22,497.083,1326.59,497.142,1326.54,497.497 C1326.6,497.807,1326.69,498.213,1326.82,498.689 C1327.08,499.645,1327.48,500.885,1327.89,502.12 C1328.3,503.357,1328.76,504.575,1329.12,505.495 C1329.31,505.953,1329.48,506.333,1329.62,506.614 C1329.87,506.868,1329.62,507.136,1330.51,507.225 C1331.31,506.621,1331,506.05,1330.93,505.044 C1330.77,504.068,1330.45,502.79,1329.98,501.413 C1329.52,500.036,1329,498.822,1328.54,497.949 C1327.98,497.109,1327.89,496.462,1326.88,496.473 z"/>
          </defs>
          <use xlink:href="#71" style="fill:#ffffff;fill-opacity:1;fill-rule:evenodd;opacity:1;stroke:none;"/>
          <use xlink:href="#72" style="fill:#ffffff;fill-opacity:1;fill-rule:nonzero;opacity:1;stroke:none;"/>
        </g>
      </defs>
      <use xlink:href="#70"/>
    </g>
  </g>
</svg>
