<?xml version="1.0" encoding="utf-8"?>
<svg x="240pt" y="67.5pt" width="45pt" height="45pt" viewBox="240 67.5 45 45" xmlns="http://www.w3.org/2000/svg" xmlns:xlink="http://www.w3.org/1999/xlink">
  <g id="1">
    <title>Group</title>
    <g id="2">
      <title>Group</title>
      <defs>
        <title>Path</title>
        <g id="3">
          <defs>
            <path id="4" d="M271.186,76.4587 C273.673,75.6534,275.195,73.4659,276.03,70.8985 C276.254,70.2103,276.433,67.9947,276.942,67.5837 C277.398,67.2158,278.479,68.1661,278.856,68.3864 C280.525,69.3625,282.939,70.29,284.225,71.8354 C284.895,72.6397,284.915,73.7755,284.982,74.7861 C285.246,78.706,282.494,81.3873,279.815,83.5603 C279.133,84.1128,278.215,84.5614,277.619,85.1818"/>
          </defs>
          <use xlink:href="#4" style="fill:#e4d6da;fill-opacity:1;fill-rule:nonzero;opacity:1;stroke:none;"/>
        </g>
      </defs>
      <use xlink:href="#3"/>
      <defs>
        <title>Path</title>
        <g id="5">
          <defs>
            <path id="6" d="M251.532,73.4878 C251.557,72.1779,253.11,71.4134,254.039,72.1583 C254.614,72.6201,254.798,73.4633,255.096,74.1371 C256.627,77.5972,258.292,81.0897,259.7,84.6152 C260.113,85.6503,260.199,88.1619,260.76,89.0699"/>
          </defs>
          <use xlink:href="#6" style="fill:#c1703f;fill-opacity:1;fill-rule:nonzero;opacity:1;stroke:none;"/>
        </g>
      </defs>
      <use xlink:href="#5"/>
      <defs>
        <title>Shape 5</title>
        <g id="7">
          <defs>
            <path id="8" d="M259.823,87.3301 C257.281,83.3533,256.728,80.3784,253.936,76.5864 C253.074,75.4162,251.031,72.038,249.44,73.0234 C248.521,73.5926,248.16,75.7135,247.388,76.5398 C245.096,78.9956,243.109,80.2715,241.469,83.6488 C237.386,92.0547,242.331,105.965,249.936,110.204 C257.008,114.147,269.822,113.123,275.247,106.265 C279.202,101.265,280.079,94.3994,279.742,88.0096 C279.426,81.9999,275.98,78.2232,271.861,75.1476 C270.532,74.1551,270.134,71.28,268.126,71.7889 C266.899,72.1,265.957,75.5789,265.469,76.6631 C264.234,79.4031,262.495,85.9688,260.274,87.6692 C260.274,87.6692,259.823,87.3301,259.823,87.3301 z"/>
          </defs>
          <use xlink:href="#8" style="fill:#edb377;fill-opacity:1;fill-rule:evenodd;opacity:1;stroke:none;"/>
        </g>
      </defs>
      <use xlink:href="#7"/>
      <defs>
        <title>Path</title>
        <g id="9">
          <defs>
            <path id="10" d="M258.012,95.3546 C256.972,93.8928,258.19,91.2595,259.139,90.0903 C259.521,89.6208,260.002,89.2871,260.314,88.7431 C260.518,88.3885,260.928,88.2944,260.456,87.552"/>
          </defs>
          <use xlink:href="#10" style="fill:none;opacity:1;stroke:#834228;stroke-linecap:butt;stroke-linejoin:miter;stroke-miterlimit:10;stroke-opacity:1;stroke-width:0.3;"/>
        </g>
      </defs>
      <use xlink:href="#9"/>
      <defs>
        <title>Shape 6</title>
        <g id="11">
          <defs>
            <path id="12" d="M278.339,74.9962 C277.445,73.5722,279.04,71.177,280.613,72.2778 C282.025,73.2661,281.903,75.5155,281.923,77.0502 C281.928,77.4608,282.155,78.418,281.825,78.7264 C281.513,79.0176,280.766,78.9183,280.382,78.9203 C279.18,78.9269,276.725,79.0347,275.92,77.8897 C274.474,75.8344,276.582,74.8128,278.112,74.8925 C278.112,74.8925,278.339,74.9962,278.339,74.9962 z"/>
          </defs>
          <use xlink:href="#12" style="fill:#df125b;fill-opacity:1;fill-rule:evenodd;opacity:1;stroke:none;"/>
        </g>
      </defs>
      <use xlink:href="#11"/>
    </g>
    <g id="13">
      <title>Face Copy</title>
      <defs>
        <title>Shape 67</title>
        <g id="14">
          <defs>
            <path id="15" d="M262.895,101.846 C262.895,103.834,261.792,105,259.969,105 C258.147,105,257.037,103.837,257.037,101.849"/>
          </defs>
          <use xlink:href="#15" style="fill:none;opacity:1;stroke:#000000;stroke-linecap:butt;stroke-linejoin:miter;stroke-miterlimit:10;stroke-opacity:1;stroke-width:0.5;"/>
        </g>
      </defs>
      <use xlink:href="#14"/>
      <defs>
        <title>Shape 30</title>
        <g id="16">
          <defs>
            <path id="17" d="M250.675,94.2753 C252.43,94.2753,253.85,95.6975,253.85,97.4517 C253.85,99.206,252.43,100.628,250.675,100.628 C248.92,100.628,247.5,99.206,247.5,97.4517 C247.5,95.6975,248.92,94.2753,250.675,94.2753 z"/>
          </defs>
          <use xlink:href="#17" style="fill:#000000;fill-opacity:1;fill-rule:evenodd;opacity:1;stroke:none;"/>
          <use xlink:href="#17" style="fill:none;opacity:1;stroke:#000000;stroke-linecap:butt;stroke-linejoin:miter;stroke-miterlimit:10;stroke-opacity:1;stroke-width:1;"/>
        </g>
      </defs>
      <use xlink:href="#16"/>
      <defs>
        <title>Shape 35</title>
        <g id="18">
          <defs>
            <path id="19" d="M251.432,94.5753 C250.981,95.0129,251.243,94.994,251.192,95.1506 C251.221,95.2751,251.25,95.428,251.301,95.6057 C251.396,95.964,251.549,96.4206,251.695,96.8786 C251.848,97.3374,252.022,97.786,252.153,98.1312 C252.226,98.303,252.284,98.4458,252.343,98.5586 C252.481,98.6518,252.255,98.7982,252.889,98.8696 C253.391,98.4574,253.158,98.2637,253.158,97.8697 C253.1,97.4969,252.976,97.0192,252.802,96.5043 C252.634,95.9902,252.445,95.5365,252.263,95.2023 C252.015,94.8928,252.088,94.5942,251.432,94.5753 z"/>
          </defs>
          <use xlink:href="#19" style="fill:#ffffff;fill-opacity:1;fill-rule:nonzero;opacity:1;stroke:none;"/>
        </g>
      </defs>
      <use xlink:href="#18"/>
      <defs>
        <title>Shape 28</title>
        <g id="20">
          <defs>
            <path id="21" d="M269.099,94.1799 C270.854,94.1799,272.274,95.6021,272.274,97.3563 C272.274,99.1106,270.854,100.533,269.099,100.533 C267.344,100.533,265.924,99.1106,265.924,97.3563 C265.924,95.6021,267.344,94.1799,269.099,94.1799 z"/>
          </defs>
          <use xlink:href="#21" style="fill:#000000;fill-opacity:1;fill-rule:evenodd;opacity:1;stroke:none;"/>
          <use xlink:href="#21" style="fill:none;opacity:1;stroke:#000000;stroke-linecap:butt;stroke-linejoin:miter;stroke-miterlimit:10;stroke-opacity:1;stroke-width:1;"/>
        </g>
      </defs>
      <use xlink:href="#20"/>
      <defs>
        <title>Shape 37</title>
        <g id="22">
          <defs>
            <path id="23" d="M270.25,94.5753 C269.798,95.0129,270.06,94.994,270.009,95.1506 C270.031,95.2751,270.067,95.428,270.118,95.6057 C270.213,95.964,270.359,96.4206,270.512,96.8786 C270.665,97.3374,270.839,97.786,270.971,98.1312 C271.036,98.303,271.102,98.4458,271.16,98.5586 C271.298,98.6518,271.072,98.7982,271.699,98.8696 C272.208,98.4574,271.975,98.2637,271.975,97.8697 C271.91,97.4969,271.793,97.0192,271.619,96.5043 C271.444,95.9902,271.254,95.5365,271.08,95.2023 C270.832,94.8928,270.905,94.5942,270.25,94.5753 z"/>
          </defs>
          <use xlink:href="#23" style="fill:#ffffff;fill-opacity:1;fill-rule:nonzero;opacity:1;stroke:none;"/>
        </g>
      </defs>
      <use xlink:href="#22"/>
    </g>
  </g>
</svg>
