<?xml version="1.0" encoding="utf-8"?>
<svg x="347.526pt" y="15pt" width="44.9999pt" height="45pt" viewBox="347.526 15 44.9999 45" xmlns="http://www.w3.org/2000/svg" xmlns:xlink="http://www.w3.org/1999/xlink">
  <g id="1">
    <title>Group</title>
    <g id="2">
      <title>Group</title>
      <defs>
        <title>Shape 0</title>
        <g id="3">
          <defs>
            <path id="4" d="M368.68,23.5483 C370.498,22.8518,372.932,23.0172,374.884,23.0172 C388.497,23.0172,394.712,33.0258,391.836,43.5868 C390.247,49.4241,386.91,52.7671,381.556,55.3233 C379.897,56.1154,376.423,56.8281,373.559,58.0053 C372.895,58.2784,370.726,60.0696,369.889,59.9979 C369.106,59.931,367.792,59.5103,367.27,58.9844 C366.233,57.9388,362.7,57.0307,360.661,55.9949 C356.445,53.8532,353.098,52.269,350.07,47.424 C346.395,41.5449,346.302,30.4659,352.446,26.1441 C356.454,23.3246,363.227,23.1326,368.041,23.5232 C368.041,23.5232,368.68,23.5483,368.68,23.5483 z"/>
          </defs>
          <use xlink:href="#4" style="fill:#f7ac7b;fill-opacity:1;fill-rule:evenodd;opacity:1;stroke:none;"/>
        </g>
      </defs>
      <use xlink:href="#3"/>
      <defs>
        <title>Path</title>
        <g id="5">
          <defs>
            <path id="6" d="M371.705,24.8907 C368.122,26.3272,365.682,29.1197,364.861,33.111 C364.612,34.3208,365.112,36.5045,364.524,37.5"/>
          </defs>
          <use xlink:href="#6" style="fill:none;opacity:1;stroke:#e29c67;stroke-linecap:butt;stroke-linejoin:miter;stroke-miterlimit:10;stroke-opacity:1;stroke-width:1;"/>
        </g>
      </defs>
      <use xlink:href="#5"/>
      <defs>
        <title>Shape 2</title>
        <g id="7">
          <defs>
            <path id="8" d="M368.786,26.7107 C368.112,27.4867,367.703,28.156,366.713,28.7117 C366.15,29.0282,365.441,29.2339,364.78,29.3702 C363.652,29.6026,362.473,29.8567,361.277,29.5714 C358.965,29.0197,357.342,26.9053,355.203,25.9672 C353.763,25.3355,351.929,25.3667,350.47,25.5832 C350.597,24.4289,352.48,23.5622,353.546,23.0664 C356.849,21.5293,361.124,19.1064,364.825,21.129 C366.05,21.7984,367.6,23.1608,368.134,24.327 C368.477,25.0767,368.745,25.7059,368.853,26.537 C368.853,26.537,368.786,26.7107,368.786,26.7107 z"/>
          </defs>
          <use xlink:href="#8" style="fill:#6e9e44;fill-opacity:1;fill-rule:evenodd;opacity:1;stroke:none;"/>
        </g>
      </defs>
      <use xlink:href="#7"/>
      <defs>
        <title>Shape 1</title>
        <g id="9">
          <defs>
            <path id="10" d="M371.053,25.6061 C365.209,27.1209,360.159,24.9475,358.273,20.0219 C357.795,18.7752,357.672,17.6511,357.722,16.3377 C357.734,16.0494,357.687,15.2174,357.933,15.0036 C358,14.9453,358.808,15.6177,358.94,15.6932 C359.881,16.2322,360.541,16.7883,361.709,16.9512 C365.034,17.4151,367.961,16.4191,371.019,18.0886 C374.041,19.7381,374.679,24.1878,371.311,25.5332 C371.311,25.5332,371.053,25.6061,371.053,25.6061 z"/>
          </defs>
          <use xlink:href="#10" style="fill:#6ebc44;fill-opacity:1;fill-rule:evenodd;opacity:1;stroke:none;"/>
        </g>
      </defs>
      <use xlink:href="#9"/>
    </g>
    <g id="11">
      <title>Face Copy</title>
      <defs>
        <title>Shape 67</title>
        <g id="12">
          <defs>
            <path id="13" d="M367.895,45.1659 C367.895,47.1541,366.792,48.3201,364.969,48.3201 C363.147,48.3201,362.037,47.1573,362.037,45.1691"/>
          </defs>
          <use xlink:href="#13" style="fill:none;opacity:1;stroke:#000000;stroke-linecap:butt;stroke-linejoin:miter;stroke-miterlimit:10;stroke-opacity:1;stroke-width:0.5;"/>
        </g>
      </defs>
      <use xlink:href="#12"/>
      <defs>
        <title>Shape 30</title>
        <g id="14">
          <defs>
            <path id="15" d="M355.675,37.5954 C357.43,37.5954,358.85,39.0176,358.85,40.7719 C358.85,42.5262,357.43,43.9484,355.675,43.9484 C353.92,43.9484,352.5,42.5262,352.5,40.7719 C352.5,39.0176,353.92,37.5954,355.675,37.5954 z"/>
          </defs>
          <use xlink:href="#15" style="fill:#000000;fill-opacity:1;fill-rule:evenodd;opacity:1;stroke:none;"/>
          <use xlink:href="#15" style="fill:none;opacity:1;stroke:#000000;stroke-linecap:butt;stroke-linejoin:miter;stroke-miterlimit:10;stroke-opacity:1;stroke-width:1;"/>
        </g>
      </defs>
      <use xlink:href="#14"/>
      <defs>
        <title>Shape 35</title>
        <g id="16">
          <defs>
            <path id="17" d="M356.432,37.8954 C355.981,38.3331,356.243,38.3142,356.192,38.4707 C356.221,38.5952,356.25,38.7482,356.301,38.9259 C356.396,39.2841,356.549,39.7407,356.695,40.1988 C356.848,40.6576,357.022,41.1061,357.153,41.4513 C357.226,41.6232,357.284,41.7659,357.343,41.8788 C357.481,41.972,357.255,42.1184,357.889,42.1897 C358.391,41.7776,358.158,41.5838,358.158,41.1899 C358.1,40.817,357.976,40.3393,357.802,39.8245 C357.634,39.3104,357.445,38.8567,357.263,38.5224 C357.015,38.2129,357.088,37.9144,356.432,37.8954 z"/>
          </defs>
          <use xlink:href="#17" style="fill:#ffffff;fill-opacity:1;fill-rule:nonzero;opacity:1;stroke:none;"/>
        </g>
      </defs>
      <use xlink:href="#16"/>
      <defs>
        <title>Shape 28</title>
        <g id="18">
          <defs>
            <path id="19" d="M374.099,37.5 C375.854,37.5,377.274,38.9222,377.274,40.6765 C377.274,42.4308,375.854,43.853,374.099,43.853 C372.344,43.853,370.924,42.4308,370.924,40.6765 C370.924,38.9222,372.344,37.5,374.099,37.5 z"/>
          </defs>
          <use xlink:href="#19" style="fill:#000000;fill-opacity:1;fill-rule:evenodd;opacity:1;stroke:none;"/>
          <use xlink:href="#19" style="fill:none;opacity:1;stroke:#000000;stroke-linecap:butt;stroke-linejoin:miter;stroke-miterlimit:10;stroke-opacity:1;stroke-width:1;"/>
        </g>
      </defs>
      <use xlink:href="#18"/>
      <defs>
        <title>Shape 37</title>
        <g id="20">
          <defs>
            <path id="21" d="M375.25,37.8954 C374.798,38.3331,375.06,38.3142,375.009,38.4707 C375.031,38.5952,375.067,38.7482,375.118,38.9259 C375.213,39.2841,375.359,39.7407,375.512,40.1988 C375.665,40.6576,375.839,41.1061,375.971,41.4513 C376.036,41.6232,376.102,41.7659,376.16,41.8788 C376.298,41.972,376.072,42.1184,376.699,42.1897 C377.208,41.7776,376.975,41.5838,376.975,41.1899 C376.91,40.817,376.793,40.3393,376.619,39.8245 C376.444,39.3104,376.254,38.8567,376.08,38.5224 C375.832,38.2129,375.905,37.9144,375.25,37.8954 z"/>
          </defs>
          <use xlink:href="#21" style="fill:#ffffff;fill-opacity:1;fill-rule:nonzero;opacity:1;stroke:none;"/>
        </g>
      </defs>
      <use xlink:href="#20"/>
    </g>
  </g>
</svg>
