<?xml version="1.0" encoding="utf-8"?>
<svg x="190.038pt" y="15pt" width="45pt" height="45pt" viewBox="190.038 15 45 45" xmlns="http://www.w3.org/2000/svg" xmlns:xlink="http://www.w3.org/1999/xlink">
  <g id="1">
    <title>Group</title>
    <g id="2">
      <title>Group</title>
      <defs>
        <title>Shape 102</title>
        <g id="3">
          <defs>
            <path id="4" d="M231.979,40.3861 C231.979,40.3861,227.115,57.3081,227.115,57.3081 C218.177,62.1934,201.089,58.9365,201.089,58.9365 C201.089,58.9365,195.674,43.1631,195.674,43.1631 C198.264,43.6468,201.342,43.2449,203.756,42.9119 C206.573,42.523,209.34,42.2338,212.114,41.6078 C214.431,41.0861,216.654,40.3038,219,39.8901 C220.244,39.6706,221.667,39.6798,222.939,39.6491 C224.527,39.6101,226.321,39.4186,227.894,39.6609 C229.278,39.8753,230.68,40.5822,231.979,40.3861 z"/>
          </defs>
          <use xlink:href="#4" style="fill:#ff9346;fill-opacity:1;fill-rule:evenodd;opacity:1;stroke:none;"/>
        </g>
      </defs>
      <use xlink:href="#3"/>
      <defs>
        <title>Shape 2</title>
        <g id="5">
          <defs>
            <path id="6" d="M212.193,15.1155 C213.451,15.3761,213.73,17.3224,213.23,18.1927 C212.915,18.747,212.079,19.0727,211.449,19.2414 C209.891,19.6602,209.655,17.8852,208.346,17.6318 C204.75,16.9387,202.219,20.2269,202.769,23.2037 C201.954,23.1686,201.168,22.8422,200.331,22.992 C197.442,23.5073,194.075,26.9635,195.912,29.6817 C191.916,30.3416,189.249,35.0497,190.25,38.4806 C190.478,39.2707,192.959,42.2442,193.882,42.6364 C196.72,43.8473,200.753,43.3262,203.756,42.9119 C206.573,42.523,209.34,42.2338,212.114,41.6078 C214.431,41.0861,216.654,40.3038,219,39.8901 C220.244,39.6706,221.667,39.6798,222.939,39.6491 C224.527,39.6101,226.321,39.4186,227.894,39.6609 C229.789,39.9546,231.72,41.1721,233.371,39.728 C234.179,39.0212,234.508,37.7777,234.758,36.8215 C235.631,33.5262,234.437,29.3124,231.569,27.0749 C230.704,26.3988,229.861,25.6484,228.788,25.2641 C228.459,25.1468,227.094,24.9429,226.936,24.7286 C226.8,24.5521,226.522,22.254,225.07,21.3069 C224.04,20.6353,222.918,20.421,221.667,20.4445 C221.273,20.4523,220.573,20.7826,220.222,20.6692 C220.172,20.6529,220.43,19.7195,220.437,19.5879 C220.48,18.9841,220.108,18.0891,219.858,17.5289 C218.735,14.9683,213.394,14.8055,212.193,15.1155 C212.193,15.1155,212.193,15.1155,212.193,15.1155 z"/>
          </defs>
          <use xlink:href="#6" style="fill:#ff7bac;fill-opacity:1;fill-rule:evenodd;opacity:1;stroke:none;"/>
        </g>
      </defs>
      <use xlink:href="#5"/>
      <defs>
        <title>Shape 3</title>
        <g id="7">
          <defs>
            <path id="8" d="M198.422,29.6589 C199.73,29.1274,201.325,29.0303,202.726,28.8655 C204.964,28.6004,207.452,28.4024,209.705,28.6447 C212.536,28.9489,215.339,29.7644,218.17,30.055 C219.951,30.236,222.589,29.8719,224.083,28.9346 C224.734,28.5242,225.22,28.0598,225.692,27.482 C225.771,27.3726,226.336,26.7095,225.785,26.7811 C225.792,26.8006,225.799,26.8202,225.807,26.8397 C226.193,26.6775,225.742,27.3374,225.642,27.4449 C225.17,28.0194,224.691,28.4773,224.04,28.8838 C222.575,29.8074,219.936,30.1755,218.177,29.995 C215.353,29.7058,212.55,28.8903,209.712,28.5848 C207.445,28.3431,204.957,28.5418,202.719,28.8069 C201.318,28.9724,199.716,29.0681,198.393,29.6055 C198.401,29.6237,198.415,29.6413,198.422,29.6589 z"/>
          </defs>
          <use xlink:href="#8" style="fill:#000000;fill-opacity:0.407051;fill-rule:nonzero;opacity:1;stroke:none;"/>
        </g>
      </defs>
      <use xlink:href="#7"/>
      <defs>
        <title>Shape 4</title>
        <g id="9">
          <defs>
            <path id="10" d="M205.336,23.6095 C206.988,23.4656,208.668,23.5379,210.312,23.7665 C211.328,23.9079,212.3,24.2857,213.358,24.1958 C214.781,24.0727,216.504,23.4174,217.634,22.6136 C217.942,22.3367,218.256,22.0593,218.564,21.7818 C218.549,21.7681,218.535,21.7544,218.521,21.7401 C218.206,22.0169,217.899,22.2944,217.591,22.5693 C216.476,23.3633,214.76,24.0167,213.351,24.1372 C212.314,24.227,211.342,23.8525,210.32,23.7086 C208.675,23.4793,206.988,23.4063,205.336,23.5509 C205.336,23.5705,205.336,23.59,205.336,23.6095 z"/>
          </defs>
          <use xlink:href="#10" style="fill:#000000;fill-opacity:0.496795;fill-rule:nonzero;opacity:1;stroke:none;"/>
        </g>
      </defs>
      <use xlink:href="#9"/>
      <defs>
        <title>Shape 5</title>
        <g id="11">
          <defs>
            <path id="12" d="M230.69,34.5729 C230.69,35.023,230.29,35.3872,229.796,35.3872 C229.303,35.3872,228.902,35.023,228.902,34.5729 C228.902,34.5729,228.902,32.0671,228.902,32.0671 C228.902,31.617,229.303,31.2528,229.796,31.2528 C230.29,31.2528,230.69,31.617,230.69,32.0671 C230.69,32.0671,230.69,34.5729,230.69,34.5729 z"/>
          </defs>
          <use xlink:href="#12" style="fill:#ff7bac;fill-opacity:1;fill-rule:nonzero;opacity:1;stroke:none;"/>
        </g>
      </defs>
      <use xlink:href="#11"/>
      <defs>
        <title>Shape 6</title>
        <g id="13">
          <defs>
            <path id="14" d="M209.04,20.6601 C209.376,20.991,209.354,21.5056,208.99,21.8111 C208.625,22.1159,208.06,22.0957,207.724,21.7655 C207.724,21.7655,205.858,19.924,205.858,19.924 C205.522,19.5938,205.551,19.0792,205.908,18.7737 C206.273,18.4688,206.838,18.489,207.174,18.8193 C207.174,18.8193,209.04,20.6601,209.04,20.6601 z"/>
          </defs>
          <use xlink:href="#14" style="fill:#ffffff;fill-opacity:1;fill-rule:nonzero;opacity:1;stroke:none;"/>
        </g>
      </defs>
      <use xlink:href="#13"/>
      <defs>
        <title>Shape 7</title>
        <g id="15">
          <defs>
            <path id="16" d="M230.69,34.5729 C230.69,35.023,230.29,35.3872,229.796,35.3872 C229.303,35.3872,228.902,35.023,228.902,34.5729 C228.902,34.5729,228.902,32.0671,228.902,32.0671 C228.902,31.617,229.303,31.2528,229.796,31.2528 C230.29,31.2528,230.69,31.617,230.69,32.0671 C230.69,32.0671,230.69,34.5729,230.69,34.5729 z"/>
          </defs>
          <use xlink:href="#16" style="fill:#ffffff;fill-opacity:1;fill-rule:nonzero;opacity:1;stroke:none;"/>
        </g>
      </defs>
      <use xlink:href="#15"/>
      <defs>
        <title>Shape 8</title>
        <g id="17">
          <defs>
            <path id="18" d="M223.39,33.4278 C223.783,33.7001,223.855,34.2108,223.561,34.569 C223.261,34.9273,222.703,34.9976,222.31,34.726 C222.31,34.726,220.115,33.2115,220.115,33.2115 C219.722,32.9399,219.643,32.4292,219.944,32.071 C220.237,31.7127,220.802,31.6424,221.195,31.914 C221.195,31.914,223.39,33.4278,223.39,33.4278 z"/>
          </defs>
          <use xlink:href="#18" style="fill:#fbed21;fill-opacity:1;fill-rule:nonzero;opacity:1;stroke:none;"/>
        </g>
      </defs>
      <use xlink:href="#17"/>
      <defs>
        <title>Shape 9</title>
        <g id="19">
          <defs>
            <path id="20" d="M211.635,39.6745 C211.149,39.7534,210.684,39.4589,210.598,39.016 C210.513,38.5737,210.834,38.1503,211.321,38.0715 C211.321,38.0715,214.03,37.6299,214.03,37.6299 C214.517,37.551,214.981,37.8455,215.067,38.2884 C215.153,38.7307,214.831,39.1541,214.345,39.2329 C214.345,39.2329,211.635,39.6745,211.635,39.6745 z"/>
          </defs>
          <use xlink:href="#20" style="fill:#ffffff;fill-opacity:1;fill-rule:nonzero;opacity:1;stroke:none;"/>
        </g>
      </defs>
      <use xlink:href="#19"/>
      <defs>
        <title>Shape 10</title>
        <g id="21">
          <defs>
            <path id="22" d="M217.341,27.8344 C217.005,28.1601,216.44,28.1725,216.083,27.8618 C215.725,27.5517,215.711,27.0358,216.054,26.7108 C216.054,26.7108,217.949,24.8973,217.949,24.8973 C218.292,24.5716,218.857,24.5593,219.214,24.87 C219.572,25.18,219.586,25.6959,219.243,26.0209 C219.243,26.0209,217.341,27.8344,217.341,27.8344 z"/>
          </defs>
          <use xlink:href="#22" style="fill:#ffffff;fill-opacity:1;fill-rule:nonzero;opacity:1;stroke:none;"/>
        </g>
      </defs>
      <use xlink:href="#21"/>
      <defs>
        <title>Shape 11</title>
        <g id="23">
          <defs>
            <path id="24" d="M199.116,24.9501 C199.237,24.5143,199.723,24.2518,200.202,24.3625 C200.681,24.4739,200.967,24.9175,200.846,25.3533 C200.846,25.3533,200.167,27.7816,200.167,27.7816 C200.045,28.2174,199.559,28.4799,199.08,28.3692 C198.601,28.2578,198.315,27.8142,198.436,27.3784 C198.436,27.3784,199.116,24.9501,199.116,24.9501 z"/>
          </defs>
          <use xlink:href="#24" style="fill:#fbed21;fill-opacity:1;fill-rule:nonzero;opacity:1;stroke:none;"/>
        </g>
      </defs>
      <use xlink:href="#23"/>
      <defs>
        <title>Shape 12</title>
        <g id="25">
          <defs>
            <path id="26" d="M210.663,25.0387 C211.142,24.9292,211.628,25.195,211.75,25.6314 C211.871,26.0672,211.578,26.5095,211.099,26.6183 C211.099,26.6183,208.432,27.226,208.432,27.226 C207.953,27.3348,207.467,27.0697,207.345,26.6332 C207.224,26.1968,207.517,25.7552,207.996,25.6458 C207.996,25.6458,210.663,25.0387,210.663,25.0387 z"/>
          </defs>
          <use xlink:href="#26" style="fill:#3da8f4;fill-opacity:1;fill-rule:nonzero;opacity:1;stroke:none;"/>
        </g>
      </defs>
      <use xlink:href="#25"/>
      <defs>
        <title>Shape 13</title>
        <g id="27">
          <defs>
            <path id="28" d="M218.306,19.5723 C218.792,19.6049,219.164,19.995,219.128,20.4438 C219.093,20.892,218.664,21.2287,218.17,21.1962 C218.17,21.1962,215.432,21.0125,215.432,21.0125 C214.939,20.9799,214.567,20.5897,214.602,20.1409 C214.638,19.6928,215.067,19.3554,215.561,19.3886 C215.561,19.3886,218.306,19.5723,218.306,19.5723 z"/>
          </defs>
          <use xlink:href="#28" style="fill:#fbed21;fill-opacity:1;fill-rule:nonzero;opacity:1;stroke:none;"/>
        </g>
      </defs>
      <use xlink:href="#27"/>
      <defs>
        <title>Shape 14</title>
        <g id="29">
          <defs>
            <path id="30" d="M211.993,32.1153 C212.407,31.8769,212.958,31.9921,213.223,32.3739 C213.487,32.7549,213.358,33.2571,212.937,33.4955 C212.937,33.4955,210.606,34.8244,210.606,34.8244 C210.184,35.0628,209.633,34.9468,209.376,34.5658 C209.111,34.1847,209.24,33.6825,209.655,33.4441 C209.655,33.4441,211.993,32.1153,211.993,32.1153 z"/>
          </defs>
          <use xlink:href="#30" style="fill:#fbed21;fill-opacity:1;fill-rule:nonzero;opacity:1;stroke:none;"/>
        </g>
      </defs>
      <use xlink:href="#29"/>
      <defs>
        <title>Shape 15</title>
        <g id="31">
          <defs>
            <path id="32" d="M226.064,38.0161 C225.814,38.4037,225.263,38.532,224.841,38.3034 C224.412,38.0747,224.269,37.5758,224.519,37.1882 C224.519,37.1882,225.921,35.0302,225.921,35.0302 C226.171,34.6426,226.722,34.5143,227.144,34.7423 C227.573,34.9709,227.708,35.4705,227.458,35.8575 C227.458,35.8575,226.064,38.0161,226.064,38.0161 z"/>
          </defs>
          <use xlink:href="#32" style="fill:#3da8f4;fill-opacity:1;fill-rule:nonzero;opacity:1;stroke:none;"/>
        </g>
      </defs>
      <use xlink:href="#31"/>
      <defs>
        <title>Shape 16</title>
        <g id="33">
          <defs>
            <path id="34" d="M225.349,25.2921 C225.706,25.6028,225.721,26.1187,225.378,26.4431 C225.042,26.7681,224.477,26.7798,224.119,26.4684 C224.119,26.4684,222.131,24.7358,222.131,24.7358 C221.774,24.4251,221.76,23.9098,222.103,23.5848 C222.439,23.2597,223.011,23.2487,223.361,23.5594 C223.361,23.5594,225.349,25.2921,225.349,25.2921 z"/>
          </defs>
          <use xlink:href="#34" style="fill:#3da8f4;fill-opacity:1;fill-rule:nonzero;opacity:1;stroke:none;"/>
        </g>
      </defs>
      <use xlink:href="#33"/>
      <defs>
        <title>Shape 17</title>
        <g id="35">
          <defs>
            <path id="36" d="M197.142,38.7763 C197.564,38.5379,198.115,38.6538,198.379,39.0349 C198.637,39.4159,198.508,39.9188,198.093,40.1572 C198.093,40.1572,195.762,41.486,195.762,41.486 C195.34,41.7244,194.79,41.6085,194.525,41.2268 C194.268,40.8457,194.397,40.3435,194.811,40.1051 C194.811,40.1051,197.142,38.7763,197.142,38.7763 z"/>
          </defs>
          <use xlink:href="#36" style="fill:#fbed21;fill-opacity:1;fill-rule:nonzero;opacity:1;stroke:none;"/>
        </g>
      </defs>
      <use xlink:href="#35"/>
      <defs>
        <title>Shape 18</title>
        <g id="37">
          <defs>
            <path id="38" d="M199.545,36.4372 C199.316,36.8339,198.772,36.9837,198.336,36.7713 C197.9,36.5596,197.736,36.0659,197.972,35.6692 C197.972,35.6692,199.266,33.4591,199.266,33.4591 C199.502,33.063,200.045,32.9132,200.474,33.1256 C200.91,33.3373,201.075,33.831,200.846,34.227 C200.846,34.227,199.545,36.4372,199.545,36.4372 z"/>
          </defs>
          <use xlink:href="#38" style="fill:#ffffff;fill-opacity:1;fill-rule:nonzero;opacity:1;stroke:none;"/>
        </g>
      </defs>
      <use xlink:href="#37"/>
      <defs>
        <title>Shape 19</title>
        <g id="39">
          <defs>
            <path id="40" d="M219.414,35.3188 C219.615,35.7291,219.414,36.2112,218.964,36.3948 C218.514,36.5779,217.984,36.3942,217.777,35.9838 C217.777,35.9838,216.662,33.7001,216.662,33.7001 C216.454,33.2897,216.662,32.8077,217.112,32.6246 C217.563,32.441,218.092,32.6246,218.292,33.035 C218.292,33.035,219.414,35.3188,219.414,35.3188 z"/>
          </defs>
          <use xlink:href="#40" style="fill:#ffffff;fill-opacity:1;fill-rule:nonzero;opacity:1;stroke:none;"/>
        </g>
      </defs>
      <use xlink:href="#39"/>
      <defs>
        <title>Shape 20</title>
        <g id="41">
          <defs>
            <path id="42" d="M203.706,31.232 C203.27,31.0288,203.091,30.5383,203.313,30.1377 C203.541,29.7364,204.078,29.5768,204.514,29.7801 C204.514,29.7801,206.966,30.9128,206.966,30.9128 C207.402,31.1167,207.581,31.6072,207.359,32.0078 C207.131,32.409,206.594,32.5686,206.158,32.3648 C206.158,32.3648,203.706,31.232,203.706,31.232 z"/>
          </defs>
          <use xlink:href="#42" style="fill:#ffffff;fill-opacity:1;fill-rule:nonzero;opacity:1;stroke:none;"/>
        </g>
      </defs>
      <use xlink:href="#41"/>
      <defs>
        <title>Shape 21</title>
        <g id="43">
          <defs>
            <path id="44" d="M194.561,33.2897 C194.089,33.4109,193.596,33.1588,193.46,32.7256 C193.324,32.2931,193.603,31.8436,194.082,31.7218 C194.082,31.7218,196.727,31.0438,196.727,31.0438 C197.207,30.9219,197.7,31.174,197.829,31.6072 C197.964,32.0397,197.686,32.4898,197.214,32.611 C197.214,32.611,194.561,33.2897,194.561,33.2897 z"/>
          </defs>
          <use xlink:href="#44" style="fill:#3da8f4;fill-opacity:1;fill-rule:nonzero;opacity:1;stroke:none;"/>
        </g>
      </defs>
      <use xlink:href="#43"/>
      <defs>
        <title>Shape 22</title>
        <g id="45">
          <defs>
            <path id="46" d="M206.194,39.3319 C206.18,39.7814,205.772,40.1357,205.279,40.124 C204.786,40.1123,204.392,39.7384,204.407,39.2889 C204.407,39.2889,204.478,36.7831,204.478,36.7831 C204.492,36.3336,204.9,35.9786,205.393,35.991 C205.887,36.0027,206.28,36.3766,206.266,36.8261 C206.266,36.8261,206.194,39.3319,206.194,39.3319 z"/>
          </defs>
          <use xlink:href="#46" style="fill:#3da8f4;fill-opacity:1;fill-rule:nonzero;opacity:1;stroke:none;"/>
        </g>
      </defs>
      <use xlink:href="#45"/>
      <defs>
        <title>Shape 23</title>
        <g id="47">
          <defs>
            <path id="48" d="M214.402,43.3314 C214.431,47.7113,214.452,52.0918,214.474,56.4717 C214.581,56.471,214.688,56.471,214.796,56.4704 C214.774,52.0905,214.753,47.71,214.724,43.3301 C214.617,43.3301,214.509,43.3307,214.402,43.3314 z"/>
          </defs>
          <use xlink:href="#48" style="fill:#000000;fill-opacity:0.294872;fill-rule:nonzero;opacity:1;stroke:none;"/>
        </g>
      </defs>
      <use xlink:href="#47"/>
      <defs>
        <title>Shape 24</title>
        <g id="49">
          <defs>
            <path id="50" d="M225.47,43.3679 C224.841,47.7106,224.212,52.0527,223.583,56.3955 C223.69,56.4085,223.79,56.4209,223.897,56.4339 C224.527,52.0912,225.156,47.7491,225.785,43.4063 C225.678,43.3933,225.578,43.3809,225.47,43.3679 z"/>
          </defs>
          <use xlink:href="#50" style="fill:#000000;fill-opacity:0.294872;fill-rule:nonzero;opacity:1;stroke:none;"/>
        </g>
      </defs>
      <use xlink:href="#49"/>
      <defs>
        <title>Shape 25</title>
        <g id="51">
          <defs>
            <path id="52" d="M207.503,43.4063 C208.132,47.7491,208.761,52.0912,209.39,56.4339 C209.497,56.4209,209.597,56.4085,209.705,56.3955 C209.076,52.0527,208.446,47.7106,207.817,43.3679 C207.71,43.3809,207.61,43.3933,207.503,43.4063 z"/>
          </defs>
          <use xlink:href="#52" style="fill:#000000;fill-opacity:0.294872;fill-rule:nonzero;opacity:1;stroke:none;"/>
        </g>
      </defs>
      <use xlink:href="#51"/>
      <defs>
        <title>Shape 26</title>
        <g id="53">
          <defs>
            <path id="54" d="M220.272,43.3679 C219.643,47.7106,219.014,52.0527,218.385,56.3955 C218.492,56.4085,218.599,56.4209,218.707,56.4339 C219.336,52.0912,219.965,47.7491,220.594,43.4063 C220.487,43.3933,220.38,43.3809,220.272,43.3679 z"/>
          </defs>
          <use xlink:href="#54" style="fill:#000000;fill-opacity:0.294872;fill-rule:nonzero;opacity:1;stroke:none;"/>
        </g>
      </defs>
      <use xlink:href="#53"/>
      <defs>
        <title>Shape 27</title>
        <g id="55">
          <defs>
            <path id="56" d="M201.926,43.4063 C202.555,47.7491,203.184,52.0912,203.813,56.4339 C203.92,56.4209,204.028,56.4085,204.135,56.3955 C203.506,52.0527,202.877,47.7106,202.247,43.3679 C202.14,43.3809,202.033,43.3933,201.926,43.4063 z"/>
          </defs>
          <use xlink:href="#56" style="fill:#000000;fill-opacity:0.294872;fill-rule:nonzero;opacity:1;stroke:none;"/>
        </g>
      </defs>
      <use xlink:href="#55"/>
    </g>
    <g id="57">
      <title>Group</title>
      <g id="58">
        <title>Group</title>
        <g id="59">
          <title>Group</title>
          <g id="60">
            <title>Group</title>
            <defs>
              <title>Shape 28</title>
              <g id="61">
                <defs>
                  <path id="62" d="M221.142,44.2212 C222.897,44.2212,224.317,45.6435,224.317,47.3977 C224.317,49.152,222.897,50.5742,221.142,50.5742 C219.387,50.5742,217.967,49.152,217.967,47.3977 C217.967,45.6435,219.387,44.2212,221.142,44.2212 z"/>
                </defs>
                <use xlink:href="#62" style="fill:#000000;fill-opacity:1;fill-rule:evenodd;opacity:1;stroke:none;"/>
              </g>
            </defs>
            <use xlink:href="#61"/>
          </g>
          <g id="63">
            <title>Group</title>
            <defs>
              <title>Shape 29</title>
              <g id="64">
                <defs>
                  <path id="65" d="M221.142,44.5664 C222.693,44.5999,223.946,45.8459,223.946,47.3977 C223.946,48.9467,222.693,50.1999,221.142,50.2065 C219.598,50.205,218.317,48.9547,218.331,47.3977 C218.324,45.835,219.591,44.6087,221.142,44.5664 z M221.142,43.887 C219.183,43.8331,217.603,45.4512,217.596,47.3977 C217.61,49.3493,219.176,50.9434,221.142,50.942 C223.101,50.9485,224.689,49.3574,224.689,47.3977 C224.689,45.441,223.094,43.8418,221.142,43.887 z"/>
                </defs>
                <use xlink:href="#65" style="fill:#000000;fill-opacity:1;fill-rule:nonzero;opacity:1;stroke:none;"/>
              </g>
            </defs>
            <use xlink:href="#64"/>
          </g>
        </g>
      </g>
      <g id="66">
        <title>Group</title>
        <g id="67">
          <title>Group</title>
          <g id="68">
            <title>Group</title>
            <defs>
              <title>Shape 30</title>
              <g id="69">
                <defs>
                  <path id="70" d="M202.718,44.3166 C204.473,44.3166,205.893,45.7389,205.893,47.4931 C205.893,49.2474,204.473,50.6696,202.718,50.6696 C200.963,50.6696,199.543,49.2474,199.543,47.4931 C199.543,45.7389,200.963,44.3166,202.718,44.3166 z"/>
                </defs>
                <use xlink:href="#70" style="fill:#000000;fill-opacity:1;fill-rule:evenodd;opacity:1;stroke:none;"/>
              </g>
            </defs>
            <use xlink:href="#69"/>
          </g>
          <g id="71">
            <title>Group</title>
            <defs>
              <title>Shape 31</title>
              <g id="72">
                <defs>
                  <path id="73" d="M202.718,44.6618 C204.269,44.696,205.522,45.9413,205.522,47.4931 C205.522,49.042,204.269,50.2953,202.718,50.3019 C201.174,50.3004,199.893,49.0508,199.907,47.4931 C199.9,45.9311,201.167,44.7048,202.718,44.6618 z M202.718,43.9824 C200.759,43.9292,199.179,45.5473,199.172,47.4931 C199.186,49.4447,200.752,51.0395,202.718,51.0374 C204.677,51.0439,206.265,49.4528,206.265,47.4931 C206.265,45.5364,204.67,43.938,202.718,43.9824 z"/>
                </defs>
                <use xlink:href="#73" style="fill:#000000;fill-opacity:1;fill-rule:nonzero;opacity:1;stroke:none;"/>
              </g>
            </defs>
            <use xlink:href="#72"/>
          </g>
        </g>
      </g>
      <g id="74">
        <title>Group</title>
        <g id="75">
          <title>Group</title>
          <g id="76">
            <title>Group</title>
            <defs>
              <title>Shape 32</title>
              <g id="77">
                <defs>
                  <path id="78" d="M208.733,51.845 C208.712,53.7842,210.175,55.4067,212.025,55.4045 C212.025,55.1707,212.025,54.937,212.025,54.7025 C210.612,54.7003,209.425,53.4499,209.403,51.845 C209.185,51.845,208.959,51.845,208.733,51.845 z"/>
                </defs>
                <use xlink:href="#78" style="fill:#000000;fill-opacity:1;fill-rule:nonzero;opacity:1;stroke:none;"/>
              </g>
            </defs>
            <use xlink:href="#77"/>
          </g>
        </g>
      </g>
      <g id="79">
        <title>Group</title>
        <g id="80">
          <title>Group</title>
          <g id="81">
            <title>Group</title>
            <defs>
              <title>Shape 33</title>
              <g id="82">
                <defs>
                  <path id="83" d="M214.646,51.845 C214.625,53.4499,213.438,54.7003,212.025,54.7025 C212.025,54.937,212.025,55.1707,212.025,55.4045 C213.875,55.4067,215.338,53.7842,215.316,51.845 C215.091,51.845,214.872,51.845,214.646,51.845 z"/>
                </defs>
                <use xlink:href="#83" style="fill:#000000;fill-opacity:1;fill-rule:nonzero;opacity:1;stroke:none;"/>
              </g>
            </defs>
            <use xlink:href="#82"/>
          </g>
        </g>
      </g>
      <g id="84">
        <title>Group</title>
        <g id="85">
          <title>Group</title>
          <g id="86">
            <title>Group</title>
            <defs>
              <title>Shape 34</title>
              <g id="87">
                <defs>
                  <path id="88" d="M203.592,44.9582 C203.76,44.9014,204.168,45.6646,204.502,46.6615 C204.845,47.6592,204.983,48.5134,204.816,48.5694 C204.648,48.6255,203.425,45.0143,203.592,44.9582 z"/>
                </defs>
                <use xlink:href="#88" style="fill:#ffffff;fill-opacity:1;fill-rule:evenodd;opacity:1;stroke:none;"/>
              </g>
            </defs>
            <use xlink:href="#87"/>
          </g>
          <g id="89">
            <title>Group</title>
            <defs>
              <title>Shape 35</title>
              <g id="90">
                <defs>
                  <path id="91" d="M203.709,45.3012 C203.221,45.224,203.585,45.2793,203.665,45.5859 C203.818,45.8685,204,46.2952,204.16,46.778 C204.328,47.2601,204.444,47.7087,204.495,48.0262 C204.612,48.3218,204.357,48.584,204.699,48.2272 C205.289,48.3131,204.99,48.3583,205.027,48.265 C204.99,48.1908,204.932,48.0604,204.867,47.9002 C204.728,47.5827,204.575,47.1356,204.415,46.6914 C204.262,46.2464,204.131,45.7935,204.036,45.4599 C204,45.2925,203.956,45.1548,203.949,45.0711 C203.862,45.0194,204.124,44.8759,203.709,45.3012 z M203.476,44.6167 C203.024,45.0543,203.286,45.0354,203.235,45.192 C203.265,45.3165,203.294,45.4694,203.345,45.6471 C203.439,46.0054,203.592,46.462,203.738,46.92 C203.891,47.3788,204.066,47.8274,204.197,48.1726 C204.269,48.3444,204.328,48.4871,204.386,48.6 C204.524,48.6932,204.299,48.8396,204.932,48.911 C205.435,48.4988,205.202,48.3051,205.202,47.9111 C205.143,47.5383,205.019,47.0606,204.845,46.5457 C204.677,46.0316,204.488,45.5779,204.306,45.2437 C204.058,44.9342,204.131,44.6356,203.476,44.6167 z"/>
                </defs>
                <use xlink:href="#91" style="fill:#ffffff;fill-opacity:1;fill-rule:nonzero;opacity:1;stroke:none;"/>
              </g>
            </defs>
            <use xlink:href="#90"/>
          </g>
        </g>
      </g>
      <g id="92">
        <title>Group</title>
        <g id="93">
          <title>Group</title>
          <g id="94">
            <title>Group</title>
            <defs>
              <title>Shape 36</title>
              <g id="95">
                <defs>
                  <path id="96" d="M222.409,44.9582 C222.577,44.9014,222.985,45.6646,223.32,46.6615 C223.655,47.6592,223.793,48.5134,223.633,48.5694 C223.465,48.6255,222.242,45.0143,222.409,44.9582 z"/>
                </defs>
                <use xlink:href="#96" style="fill:#ffffff;fill-opacity:1;fill-rule:evenodd;opacity:1;stroke:none;"/>
              </g>
            </defs>
            <use xlink:href="#95"/>
          </g>
          <g id="97">
            <title>Group</title>
            <defs>
              <title>Shape 37</title>
              <g id="98">
                <defs>
                  <path id="99" d="M222.526,45.3012 C222.038,45.224,222.395,45.2793,222.482,45.5859 C222.635,45.8685,222.817,46.2952,222.977,46.778 C223.145,47.2601,223.261,47.7087,223.312,48.0262 C223.422,48.3218,223.174,48.584,223.516,48.2272 C224.099,48.3131,223.808,48.3583,223.844,48.265 C223.8,48.1908,223.742,48.0604,223.676,47.9002 C223.538,47.5827,223.392,47.1356,223.232,46.6914 C223.079,46.2464,222.948,45.7935,222.854,45.4599 C222.81,45.2925,222.773,45.1548,222.766,45.0711 C222.679,45.0194,222.941,44.8759,222.526,45.3012 z M222.293,44.6167 C221.841,45.0543,222.104,45.0354,222.052,45.192 C222.074,45.3165,222.111,45.4694,222.162,45.6471 C222.256,46.0054,222.402,46.462,222.555,46.92 C222.708,47.3788,222.883,47.8274,223.014,48.1726 C223.079,48.3444,223.145,48.4871,223.203,48.6 C223.341,48.6932,223.116,48.8396,223.742,48.911 C224.252,48.4988,224.019,48.3051,224.019,47.9111 C223.953,47.5383,223.837,47.0606,223.662,46.5457 C223.487,46.0316,223.298,45.5779,223.123,45.2437 C222.875,44.9342,222.948,44.6356,222.293,44.6167 z"/>
                </defs>
                <use xlink:href="#99" style="fill:#ffffff;fill-opacity:1;fill-rule:nonzero;opacity:1;stroke:none;"/>
              </g>
            </defs>
            <use xlink:href="#98"/>
          </g>
        </g>
      </g>
    </g>
  </g>
</svg>
