<?xml version="1.0" encoding="utf-8"?>
<svg x="292.5pt" y="119.841pt" width="45pt" height="45.1589pt" viewBox="292.5 119.841 45 45.1589" xmlns="http://www.w3.org/2000/svg" xmlns:xlink="http://www.w3.org/1999/xlink">
  <g id="1">
    <title>Group</title>
    <g id="2">
      <title>Group</title>
      <defs>
        <title>Shape 43</title>
        <g id="3">
          <defs>
            <path id="4" d="M311.09,132.534 C311.345,132.34,312.039,132.354,312.303,132.533 C312.609,132.741,312.611,133.139,312.837,133.394 C313.362,133.99,314.231,134.176,314.068,135.031 C313.883,136.004,311.414,137.061,310.169,136.846 C309.751,136.774,309.59,136.368,309.245,136.209 C308.575,135.899,307.949,136.125,307.397,135.549 C306.224,134.324,307.181,132.677,309.118,132.35 C309.921,132.215,309.966,132.228,310.721,132.379 C310.721,132.379,311.09,132.534,311.09,132.534 z"/>
          </defs>
          <use xlink:href="#4" style="fill:#f9f7a8;fill-opacity:1;fill-rule:evenodd;opacity:1;stroke:none;"/>
          <use xlink:href="#4" style="fill:none;opacity:1;stroke:#d1bc70;stroke-linecap:butt;stroke-linejoin:miter;stroke-miterlimit:10;stroke-opacity:1;stroke-width:0.3;"/>
        </g>
      </defs>
      <use xlink:href="#3"/>
      <defs>
        <title>Path</title>
        <g id="5">
          <defs>
            <path id="6" d="M293.767,134.511 C293.375,134.051,293.317,133.117,294.039,132.789 C294.321,132.661,295.122,132.617,295.401,132.764 C295.54,132.837,295.572,133.097,295.76,133.098 C296.614,133.101,297.394,132.595,298.359,132.921 C299.499,133.305,299.857,135.43,299.347,136.199 C297.788,138.552,292.635,136.215,293.815,133.927"/>
          </defs>
          <use xlink:href="#6" style="fill:#f9f7a8;fill-opacity:1;fill-rule:nonzero;opacity:1;stroke:none;"/>
          <use xlink:href="#6" style="fill:none;opacity:1;stroke:#d1bc70;stroke-linecap:butt;stroke-linejoin:miter;stroke-miterlimit:10;stroke-opacity:1;stroke-width:0.3;"/>
        </g>
      </defs>
      <use xlink:href="#5"/>
      <defs>
        <title>Shape 40</title>
        <g id="7">
          <defs>
            <path id="8" d="M306.801,123.995 C306.379,124.071,305.948,124.116,305.594,124.319 C305.18,124.556,305.135,124.957,304.835,125.256 C304.061,126.03,302.078,126.957,302.981,128.16 C303.307,128.594,304.081,128.795,304.645,129.005 C306.326,129.629,308.702,129.992,310.594,129.992 C311.408,129.992,312.434,130.077,313.063,129.595 C313.779,129.047,316.315,127.014,315.488,126.204 C315.189,125.912,314.24,125.864,314.111,125.538 C313.875,124.945,313.314,125.074,312.832,124.49 C311.073,122.359,308.727,122.112,307.037,123.812 C307.037,123.812,306.801,123.995,306.801,123.995 z"/>
          </defs>
          <use xlink:href="#8" style="fill:#f9f7a8;fill-opacity:1;fill-rule:evenodd;opacity:1;stroke:none;"/>
          <use xlink:href="#8" style="fill:none;opacity:1;stroke:#d1bc70;stroke-linecap:butt;stroke-linejoin:miter;stroke-miterlimit:10;stroke-opacity:1;stroke-width:0.3;"/>
        </g>
      </defs>
      <use xlink:href="#7"/>
      <defs>
        <title>Shape 41</title>
        <g id="9">
          <defs>
            <path id="10" d="M304.022,125.917 C304.262,127.952,300.623,128.432,299.004,127.088 C298.374,126.565,298.087,125.469,298.377,124.801 C298.527,124.454,299.045,124.299,299.094,123.922 C299.234,122.848,298.483,121.511,300.077,120.824 C300.895,120.472,301.989,120.211,302.938,120.35 C303.31,120.404,303.528,120.766,303.9,120.742 C304.802,120.685,305.936,119.898,306.829,120.512 C307.703,121.112,306.998,121.878,307.379,122.522 C307.593,122.884,308.256,122.997,308.428,123.437 C309.217,125.455,306.378,125.897,304.34,125.897 C304.34,125.897,304.022,125.917,304.022,125.917 z"/>
          </defs>
          <use xlink:href="#10" style="fill:#f9f7a8;fill-opacity:1;fill-rule:evenodd;opacity:1;stroke:none;"/>
          <use xlink:href="#10" style="fill:none;opacity:1;stroke:#d1bc70;stroke-linecap:butt;stroke-linejoin:miter;stroke-miterlimit:10;stroke-opacity:1;stroke-width:0.3;"/>
        </g>
      </defs>
      <use xlink:href="#9"/>
      <defs>
        <title>Path</title>
        <g id="11">
          <defs>
            <path id="12" d="M300.217,132.998 C299.589,133.832,297.694,134.073,296.457,133.632 C296.211,133.544,296.195,133.316,295.983,133.242 C295.658,133.129,295.312,133.297,295.045,133.055 C294.474,132.539,294.226,131.785,294.428,131.127 C294.494,130.911,294.797,130.731,294.802,130.512 C294.816,129.788,294.222,129.087,294.35,128.271 C294.415,127.854,295.004,127.843,295.264,127.54 C295.967,126.719,295.723,126.172,297.22,125.879 C298.103,125.707,299.039,125.631,299.383,126.368 C299.476,126.569,299.397,126.961,299.576,127.116 C300.091,127.561,301.539,127.029,302.242,127.529 C304.652,129.243,300.91,132.008,300.249,133.689"/>
          </defs>
          <use xlink:href="#12" style="fill:#f9f7a8;fill-opacity:1;fill-rule:nonzero;opacity:1;stroke:none;"/>
          <use xlink:href="#12" style="fill:none;opacity:1;stroke:#d1bc70;stroke-linecap:butt;stroke-linejoin:miter;stroke-miterlimit:10;stroke-opacity:1;stroke-width:0.3;"/>
        </g>
      </defs>
      <use xlink:href="#11"/>
      <defs>
        <title>Shape 38</title>
        <g id="13">
          <defs>
            <path id="14" d="M316.304,125.487 C314.035,124.938,314.297,126.601,314.337,127.56 C314.349,127.868,314.024,128.101,314.124,128.427 C314.372,129.231,315.7,129.67,316.674,129.757 C317.091,129.794,318.801,130.097,319.185,129.942 C320.447,129.432,318.874,126.314,317.955,125.74 C317.325,125.346,317.279,125.526,316.519,125.442 C316.519,125.442,316.304,125.487,316.304,125.487 z"/>
          </defs>
          <use xlink:href="#14" style="fill:#f9f7a8;fill-opacity:1;fill-rule:evenodd;opacity:1;stroke:none;"/>
          <use xlink:href="#14" style="fill:none;opacity:1;stroke:#d1bc70;stroke-linecap:butt;stroke-linejoin:miter;stroke-miterlimit:10;stroke-opacity:1;stroke-width:0.3;"/>
        </g>
      </defs>
      <use xlink:href="#13"/>
      <defs>
        <title>Shape 39</title>
        <g id="15">
          <defs>
            <path id="16" d="M312.466,129.403 C310.006,128.808,307.659,130.09,308.719,132.083 C309.792,134.099,313.905,135.482,316.516,134.177 C317.337,133.766,317.702,133.601,317.934,133.038 C318.263,132.24,319.679,131.621,318.934,130.564 C318.429,129.848,316.587,129.778,315.824,129.501 C315.48,129.377,315.349,129.033,315.013,128.878 C313.752,128.297,312.887,128.249,312.541,129.197 C312.541,129.197,312.466,129.403,312.466,129.403 z"/>
          </defs>
          <use xlink:href="#16" style="fill:#f9f7a8;fill-opacity:1;fill-rule:evenodd;opacity:1;stroke:none;"/>
          <use xlink:href="#16" style="fill:none;opacity:1;stroke:#d1bc70;stroke-linecap:butt;stroke-linejoin:miter;stroke-miterlimit:10;stroke-opacity:1;stroke-width:0.3;"/>
        </g>
      </defs>
      <use xlink:href="#15"/>
      <defs>
        <title>Shape 42</title>
        <g id="17">
          <defs>
            <path id="18" d="M300.229,134.267 C299.23,134.203,298.614,133.377,299.294,132.694 C299.447,132.541,300.169,132.213,300.086,132.011 C299.823,131.374,298.621,130.786,299.662,130.042 C299.931,129.85,300.496,129.898,300.698,129.715 C300.999,129.442,300.337,128.812,300.525,128.45 C301.156,127.24,303.425,127.816,304.701,127.736 C305.759,127.669,306.795,126.861,307.855,127.582 C309.238,128.521,308.366,129.202,308.597,130.301 C308.694,130.766,309.769,131.002,309.978,131.564 C310.447,132.829,309.317,132.867,308.669,133.738 C308.262,134.285,308.33,134.812,307.637,135.306 C305.505,136.824,300.424,137.43,300.264,134.505 C300.264,134.505,300.229,134.267,300.229,134.267 z"/>
          </defs>
          <use xlink:href="#18" style="fill:#f9f7a8;fill-opacity:1;fill-rule:evenodd;opacity:1;stroke:none;"/>
          <use xlink:href="#18" style="fill:none;opacity:1;stroke:#d1bc70;stroke-linecap:butt;stroke-linejoin:miter;stroke-miterlimit:10;stroke-opacity:1;stroke-width:0.3;"/>
        </g>
      </defs>
      <use xlink:href="#17"/>
      <defs>
        <title>Shape 36</title>
        <g id="19">
          <defs>
            <path id="20" d="M319.252,132.033 C318.078,131.961,318.022,132.341,317.441,132.988 C317.017,133.46,316.353,133.678,316.264,134.306 C316.082,135.582,318.341,136.61,319.925,136.306 C321.076,136.085,322.566,133.615,321.769,132.867 C320.797,131.953,320.662,132.505,319.502,132.066 C319.502,132.066,319.252,132.033,319.252,132.033 z"/>
          </defs>
          <use xlink:href="#20" style="fill:#f9f7a8;fill-opacity:1;fill-rule:evenodd;opacity:1;stroke:none;"/>
          <use xlink:href="#20" style="fill:none;opacity:1;stroke:#d1bc70;stroke-linecap:butt;stroke-linejoin:miter;stroke-miterlimit:10;stroke-opacity:1;stroke-width:0.3;"/>
        </g>
      </defs>
      <use xlink:href="#19"/>
      <defs>
        <title>Shape 35</title>
        <g id="21">
          <defs>
            <path id="22" d="M319.289,123.844 C318.48,123.099,319.499,121.72,320.678,121.589 C321.262,121.524,322.327,121.794,322.825,121.596 C323.196,121.448,323.16,121.046,323.661,120.907 C325.679,120.345,326.534,121.663,326.119,122.968 C327.46,123.025,328.3,124.628,327.905,125.508 C327.332,126.787,324.791,128.072,323.076,128.219 C322.141,128.299,320.676,128.401,319.84,128.04 C318,127.243,318.336,125.301,319.1,124.026 C319.1,124.026,319.289,123.844,319.289,123.844 z"/>
          </defs>
          <use xlink:href="#22" style="fill:#f9f7a8;fill-opacity:1;fill-rule:evenodd;opacity:1;stroke:none;"/>
          <use xlink:href="#22" style="fill:none;opacity:1;stroke:#d1bc70;stroke-linecap:butt;stroke-linejoin:miter;stroke-miterlimit:10;stroke-opacity:1;stroke-width:0.3;"/>
        </g>
      </defs>
      <use xlink:href="#21"/>
      <defs>
        <title>Path</title>
        <g id="23">
          <defs>
            <path id="24" d="M314.876,120.708 C313.733,119.967,311.85,119.477,311.326,120.976 C311.19,121.365,311.566,121.929,311.38,122.255 C311.27,122.447,310.774,122.502,310.594,122.705 C310.184,123.169,310.308,124.313,310.604,124.802 C311.078,125.585,312.879,126.014,313.947,125.869 C314.455,125.8,314.76,125.495,315.331,125.611 C316.823,125.914,318.239,127.253,319.986,126.352 C320.868,125.897,321.652,125.018,320.726,124.333 C320.429,124.114,319.557,123.968,319.492,123.632 C319.434,123.334,319.792,122.982,319.814,122.666 C319.865,121.918,318.971,121.067,318.152,120.664 C317.433,120.31,314.946,119.903,314.693,120.75"/>
          </defs>
          <use xlink:href="#24" style="fill:#f9f7a8;fill-opacity:1;fill-rule:nonzero;opacity:1;stroke:none;"/>
          <use xlink:href="#24" style="fill:none;opacity:1;stroke:#d1bc70;stroke-linecap:butt;stroke-linejoin:miter;stroke-miterlimit:10;stroke-opacity:1;stroke-width:0.3;"/>
        </g>
      </defs>
      <use xlink:href="#23"/>
      <defs>
        <title>Shape 37</title>
        <g id="25">
          <defs>
            <path id="26" d="M325.622,128.468 C325.198,126.855,327.366,125.962,329.713,126.183 C330.249,126.233,330.252,126.844,330.658,126.873 C331.085,126.904,331.711,126.589,332.192,126.564 C333.704,126.488,335.663,127.295,335.795,128.558 C335.888,129.452,335.117,129.7,334.279,130.178 C332.742,131.056,329.345,131.992,327.401,131.49 C326.064,131.146,324.59,129.657,325.68,128.637 C325.68,128.637,325.622,128.468,325.622,128.468 z"/>
          </defs>
          <use xlink:href="#26" style="fill:#f9f7a8;fill-opacity:1;fill-rule:evenodd;opacity:1;stroke:none;"/>
          <use xlink:href="#26" style="fill:none;opacity:1;stroke:#d1bc70;stroke-linecap:butt;stroke-linejoin:miter;stroke-miterlimit:10;stroke-opacity:1;stroke-width:0.3;"/>
        </g>
      </defs>
      <use xlink:href="#25"/>
      <defs>
        <title>Shape 33</title>
        <g id="27">
          <defs>
            <path id="28" d="M329.402,133.795 C327.869,134.598,327.153,132.03,327.934,131.237 C328.582,130.58,329.816,130.79,330.632,130.464 C330.912,130.352,330.874,130.008,331.211,129.878 C332.116,129.53,334.135,129.543,334.869,130.106 C335.615,130.678,335.316,131.344,335.478,132.037 C335.779,133.326,336.922,134.466,335.163,135.59 C332.752,137.131,330.697,135.377,329.58,133.895 C329.58,133.895,329.402,133.795,329.402,133.795 z"/>
          </defs>
          <use xlink:href="#28" style="fill:#f9f7a8;fill-opacity:1;fill-rule:evenodd;opacity:1;stroke:none;"/>
          <use xlink:href="#28" style="fill:none;opacity:1;stroke:#d1bc70;stroke-linecap:butt;stroke-linejoin:miter;stroke-miterlimit:10;stroke-opacity:1;stroke-width:0.3;"/>
        </g>
      </defs>
      <use xlink:href="#27"/>
      <defs>
        <title>Shape 34</title>
        <g id="29">
          <defs>
            <path id="30" d="M322.658,127.569 C321.796,126.947,319.963,126.636,319.45,127.741 C319.214,128.248,319.538,128.732,319.423,129.186 C319.37,129.395,318.899,129.559,318.765,129.765 C318.428,130.284,318.439,131.337,318.605,131.894 C319.01,133.255,321.563,132.03,322.087,132.801 C322.977,134.11,323.346,136.441,326.294,135.709 C328.844,135.076,329.191,133.24,328.294,131.564 C328.08,131.163,327.397,130.925,327.288,130.516 C327.063,129.677,327.821,128.303,327.054,127.607 C326.356,126.976,323.469,126.69,322.878,127.487 C322.878,127.487,322.658,127.569,322.658,127.569 z"/>
          </defs>
          <use xlink:href="#30" style="fill:#f9f7a8;fill-opacity:1;fill-rule:evenodd;opacity:1;stroke:none;"/>
          <use xlink:href="#30" style="fill:none;opacity:1;stroke:#d1bc70;stroke-linecap:butt;stroke-linejoin:miter;stroke-miterlimit:10;stroke-opacity:1;stroke-width:0.3;"/>
        </g>
      </defs>
      <use xlink:href="#29"/>
      <defs>
        <title>Shape 32</title>
        <g id="31">
          <defs>
            <path id="32" d="M333.703,135.371 C335.57,135.374,335.79,132.324,336.988,131.668 C336.988,131.668,337.397,131.822,337.397,131.822 C338.257,131.915,333.483,163.945,332.26,163.813 C332.42,164.916,301.173,165.477,301.03,164.486 C300.092,164.919,291.404,133.598,292.616,133.038 C292.616,133.038,292.786,133.038,292.786,133.038 C294.244,133.711,295.357,136.594,296.601,136.422 C297.179,136.342,298.331,133.038,300.189,133.382 C301.394,133.606,302.055,136.168,303.788,136.149 C304.697,136.139,306.212,133.211,307.249,133.356 C308.879,133.584,309.274,136.063,311.262,136.087 C313.07,136.109,312.908,132.957,314.888,133.038 C316.539,133.106,317.344,135.714,319.2,135.867 C321.13,136.026,320.731,132.806,322.505,132.732 C323.82,132.677,325.228,135.26,326.606,135.41 C326.668,135.417,326.728,135.42,326.787,135.421 C328.599,135.436,328.721,132.531,330.089,132.317 C331.697,132.065,331.858,135.368,333.703,135.371 z"/>
          </defs>
          <use xlink:href="#32" style="fill:#f7797e;fill-opacity:1;fill-rule:evenodd;opacity:1;stroke:none;"/>
        </g>
      </defs>
      <use xlink:href="#31"/>
      <g id="33">
        <title>Group</title>
        <defs>
          <title>Shape 19</title>
          <g id="34">
            <defs>
              <path id="35" d="M333.703,135.371 C331.858,135.368,331.697,132.065,330.089,132.317 C328.721,132.531,328.599,135.436,326.787,135.421 C326.787,135.421,326.564,164.531,326.564,164.531 C326.564,164.531,330.656,164.188,330.656,164.188 C330.656,164.188,333.703,135.371,333.703,135.371 z"/>
            </defs>
            <use xlink:href="#35" style="fill:#fdfff9;fill-opacity:1;fill-rule:evenodd;opacity:1;stroke:none;"/>
          </g>
        </defs>
        <use xlink:href="#34"/>
        <defs>
          <title>Shape 22</title>
          <g id="36">
            <defs>
              <path id="37" d="M321.81,164.752 C321.81,164.752,319.2,135.867,319.2,135.867 C317.344,135.714,316.539,133.106,314.888,133.038 C312.908,132.957,313.07,136.109,311.262,136.087 C311.262,136.087,310.746,164.981,310.746,164.981 C310.746,164.981,321.81,164.752,321.81,164.752 z"/>
            </defs>
            <use xlink:href="#37" style="fill:#fdfff9;fill-opacity:1;fill-rule:evenodd;opacity:1;stroke:none;"/>
          </g>
        </defs>
        <use xlink:href="#36"/>
        <defs>
          <title>Shape 26</title>
          <g id="38">
            <defs>
              <path id="39" d="M302.215,164.777 C302.215,164.777,296.601,136.422,296.601,136.422 C297.179,136.342,298.331,133.038,300.189,133.382 C301.394,133.606,302.055,136.168,303.788,136.149 C303.788,136.149,306.606,164.948,306.606,164.948 C306.606,164.948,302.215,164.777,302.215,164.777 z"/>
            </defs>
            <use xlink:href="#39" style="fill:#fdfff9;fill-opacity:1;fill-rule:evenodd;opacity:1;stroke:none;"/>
          </g>
        </defs>
        <use xlink:href="#38"/>
      </g>
    </g>
    <g id="40">
      <title>Face Copy</title>
      <defs>
        <title>Shape 67</title>
        <g id="41">
          <defs>
            <path id="42" d="M320.621,150.166 C320.621,152.154,319.518,153.32,317.695,153.32 C315.873,153.32,314.763,152.157,314.763,150.169"/>
          </defs>
          <use xlink:href="#42" style="fill:none;opacity:1;stroke:#000000;stroke-linecap:butt;stroke-linejoin:miter;stroke-miterlimit:10;stroke-opacity:1;stroke-width:0.5;"/>
        </g>
      </defs>
      <use xlink:href="#41"/>
      <defs>
        <title>Shape 30</title>
        <g id="43">
          <defs>
            <path id="44" d="M308.401,142.595 C310.156,142.595,311.576,144.018,311.576,145.772 C311.576,147.526,310.156,148.948,308.401,148.948 C306.646,148.948,305.226,147.526,305.226,145.772 C305.226,144.018,306.646,142.595,308.401,142.595 z"/>
          </defs>
          <use xlink:href="#44" style="fill:#000000;fill-opacity:1;fill-rule:evenodd;opacity:1;stroke:none;"/>
          <use xlink:href="#44" style="fill:none;opacity:1;stroke:#000000;stroke-linecap:butt;stroke-linejoin:miter;stroke-miterlimit:10;stroke-opacity:1;stroke-width:1;"/>
        </g>
      </defs>
      <use xlink:href="#43"/>
      <defs>
        <title>Shape 35</title>
        <g id="45">
          <defs>
            <path id="46" d="M309.158,142.895 C308.707,143.333,308.969,143.314,308.918,143.471 C308.947,143.595,308.976,143.748,309.027,143.926 C309.122,144.284,309.275,144.741,309.421,145.199 C309.574,145.658,309.748,146.106,309.879,146.451 C309.952,146.623,310.01,146.766,310.069,146.879 C310.207,146.972,309.981,147.118,310.615,147.19 C311.117,146.778,310.884,146.584,310.884,146.19 C310.826,145.817,310.702,145.339,310.528,144.824 C310.36,144.31,310.171,143.857,309.989,143.522 C309.741,143.213,309.814,142.914,309.158,142.895 z"/>
          </defs>
          <use xlink:href="#46" style="fill:#ffffff;fill-opacity:1;fill-rule:nonzero;opacity:1;stroke:none;"/>
        </g>
      </defs>
      <use xlink:href="#45"/>
      <defs>
        <title>Shape 28</title>
        <g id="47">
          <defs>
            <path id="48" d="M326.825,142.5 C328.58,142.5,330,143.922,330,145.676 C330,147.431,328.58,148.853,326.825,148.853 C325.07,148.853,323.65,147.431,323.65,145.676 C323.65,143.922,325.07,142.5,326.825,142.5 z"/>
          </defs>
          <use xlink:href="#48" style="fill:#000000;fill-opacity:1;fill-rule:evenodd;opacity:1;stroke:none;"/>
          <use xlink:href="#48" style="fill:none;opacity:1;stroke:#000000;stroke-linecap:butt;stroke-linejoin:miter;stroke-miterlimit:10;stroke-opacity:1;stroke-width:1;"/>
        </g>
      </defs>
      <use xlink:href="#47"/>
      <defs>
        <title>Shape 37</title>
        <g id="49">
          <defs>
            <path id="50" d="M327.976,142.895 C327.524,143.333,327.786,143.314,327.735,143.471 C327.757,143.595,327.793,143.748,327.844,143.926 C327.939,144.284,328.085,144.741,328.238,145.199 C328.391,145.658,328.565,146.106,328.697,146.451 C328.762,146.623,328.828,146.766,328.886,146.879 C329.024,146.972,328.798,147.118,329.425,147.19 C329.934,146.778,329.701,146.584,329.701,146.19 C329.636,145.817,329.519,145.339,329.345,144.824 C329.17,144.31,328.98,143.857,328.806,143.522 C328.558,143.213,328.631,142.914,327.976,142.895 z"/>
          </defs>
          <use xlink:href="#50" style="fill:#ffffff;fill-opacity:1;fill-rule:nonzero;opacity:1;stroke:none;"/>
        </g>
      </defs>
      <use xlink:href="#49"/>
    </g>
  </g>
</svg>
