<?xml version="1.0" encoding="utf-8"?>
<svg x="1339.57pt" y="149.204pt" width="62.9348pt" height="69.0836pt" viewBox="1339.57 149.204 62.9348 69.0836" xmlns="http://www.w3.org/2000/svg" xmlns:xlink="http://www.w3.org/1999/xlink">
  <g id="1">
    <title>Group</title>
    <defs>
      <title>Shape 152</title>
      <g id="2">
        <defs>
          <path id="3" d="M1398.92,185.515 C1398.92,185.515,1391.42,214.155,1391.42,214.155 C1378.92,221.655,1355.02,216.655,1355.02,216.655 C1355.02,216.655,1346.42,189.155,1346.42,189.155 C1346.42,189.155,1396.42,185.515,1396.42,185.515"/>
        </defs>
        <use xlink:href="#3" style="fill:#ff9347;fill-opacity:1;fill-rule:evenodd;opacity:1;stroke:none;"/>
      </g>
    </defs>
    <use xlink:href="#2"/>
    <defs>
      <title>Shape 154</title>
      <g id="4">
        <defs>
          <path id="5" d="M1370.55,149.381 C1372.31,149.781,1372.7,152.769,1372,154.105 C1371.56,154.956,1370.39,155.456,1369.51,155.715 C1367.33,156.358,1367,153.633,1365.17,153.244 C1360.14,152.18,1356.6,157.228,1357.37,161.798 C1356.23,161.744,1355.13,161.243,1353.96,161.473 C1349.92,162.264,1345.21,167.57,1347.78,171.743 C1342.19,172.756,1338.46,179.984,1339.86,185.251 C1340.18,186.464,1343.65,191.029,1344.94,191.631 C1348.91,193.49,1354.55,192.69,1358.75,192.054 C1362.69,191.457,1366.56,191.013,1370.44,190.052 C1373.68,189.251,1376.79,188.05,1380.07,187.415 C1381.81,187.078,1383.8,187.092,1385.58,187.045 C1387.8,186.985,1390.31,186.691,1392.51,187.063 C1395.16,187.514,1397.86,189.383,1400.17,187.166 C1401.3,186.081,1401.76,184.172,1402.11,182.704 C1403.33,177.645,1401.66,171.176,1397.65,167.741 C1396.44,166.703,1395.26,165.551,1393.76,164.961 C1393.3,164.781,1391.39,164.468,1391.17,164.139 C1390.98,163.868,1390.59,160.34,1388.56,158.886 C1387.12,157.855,1385.55,157.526,1383.8,157.562 C1383.25,157.574,1382.27,158.081,1381.78,157.907 C1381.71,157.882,1382.07,156.449,1382.08,156.247 C1382.14,155.32,1381.62,153.946,1381.27,153.086 C1379.7,149.155,1372.23,148.905,1370.55,149.381 C1370.55,149.381,1370.55,149.381,1370.55,149.381 z"/>
        </defs>
        <use xlink:href="#5" style="fill:#ffffff;fill-opacity:1;fill-rule:evenodd;opacity:1;stroke:none;"/>
      </g>
    </defs>
    <use xlink:href="#4"/>
    <defs>
      <title>Path</title>
      <g id="6">
        <defs>
          <path id="7" d="M1351.29,171.708 C1353.12,170.892,1355.35,170.743,1357.31,170.49 C1360.44,170.083,1363.92,169.779,1367.07,170.151 C1371.03,170.618,1374.95,171.87,1378.91,172.316 C1381.4,172.594,1385.09,172.035,1387.18,170.596 C1388.09,169.966,1388.77,169.253,1389.43,168.366 C1389.54,168.198,1390.33,167.18,1389.56,167.29 C1389.57,167.32,1389.58,167.35,1389.59,167.38 C1390.13,167.131,1389.5,168.144,1389.36,168.309 C1388.7,169.191,1388.03,169.894,1387.12,170.518 C1385.07,171.936,1381.38,172.501,1378.92,172.224 C1374.97,171.78,1371.05,170.528,1367.08,170.059 C1363.91,169.688,1360.43,169.993,1357.3,170.4 C1355.34,170.654,1353.1,170.801,1351.25,171.626 C1351.26,171.654,1351.28,171.681,1351.29,171.708 z"/>
        </defs>
        <use xlink:href="#7" style="fill:#000000;fill-opacity:0.407051;fill-rule:nonzero;opacity:1;stroke:none;"/>
      </g>
    </defs>
    <use xlink:href="#6"/>
    <defs>
      <title>Path</title>
      <g id="8">
        <defs>
          <path id="9" d="M1360.96,162.421 C1363.27,162.2,1365.62,162.311,1367.92,162.662 C1369.34,162.879,1370.7,163.459,1372.18,163.321 C1374.17,163.132,1376.58,162.126,1378.16,160.892 C1378.59,160.467,1379.03,160.041,1379.46,159.615 C1379.44,159.594,1379.42,159.573,1379.4,159.551 C1378.96,159.976,1378.53,160.402,1378.1,160.824 C1376.54,162.043,1374.14,163.046,1372.17,163.231 C1370.72,163.369,1369.36,162.794,1367.93,162.573 C1365.63,162.221,1363.27,162.109,1360.96,162.331 C1360.96,162.361,1360.96,162.391,1360.96,162.421 z"/>
        </defs>
        <use xlink:href="#9" style="fill:#000000;fill-opacity:0.496795;fill-rule:nonzero;opacity:1;stroke:none;"/>
      </g>
    </defs>
    <use xlink:href="#8"/>
    <defs>
      <title>Smart Rectangle</title>
      <g id="10">
        <defs>
          <path id="11" d="M1396.42,179.252 C1396.42,179.943,1395.86,180.502,1395.17,180.502 C1394.48,180.502,1393.92,179.943,1393.92,179.252 C1393.92,179.252,1393.92,175.405,1393.92,175.405 C1393.92,174.714,1394.48,174.155,1395.17,174.155 C1395.86,174.155,1396.42,174.714,1396.42,175.405 C1396.42,175.405,1396.42,179.252,1396.42,179.252 z"/>
        </defs>
        <use xlink:href="#11" style="fill:#ff7bac;fill-opacity:1;fill-rule:nonzero;opacity:1;stroke:none;"/>
      </g>
    </defs>
    <use xlink:href="#10"/>
    <defs>
      <title>Smart Rectangle Copy Copy Copy Copy</title>
      <g id="12">
        <defs>
          <path id="13" d="M1366.14,157.893 C1366.61,158.401,1366.58,159.191,1366.07,159.66 C1365.56,160.128,1364.77,160.097,1364.3,159.59 C1364.3,159.59,1361.69,156.763,1361.69,156.763 C1361.22,156.256,1361.26,155.466,1361.76,154.997 C1362.27,154.529,1363.06,154.56,1363.53,155.067 C1363.53,155.067,1366.14,157.893,1366.14,157.893 z"/>
        </defs>
        <use xlink:href="#13" style="fill:#ff7bac;fill-opacity:1;fill-rule:nonzero;opacity:1;stroke:none;"/>
      </g>
    </defs>
    <use xlink:href="#12"/>
    <defs>
      <title>Smart Rectangle Copy</title>
      <g id="14">
        <defs>
          <path id="15" d="M1396.42,179.252 C1396.42,179.943,1395.86,180.502,1395.17,180.502 C1394.48,180.502,1393.92,179.943,1393.92,179.252 C1393.92,179.252,1393.92,175.405,1393.92,175.405 C1393.92,174.714,1394.48,174.155,1395.17,174.155 C1395.86,174.155,1396.42,174.714,1396.42,175.405 C1396.42,175.405,1396.42,179.252,1396.42,179.252 z"/>
        </defs>
        <use xlink:href="#15" style="fill:#ff7bac;fill-opacity:1;fill-rule:nonzero;opacity:1;stroke:none;"/>
      </g>
    </defs>
    <use xlink:href="#14"/>
    <defs>
      <title>Smart Rectangle Copy Copy</title>
      <g id="16">
        <defs>
          <path id="17" d="M1386.21,177.494 C1386.76,177.912,1386.86,178.696,1386.45,179.246 C1386.03,179.796,1385.25,179.904,1384.7,179.487 C1384.7,179.487,1381.63,177.162,1381.63,177.162 C1381.08,176.745,1380.97,175.961,1381.39,175.411 C1381.8,174.861,1382.59,174.753,1383.14,175.17 C1383.14,175.17,1386.21,177.494,1386.21,177.494 z"/>
        </defs>
        <use xlink:href="#17" style="fill:#fbed21;fill-opacity:1;fill-rule:nonzero;opacity:1;stroke:none;"/>
      </g>
    </defs>
    <use xlink:href="#16"/>
    <defs>
      <title>Smart Rectangle Copy Copy Copy</title>
      <g id="18">
        <defs>
          <path id="19" d="M1369.77,187.084 C1369.09,187.205,1368.44,186.753,1368.32,186.073 C1368.2,185.394,1368.65,184.744,1369.33,184.623 C1369.33,184.623,1373.12,183.945,1373.12,183.945 C1373.8,183.824,1374.45,184.276,1374.57,184.956 C1374.69,185.635,1374.24,186.285,1373.56,186.406 C1373.56,186.406,1369.77,187.084,1369.77,187.084 z"/>
        </defs>
        <use xlink:href="#19" style="fill:#ff7bac;fill-opacity:1;fill-rule:nonzero;opacity:1;stroke:none;"/>
      </g>
    </defs>
    <use xlink:href="#18"/>
    <defs>
      <title>Smart Rectangle Copy Copy Copy Copy Copy</title>
      <g id="20">
        <defs>
          <path id="21" d="M1377.75,168.907 C1377.28,169.407,1376.49,169.426,1375.99,168.949 C1375.49,168.473,1375.47,167.681,1375.95,167.182 C1375.95,167.182,1378.6,164.398,1378.6,164.398 C1379.08,163.898,1379.87,163.879,1380.37,164.356 C1380.87,164.832,1380.89,165.624,1380.41,166.123 C1380.41,166.123,1377.75,168.907,1377.75,168.907 z"/>
        </defs>
        <use xlink:href="#21" style="fill:#ff7bac;fill-opacity:1;fill-rule:nonzero;opacity:1;stroke:none;"/>
      </g>
    </defs>
    <use xlink:href="#20"/>
    <defs>
      <title>Smart Rectangle Copy</title>
      <g id="22">
        <defs>
          <path id="23" d="M1352.26,164.479 C1352.43,163.81,1353.11,163.407,1353.78,163.577 C1354.45,163.748,1354.85,164.429,1354.68,165.098 C1354.68,165.098,1353.73,168.826,1353.73,168.826 C1353.56,169.495,1352.88,169.898,1352.21,169.728 C1351.54,169.557,1351.14,168.876,1351.31,168.207 C1351.31,168.207,1352.26,164.479,1352.26,164.479 z"/>
        </defs>
        <use xlink:href="#23" style="fill:#fbed21;fill-opacity:1;fill-rule:nonzero;opacity:1;stroke:none;"/>
      </g>
    </defs>
    <use xlink:href="#22"/>
    <defs>
      <title>Smart Rectangle Copy Copy</title>
      <g id="24">
        <defs>
          <path id="25" d="M1368.41,164.615 C1369.08,164.447,1369.76,164.855,1369.93,165.525 C1370.1,166.194,1369.69,166.873,1369.02,167.04 C1369.02,167.04,1365.29,167.973,1365.29,167.973 C1364.62,168.14,1363.94,167.733,1363.77,167.063 C1363.6,166.393,1364.01,165.715,1364.68,165.547 C1364.68,165.547,1368.41,164.615,1368.41,164.615 z"/>
        </defs>
        <use xlink:href="#25" style="fill:#3da8f4;fill-opacity:1;fill-rule:nonzero;opacity:1;stroke:none;"/>
      </g>
    </defs>
    <use xlink:href="#24"/>
    <defs>
      <title>Smart Rectangle Copy Copy Copy</title>
      <g id="26">
        <defs>
          <path id="27" d="M1379.1,156.223 C1379.78,156.273,1380.3,156.872,1380.25,157.561 C1380.2,158.249,1379.6,158.766,1378.91,158.716 C1378.91,158.716,1375.08,158.434,1375.08,158.434 C1374.39,158.384,1373.87,157.785,1373.92,157.096 C1373.97,156.408,1374.57,155.89,1375.26,155.941 C1375.26,155.941,1379.1,156.223,1379.1,156.223 z"/>
        </defs>
        <use xlink:href="#27" style="fill:#fbed21;fill-opacity:1;fill-rule:nonzero;opacity:1;stroke:none;"/>
      </g>
    </defs>
    <use xlink:href="#26"/>
    <defs>
      <title>Smart Rectangle Copy Copy Copy Copy Copy</title>
      <g id="28">
        <defs>
          <path id="29" d="M1370.27,175.479 C1370.85,175.113,1371.62,175.29,1371.99,175.876 C1372.36,176.461,1372.18,177.232,1371.59,177.598 C1371.59,177.598,1368.33,179.638,1368.33,179.638 C1367.74,180.004,1366.97,179.826,1366.61,179.241 C1366.24,178.656,1366.42,177.885,1367,177.519 C1367,177.519,1370.27,175.479,1370.27,175.479 z"/>
        </defs>
        <use xlink:href="#29" style="fill:#fbed21;fill-opacity:1;fill-rule:nonzero;opacity:1;stroke:none;"/>
      </g>
    </defs>
    <use xlink:href="#28"/>
    <defs>
      <title>Smart Rectangle Copy Copy Copy Copy Copy Copy</title>
      <g id="30">
        <defs>
          <path id="31" d="M1389.95,184.538 C1389.6,185.133,1388.83,185.33,1388.24,184.979 C1387.64,184.628,1387.44,183.862,1387.79,183.267 C1387.79,183.267,1389.75,179.954,1389.75,179.954 C1390.1,179.359,1390.87,179.162,1391.46,179.512 C1392.06,179.863,1392.25,180.63,1391.9,181.224 C1391.9,181.224,1389.95,184.538,1389.95,184.538 z"/>
        </defs>
        <use xlink:href="#31" style="fill:#3da8f4;fill-opacity:1;fill-rule:nonzero;opacity:1;stroke:none;"/>
      </g>
    </defs>
    <use xlink:href="#30"/>
    <defs>
      <title>Smart Rectangle Copy Copy Copy Copy Copy Copy Copy</title>
      <g id="32">
        <defs>
          <path id="33" d="M1388.95,165.004 C1389.45,165.481,1389.47,166.273,1388.99,166.771 C1388.52,167.27,1387.73,167.288,1387.23,166.81 C1387.23,166.81,1384.45,164.15,1384.45,164.15 C1383.95,163.673,1383.93,162.882,1384.41,162.383 C1384.88,161.884,1385.68,161.867,1386.17,162.344 C1386.17,162.344,1388.95,165.004,1388.95,165.004 z"/>
        </defs>
        <use xlink:href="#33" style="fill:#3da8f4;fill-opacity:1;fill-rule:nonzero;opacity:1;stroke:none;"/>
      </g>
    </defs>
    <use xlink:href="#32"/>
    <defs>
      <title>Smart Rectangle Copy Copy Copy Copy Copy Copy Copy Copy</title>
      <g id="34">
        <defs>
          <path id="35" d="M1349.5,185.705 C1350.09,185.339,1350.86,185.517,1351.23,186.102 C1351.59,186.687,1351.41,187.459,1350.83,187.825 C1350.83,187.825,1347.57,189.865,1347.57,189.865 C1346.98,190.231,1346.21,190.053,1345.84,189.467 C1345.48,188.882,1345.66,188.111,1346.24,187.745 C1346.24,187.745,1349.5,185.705,1349.5,185.705 z"/>
        </defs>
        <use xlink:href="#35" style="fill:#fbed21;fill-opacity:1;fill-rule:nonzero;opacity:1;stroke:none;"/>
      </g>
    </defs>
    <use xlink:href="#34"/>
    <defs>
      <title>Smart Rectangle Copy Copy Copy Copy Copy Copy</title>
      <g id="36">
        <defs>
          <path id="37" d="M1352.86,182.114 C1352.54,182.723,1351.78,182.953,1351.17,182.627 C1350.56,182.302,1350.33,181.544,1350.66,180.935 C1350.66,180.935,1352.47,177.542,1352.47,177.542 C1352.8,176.934,1353.56,176.704,1354.16,177.03 C1354.77,177.355,1355,178.113,1354.68,178.721 C1354.68,178.721,1352.86,182.114,1352.86,182.114 z"/>
        </defs>
        <use xlink:href="#37" style="fill:#ff7bac;fill-opacity:1;fill-rule:nonzero;opacity:1;stroke:none;"/>
      </g>
    </defs>
    <use xlink:href="#36"/>
    <defs>
      <title>Smart Rectangle Copy Copy Copy Copy Copy Copy Copy</title>
      <g id="38">
        <defs>
          <path id="39" d="M1380.65,180.397 C1380.93,181.027,1380.65,181.767,1380.02,182.049 C1379.39,182.33,1378.65,182.048,1378.36,181.418 C1378.36,181.418,1376.8,177.912,1376.8,177.912 C1376.51,177.282,1376.8,176.542,1377.43,176.261 C1378.06,175.979,1378.8,176.261,1379.08,176.891 C1379.08,176.891,1380.65,180.397,1380.65,180.397 z"/>
        </defs>
        <use xlink:href="#39" style="fill:#ff7bac;fill-opacity:1;fill-rule:nonzero;opacity:1;stroke:none;"/>
      </g>
    </defs>
    <use xlink:href="#38"/>
    <defs>
      <title>Smart Rectangle Copy Copy Copy Copy Copy Copy Copy Copy</title>
      <g id="40">
        <defs>
          <path id="41" d="M1358.68,174.123 C1358.07,173.811,1357.82,173.058,1358.13,172.443 C1358.45,171.827,1359.2,171.582,1359.81,171.894 C1359.81,171.894,1363.24,173.633,1363.24,173.633 C1363.85,173.946,1364.1,174.699,1363.79,175.314 C1363.47,175.93,1362.72,176.175,1362.11,175.862 C1362.11,175.862,1358.68,174.123,1358.68,174.123 z"/>
        </defs>
        <use xlink:href="#41" style="fill:#ff7bac;fill-opacity:1;fill-rule:nonzero;opacity:1;stroke:none;"/>
      </g>
    </defs>
    <use xlink:href="#40"/>
    <defs>
      <title>Smart Rectangle Copy Copy Copy Copy Copy Copy Copy Copy</title>
      <g id="42">
        <defs>
          <path id="43" d="M1345.89,177.282 C1345.23,177.468,1344.54,177.081,1344.35,176.416 C1344.16,175.752,1344.55,175.062,1345.22,174.875 C1345.22,174.875,1348.92,173.834,1348.92,173.834 C1349.59,173.647,1350.28,174.034,1350.46,174.699 C1350.65,175.363,1350.26,176.054,1349.6,176.24 C1349.6,176.24,1345.89,177.282,1345.89,177.282 z"/>
        </defs>
        <use xlink:href="#43" style="fill:#3da8f4;fill-opacity:1;fill-rule:nonzero;opacity:1;stroke:none;"/>
      </g>
    </defs>
    <use xlink:href="#42"/>
    <defs>
      <title>Smart Rectangle Copy Copy Copy Copy Copy Copy Copy Copy Copy</title>
      <g id="44">
        <defs>
          <path id="45" d="M1362.16,186.558 C1362.14,187.248,1361.57,187.792,1360.88,187.774 C1360.19,187.756,1359.64,187.182,1359.66,186.492 C1359.66,186.492,1359.76,182.645,1359.76,182.645 C1359.78,181.955,1360.35,181.41,1361.04,181.429 C1361.73,181.447,1362.28,182.021,1362.26,182.711 C1362.26,182.711,1362.16,186.558,1362.16,186.558 z"/>
        </defs>
        <use xlink:href="#45" style="fill:#3da8f4;fill-opacity:1;fill-rule:nonzero;opacity:1;stroke:none;"/>
      </g>
    </defs>
    <use xlink:href="#44"/>
    <defs>
      <title>Path</title>
      <g id="46">
        <defs>
          <path id="47" d="M1373.64,192.698 C1373.68,199.422,1373.71,206.147,1373.74,212.871 C1373.89,212.87,1374.04,212.87,1374.19,212.869 C1374.16,206.145,1374.13,199.42,1374.09,192.696 C1373.94,192.696,1373.79,192.697,1373.64,192.698 z"/>
        </defs>
        <use xlink:href="#47" style="fill:#000000;fill-opacity:0.294872;fill-rule:nonzero;opacity:1;stroke:none;"/>
      </g>
    </defs>
    <use xlink:href="#46"/>
    <defs>
      <title>Path Copy</title>
      <g id="48">
        <defs>
          <path id="49" d="M1389.12,192.754 C1388.24,199.421,1387.36,206.087,1386.48,212.754 C1386.63,212.774,1386.77,212.793,1386.92,212.813 C1387.8,206.146,1388.68,199.48,1389.56,192.813 C1389.41,192.793,1389.27,192.774,1389.12,192.754 z"/>
        </defs>
        <use xlink:href="#49" style="fill:#000000;fill-opacity:0.294872;fill-rule:nonzero;opacity:1;stroke:none;"/>
      </g>
    </defs>
    <use xlink:href="#48"/>
    <defs>
      <title>Path Copy Copy</title>
      <g id="50">
        <defs>
          <path id="51" d="M1363.99,192.813 C1364.87,199.48,1365.75,206.146,1366.63,212.813 C1366.78,212.793,1366.92,212.774,1367.07,212.754 C1366.19,206.087,1365.31,199.421,1364.43,192.754 C1364.28,192.774,1364.14,192.793,1363.99,192.813 z"/>
        </defs>
        <use xlink:href="#51" style="fill:#000000;fill-opacity:0.294872;fill-rule:nonzero;opacity:1;stroke:none;"/>
      </g>
    </defs>
    <use xlink:href="#50"/>
    <defs>
      <title>Path Copy Copy Copy</title>
      <g id="52">
        <defs>
          <path id="53" d="M1381.85,192.754 C1380.97,199.421,1380.09,206.087,1379.21,212.754 C1379.36,212.774,1379.51,212.793,1379.66,212.813 C1380.54,206.146,1381.42,199.48,1382.3,192.813 C1382.15,192.793,1382,192.774,1381.85,192.754 z"/>
        </defs>
        <use xlink:href="#53" style="fill:#000000;fill-opacity:0.294872;fill-rule:nonzero;opacity:1;stroke:none;"/>
      </g>
    </defs>
    <use xlink:href="#52"/>
    <defs>
      <title>Path Copy Copy Copy Copy</title>
      <g id="54">
        <defs>
          <path id="55" d="M1356.19,192.813 C1357.07,199.48,1357.95,206.146,1358.83,212.813 C1358.98,212.793,1359.13,212.774,1359.28,212.754 C1358.4,206.087,1357.52,199.421,1356.64,192.754 C1356.49,192.774,1356.34,192.793,1356.19,192.813 z"/>
        </defs>
        <use xlink:href="#55" style="fill:#000000;fill-opacity:0.294872;fill-rule:nonzero;opacity:1;stroke:none;"/>
      </g>
    </defs>
    <use xlink:href="#54"/>
  </g>
  <g id="56">
    <title>Group Copy Copy</title>
    <defs>
      <title>Path</title>
      <g id="57">
        <defs>
          <path id="58" d="M1386.08,200.968 C1388.49,200.968,1390.44,202.921,1390.44,205.33 C1390.44,207.739,1388.49,209.692,1386.08,209.692 C1383.67,209.692,1381.72,207.739,1381.72,205.33 C1381.72,202.921,1383.67,200.968,1386.08,200.968 z"/>
          <path id="59" d="M1386.08,201.442 C1388.21,201.488,1389.93,203.199,1389.93,205.33 C1389.93,207.457,1388.21,209.178,1386.08,209.187 C1383.96,209.185,1382.2,207.468,1382.22,205.33 C1382.21,203.184,1383.95,201.5,1386.08,201.442 z M1386.08,200.509 C1383.39,200.435,1381.22,202.657,1381.21,205.33 C1381.23,208.01,1383.38,210.199,1386.08,210.197 C1388.77,210.206,1390.95,208.021,1390.95,205.33 C1390.95,202.643,1388.76,200.447,1386.08,200.509 z"/>
        </defs>
        <use xlink:href="#58" style="fill:#000000;fill-opacity:1;fill-rule:evenodd;opacity:1;stroke:none;"/>
        <use xlink:href="#59" style="fill:#000000;fill-opacity:1;fill-rule:nonzero;opacity:1;stroke:none;"/>
      </g>
    </defs>
    <use xlink:href="#57"/>
    <defs>
      <title>Path Copy</title>
      <g id="60">
        <defs>
          <path id="61" d="M1360.78,201.099 C1363.19,201.099,1365.14,203.052,1365.14,205.461 C1365.14,207.87,1363.19,209.823,1360.78,209.823 C1358.37,209.823,1356.42,207.87,1356.42,205.461 C1356.42,203.052,1358.37,201.099,1360.78,201.099 z"/>
          <path id="62" d="M1360.78,201.573 C1362.91,201.62,1364.63,203.33,1364.63,205.461 C1364.63,207.588,1362.91,209.309,1360.78,209.318 C1358.66,209.316,1356.9,207.6,1356.92,205.461 C1356.91,203.316,1358.65,201.632,1360.78,201.573 z M1360.78,200.64 C1358.09,200.567,1355.92,202.789,1355.91,205.461 C1355.93,208.141,1358.08,210.331,1360.78,210.328 C1363.47,210.337,1365.65,208.152,1365.65,205.461 C1365.65,202.774,1363.46,200.579,1360.78,200.64 z"/>
        </defs>
        <use xlink:href="#61" style="fill:#000000;fill-opacity:1;fill-rule:evenodd;opacity:1;stroke:none;"/>
        <use xlink:href="#62" style="fill:#000000;fill-opacity:1;fill-rule:nonzero;opacity:1;stroke:none;"/>
      </g>
    </defs>
    <use xlink:href="#60"/>
    <defs>
      <title>Path</title>
      <g id="63">
        <defs>
          <path id="64" d="M1369.04,211.437 C1369.01,214.1,1371.02,216.328,1373.56,216.325 C1373.56,216.004,1373.56,215.683,1373.56,215.361 C1371.62,215.358,1369.99,213.641,1369.96,211.437 C1369.66,211.437,1369.35,211.437,1369.04,211.437 z"/>
        </defs>
        <use xlink:href="#64" style="fill:#000000;fill-opacity:1;fill-rule:nonzero;opacity:1;stroke:none;"/>
      </g>
    </defs>
    <use xlink:href="#63"/>
    <defs>
      <title>Path Copy</title>
      <g id="65">
        <defs>
          <path id="66" d="M1377.16,211.437 C1377.13,213.641,1375.5,215.358,1373.56,215.361 C1373.56,215.683,1373.56,216.004,1373.56,216.325 C1376.1,216.328,1378.11,214.1,1378.08,211.437 C1377.77,211.437,1377.47,211.437,1377.16,211.437 z"/>
        </defs>
        <use xlink:href="#66" style="fill:#000000;fill-opacity:1;fill-rule:nonzero;opacity:1;stroke:none;"/>
      </g>
    </defs>
    <use xlink:href="#65"/>
    <defs>
      <title>Path</title>
      <g id="67">
        <defs>
          <path id="68" d="M1361.98,201.98 C1362.21,201.902,1362.77,202.95,1363.23,204.319 C1363.7,205.689,1363.89,206.862,1363.66,206.939 C1363.43,207.016,1361.75,202.057,1361.98,201.98 z"/>
          <path id="69" d="M1362.14,202.451 C1361.47,202.345,1361.97,202.421,1362.08,202.842 C1362.29,203.23,1362.54,203.816,1362.76,204.479 C1362.99,205.141,1363.15,205.757,1363.22,206.193 C1363.38,206.599,1363.03,206.959,1363.5,206.469 C1364.31,206.587,1363.9,206.649,1363.95,206.521 C1363.9,206.419,1363.82,206.24,1363.73,206.02 C1363.54,205.584,1363.33,204.97,1363.11,204.36 C1362.9,203.749,1362.72,203.127,1362.59,202.669 C1362.54,202.439,1362.48,202.25,1362.47,202.135 C1362.35,202.064,1362.71,201.867,1362.14,202.451 z M1361.82,201.511 C1361.2,202.112,1361.56,202.086,1361.49,202.301 C1361.53,202.472,1361.57,202.682,1361.64,202.926 C1361.77,203.418,1361.98,204.045,1362.18,204.674 C1362.39,205.304,1362.63,205.92,1362.81,206.394 C1362.91,206.63,1362.99,206.826,1363.07,206.981 C1363.26,207.109,1362.95,207.31,1363.82,207.408 C1364.51,206.842,1364.19,206.576,1364.19,206.035 C1364.11,205.523,1363.94,204.867,1363.7,204.16 C1363.47,203.454,1363.21,202.831,1362.96,202.372 C1362.62,201.947,1362.72,201.537,1361.82,201.511 z"/>
        </defs>
        <use xlink:href="#68" style="fill:#ffffff;fill-opacity:1;fill-rule:evenodd;opacity:1;stroke:none;"/>
        <use xlink:href="#69" style="fill:#ffffff;fill-opacity:1;fill-rule:nonzero;opacity:1;stroke:none;"/>
      </g>
    </defs>
    <use xlink:href="#67"/>
    <defs>
      <title>Path Copy</title>
      <g id="70">
        <defs>
          <path id="71" d="M1387.82,201.98 C1388.05,201.902,1388.61,202.95,1389.07,204.319 C1389.53,205.689,1389.72,206.862,1389.5,206.939 C1389.27,207.016,1387.59,202.057,1387.82,201.98 z"/>
          <path id="72" d="M1387.98,202.451 C1387.31,202.345,1387.8,202.421,1387.92,202.842 C1388.13,203.23,1388.38,203.816,1388.6,204.479 C1388.83,205.141,1388.99,205.757,1389.06,206.193 C1389.21,206.599,1388.87,206.959,1389.34,206.469 C1390.14,206.587,1389.74,206.649,1389.79,206.521 C1389.73,206.419,1389.65,206.24,1389.56,206.02 C1389.37,205.584,1389.17,204.97,1388.95,204.36 C1388.74,203.749,1388.56,203.127,1388.43,202.669 C1388.37,202.439,1388.32,202.25,1388.31,202.135 C1388.19,202.064,1388.55,201.867,1387.98,202.451 z M1387.66,201.511 C1387.04,202.112,1387.4,202.086,1387.33,202.301 C1387.36,202.472,1387.41,202.682,1387.48,202.926 C1387.61,203.418,1387.81,204.045,1388.02,204.674 C1388.23,205.304,1388.47,205.92,1388.65,206.394 C1388.74,206.63,1388.83,206.826,1388.91,206.981 C1389.1,207.109,1388.79,207.31,1389.65,207.408 C1390.35,206.842,1390.03,206.576,1390.03,206.035 C1389.94,205.523,1389.78,204.867,1389.54,204.16 C1389.3,203.454,1389.04,202.831,1388.8,202.372 C1388.46,201.947,1388.56,201.537,1387.66,201.511 z"/>
        </defs>
        <use xlink:href="#71" style="fill:#ffffff;fill-opacity:1;fill-rule:evenodd;opacity:1;stroke:none;"/>
        <use xlink:href="#72" style="fill:#ffffff;fill-opacity:1;fill-rule:nonzero;opacity:1;stroke:none;"/>
      </g>
    </defs>
    <use xlink:href="#70"/>
  </g>
</svg>
