<?xml version="1.0" encoding="utf-8"?>
<svg x="1443.56pt" y="143.479pt" width="104.021pt" height="104.021pt" viewBox="1443.56 143.479 104.021 104.021" xmlns="http://www.w3.org/2000/svg" xmlns:xlink="http://www.w3.org/1999/xlink">
  <defs>
    <title>Compound Group</title>
    <g id="1">
      <defs>
        <path id="2" d="M1495.57,143.479 C1524.29,143.479,1547.58,166.765,1547.58,195.49 C1547.58,224.214,1524.29,247.5,1495.57,247.5 C1466.85,247.5,1443.56,224.214,1443.56,195.49 C1443.56,166.765,1466.85,143.479,1495.57,143.479 z M1496.06,176.74 C1506.41,176.74,1514.81,185.134,1514.81,195.49 C1514.81,205.845,1506.41,214.24,1496.06,214.24 C1485.7,214.24,1477.31,205.845,1477.31,195.49 C1477.31,185.134,1485.7,176.74,1496.06,176.74 z"/>
      </defs>
      <use xlink:href="#2" style="fill:#fdbf87;fill-opacity:1;fill-rule:evenodd;opacity:1;stroke:none;"/>
    </g>
  </defs>
  <use xlink:href="#1"/>
  <defs>
    <title>Compound Group</title>
    <g id="3">
      <defs>
        <path id="4" d="M1475.11,155.994 C1474.26,155.831,1473.54,155.265,1472.64,155.367 C1470.25,155.635,1467.63,158.887,1467.67,161.201 C1467.7,163.07,1469.52,164.762,1467.97,166.479 C1465.04,169.718,1459.55,169.777,1456.96,173.408 C1456.12,174.583,1455.15,176.249,1455.53,177.758 C1455.93,179.331,1457.18,180.339,1457.19,182.029 C1457.22,184.543,1454.09,185.738,1453.73,188.143 C1453.42,190.156,1455.67,191.348,1455.17,193.626 C1454.91,194.815,1453.61,195.572,1452.91,196.5 C1451.71,198.088,1450.57,202.099,1451.04,204.047 C1451.74,206.981,1453.79,210.518,1456.11,212.457 C1457.61,213.714,1459.73,214.25,1460.91,215.886 C1462.47,218.028,1461.24,220.327,1461.5,222.634 C1461.71,224.503,1463.38,225.197,1464.03,226.727 C1464.72,228.331,1464.37,230.156,1465.44,231.617 C1466.36,232.872,1470.74,236.044,1472.35,235.234 C1473.87,234.47,1474.07,232.427,1476.11,232.359 C1477.55,232.31,1479.17,232.404,1480.43,233.14 C1481.52,233.779,1481.96,234.982,1483.31,235.069 C1486.49,235.272,1489.25,233.217,1492.54,233.596 C1494.75,233.851,1495.3,236.432,1496.6,237.883 C1498.72,240.243,1503.86,241.952,1506.9,240.844 C1507.92,240.472,1509.79,239.557,1510.29,238.545 C1511.7,235.689,1509.46,232.363,1512.67,230.14 C1515.13,228.437,1517.66,229.821,1520.35,229.874 C1522.7,229.921,1526.24,228.102,1527.82,226.386 C1528.95,225.162,1529.85,224.05,1529.72,222.284 C1529.58,220.598,1528.34,218.961,1529.36,217.263 C1530.86,214.752,1533.59,215.318,1535.81,214.098 C1539.39,212.125,1541.5,205.938,1540.44,202.032 C1539.45,198.326,1533.08,200.048,1532.55,195.556 C1532.1,191.708,1534.54,189.659,1535.47,186.282 C1536.29,183.347,1534.99,178.76,1533.3,176.288 C1531.38,173.466,1528.08,178.219,1526.56,175.768 C1525.49,174.049,1526.51,170.892,1526.04,168.904 C1524.86,163.836,1521.13,160.434,1516.77,157.914 C1515.72,157.306,1514.27,156.583,1513.06,157.109 C1511.51,157.786,1510.53,159.772,1508.6,159.377 C1507.19,159.091,1505.76,157.739,1504.58,156.969 C1501.79,155.149,1499.05,153.701,1495.65,153.681 C1491.55,153.656,1490.93,158.155,1487.45,159.421 C1485.9,159.988,1483.28,160.195,1482.13,158.763 C1481.71,158.234,1481.69,157.006,1481.06,156.719 C1480,156.241,1478.67,157.352,1477.57,157.342 C1476.68,157.334,1476.71,156.44,1476.05,156.147 C1475.24,155.791,1474.35,156.255,1473.49,155.884 C1473.49,155.884,1475.11,155.994,1475.11,155.994 z M1496.06,176.74 C1506.41,176.74,1514.81,185.134,1514.81,195.49 C1514.81,205.845,1506.41,214.24,1496.06,214.24 C1485.7,214.24,1477.31,205.845,1477.31,195.49 C1477.31,185.134,1485.7,176.74,1496.06,176.74 z"/>
      </defs>
      <use xlink:href="#4" style="fill:#ff7b90;fill-opacity:1;fill-rule:evenodd;opacity:1;stroke:none;"/>
    </g>
  </defs>
  <use xlink:href="#3"/>
  <g id="5">
    <title>Group Copy</title>
    <defs>
      <title>Path</title>
      <g id="6">
        <defs>
          <path id="7" d="M1514.18,216.843 C1517.64,216.843,1520.43,219.641,1520.43,223.093 C1520.43,226.545,1517.64,229.343,1514.18,229.343 C1510.73,229.343,1507.93,226.545,1507.93,223.093 C1507.93,219.641,1510.73,216.843,1514.18,216.843 z"/>
          <path id="8" d="M1514.18,217.317 C1517.36,217.364,1519.92,219.92,1519.93,223.093 C1519.92,226.263,1517.35,228.829,1514.18,228.838 C1511.02,228.836,1508.42,226.274,1508.44,223.093 C1508.43,219.905,1511.01,217.376,1514.18,217.317 z M1514.18,216.384 C1510.45,216.311,1507.44,219.378,1507.43,223.093 C1507.45,226.816,1510.44,229.851,1514.18,229.848 C1517.92,229.857,1520.95,226.827,1520.94,223.093 C1520.94,219.363,1517.91,216.323,1514.18,216.384 z"/>
        </defs>
        <use xlink:href="#7" style="fill:#000000;fill-opacity:1;fill-rule:evenodd;opacity:1;stroke:none;"/>
        <use xlink:href="#8" style="fill:#000000;fill-opacity:1;fill-rule:nonzero;opacity:1;stroke:none;"/>
      </g>
    </defs>
    <use xlink:href="#6"/>
    <defs>
      <title>Path Copy</title>
      <g id="9">
        <defs>
          <path id="10" d="M1477.93,217.032 C1481.39,217.032,1484.18,219.83,1484.18,223.282 C1484.18,226.733,1481.39,229.532,1477.93,229.532 C1474.48,229.532,1471.68,226.733,1471.68,223.282 C1471.68,219.83,1474.48,217.032,1477.93,217.032 z"/>
          <path id="11" d="M1477.93,217.505 C1481.11,217.552,1483.67,220.108,1483.68,223.282 C1483.67,226.451,1481.1,229.017,1477.93,229.027 C1474.77,229.024,1472.17,226.463,1472.19,223.282 C1472.18,220.093,1474.76,217.564,1477.93,217.505 z M1477.93,216.572 C1474.2,216.499,1471.19,219.566,1471.18,223.282 C1471.2,227.004,1474.19,230.039,1477.93,230.037 C1481.67,230.046,1484.7,227.015,1484.69,223.282 C1484.69,219.552,1481.66,216.511,1477.93,216.572 z"/>
        </defs>
        <use xlink:href="#10" style="fill:#000000;fill-opacity:1;fill-rule:evenodd;opacity:1;stroke:none;"/>
        <use xlink:href="#11" style="fill:#000000;fill-opacity:1;fill-rule:nonzero;opacity:1;stroke:none;"/>
      </g>
    </defs>
    <use xlink:href="#9"/>
    <defs>
      <title>Path</title>
      <g id="12">
        <defs>
          <path id="13" d="M1489.97,231.843 C1489.94,235.559,1492.74,238.642,1496.25,238.638 C1496.25,238.317,1496.25,237.996,1496.25,237.675 C1493.34,237.672,1490.93,235.101,1490.89,231.843 C1490.59,231.843,1490.28,231.843,1489.97,231.843 z"/>
        </defs>
        <use xlink:href="#13" style="fill:#000000;fill-opacity:1;fill-rule:nonzero;opacity:1;stroke:none;"/>
      </g>
    </defs>
    <use xlink:href="#12"/>
    <defs>
      <title>Path Copy</title>
      <g id="14">
        <defs>
          <path id="15" d="M1501.6,231.843 C1501.57,235.101,1499.16,237.672,1496.25,237.675 C1496.25,237.996,1496.25,238.317,1496.25,238.638 C1499.76,238.642,1502.55,235.559,1502.52,231.843 C1502.22,231.843,1501.91,231.843,1501.6,231.843 z"/>
        </defs>
        <use xlink:href="#15" style="fill:#000000;fill-opacity:1;fill-rule:nonzero;opacity:1;stroke:none;"/>
      </g>
    </defs>
    <use xlink:href="#14"/>
    <defs>
      <title>Path</title>
      <g id="16">
        <defs>
          <path id="17" d="M1479.66,218.293 C1479.99,218.182,1480.79,219.683,1481.45,221.646 C1482.11,223.608,1482.39,225.288,1482.06,225.398 C1481.73,225.509,1479.33,218.403,1479.66,218.293 z"/>
          <path id="18" d="M1479.82,218.764 C1479.2,218.641,1479.78,218.822,1479.99,219.427 C1480.3,219.999,1480.66,220.846,1480.98,221.805 C1481.31,222.763,1481.54,223.654,1481.64,224.295 C1481.83,224.907,1481.49,225.402,1481.9,224.929 C1482.7,225.051,1482.27,225.083,1482.29,224.899 C1482.2,224.742,1482.09,224.481,1481.96,224.164 C1481.69,223.53,1481.38,222.65,1481.08,221.771 C1480.78,220.892,1480.51,220,1480.32,219.337 C1480.24,219.004,1480.17,218.728,1480.14,218.551 C1480.01,218.419,1480.38,218.184,1479.82,218.764 z M1479.5,217.824 C1478.86,218.429,1479.23,218.441,1479.17,218.718 C1479.21,218.95,1479.28,219.247,1479.38,219.594 C1479.56,220.29,1479.85,221.189,1480.15,222.086 C1480.45,222.984,1480.78,223.866,1481.04,224.537 C1481.18,224.871,1481.3,225.149,1481.41,225.359 C1481.63,225.543,1481.34,225.774,1482.22,225.868 C1482.96,225.285,1482.64,224.884,1482.62,224.137 C1482.5,223.42,1482.26,222.49,1481.92,221.486 C1481.58,220.483,1481.21,219.599,1480.87,218.957 C1480.43,218.348,1480.45,217.834,1479.5,217.824 z"/>
        </defs>
        <use xlink:href="#17" style="fill:#ffffff;fill-opacity:1;fill-rule:evenodd;opacity:1;stroke:none;"/>
        <use xlink:href="#18" style="fill:#ffffff;fill-opacity:1;fill-rule:nonzero;opacity:1;stroke:none;"/>
      </g>
    </defs>
    <use xlink:href="#16"/>
    <defs>
      <title>Path Copy</title>
      <g id="19">
        <defs>
          <path id="20" d="M1516.68,218.293 C1517.01,218.182,1517.81,219.683,1518.47,221.646 C1519.14,223.608,1519.41,225.288,1519.08,225.398 C1518.75,225.509,1516.35,218.403,1516.68,218.293 z"/>
          <path id="21" d="M1516.84,218.764 C1516.22,218.641,1516.8,218.822,1517.01,219.427 C1517.32,219.999,1517.68,220.846,1518,221.805 C1518.33,222.763,1518.56,223.654,1518.66,224.295 C1518.85,224.907,1518.51,225.402,1518.92,224.929 C1519.72,225.051,1519.29,225.083,1519.31,224.899 C1519.23,224.742,1519.11,224.481,1518.98,224.164 C1518.71,223.53,1518.4,222.65,1518.1,221.771 C1517.8,220.892,1517.53,220,1517.35,219.337 C1517.26,219.004,1517.19,218.728,1517.16,218.551 C1517.03,218.419,1517.4,218.184,1516.84,218.764 z M1516.52,217.824 C1515.88,218.429,1516.25,218.441,1516.19,218.718 C1516.23,218.95,1516.3,219.247,1516.4,219.594 C1516.58,220.29,1516.87,221.189,1517.17,222.086 C1517.47,222.984,1517.8,223.866,1518.06,224.537 C1518.2,224.871,1518.32,225.149,1518.43,225.359 C1518.65,225.543,1518.36,225.774,1519.24,225.868 C1519.98,225.285,1519.66,224.884,1519.64,224.137 C1519.52,223.42,1519.28,222.49,1518.94,221.486 C1518.6,220.483,1518.23,219.599,1517.89,218.957 C1517.46,218.348,1517.47,217.834,1516.52,217.824 z"/>
        </defs>
        <use xlink:href="#20" style="fill:#ffffff;fill-opacity:1;fill-rule:evenodd;opacity:1;stroke:none;"/>
        <use xlink:href="#21" style="fill:#ffffff;fill-opacity:1;fill-rule:nonzero;opacity:1;stroke:none;"/>
      </g>
    </defs>
    <use xlink:href="#19"/>
  </g>
  <g id="22">
    <title>Group</title>
    <defs>
      <title>Path</title>
      <g id="23">
        <defs>
          <path id="24" d="M1526.06,191.185 C1526.06,191.185,1527.31,191.185,1527.31,191.185 C1527.31,191.185,1527.31,203.685,1527.31,203.685 C1527.31,203.685,1526.06,203.685,1526.06,203.685 C1526.06,203.685,1526.06,191.185,1526.06,191.185 z"/>
        </defs>
        <use xlink:href="#24" style="fill:#fbed21;fill-opacity:1;fill-rule:evenodd;opacity:1;stroke:none;"/>
      </g>
    </defs>
    <use xlink:href="#23"/>
    <defs>
      <title>Path Copy</title>
      <g id="25">
        <defs>
          <path id="26" d="M1484.95,154.578 C1484.95,154.578,1485.68,155.59,1485.68,155.59 C1485.68,155.59,1475.56,162.922,1475.56,162.922 C1475.56,162.922,1474.83,161.91,1474.83,161.91 C1474.83,161.91,1484.95,154.578,1484.95,154.578 z"/>
        </defs>
        <use xlink:href="#26" style="fill:#fbed21;fill-opacity:1;fill-rule:evenodd;opacity:1;stroke:none;"/>
      </g>
    </defs>
    <use xlink:href="#25"/>
    <defs>
      <title>Path Copy Copy</title>
      <g id="27">
        <defs>
          <path id="28" d="M1467.83,210 C1467.83,210,1468.56,211.012,1468.56,211.012 C1468.56,211.012,1458.44,218.344,1458.44,218.344 C1458.44,218.344,1457.7,217.332,1457.7,217.332 C1457.7,217.332,1467.83,210,1467.83,210 z"/>
        </defs>
        <use xlink:href="#28" style="fill:#fbed21;fill-opacity:1;fill-rule:evenodd;opacity:1;stroke:none;"/>
      </g>
    </defs>
    <use xlink:href="#27"/>
  </g>
  <defs>
    <title>Path Copy</title>
    <g id="29">
      <defs>
        <path id="30" d="M1525.21,172.114 C1525.21,172.114,1524.51,173.147,1524.51,173.147 C1524.51,173.147,1514.18,166.098,1514.18,166.098 C1514.18,166.098,1514.89,165.065,1514.89,165.065 C1514.89,165.065,1525.21,172.114,1525.21,172.114 z"/>
      </defs>
      <use xlink:href="#30" style="fill:#0070ba;fill-opacity:1;fill-rule:evenodd;opacity:1;stroke:none;"/>
    </g>
  </defs>
  <use xlink:href="#29"/>
  <defs>
    <title>Path Copy Copy</title>
    <g id="31">
      <defs>
        <path id="32" d="M1464.76,199.858 C1464.76,199.858,1463.56,199.512,1463.56,199.512 C1463.56,199.512,1467.02,187.5,1467.02,187.5 C1467.02,187.5,1468.22,187.846,1468.22,187.846 C1468.22,187.846,1464.76,199.858,1464.76,199.858 z"/>
      </defs>
      <use xlink:href="#32" style="fill:#ffffff;fill-opacity:1;fill-rule:evenodd;opacity:1;stroke:none;"/>
    </g>
  </defs>
  <use xlink:href="#31"/>
  <defs>
    <title>Path Copy Copy Copy</title>
    <g id="33">
      <defs>
        <path id="34" d="M1506.03,163.42 C1506.03,163.42,1504.81,163.719,1504.81,163.719 C1504.81,163.719,1501.83,151.58,1501.83,151.58 C1501.83,151.58,1503.04,151.281,1503.04,151.281 C1503.04,151.281,1506.03,163.42,1506.03,163.42 z"/>
      </defs>
      <use xlink:href="#34" style="fill:#ffffff;fill-opacity:1;fill-rule:evenodd;opacity:1;stroke:none;"/>
    </g>
  </defs>
  <use xlink:href="#33"/>
  <defs>
    <title>Path Copy Copy</title>
    <g id="35">
      <defs>
        <path id="36" d="M1466.97,176.155 C1466.97,176.155,1466.27,177.187,1466.27,177.187 C1466.27,177.187,1455.95,170.138,1455.95,170.138 C1455.95,170.138,1456.65,169.106,1456.65,169.106 C1456.65,169.106,1466.97,176.155,1466.97,176.155 z"/>
      </defs>
      <use xlink:href="#36" style="fill:#0070ba;fill-opacity:1;fill-rule:evenodd;opacity:1;stroke:none;"/>
    </g>
  </defs>
  <use xlink:href="#35"/>
  <defs>
    <title>Path Copy Copy Copy</title>
    <g id="37">
      <defs>
        <path id="38" d="M1536.06,217.312 C1536.06,217.312,1535.35,218.344,1535.35,218.344 C1535.35,218.344,1525.03,211.295,1525.03,211.295 C1525.03,211.295,1525.74,210.263,1525.74,210.263 C1525.74,210.263,1536.06,217.312,1536.06,217.312 z"/>
      </defs>
      <use xlink:href="#38" style="fill:#ff1c24;fill-opacity:1;fill-rule:evenodd;opacity:1;stroke:none;"/>
    </g>
  </defs>
  <use xlink:href="#37"/>
  <defs>
    <title>Path Copy Copy Copy Copy</title>
    <g id="39">
      <defs>
        <path id="40" d="M1496.82,173.126 C1496.82,173.126,1495.7,173.666,1495.7,173.666 C1495.7,173.666,1490.3,162.393,1490.3,162.393 C1490.3,162.393,1491.42,161.853,1491.42,161.853 C1491.42,161.853,1496.82,173.126,1496.82,173.126 z"/>
      </defs>
      <use xlink:href="#40" style="fill:#ff1c24;fill-opacity:1;fill-rule:evenodd;opacity:1;stroke:none;"/>
    </g>
  </defs>
  <use xlink:href="#39"/>
  <defs>
    <title>Path Copy Copy Copy Copy Copy</title>
    <g id="41">
      <defs>
        <path id="42" d="M1451.17,196.03 C1451.17,196.03,1452.3,195.49,1452.3,195.49 C1452.3,195.49,1457.7,206.763,1457.7,206.763 C1457.7,206.763,1456.58,207.303,1456.58,207.303 C1456.58,207.303,1451.17,196.03,1451.17,196.03 z"/>
      </defs>
      <use xlink:href="#42" style="fill:#ff1c24;fill-opacity:1;fill-rule:evenodd;opacity:1;stroke:none;"/>
    </g>
  </defs>
  <use xlink:href="#41"/>
</svg>
