<?xml version="1.0" encoding="utf-8"?>
<svg x="240pt" y="15pt" width="45pt" height="45pt" viewBox="240 15 45 45" xmlns="http://www.w3.org/2000/svg" xmlns:xlink="http://www.w3.org/1999/xlink">
  <g id="1">
    <title>Group</title>
    <g id="2">
      <title>Group</title>
      <defs>
        <title>Path</title>
        <g id="3">
          <defs>
            <path id="4" d="M262.5,18.7629 C274.926,18.7629,285,27.9942,285,39.3815 C285,50.7688,274.926,60,262.5,60 C250.074,60,240,50.7688,240,39.3815 C240,27.9942,250.074,18.7629,262.5,18.7629 z"/>
          </defs>
          <use xlink:href="#4" style="fill:#4d60a8;fill-opacity:1;fill-rule:evenodd;opacity:1;stroke:none;"/>
        </g>
      </defs>
      <use xlink:href="#3"/>
      <defs>
        <title>Shape 3</title>
        <g id="5">
          <defs>
            <path id="6" d="M258.768,19.8948 C257.342,19.1905,256.004,16.6521,257.985,15.7558 C260.796,14.4839,261.068,17.0869,262.472,18.5082 C262.217,16.352,262,14.7871,265.036,15.0237 C266.862,15.166,266.785,17.3446,267.002,18.6028 C267.941,17.3449,270.341,15.1211,272.223,16.3426 C273.606,17.2405,272.598,20.4788,271.466,21.1554 C273.679,20.5212,276.648,19.3314,278.346,21.6779 C279.51,23.2855,276.366,23.4995,275.534,23.96 C277.24,23.9424,279.625,23.7438,279.997,25.9342 C280.239,27.3596,277.288,27.0806,276.459,26.9539 C277.543,27.169,280.411,28.6353,279.447,30.0542 C278.423,31.5611,275.758,29.9635,274.806,29.2543 C274.899,29.9718,276.665,32.1088,275.826,32.5903 C273.151,34.1246,271.733,31.1286,270.243,29.6955 C270.306,31.4965,271.262,33.4062,268.255,33.0493 C266.424,32.832,266.109,29.9169,265.811,28.6241 C265.12,29.849,261.386,32.3398,259.891,30.9407 C258.159,29.3204,261.392,27.3413,262.637,26.8908 C260.722,27.0804,256.529,29.8367,254.941,27.2704 C253.924,25.6261,258.322,25.3878,259.132,25.1576 C257.582,24.944,252.364,24.6385,252.403,22.4738 C252.439,20.5513,257.075,22.8055,257.842,22.8256 C256.796,22.4915,252.457,20.4522,253.45,18.9712 C254.416,17.5303,257.084,19.8053,258.371,19.8786 C258.371,19.8786,258.768,19.8948,258.768,19.8948 z"/>
          </defs>
          <use xlink:href="#6" style="fill:#4d4489;fill-opacity:1;fill-rule:evenodd;opacity:1;stroke:none;"/>
        </g>
      </defs>
      <use xlink:href="#5"/>
    </g>
    <g id="7">
      <title>Face Copy</title>
      <defs>
        <title>Shape 67</title>
        <g id="8">
          <defs>
            <path id="9" d="M258.008,45.1659 C258.008,47.1541,256.905,48.3201,255.082,48.3201 C253.26,48.3201,252.15,47.1573,252.15,45.1691"/>
          </defs>
          <use xlink:href="#9" style="fill:none;opacity:1;stroke:#000000;stroke-linecap:butt;stroke-linejoin:miter;stroke-miterlimit:10;stroke-opacity:1;stroke-width:0.5;"/>
        </g>
      </defs>
      <use xlink:href="#8"/>
      <defs>
        <title>Shape 30</title>
        <g id="10">
          <defs>
            <path id="11" d="M245.788,37.5954 C247.543,37.5954,248.963,39.0176,248.963,40.7719 C248.963,42.5262,247.543,43.9484,245.788,43.9484 C244.033,43.9484,242.613,42.5262,242.613,40.7719 C242.613,39.0176,244.033,37.5954,245.788,37.5954 z"/>
          </defs>
          <use xlink:href="#11" style="fill:#000000;fill-opacity:1;fill-rule:evenodd;opacity:1;stroke:none;"/>
          <use xlink:href="#11" style="fill:none;opacity:1;stroke:#000000;stroke-linecap:butt;stroke-linejoin:miter;stroke-miterlimit:10;stroke-opacity:1;stroke-width:1;"/>
        </g>
      </defs>
      <use xlink:href="#10"/>
      <defs>
        <title>Shape 35</title>
        <g id="12">
          <defs>
            <path id="13" d="M246.545,37.8954 C246.094,38.3331,246.356,38.3142,246.305,38.4707 C246.334,38.5952,246.363,38.7482,246.414,38.9259 C246.509,39.2841,246.662,39.7407,246.808,40.1988 C246.961,40.6576,247.135,41.1061,247.266,41.4513 C247.339,41.6232,247.397,41.7659,247.456,41.8788 C247.594,41.972,247.368,42.1184,248.002,42.1897 C248.504,41.7776,248.271,41.5838,248.271,41.1899 C248.213,40.817,248.089,40.3393,247.915,39.8245 C247.747,39.3104,247.558,38.8567,247.376,38.5224 C247.128,38.2129,247.201,37.9144,246.545,37.8954 z"/>
          </defs>
          <use xlink:href="#13" style="fill:#ffffff;fill-opacity:1;fill-rule:nonzero;opacity:1;stroke:none;"/>
        </g>
      </defs>
      <use xlink:href="#12"/>
      <defs>
        <title>Shape 28</title>
        <g id="14">
          <defs>
            <path id="15" d="M264.212,37.5 C265.967,37.5,267.387,38.9222,267.387,40.6765 C267.387,42.4308,265.967,43.853,264.212,43.853 C262.457,43.853,261.037,42.4308,261.037,40.6765 C261.037,38.9222,262.457,37.5,264.212,37.5 z"/>
          </defs>
          <use xlink:href="#15" style="fill:#000000;fill-opacity:1;fill-rule:evenodd;opacity:1;stroke:none;"/>
          <use xlink:href="#15" style="fill:none;opacity:1;stroke:#000000;stroke-linecap:butt;stroke-linejoin:miter;stroke-miterlimit:10;stroke-opacity:1;stroke-width:1;"/>
        </g>
      </defs>
      <use xlink:href="#14"/>
      <defs>
        <title>Shape 37</title>
        <g id="16">
          <defs>
            <path id="17" d="M265.362,37.8954 C264.911,38.3331,265.173,38.3142,265.122,38.4707 C265.144,38.5952,265.18,38.7482,265.231,38.9259 C265.326,39.2841,265.472,39.7407,265.625,40.1988 C265.778,40.6576,265.952,41.1061,266.083,41.4513 C266.149,41.6232,266.215,41.7659,266.273,41.8788 C266.411,41.972,266.185,42.1184,266.812,42.1897 C267.321,41.7776,267.088,41.5838,267.088,41.1899 C267.023,40.817,266.906,40.3393,266.732,39.8245 C266.557,39.3104,266.367,38.8567,266.193,38.5224 C265.945,38.2129,266.018,37.9144,265.362,37.8954 z"/>
          </defs>
          <use xlink:href="#17" style="fill:#ffffff;fill-opacity:1;fill-rule:nonzero;opacity:1;stroke:none;"/>
        </g>
      </defs>
      <use xlink:href="#16"/>
    </g>
  </g>
</svg>
