<?xml version="1.0" encoding="utf-8"?>
<svg x="292.232pt" y="172.5pt" width="45.2684pt" height="45pt" viewBox="292.232 172.5 45.2684 45" xmlns="http://www.w3.org/2000/svg" xmlns:xlink="http://www.w3.org/1999/xlink">
  <g id="1">
    <title>Group</title>
    <g id="2">
      <title>Group</title>
      <defs>
        <title>Shape 46</title>
        <g id="3">
          <defs>
            <path id="4" d="M292.612,183.781 C292.612,183.781,292.457,213.734,292.512,213.827 C295.287,218.586,324.561,218.737,326.119,214.184 C327.415,208.254,326.197,183.997,326.197,183.997"/>
          </defs>
          <use xlink:href="#4" style="fill:#f7bfda;fill-opacity:1;fill-rule:evenodd;opacity:1;stroke:none;"/>
        </g>
      </defs>
      <use xlink:href="#3"/>
      <defs>
        <title>Path</title>
        <g id="5">
          <defs>
            <path id="6" d="M309.424,179.673 C318.367,179.673,325.617,181.632,325.617,184.048 C325.617,186.463,318.367,188.422,309.424,188.422 C300.481,188.422,293.232,186.463,293.232,184.048 C293.232,181.632,300.481,179.673,309.424,179.673 z"/>
          </defs>
          <use xlink:href="#6" style="fill:#e4b6cb;fill-opacity:1;fill-rule:evenodd;opacity:1;stroke:none;"/>
          <use xlink:href="#6" style="fill:none;opacity:1;stroke:#fdeff4;stroke-linecap:butt;stroke-linejoin:miter;stroke-miterlimit:10;stroke-opacity:1;stroke-width:2;"/>
        </g>
      </defs>
      <use xlink:href="#5"/>
      <defs>
        <title>Shape 53</title>
        <g id="7">
          <defs>
            <path id="8" d="M308.937,181.767 C317.3,181.767,324.08,183.453,324.08,185.532 C324.08,187.612,317.3,189.298,308.937,189.298 C300.573,189.298,293.793,187.612,293.793,185.532 C293.793,183.453,300.573,181.767,308.937,181.767 z M323.837,184.857 C323.997,185.076,324.08,185.302,324.08,185.532 C324.08,187.612,317.3,189.298,308.937,189.298 C300.573,189.298,293.793,187.612,293.793,185.532 C293.793,185.14,294.035,184.761,294.484,184.405 C295.763,186.162,301.948,187.495,309.385,187.495 C316.168,187.495,321.91,186.386,323.837,184.857 z"/>
          </defs>
          <use xlink:href="#8" style="fill:#bf9770;fill-opacity:1;fill-rule:evenodd;opacity:1;stroke:none;"/>
        </g>
      </defs>
      <use xlink:href="#7"/>
      <defs>
        <title>Shape 49</title>
        <g id="9">
          <defs>
            <path id="10" d="M324.928,207.323 C326.104,206.576,328.628,206.887,330.045,206.73 C333.055,206.397,336.963,203.98,337.39,201.131 C337.959,197.335,336.353,192.656,331.715,191.41 C330.467,191.074,328.707,191.258,327.416,191.352 C326.508,191.419,325.456,191.205,324.599,191.517 C324.599,191.517,324.682,194.825,324.682,194.825 C326.059,194.825,328.243,194.462,329.516,194.941 C331.007,195.502,331.585,198.725,331.433,199.978 C331.061,203.06,326.879,203.203,324.394,202.54 C324.394,202.54,324.928,207.323,324.928,207.323 z"/>
          </defs>
          <use xlink:href="#10" style="fill:#f7bfda;fill-opacity:1;fill-rule:evenodd;opacity:1;stroke:none;"/>
        </g>
      </defs>
      <use xlink:href="#9"/>
      <defs>
        <title>Shape 54</title>
        <g id="11">
          <defs>
            <path id="12" d="M316.642,180.039 C320.202,180.22,319.327,183.89,317.333,185.254 C316.146,186.066,314.209,186.152,312.761,186.156 C309.313,186.166,306.162,186.737,302.893,185.564 C301.539,185.078,300.231,184.65,299.867,183.281 C299.188,180.733,302.163,181.592,302.69,179.955 C302.944,179.168,302.731,178.26,302.898,177.447 C303.212,175.919,304.537,174.532,305.833,173.546 C306.505,173.034,307.343,172.317,308.334,172.543 C309.443,172.796,308.176,174.494,309.444,174.8 C311.523,175.301,313.643,174.66,315.342,176.186 C316.574,177.292,315.403,178.986,316.441,179.966 C316.441,179.966,316.642,180.039,316.642,180.039 z"/>
          </defs>
          <use xlink:href="#12" style="fill:#f4ede6;fill-opacity:1;fill-rule:evenodd;opacity:1;stroke:none;"/>
        </g>
      </defs>
      <use xlink:href="#11"/>
    </g>
    <g id="13">
      <title>Face Copy</title>
      <defs>
        <title>Shape 67</title>
        <g id="14">
          <defs>
            <path id="15" d="M309.278,202.666 C309.278,204.654,308.175,205.82,306.352,205.82 C304.53,205.82,303.42,204.657,303.42,202.669"/>
          </defs>
          <use xlink:href="#15" style="fill:none;opacity:1;stroke:#000000;stroke-linecap:butt;stroke-linejoin:miter;stroke-miterlimit:10;stroke-opacity:1;stroke-width:0.5;"/>
        </g>
      </defs>
      <use xlink:href="#14"/>
      <defs>
        <title>Shape 30</title>
        <g id="16">
          <defs>
            <path id="17" d="M297.058,195.095 C298.813,195.095,300.233,196.518,300.233,198.272 C300.233,200.026,298.813,201.448,297.058,201.448 C295.303,201.448,293.883,200.026,293.883,198.272 C293.883,196.518,295.303,195.095,297.058,195.095 z"/>
          </defs>
          <use xlink:href="#17" style="fill:#000000;fill-opacity:1;fill-rule:evenodd;opacity:1;stroke:none;"/>
          <use xlink:href="#17" style="fill:none;opacity:1;stroke:#000000;stroke-linecap:butt;stroke-linejoin:miter;stroke-miterlimit:10;stroke-opacity:1;stroke-width:1;"/>
        </g>
      </defs>
      <use xlink:href="#16"/>
      <defs>
        <title>Shape 35</title>
        <g id="18">
          <defs>
            <path id="19" d="M297.815,195.395 C297.364,195.833,297.626,195.814,297.575,195.971 C297.604,196.095,297.633,196.248,297.684,196.426 C297.779,196.784,297.932,197.241,298.077,197.699 C298.23,198.158,298.405,198.606,298.536,198.951 C298.609,199.123,298.667,199.266,298.725,199.379 C298.864,199.472,298.638,199.618,299.272,199.69 C299.774,199.278,299.541,199.084,299.541,198.69 C299.483,198.317,299.359,197.839,299.184,197.324 C299.017,196.81,298.827,196.357,298.645,196.022 C298.398,195.713,298.471,195.414,297.815,195.395 z"/>
          </defs>
          <use xlink:href="#19" style="fill:#ffffff;fill-opacity:1;fill-rule:nonzero;opacity:1;stroke:none;"/>
        </g>
      </defs>
      <use xlink:href="#18"/>
      <defs>
        <title>Shape 28</title>
        <g id="20">
          <defs>
            <path id="21" d="M315.482,195 C317.237,195,318.657,196.422,318.657,198.176 C318.657,199.931,317.237,201.353,315.482,201.353 C313.727,201.353,312.307,199.931,312.307,198.176 C312.307,196.422,313.727,195,315.482,195 z"/>
          </defs>
          <use xlink:href="#21" style="fill:#000000;fill-opacity:1;fill-rule:evenodd;opacity:1;stroke:none;"/>
          <use xlink:href="#21" style="fill:none;opacity:1;stroke:#000000;stroke-linecap:butt;stroke-linejoin:miter;stroke-miterlimit:10;stroke-opacity:1;stroke-width:1;"/>
        </g>
      </defs>
      <use xlink:href="#20"/>
      <defs>
        <title>Shape 37</title>
        <g id="22">
          <defs>
            <path id="23" d="M316.632,195.395 C316.181,195.833,316.443,195.814,316.392,195.971 C316.414,196.095,316.45,196.248,316.501,196.426 C316.596,196.784,316.742,197.241,316.895,197.699 C317.047,198.158,317.222,198.606,317.353,198.951 C317.419,199.123,317.484,199.266,317.543,199.379 C317.681,199.472,317.455,199.618,318.082,199.69 C318.591,199.278,318.358,199.084,318.358,198.69 C318.293,198.317,318.176,197.839,318.001,197.324 C317.827,196.81,317.637,196.357,317.463,196.022 C317.215,195.713,317.288,195.414,316.632,195.395 z"/>
          </defs>
          <use xlink:href="#23" style="fill:#ffffff;fill-opacity:1;fill-rule:nonzero;opacity:1;stroke:none;"/>
        </g>
      </defs>
      <use xlink:href="#22"/>
    </g>
  </g>
</svg>
