<?xml version="1.0" encoding="utf-8"?>
<svg x="1364.21pt" y="280.5pt" width="132pt" height="132pt" viewBox="1364.21 280.5 132 132" xmlns="http://www.w3.org/2000/svg" xmlns:xlink="http://www.w3.org/1999/xlink">
  <defs>
    <title>Path</title>
    <g id="1">
      <defs>
        <path id="2" d="M1430.21,280.5 C1466.66,280.5,1496.21,310.049,1496.21,346.5 C1496.21,382.951,1466.66,412.5,1430.21,412.5 C1393.76,412.5,1364.21,382.951,1364.21,346.5 C1364.21,310.049,1393.76,280.5,1430.21,280.5 z"/>
      </defs>
      <use xlink:href="#2" style="fill:#fdbf52;fill-opacity:1;fill-rule:evenodd;opacity:1;stroke:none;"/>
    </g>
  </defs>
  <use xlink:href="#1"/>
  <defs>
    <title>Path</title>
    <g id="3">
      <defs>
        <path id="4" d="M1431.89,295.988 C1436.03,295.988,1439.39,299.404,1439.39,303.619 C1439.39,307.833,1436.03,311.25,1431.89,311.25 C1427.74,311.25,1424.39,307.833,1424.39,303.619 C1424.39,299.404,1427.74,295.988,1431.89,295.988 z"/>
      </defs>
      <use xlink:href="#4" style="fill:#8c6238;fill-opacity:1;fill-rule:evenodd;opacity:1;stroke:none;"/>
    </g>
  </defs>
  <use xlink:href="#3"/>
  <defs>
    <title>Path</title>
    <g id="5">
      <defs>
        <path id="6" d="M1443.14,321.25 C1445.21,321.25,1446.89,322.929,1446.89,325 C1446.89,327.071,1445.21,328.75,1443.14,328.75 C1441.07,328.75,1439.39,327.071,1439.39,325 C1439.39,322.929,1441.07,321.25,1443.14,321.25 z"/>
      </defs>
      <use xlink:href="#6" style="fill:#8c6238;fill-opacity:1;fill-rule:evenodd;opacity:1;stroke:none;"/>
    </g>
  </defs>
  <use xlink:href="#5"/>
  <defs>
    <title>Path</title>
    <g id="7">
      <defs>
        <path id="8" d="M1400.43,297.545 C1405.37,297.545,1409.39,301.534,1409.39,306.453 C1409.39,311.373,1405.37,315.361,1400.43,315.361 C1395.48,315.361,1391.46,311.373,1391.46,306.453 C1391.46,301.534,1395.48,297.545,1400.43,297.545 z"/>
      </defs>
      <use xlink:href="#8" style="fill:#8c6238;fill-opacity:1;fill-rule:evenodd;opacity:1;stroke:none;"/>
    </g>
  </defs>
  <use xlink:href="#7"/>
  <defs>
    <title>Path</title>
    <g id="9">
      <defs>
        <path id="10" d="M1460.18,290.849 C1464.76,290.849,1468.47,294.636,1468.47,299.307 C1468.47,303.978,1464.76,307.765,1460.18,307.765 C1455.6,307.765,1451.89,303.978,1451.89,299.307 C1451.89,294.636,1455.6,290.849,1460.18,290.849 z"/>
      </defs>
      <use xlink:href="#10" style="fill:#8c6238;fill-opacity:1;fill-rule:evenodd;opacity:1;stroke:none;"/>
    </g>
  </defs>
  <use xlink:href="#9"/>
  <defs>
    <title>Path</title>
    <g id="11">
      <defs>
        <path id="12" d="M1477.32,315.361 C1480.77,315.361,1483.57,318.358,1483.57,322.055 C1483.57,325.753,1480.77,328.75,1477.32,328.75 C1473.87,328.75,1471.07,325.753,1471.07,322.055 C1471.07,318.358,1473.87,315.361,1477.32,315.361 z"/>
      </defs>
      <use xlink:href="#12" style="fill:#8c6238;fill-opacity:1;fill-rule:evenodd;opacity:1;stroke:none;"/>
    </g>
  </defs>
  <use xlink:href="#11"/>
  <defs>
    <title>Path</title>
    <g id="13">
      <defs>
        <path id="14" d="M1477.23,362.5 C1481.56,362.5,1485.07,366.062,1485.07,370.456 C1485.07,374.85,1481.56,378.412,1477.23,378.412 C1472.9,378.412,1469.39,374.85,1469.39,370.456 C1469.39,366.062,1472.9,362.5,1477.23,362.5 z"/>
      </defs>
      <use xlink:href="#14" style="fill:#8c6238;fill-opacity:1;fill-rule:evenodd;opacity:1;stroke:none;"/>
    </g>
  </defs>
  <use xlink:href="#13"/>
  <defs>
    <title>Path</title>
    <g id="15">
      <defs>
        <path id="16" d="M1445.64,383.75 C1449.09,383.75,1451.89,386.548,1451.89,390 C1451.89,393.452,1449.09,396.25,1445.64,396.25 C1442.19,396.25,1439.39,393.452,1439.39,390 C1439.39,386.548,1442.19,383.75,1445.64,383.75 z"/>
      </defs>
      <use xlink:href="#16" style="fill:#8c6238;fill-opacity:1;fill-rule:evenodd;opacity:1;stroke:none;"/>
    </g>
  </defs>
  <use xlink:href="#15"/>
  <defs>
    <title>Path</title>
    <g id="17">
      <defs>
        <path id="18" d="M1428.61,398.75 C1430.26,398.75,1431.6,400.133,1431.6,401.84 C1431.6,403.546,1430.26,404.929,1428.61,404.929 C1426.96,404.929,1425.62,403.546,1425.62,401.84 C1425.62,400.133,1426.96,398.75,1428.61,398.75 z"/>
      </defs>
      <use xlink:href="#18" style="fill:#8c6238;fill-opacity:1;fill-rule:evenodd;opacity:1;stroke:none;"/>
    </g>
  </defs>
  <use xlink:href="#17"/>
  <defs>
    <title>Path Copy</title>
    <g id="19">
      <defs>
        <path id="20" d="M1423.9,340.05 C1425.55,340.05,1426.89,341.433,1426.89,343.14 C1426.89,344.846,1425.55,346.229,1423.9,346.229 C1422.25,346.229,1420.91,344.846,1420.91,343.14 C1420.91,341.433,1422.25,340.05,1423.9,340.05 z"/>
      </defs>
      <use xlink:href="#20" style="fill:#8c6238;fill-opacity:1;fill-rule:evenodd;opacity:1;stroke:none;"/>
    </g>
  </defs>
  <use xlink:href="#19"/>
  <defs>
    <title>Path</title>
    <g id="21">
      <defs>
        <path id="22" d="M1401.35,368.75 C1405.79,368.75,1409.39,372.108,1409.39,376.25 C1409.39,380.392,1405.79,383.75,1401.35,383.75 C1396.9,383.75,1393.3,380.392,1393.3,376.25 C1393.3,372.108,1396.9,368.75,1401.35,368.75 z"/>
      </defs>
      <use xlink:href="#22" style="fill:#8c6238;fill-opacity:1;fill-rule:evenodd;opacity:1;stroke:none;"/>
    </g>
  </defs>
  <use xlink:href="#21"/>
  <defs>
    <title>Path</title>
    <g id="23">
      <defs>
        <path id="24" d="M1381.08,363.75 C1383.85,363.75,1386.09,366.074,1386.09,368.942 C1386.09,371.809,1383.85,374.134,1381.08,374.134 C1378.32,374.134,1376.07,371.809,1376.07,368.942 C1376.07,366.074,1378.32,363.75,1381.08,363.75 z"/>
      </defs>
      <use xlink:href="#24" style="fill:#8c6238;fill-opacity:1;fill-rule:evenodd;opacity:1;stroke:none;"/>
    </g>
  </defs>
  <use xlink:href="#23"/>
  <defs>
    <title>Path</title>
    <g id="25">
      <defs>
        <path id="26" d="M1386.08,325 C1388.84,325,1391.08,327.238,1391.08,330 C1391.08,332.761,1388.84,335,1386.08,335 C1383.32,335,1381.08,332.761,1381.08,330 C1381.08,327.238,1383.32,325,1386.08,325 z"/>
      </defs>
      <use xlink:href="#26" style="fill:#8c6238;fill-opacity:1;fill-rule:evenodd;opacity:1;stroke:none;"/>
    </g>
  </defs>
  <use xlink:href="#25"/>
  <g id="27">
    <title>Group Copy</title>
    <defs>
      <title>Path</title>
      <g id="28">
        <defs>
          <path id="29" d="M1457.13,336.43 C1462.56,336.43,1466.96,340.833,1466.96,346.264 C1466.96,351.695,1462.56,356.098,1457.13,356.098 C1451.7,356.098,1447.3,351.695,1447.3,346.264 C1447.3,340.833,1451.7,336.43,1457.13,336.43 z"/>
          <path id="30" d="M1457.13,336.904 C1462.29,336.951,1466.45,341.111,1466.45,346.264 C1466.45,351.413,1462.28,355.584,1457.13,355.593 C1451.99,355.591,1447.78,351.424,1447.8,346.264 C1447.79,341.097,1451.98,336.963,1457.13,336.904 z M1457.13,335.971 C1451.42,335.898,1446.8,340.569,1446.79,346.264 C1446.81,351.966,1451.41,356.605,1457.13,356.603 C1462.84,356.612,1467.48,351.977,1467.47,346.264 C1467.47,340.555,1462.84,335.91,1457.13,335.971 z"/>
        </defs>
        <use xlink:href="#29" style="fill:#000000;fill-opacity:1;fill-rule:evenodd;opacity:1;stroke:none;"/>
        <use xlink:href="#30" style="fill:#000000;fill-opacity:1;fill-rule:nonzero;opacity:1;stroke:none;"/>
      </g>
    </defs>
    <use xlink:href="#28"/>
    <defs>
      <title>Path Copy</title>
      <g id="31">
        <defs>
          <path id="32" d="M1400.09,336.726 C1405.52,336.726,1409.93,341.129,1409.93,346.56 C1409.93,351.991,1405.52,356.394,1400.09,356.394 C1394.66,356.394,1390.26,351.991,1390.26,346.56 C1390.26,341.129,1394.66,336.726,1400.09,336.726 z"/>
          <path id="33" d="M1400.09,337.2 C1405.25,337.247,1409.42,341.407,1409.42,346.56 C1409.42,351.709,1405.24,355.88,1400.09,355.889 C1394.95,355.887,1390.75,351.721,1390.76,346.56 C1390.76,341.393,1394.94,337.259,1400.09,337.2 z M1400.09,336.267 C1394.38,336.194,1389.76,340.866,1389.76,346.56 C1389.77,352.262,1394.37,356.901,1400.09,356.899 C1405.81,356.908,1410.44,352.273,1410.44,346.56 C1410.44,340.851,1405.8,336.206,1400.09,336.267 z"/>
        </defs>
        <use xlink:href="#32" style="fill:#000000;fill-opacity:1;fill-rule:evenodd;opacity:1;stroke:none;"/>
        <use xlink:href="#33" style="fill:#000000;fill-opacity:1;fill-rule:nonzero;opacity:1;stroke:none;"/>
      </g>
    </defs>
    <use xlink:href="#31"/>
    <defs>
      <title>Path</title>
      <g id="34">
        <defs>
          <path id="35" d="M1419.3,360.031 C1419.27,365.747,1423.56,370.45,1428.91,370.447 C1428.91,370.126,1428.91,369.805,1428.91,369.483 C1424.16,369.48,1420.25,365.288,1420.22,360.031 C1419.91,360.031,1419.61,360.031,1419.3,360.031 z"/>
        </defs>
        <use xlink:href="#35" style="fill:#000000;fill-opacity:1;fill-rule:nonzero;opacity:1;stroke:none;"/>
      </g>
    </defs>
    <use xlink:href="#34"/>
    <defs>
      <title>Path Copy</title>
      <g id="36">
        <defs>
          <path id="37" d="M1437.6,360.031 C1437.57,365.288,1433.66,369.48,1428.91,369.483 C1428.91,369.805,1428.91,370.126,1428.91,370.447 C1434.26,370.45,1438.55,365.747,1438.52,360.031 C1438.21,360.031,1437.9,360.031,1437.6,360.031 z"/>
        </defs>
        <use xlink:href="#37" style="fill:#000000;fill-opacity:1;fill-rule:nonzero;opacity:1;stroke:none;"/>
      </g>
    </defs>
    <use xlink:href="#36"/>
    <defs>
      <title>Path</title>
      <g id="38">
        <defs>
          <path id="39" d="M1402.81,338.711 C1403.32,338.537,1404.59,340.899,1405.63,343.986 C1406.67,347.073,1407.1,349.717,1406.59,349.891 C1406.07,350.065,1402.29,338.885,1402.81,338.711 z"/>
          <path id="40" d="M1402.97,339.182 C1402.44,339.028,1403.18,339.408,1403.58,340.361 C1404.07,341.28,1404.64,342.624,1405.16,344.145 C1405.67,345.667,1406.04,347.08,1406.2,348.11 C1406.46,349.111,1406.1,349.862,1406.43,349.422 C1407.2,349.551,1406.73,349.527,1406.69,349.238 C1406.55,348.975,1406.37,348.56,1406.16,348.055 C1405.74,347.047,1405.25,345.662,1404.78,344.274 C1404.3,342.885,1403.87,341.48,1403.58,340.427 C1403.45,339.899,1403.34,339.46,1403.29,339.165 C1403.14,338.915,1403.5,338.61,1402.97,339.182 z M1402.65,338.242 C1401.99,338.855,1402.35,338.938,1402.31,339.332 C1402.38,339.681,1402.48,340.142,1402.64,340.684 C1402.92,341.771,1403.38,343.182,1403.85,344.589 C1404.31,345.996,1404.83,347.383,1405.25,348.428 C1405.46,348.95,1405.65,349.382,1405.82,349.697 C1406.09,349.987,1405.85,350.274,1406.74,350.36 C1407.58,349.745,1407.27,349.088,1407.18,347.952 C1407,346.845,1406.63,345.393,1406.1,343.827 C1405.57,342.262,1404.99,340.88,1404.46,339.891 C1403.84,338.934,1403.69,338.22,1402.65,338.242 z"/>
        </defs>
        <use xlink:href="#39" style="fill:#ffffff;fill-opacity:1;fill-rule:evenodd;opacity:1;stroke:none;"/>
        <use xlink:href="#40" style="fill:#ffffff;fill-opacity:1;fill-rule:nonzero;opacity:1;stroke:none;"/>
      </g>
    </defs>
    <use xlink:href="#38"/>
    <defs>
      <title>Path Copy</title>
      <g id="41">
        <defs>
          <path id="42" d="M1461.06,338.711 C1461.57,338.537,1462.83,340.899,1463.88,343.986 C1464.92,347.073,1465.35,349.717,1464.83,349.891 C1464.32,350.065,1460.54,338.885,1461.06,338.711 z"/>
          <path id="43" d="M1461.22,339.182 C1460.69,339.028,1461.43,339.408,1461.83,340.361 C1462.32,341.28,1462.89,342.624,1463.41,344.145 C1463.92,345.667,1464.29,347.08,1464.45,348.11 C1464.71,349.111,1464.35,349.862,1464.68,349.422 C1465.45,349.551,1464.97,349.527,1464.94,349.238 C1464.8,348.975,1464.62,348.56,1464.41,348.055 C1463.99,347.047,1463.5,345.662,1463.02,344.274 C1462.55,342.885,1462.12,341.48,1461.83,340.427 C1461.7,339.899,1461.58,339.46,1461.54,339.165 C1461.39,338.915,1461.75,338.61,1461.22,339.182 z M1460.9,338.242 C1460.24,338.855,1460.6,338.938,1460.56,339.332 C1460.63,339.681,1460.73,340.142,1460.88,340.684 C1461.17,341.771,1461.62,343.182,1462.09,344.589 C1462.56,345.996,1463.08,347.383,1463.5,348.428 C1463.71,348.95,1463.9,349.382,1464.06,349.697 C1464.33,349.987,1464.09,350.274,1464.99,350.36 C1465.83,349.745,1465.52,349.088,1465.43,347.952 C1465.24,346.845,1464.88,345.393,1464.35,343.827 C1463.82,342.262,1463.24,340.88,1462.71,339.891 C1462.09,338.934,1461.94,338.22,1460.9,338.242 z"/>
        </defs>
        <use xlink:href="#42" style="fill:#ffffff;fill-opacity:1;fill-rule:evenodd;opacity:1;stroke:none;"/>
        <use xlink:href="#43" style="fill:#ffffff;fill-opacity:1;fill-rule:nonzero;opacity:1;stroke:none;"/>
      </g>
    </defs>
    <use xlink:href="#41"/>
  </g>
</svg>
