<?xml version="1.0" encoding="utf-8"?>
<svg x="134.75pt" y="14.75pt" width="45.5pt" height="45.25pt" viewBox="134.75 14.75 45.5 45.25" xmlns="http://www.w3.org/2000/svg" xmlns:xlink="http://www.w3.org/1999/xlink">
  <defs>
    <title>Path</title>
    <g id="1">
      <defs>
        <path id="2" d="M157.845,53.6378 C167.298,53.6378,175.825,41.6439,174.28,49.0434 C173.652,52.0546,166.964,60.0847,157.511,59.9993 C148.124,59.9146,143.634,55.9901,140.435,49.0742 C137.287,42.2673,148.392,53.6378,157.845,53.6378 z"/>
      </defs>
      <use xlink:href="#2" style="fill:#78a643;fill-opacity:1;fill-rule:evenodd;opacity:1;stroke:none;"/>
    </g>
  </defs>
  <use xlink:href="#1"/>
  <defs>
    <title>Path Copy</title>
    <g id="3">
      <defs>
        <path id="4" d="M157.468,45.1208 C166.921,45.1208,174.099,33.7233,172.554,41.1229 C171.925,44.134,167.232,53.494,157.78,53.4087 C148.392,53.3239,145.914,48.4512,142.716,41.5353 C139.568,34.7284,148.015,45.1208,157.468,45.1208 z"/>
      </defs>
      <use xlink:href="#4" style="fill:#97c34b;fill-opacity:1;fill-rule:evenodd;opacity:1;stroke:none;"/>
    </g>
  </defs>
  <use xlink:href="#3"/>
  <defs>
    <title>Path</title>
    <g id="5">
      <defs>
        <path id="6" d="M157.454,19.5794 C165.654,19.5794,172.302,24.3398,172.302,30.2122 C172.302,36.0845,157.371,45.145,157.371,45.145 C157.371,45.145,142.605,36.0845,142.605,30.2122 C142.605,24.3398,149.253,19.5794,157.454,19.5794 z"/>
      </defs>
      <use xlink:href="#6" style="fill:#bbd347;fill-opacity:1;fill-rule:evenodd;opacity:1;stroke:none;"/>
    </g>
  </defs>
  <use xlink:href="#5"/>
  <defs>
    <title>Shape 52 Copy</title>
    <g id="7">
      <defs>
        <path id="8" d="M143.701,20.8011 C143.697,20.7058,143.696,20.6102,143.696,20.5145 C143.696,18.45,145.27,16.7764,147.211,16.7764 C147.568,16.7764,147.973,16.8746,148.385,17.0402 C148.856,15.8495,150.09,15,151.538,15 C152.844,15,153.975,15.6908,154.531,16.6997 C154.958,16.3913,155.378,16.1907,155.727,16.1907 C157.337,16.1907,158.572,18.0069,158.582,19.5168 C158.584,19.7545,157.444,19.6551,155.834,19.6551 C155.014,19.6551,154.633,19.6827,154.199,19.7507 C153.34,19.8635,151.877,20.0052,150.936,20.4142 C150.904,20.4284,150.871,20.4421,150.84,20.4552 C150.804,20.476,150.767,20.4958,150.726,20.5145 C148.59,21.5055,147.859,21.5401,146.065,23.1413 C146.025,23.1876,145.977,23.233,145.923,23.2773 C145.884,23.3089,145.844,23.34,145.804,23.3709 C145.765,23.4027,145.726,23.4321,145.688,23.4592 C145.052,23.9358,144.26,24.4764,143.288,26.6315 C142.668,28.0045,140.684,25.3182,140.684,23.6982 C140.684,22.0782,141.85,20.7649,143.288,20.7649 C143.419,20.7649,143.557,20.7775,143.701,20.8011 z"/>
      </defs>
      <use xlink:href="#8" style="fill:#bad346;fill-opacity:1;fill-rule:evenodd;opacity:1;stroke:none;"/>
      <use xlink:href="#8" style="fill:none;opacity:1;stroke:#78a643;stroke-linecap:butt;stroke-linejoin:miter;stroke-miterlimit:10;stroke-opacity:1;stroke-width:0.5;"/>
    </g>
  </defs>
  <use xlink:href="#7"/>
  <defs>
    <title>Shape 52</title>
    <g id="9">
      <defs>
        <path id="10" d="M171.068,20.9129 C171.071,20.8177,171.073,20.722,171.073,20.6264 C171.073,18.5618,169.499,16.8882,167.558,16.8882 C167.201,16.8882,166.796,16.9865,166.384,17.1521 C165.913,15.9613,164.679,15.1118,163.231,15.1118 C161.925,15.1118,160.793,15.8027,160.238,16.8116 C159.81,16.5031,159.391,16.3026,159.042,16.3026 C157.432,16.3026,156.197,18.1187,156.187,19.6286 C156.185,19.8663,157.612,19.5702,159.222,19.5702 C160.043,19.5702,160.555,19.5912,160.989,19.6592 C161.791,19.9819,162.891,20.117,163.833,20.5261 C163.865,20.5402,163.897,20.5539,163.929,20.567 C163.965,20.5878,164.002,20.6076,164.043,20.6264 C166.179,21.6174,166.91,21.652,168.704,23.2531 C168.744,23.2994,168.791,23.3448,168.846,23.3891 C168.885,23.4208,168.924,23.4518,168.964,23.4827 C169.004,23.5146,169.043,23.544,169.081,23.571 C169.717,24.0477,170.509,24.5882,171.481,26.7433 C172.1,28.1163,174.085,25.43,174.085,23.81 C174.085,22.19,172.919,20.8767,171.481,20.8767 C171.35,20.8767,171.212,20.8893,171.068,20.9129 z"/>
      </defs>
      <use xlink:href="#10" style="fill:#bbd347;fill-opacity:1;fill-rule:evenodd;opacity:1;stroke:none;"/>
      <use xlink:href="#10" style="fill:none;opacity:1;stroke:#78a643;stroke-linecap:butt;stroke-linejoin:miter;stroke-miterlimit:10;stroke-opacity:1;stroke-width:0.5;"/>
    </g>
  </defs>
  <use xlink:href="#9"/>
  <defs>
    <title>Shape 51 Copy</title>
    <g id="11">
      <defs>
        <path id="12" d="M151.618,47.5757 C150.257,47.1153,148.881,46.891,146.887,45.3098 C146.813,45.1944,146.709,45.0866,146.573,44.9885 C146.413,44.8741,146.245,44.7503,146.071,44.6156 C146.071,44.6156,146.062,44.6069,146.062,44.6069 C145.973,44.5263,145.885,44.4569,145.797,44.3979 C144.558,43.3882,143.099,41.8278,142.297,39.2643 C142.263,39.1557,142.223,39.063,142.177,38.985 C142.24,38.2937,142.034,36.8103,141.808,33.6391 C141.69,31.9782,140.102,30.9984,138.675,30.8443 C137.02,30.6655,135.667,32.3898,135.662,34.2964 C135.66,35.2609,135.884,36.0722,136.246,36.7468 C135.491,37.4606,135,38.6202,135,39.9294 C135,41.9633,136.185,43.6361,137.705,43.8372 C137.568,44.2687,137.489,44.6634,137.489,44.9885 C137.489,47.3189,139.523,49.208,142.031,49.208 C142.199,49.208,142.373,49.1948,142.55,49.1699 C142.855,51.2253,144.753,52.8084,147.049,52.8084 C147.548,52.8084,148.123,52.6361,148.707,52.3539 C148.971,53.6989,150.121,54.7389,151.499,54.693 C156.141,54.5382,157.574,58.7239,157.801,57.126 C158.491,52.2707,153.271,47.5735,151.698,47.5735 C151.671,47.5735,151.645,47.5743,151.618,47.5757 z"/>
      </defs>
      <use xlink:href="#12" style="fill:#bcd33f;fill-opacity:1;fill-rule:evenodd;opacity:1;stroke:none;"/>
      <use xlink:href="#12" style="fill:none;opacity:1;stroke:#78a643;stroke-linecap:butt;stroke-linejoin:miter;stroke-miterlimit:10;stroke-opacity:1;stroke-width:0.5;"/>
    </g>
  </defs>
  <use xlink:href="#11"/>
  <defs>
    <title>Shape 51 Copy Copy</title>
    <g id="13">
      <defs>
        <path id="14" d="M163.382,47.6426 C164.743,47.1821,166.119,46.9578,168.113,45.3766 C168.187,45.2612,168.291,45.1534,168.427,45.0553 C168.587,44.9409,168.755,44.8171,168.929,44.6824 C168.929,44.6824,168.938,44.6737,168.938,44.6737 C169.027,44.5931,169.115,44.5237,169.203,44.4648 C170.442,43.455,171.901,41.8946,172.703,39.3311 C172.737,39.2225,172.777,39.1298,172.823,39.0518 C172.76,38.3605,172.966,36.8771,173.192,33.7059 C173.31,32.045,174.899,31.0652,176.325,30.9111 C177.98,30.7323,179.333,32.4567,179.338,34.3632 C179.34,35.3277,179.116,36.139,178.754,36.8137 C179.509,37.5274,180,38.687,180,39.9962 C180,42.0301,178.815,43.7029,177.296,43.904 C177.432,44.3356,177.511,44.7302,177.511,45.0553 C177.511,47.3857,175.477,49.2748,172.969,49.2748 C172.801,49.2748,172.627,49.2616,172.45,49.2367 C172.145,51.2921,170.247,52.8752,167.951,52.8752 C167.452,52.8752,166.877,52.7029,166.293,52.4207 C166.029,53.7657,164.879,54.8057,163.501,54.7598 C158.859,54.6051,157.426,58.7907,157.199,57.1928 C156.509,52.3375,161.729,47.6404,163.302,47.6404 C163.329,47.6404,163.355,47.6411,163.382,47.6426 z"/>
      </defs>
      <use xlink:href="#14" style="fill:#bcd33f;fill-opacity:1;fill-rule:evenodd;opacity:1;stroke:none;"/>
      <use xlink:href="#14" style="fill:none;opacity:1;stroke:#78a643;stroke-linecap:butt;stroke-linejoin:miter;stroke-miterlimit:10;stroke-opacity:1;stroke-width:0.5;"/>
    </g>
  </defs>
  <use xlink:href="#13"/>
  <defs>
    <title>Shape 51</title>
    <g id="15">
      <defs>
        <path id="16" d="M152.115,38.7046 C150.918,38.297,149.708,38.0983,147.955,36.6984 C147.889,36.5963,147.798,36.5009,147.678,36.414 C147.538,36.3128,147.39,36.2031,147.237,36.0838 C147.237,36.0838,147.228,36.0761,147.228,36.0761 C147.15,36.0048,147.073,35.9433,146.996,35.8912 C145.906,34.9972,144.623,33.6157,143.917,31.3462 C143.888,31.2501,143.852,31.168,143.812,31.0989 C143.868,30.4869,143.686,29.1736,143.487,26.366 C143.383,24.8956,141.987,24.0281,140.732,23.8917 C139.276,23.7334,138.086,25.26,138.082,26.9479 C138.08,27.8019,138.277,28.5201,138.596,29.1174 C137.932,29.7493,137.5,30.776,137.5,31.935 C137.5,33.7357,138.542,35.2167,139.878,35.3947 C139.758,35.7768,139.689,36.1262,139.689,36.414 C139.689,38.4772,141.477,40.1497,143.684,40.1497 C143.831,40.1497,143.984,40.138,144.14,40.1159 C144.408,41.9357,146.078,43.3372,148.097,43.3372 C148.536,43.3372,149.041,43.1847,149.555,42.9348 C149.787,44.1256,150.799,45.0463,152.011,45.0057 C156.093,44.8687,157.353,48.5744,157.553,47.1597 C158.16,42.8612,153.569,38.7026,152.186,38.7026 C152.162,38.7026,152.139,38.7033,152.115,38.7046 z"/>
      </defs>
      <use xlink:href="#16" style="fill:#bdd340;fill-opacity:1;fill-rule:evenodd;opacity:1;stroke:none;"/>
      <use xlink:href="#16" style="fill:none;opacity:1;stroke:#78a643;stroke-linecap:butt;stroke-linejoin:miter;stroke-miterlimit:10;stroke-opacity:1;stroke-width:0.5;"/>
    </g>
  </defs>
  <use xlink:href="#15"/>
  <defs>
    <title>Shape 51 Copy</title>
    <g id="17">
      <defs>
        <path id="18" d="M162.889,38.9144 C164.086,38.5067,165.296,38.3081,167.05,36.9082 C167.115,36.8061,167.206,36.7106,167.327,36.6238 C167.467,36.5225,167.615,36.4129,167.768,36.2936 C167.768,36.2936,167.776,36.2859,167.776,36.2859 C167.854,36.2146,167.932,36.1531,168.009,36.101 C169.099,35.207,170.382,33.8255,171.087,31.556 C171.117,31.4599,171.152,31.3777,171.192,31.3087 C171.137,30.6967,171.319,29.3833,171.517,26.5758 C171.621,25.1054,173.018,24.2379,174.273,24.1014 C175.728,23.9432,176.919,25.4698,176.922,27.1577 C176.924,28.0117,176.728,28.7299,176.409,29.3272 C177.073,29.9591,177.505,30.9857,177.505,32.1448 C177.505,33.9455,176.462,35.4265,175.126,35.6045 C175.247,35.9866,175.316,36.3359,175.316,36.6238 C175.316,38.687,173.527,40.3595,171.321,40.3595 C171.173,40.3595,171.02,40.3478,170.864,40.3257 C170.596,42.1454,168.927,43.547,166.907,43.547 C166.469,43.547,165.964,43.3944,165.449,43.1446 C165.217,44.3354,164.206,45.2561,162.994,45.2155 C158.911,45.0785,157.651,48.7842,157.452,47.3695 C156.845,43.071,161.435,38.9124,162.819,38.9124 C162.842,38.9124,162.866,38.9131,162.889,38.9144 z"/>
      </defs>
      <use xlink:href="#18" style="fill:#bcd33f;fill-opacity:1;fill-rule:evenodd;opacity:1;stroke:none;"/>
      <use xlink:href="#18" style="fill:none;opacity:1;stroke:#78a643;stroke-linecap:butt;stroke-linejoin:miter;stroke-miterlimit:10;stroke-opacity:1;stroke-width:0.5;"/>
    </g>
  </defs>
  <use xlink:href="#17"/>
  <g id="19">
    <title>Group Copy</title>
    <g id="20">
      <title>Group</title>
      <g id="21">
        <title>Group</title>
        <g id="22">
          <title>Group</title>
          <defs>
            <title>Shape 28</title>
            <g id="23">
              <defs>
                <path id="24" d="M166.712,24.5761 C168.467,24.5761,169.887,25.9984,169.887,27.7526 C169.887,29.5069,168.467,30.9291,166.712,30.9291 C164.957,30.9291,163.537,29.5069,163.537,27.7526 C163.537,25.9984,164.957,24.5761,166.712,24.5761 z"/>
              </defs>
              <use xlink:href="#24" style="fill:#000000;fill-opacity:1;fill-rule:evenodd;opacity:1;stroke:none;"/>
            </g>
          </defs>
          <use xlink:href="#23"/>
        </g>
        <g id="25">
          <title>Group</title>
          <defs>
            <title>Shape 29</title>
            <g id="26">
              <defs>
                <path id="27" d="M166.712,24.9213 C168.263,24.9548,169.516,26.2008,169.516,27.7526 C169.516,29.3016,168.263,30.5548,166.712,30.5614 C165.168,30.5599,163.887,29.3096,163.901,27.7526 C163.894,26.1899,165.161,24.9636,166.712,24.9213 z M166.712,24.2419 C164.753,24.188,163.173,25.8061,163.166,27.7526 C163.18,29.7042,164.746,31.2983,166.712,31.2969 C168.671,31.3034,170.258,29.7123,170.258,27.7526 C170.258,25.7959,168.664,24.1967,166.712,24.2419 z"/>
              </defs>
              <use xlink:href="#27" style="fill:#000000;fill-opacity:1;fill-rule:nonzero;opacity:1;stroke:none;"/>
            </g>
          </defs>
          <use xlink:href="#26"/>
        </g>
      </g>
    </g>
    <g id="28">
      <title>Group</title>
      <g id="29">
        <title>Group</title>
        <g id="30">
          <title>Group</title>
          <defs>
            <title>Shape 30</title>
            <g id="31">
              <defs>
                <path id="32" d="M148.288,24.6715 C150.043,24.6715,151.463,26.0938,151.463,27.848 C151.463,29.6023,150.043,31.0245,148.288,31.0245 C146.533,31.0245,145.113,29.6023,145.113,27.848 C145.113,26.0938,146.533,24.6715,148.288,24.6715 z"/>
              </defs>
              <use xlink:href="#32" style="fill:#000000;fill-opacity:1;fill-rule:evenodd;opacity:1;stroke:none;"/>
            </g>
          </defs>
          <use xlink:href="#31"/>
        </g>
        <g id="33">
          <title>Group</title>
          <defs>
            <title>Shape 31</title>
            <g id="34">
              <defs>
                <path id="35" d="M148.288,25.0167 C149.839,25.0509,151.092,26.2962,151.092,27.848 C151.092,29.397,149.839,30.6502,148.288,30.6568 C146.744,30.6553,145.463,29.4057,145.477,27.848 C145.47,26.286,146.737,25.0597,148.288,25.0167 z M148.288,24.3373 C146.329,24.2841,144.749,25.9022,144.742,27.848 C144.756,29.7997,146.322,31.3944,148.288,31.3923 C150.247,31.3988,151.835,29.8077,151.835,27.848 C151.835,25.8913,150.24,24.2929,148.288,24.3373 z"/>
              </defs>
              <use xlink:href="#35" style="fill:#000000;fill-opacity:1;fill-rule:nonzero;opacity:1;stroke:none;"/>
            </g>
          </defs>
          <use xlink:href="#34"/>
        </g>
      </g>
    </g>
    <g id="36">
      <title>Group</title>
      <g id="37">
        <title>Group</title>
        <g id="38">
          <title>Group</title>
          <defs>
            <title>Shape 32</title>
            <g id="39">
              <defs>
                <path id="40" d="M154.303,32.1999 C154.281,34.1391,155.745,35.7616,157.595,35.7594 C157.595,35.5256,157.595,35.2919,157.595,35.0574 C156.182,35.0552,154.995,33.8048,154.973,32.1999 C154.755,32.1999,154.529,32.1999,154.303,32.1999 z"/>
              </defs>
              <use xlink:href="#40" style="fill:#000000;fill-opacity:1;fill-rule:nonzero;opacity:1;stroke:none;"/>
            </g>
          </defs>
          <use xlink:href="#39"/>
        </g>
      </g>
    </g>
    <g id="41">
      <title>Group</title>
      <g id="42">
        <title>Group</title>
        <g id="43">
          <title>Group</title>
          <defs>
            <title>Shape 33</title>
            <g id="44">
              <defs>
                <path id="45" d="M160.216,32.1999 C160.194,33.8048,159.007,35.0552,157.595,35.0574 C157.595,35.2919,157.595,35.5256,157.595,35.7594 C159.444,35.7616,160.908,34.1391,160.886,32.1999 C160.661,32.1999,160.442,32.1999,160.216,32.1999 z"/>
              </defs>
              <use xlink:href="#45" style="fill:#000000;fill-opacity:1;fill-rule:nonzero;opacity:1;stroke:none;"/>
            </g>
          </defs>
          <use xlink:href="#44"/>
        </g>
      </g>
    </g>
    <g id="46">
      <title>Group</title>
      <g id="47">
        <title>Group</title>
        <g id="48">
          <title>Group</title>
          <defs>
            <title>Shape 34</title>
            <g id="49">
              <defs>
                <path id="50" d="M149.162,25.3131 C149.329,25.2563,149.737,26.0195,150.072,27.0164 C150.415,28.0141,150.553,28.8683,150.385,28.9243 C150.218,28.9804,148.994,25.3692,149.162,25.3131 z"/>
              </defs>
              <use xlink:href="#50" style="fill:#ffffff;fill-opacity:1;fill-rule:evenodd;opacity:1;stroke:none;"/>
            </g>
          </defs>
          <use xlink:href="#49"/>
        </g>
        <g id="51">
          <title>Group</title>
          <defs>
            <title>Shape 35</title>
            <g id="52">
              <defs>
                <path id="53" d="M149.278,25.6561 C148.791,25.5789,149.155,25.6342,149.235,25.9408 C149.388,26.2234,149.57,26.6501,149.73,27.1329 C149.897,27.615,150.014,28.0636,150.065,28.3811 C150.181,28.6767,149.927,28.9389,150.269,28.5821 C150.859,28.668,150.56,28.7132,150.597,28.6199 C150.56,28.5457,150.502,28.4153,150.436,28.2551 C150.298,27.9376,150.145,27.4905,149.985,27.0463 C149.832,26.6013,149.701,26.1484,149.606,25.8148 C149.57,25.6474,149.526,25.5097,149.519,25.426 C149.431,25.3743,149.694,25.2308,149.278,25.6561 z M149.045,24.9716 C148.594,25.4092,148.856,25.3903,148.805,25.5469 C148.834,25.6714,148.863,25.8243,148.914,26.002 C149.009,26.3603,149.162,26.8169,149.308,27.2749 C149.461,27.7337,149.635,28.1823,149.766,28.5275 C149.839,28.6993,149.897,28.842,149.956,28.9549 C150.094,29.0481,149.868,29.1945,150.502,29.2659 C151.004,28.8537,150.771,28.66,150.771,28.266 C150.713,27.8932,150.589,27.4155,150.415,26.9006 C150.247,26.3865,150.058,25.9328,149.876,25.5986 C149.628,25.2891,149.701,24.9905,149.045,24.9716 z"/>
              </defs>
              <use xlink:href="#53" style="fill:#ffffff;fill-opacity:1;fill-rule:nonzero;opacity:1;stroke:none;"/>
            </g>
          </defs>
          <use xlink:href="#52"/>
        </g>
      </g>
    </g>
    <g id="54">
      <title>Group</title>
      <g id="55">
        <title>Group</title>
        <g id="56">
          <title>Group</title>
          <defs>
            <title>Shape 36</title>
            <g id="57">
              <defs>
                <path id="58" d="M167.979,25.3131 C168.147,25.2563,168.554,26.0195,168.889,27.0164 C169.224,28.0141,169.363,28.8683,169.202,28.9243 C169.035,28.9804,167.812,25.3692,167.979,25.3131 z"/>
              </defs>
              <use xlink:href="#58" style="fill:#ffffff;fill-opacity:1;fill-rule:evenodd;opacity:1;stroke:none;"/>
            </g>
          </defs>
          <use xlink:href="#57"/>
        </g>
        <g id="59">
          <title>Group</title>
          <defs>
            <title>Shape 37</title>
            <g id="60">
              <defs>
                <path id="61" d="M168.096,25.6561 C167.608,25.5789,167.965,25.6342,168.052,25.9408 C168.205,26.2234,168.387,26.6501,168.547,27.1329 C168.715,27.615,168.831,28.0636,168.882,28.3811 C168.991,28.6767,168.744,28.9389,169.086,28.5821 C169.669,28.668,169.377,28.7132,169.414,28.6199 C169.37,28.5457,169.312,28.4153,169.246,28.2551 C169.108,27.9376,168.962,27.4905,168.802,27.0463 C168.649,26.6013,168.518,26.1484,168.423,25.8148 C168.38,25.6474,168.343,25.5097,168.336,25.426 C168.248,25.3743,168.511,25.2308,168.096,25.6561 z M167.863,24.9716 C167.411,25.4092,167.673,25.3903,167.622,25.5469 C167.644,25.6714,167.68,25.8243,167.731,26.002 C167.826,26.3603,167.972,26.8169,168.125,27.2749 C168.278,27.7337,168.452,28.1823,168.584,28.5275 C168.649,28.6993,168.715,28.842,168.773,28.9549 C168.911,29.0481,168.685,29.1945,169.312,29.2659 C169.821,28.8537,169.588,28.66,169.588,28.266 C169.523,27.8932,169.406,27.4155,169.232,26.9006 C169.057,26.3865,168.867,25.9328,168.693,25.5986 C168.445,25.2891,168.518,24.9905,167.863,24.9716 z"/>
              </defs>
              <use xlink:href="#61" style="fill:#ffffff;fill-opacity:1;fill-rule:nonzero;opacity:1;stroke:none;"/>
            </g>
          </defs>
          <use xlink:href="#60"/>
        </g>
      </g>
    </g>
  </g>
</svg>
