<?xml version="1.0" encoding="utf-8"?>
<svg x="30pt" y="14.5pt" width="45.7292pt" height="45.5pt" viewBox="30 14.5 45.7292 45.5" xmlns="http://www.w3.org/2000/svg" xmlns:xlink="http://www.w3.org/1999/xlink">
  <g id="1">
    <title>Group</title>
    <g id="2">
      <title>Group</title>
      <defs>
        <title>Shape 79</title>
        <g id="3">
          <defs>
            <path id="4" d="M43.1053,59.7606 C40.4352,59.5038,38.1319,59.3013,35.9423,59.8706 C33.2509,60.5703,31.5141,58.2945,31.7155,56.373 C32.0271,53.3985,30.981,49.7897,30.5043,46.7428 C30.1608,45.041,29.9822,43.1742,30.0014,41.1391 C30.0779,33.0091,37.7864,24.394,45.6814,23.1042 C49.2522,22.5209,52.0575,22.6849,54.2763,23.3818 C55.3454,23.4158,56.3952,23.3297,57.3433,22.8973 C59.2625,22.022,61.1296,24.5616,61.4418,26.5647 C61.665,27.9962,61.6479,29.976,61.7965,31.6518 C62.6575,34.2896,63.0658,37.1576,63.4657,39.7231 C64.7219,47.7811,57.5439,57.0272,49.7403,58.8057 C47.7763,59.2533,46.3475,59.6734,43.1053,59.7606 z"/>
          </defs>
          <use xlink:href="#4" style="fill:#f6e742;fill-opacity:1;fill-rule:evenodd;opacity:1;stroke:none;"/>
        </g>
      </defs>
      <use xlink:href="#3"/>
      <defs>
        <title>Path</title>
        <g id="5">
          <defs>
            <path id="6" d="M58.6658,24.8523 C59.1553,24.7756,59.5564,25.0497,59.8706,25.5477 C60.2315,26.1199,60.4688,26.2537,60.0466,26.6192 C59.6612,26.9528,59.2873,26.3314,58.8599,25.9501 C58.528,25.6539,58.1763,24.929,58.6658,24.8523 z"/>
          </defs>
          <use xlink:href="#6" style="fill:#8e493b;fill-opacity:1;fill-rule:evenodd;opacity:1;stroke:none;"/>
        </g>
      </defs>
      <use xlink:href="#5"/>
      <defs>
        <title>Shape 81</title>
        <g id="7">
          <defs>
            <path id="8" d="M58.5645,23.2549 C58.5896,21.991,58.4335,21.0535,58.8589,19.8614 C60.1835,16.1505,64.1465,15.2615,67.3794,15.0871 C68.9324,15.0033,70.6723,14.7447,72.0507,15.8453 C71.0753,16.2829,70.0965,17.0452,69.4441,17.948 C68.521,19.2256,68.4581,20.8107,67.67,22.1407 C66.1188,24.7587,60.0997,27.652,58.6066,23.5313 C58.6066,23.5313,58.5645,23.2549,58.5645,23.2549 z"/>
          </defs>
          <use xlink:href="#8" style="fill:#6b9744;fill-opacity:1;fill-rule:evenodd;opacity:1;stroke:none;"/>
          <use xlink:href="#8" style="fill:none;opacity:1;stroke:#6b9744;stroke-linecap:butt;stroke-linejoin:miter;stroke-miterlimit:10;stroke-opacity:1;stroke-width:1;"/>
        </g>
      </defs>
      <use xlink:href="#7"/>
      <defs>
        <title>Shape 80</title>
        <g id="9">
          <defs>
            <path id="10" d="M59.9897,25.513 C61.4994,22.626,65.2736,21.1653,68.3972,22.0991 C70.9352,22.8577,73.915,26.0429,75,28.698 C73.3088,28.7859,71.6455,27.9892,69.8641,28.4881 C67.9439,29.0258,65.6874,31.4523,63.5271,30.5709 C61.6729,29.8145,61.2896,27.2845,60.0968,25.8912 C60.0968,25.8912,59.9897,25.513,59.9897,25.513 z"/>
          </defs>
          <use xlink:href="#10" style="fill:#70ba44;fill-opacity:1;fill-rule:evenodd;opacity:1;stroke:none;"/>
          <use xlink:href="#10" style="fill:none;opacity:1;stroke:#70ba44;stroke-linecap:butt;stroke-linejoin:miter;stroke-miterlimit:10;stroke-opacity:1;stroke-width:1;"/>
        </g>
      </defs>
      <use xlink:href="#9"/>
      <g id="11">
        <title>Group</title>
        <defs>
          <title>Path</title>
          <g id="12">
            <defs>
              <path id="13" d="M54.4974,32.5179 C54.8572,32.4615,55.1995,32.7406,55.2619,33.1412 C55.3244,33.5418,55.0834,33.9123,54.7236,33.9687 C54.3638,34.025,54.0215,33.7459,53.9591,33.3453 C53.8966,32.9447,54.1376,32.5742,54.4974,32.5179 z"/>
            </defs>
            <use xlink:href="#13" style="fill:#efc442;fill-opacity:1;fill-rule:evenodd;opacity:1;stroke:none;"/>
          </g>
        </defs>
        <use xlink:href="#12"/>
        <defs>
          <title>Path Copy</title>
          <g id="14">
            <defs>
              <path id="15" d="M56.6883,38.9939 C57.048,38.9375,57.3903,39.2166,57.4528,39.6172 C57.5152,40.0178,57.2742,40.3883,56.9144,40.4447 C56.5546,40.501,56.2123,40.2219,56.1499,39.8213 C56.0874,39.4207,56.3285,39.0502,56.6883,38.9939 z"/>
            </defs>
            <use xlink:href="#15" style="fill:#efc442;fill-opacity:1;fill-rule:evenodd;opacity:1;stroke:none;"/>
          </g>
        </defs>
        <use xlink:href="#14"/>
        <defs>
          <title>Path Copy Copy</title>
          <g id="16">
            <defs>
              <path id="17" d="M48.1051,41.024 C48.4649,40.9677,48.8072,41.2467,48.8697,41.6474 C48.9321,42.048,48.6911,42.4184,48.3313,42.4748 C47.9715,42.5312,47.6292,42.2521,47.5668,41.8514 C47.5043,41.4508,47.7453,41.0804,48.1051,41.024 z"/>
            </defs>
            <use xlink:href="#17" style="fill:#efc442;fill-opacity:1;fill-rule:evenodd;opacity:1;stroke:none;"/>
          </g>
        </defs>
        <use xlink:href="#16"/>
        <defs>
          <title>Path Copy Copy Copy</title>
          <g id="18">
            <defs>
              <path id="19" d="M38.5081,46.3898 C38.8679,46.3334,39.2101,46.6125,39.2726,47.0131 C39.335,47.4138,39.094,47.7842,38.7342,47.8406 C38.3745,47.8969,38.0322,47.6179,37.9697,47.2172 C37.9073,46.8166,38.1483,46.4462,38.5081,46.3898 z"/>
            </defs>
            <use xlink:href="#19" style="fill:#efc442;fill-opacity:1;fill-rule:evenodd;opacity:1;stroke:none;"/>
          </g>
        </defs>
        <use xlink:href="#18"/>
        <defs>
          <title>Path Copy Copy Copy Copy</title>
          <g id="20">
            <defs>
              <path id="21" d="M41.2913,54.7507 C41.6511,54.6944,41.9934,54.9735,42.0558,55.3741 C42.1183,55.7747,41.8772,56.1452,41.5174,56.2015 C41.1577,56.2579,40.8154,55.9788,40.7529,55.5782 C40.6905,55.1775,40.9315,54.8071,41.2913,54.7507 z"/>
            </defs>
            <use xlink:href="#21" style="fill:#efc442;fill-opacity:1;fill-rule:evenodd;opacity:1;stroke:none;"/>
          </g>
        </defs>
        <use xlink:href="#20"/>
        <defs>
          <title>Path Copy Copy Copy Copy Copy</title>
          <g id="22">
            <defs>
              <path id="23" d="M46.6071,55.9189 C46.9668,55.8625,47.3091,56.1416,47.3716,56.5422 C47.434,56.9428,47.193,57.3133,46.8332,57.3697 C46.4734,57.426,46.1311,57.1469,46.0687,56.7463 C46.0062,56.3457,46.2473,55.9752,46.6071,55.9189 z"/>
            </defs>
            <use xlink:href="#23" style="fill:#efc442;fill-opacity:1;fill-rule:evenodd;opacity:1;stroke:none;"/>
          </g>
        </defs>
        <use xlink:href="#22"/>
        <defs>
          <title>Path Copy Copy Copy Copy Copy Copy</title>
          <g id="24">
            <defs>
              <path id="25" d="M45.5608,51.9702 C45.9206,51.9138,46.2629,52.1929,46.3253,52.5935 C46.3878,52.9942,46.1468,53.3646,45.787,53.421 C45.4272,53.4773,45.0849,53.1982,45.0225,52.7976 C44.96,52.397,45.201,52.0266,45.5608,51.9702 z"/>
            </defs>
            <use xlink:href="#25" style="fill:#efc442;fill-opacity:1;fill-rule:evenodd;opacity:1;stroke:none;"/>
          </g>
        </defs>
        <use xlink:href="#24"/>
        <defs>
          <title>Path Copy Copy Copy Copy Copy Copy Copy</title>
          <g id="26">
            <defs>
              <path id="27" d="M41.8286,48.9926 C42.1884,48.9362,42.5307,49.2153,42.5931,49.6159 C42.6556,50.0165,42.4145,50.387,42.0548,50.4434 C41.695,50.4997,41.3527,50.2206,41.2902,49.82 C41.2278,49.4194,41.4688,49.0489,41.8286,48.9926 z"/>
            </defs>
            <use xlink:href="#27" style="fill:#efc442;fill-opacity:1;fill-rule:evenodd;opacity:1;stroke:none;"/>
          </g>
        </defs>
        <use xlink:href="#26"/>
        <defs>
          <title>Path Copy Copy Copy Copy Copy Copy Copy Copy</title>
          <g id="28">
            <defs>
              <path id="29" d="M38.4942,40.7661 C38.854,40.7098,39.1963,40.9888,39.2588,41.3895 C39.3212,41.7901,39.0802,42.1605,38.7204,42.2169 C38.3606,42.2733,38.0183,41.9942,37.9559,41.5935 C37.8934,41.1929,38.1344,40.8225,38.4942,40.7661 z"/>
            </defs>
            <use xlink:href="#29" style="fill:#efc442;fill-opacity:1;fill-rule:evenodd;opacity:1;stroke:none;"/>
          </g>
        </defs>
        <use xlink:href="#28"/>
        <defs>
          <title>Path Copy Copy Copy Copy Copy Copy Copy Copy Copy</title>
          <g id="30">
            <defs>
              <path id="31" d="M42.305,32.0539 C42.6648,31.9975,43.0071,32.2766,43.0696,32.6772 C43.132,33.0779,42.891,33.4483,42.5312,33.5047 C42.1714,33.5611,41.8291,33.282,41.7667,32.8813 C41.7042,32.4807,41.9453,32.1103,42.305,32.0539 z"/>
            </defs>
            <use xlink:href="#31" style="fill:#efc442;fill-opacity:1;fill-rule:evenodd;opacity:1;stroke:none;"/>
          </g>
        </defs>
        <use xlink:href="#30"/>
        <defs>
          <title>Path Copy Copy Copy Copy Copy Copy Copy Copy Copy Copy</title>
          <g id="32">
            <defs>
              <path id="33" d="M36.9425,55.4934 C37.3023,55.437,37.6446,55.7161,37.707,56.1167 C37.7695,56.5174,37.5285,56.8878,37.1687,56.9442 C36.8089,57.0005,36.4666,56.7214,36.4041,56.3208 C36.3417,55.9202,36.5827,55.5498,36.9425,55.4934 z"/>
            </defs>
            <use xlink:href="#33" style="fill:#efc442;fill-opacity:1;fill-rule:evenodd;opacity:1;stroke:none;"/>
          </g>
        </defs>
        <use xlink:href="#32"/>
        <defs>
          <title>Path Copy Copy Copy Copy Copy Copy Copy Copy Copy Copy Copy</title>
          <g id="34">
            <defs>
              <path id="35" d="M34.7424,53.4711 C35.1022,53.4148,35.4445,53.6938,35.507,54.0945 C35.5694,54.4951,35.3284,54.8655,34.9686,54.9219 C34.6088,54.9783,34.2665,54.6992,34.2041,54.2985 C34.1416,53.8979,34.3826,53.5275,34.7424,53.4711 z"/>
            </defs>
            <use xlink:href="#35" style="fill:#efc442;fill-opacity:1;fill-rule:evenodd;opacity:1;stroke:none;"/>
          </g>
        </defs>
        <use xlink:href="#34"/>
        <defs>
          <title>Path Copy Copy Copy Copy Copy Copy Copy Copy Copy Copy Copy Copy</title>
          <g id="36">
            <defs>
              <path id="37" d="M36.6554,51.1084 C37.0151,51.0521,37.3574,51.3312,37.4199,51.7318 C37.4823,52.1324,37.2413,52.5029,36.8815,52.5592 C36.5217,52.6156,36.1795,52.3365,36.117,51.9359 C36.0545,51.5353,36.2956,51.1648,36.6554,51.1084 z"/>
            </defs>
            <use xlink:href="#37" style="fill:#efc442;fill-opacity:1;fill-rule:evenodd;opacity:1;stroke:none;"/>
          </g>
        </defs>
        <use xlink:href="#36"/>
        <defs>
          <title>Path Copy Copy Copy Copy Copy Copy Copy Copy Copy Copy Copy Copy Copy</title>
          <g id="38">
            <defs>
              <path id="39" d="M34.0926,46.2672 C34.4524,46.2108,34.7947,46.4899,34.8572,46.8905 C34.9196,47.2911,34.6786,47.6616,34.3188,47.718 C33.959,47.7743,33.6167,47.4952,33.5543,47.0946 C33.4918,46.694,33.7329,46.3235,34.0926,46.2672 z"/>
            </defs>
            <use xlink:href="#39" style="fill:#efc442;fill-opacity:1;fill-rule:evenodd;opacity:1;stroke:none;"/>
          </g>
        </defs>
        <use xlink:href="#38"/>
        <defs>
          <title>Path Copy Copy Copy Copy Copy Copy Copy Copy Copy Copy Copy Copy Copy Copy</title>
          <g id="40">
            <defs>
              <path id="41" d="M32.7591,41.4946 C33.1188,41.4382,33.4611,41.7173,33.5236,42.1179 C33.586,42.5185,33.345,42.889,32.9852,42.9453 C32.6254,43.0017,32.2831,42.7226,32.2207,42.322 C32.1582,41.9214,32.3993,41.5509,32.7591,41.4946 z"/>
            </defs>
            <use xlink:href="#41" style="fill:#efc442;fill-opacity:1;fill-rule:evenodd;opacity:1;stroke:none;"/>
          </g>
        </defs>
        <use xlink:href="#40"/>
        <defs>
          <title>Path Copy Copy Copy Copy Copy Copy Copy Copy Copy Copy Copy Copy Copy Copy Copy</title>
          <g id="42">
            <defs>
              <path id="43" d="M36.6581,36.9837 C37.0179,36.9273,37.3602,37.2064,37.4226,37.607 C37.4851,38.0076,37.244,38.3781,36.8843,38.4344 C36.5245,38.4908,36.1822,38.2117,36.1197,37.8111 C36.0573,37.4105,36.2983,37.04,36.6581,36.9837 z"/>
            </defs>
            <use xlink:href="#43" style="fill:#efc442;fill-opacity:1;fill-rule:evenodd;opacity:1;stroke:none;"/>
          </g>
        </defs>
        <use xlink:href="#42"/>
        <defs>
          <title>Path Copy Copy Copy Copy Copy Copy Copy Copy Copy Copy Copy Copy Copy Copy Copy Copy</title>
          <g id="44">
            <defs>
              <path id="45" d="M37.5484,31.7033 C37.9082,31.6469,38.2505,31.926,38.3129,32.3266 C38.3754,32.7273,38.1344,33.0977,37.7746,33.1541 C37.4148,33.2104,37.0725,32.9313,37.01,32.5307 C36.9476,32.1301,37.1886,31.7596,37.5484,31.7033 z"/>
            </defs>
            <use xlink:href="#45" style="fill:#efc442;fill-opacity:1;fill-rule:evenodd;opacity:1;stroke:none;"/>
          </g>
        </defs>
        <use xlink:href="#44"/>
        <defs>
          <title>Path Copy Copy Copy Copy Copy Copy Copy Copy Copy Copy Copy Copy Copy Copy Copy Copy Copy</title>
          <g id="46">
            <defs>
              <path id="47" d="M41.9068,27.696 C42.2666,27.6396,42.6088,27.9187,42.6713,28.3193 C42.7337,28.7199,42.4927,29.0904,42.1329,29.1468 C41.7732,29.2031,41.4309,28.924,41.3684,28.5234 C41.306,28.1228,41.547,27.7523,41.9068,27.696 z"/>
            </defs>
            <use xlink:href="#47" style="fill:#efc442;fill-opacity:1;fill-rule:evenodd;opacity:1;stroke:none;"/>
          </g>
        </defs>
        <use xlink:href="#46"/>
        <defs>
          <title>Path Copy Copy Copy Copy Copy Copy Copy Copy Copy Copy Copy Copy Copy Copy Copy Copy Copy Copy</title>
          <g id="48">
            <defs>
              <path id="49" d="M45.7468,27.5284 C46.1066,27.4721,46.4488,27.7511,46.5113,28.1518 C46.5737,28.5524,46.3327,28.9229,45.9729,28.9792 C45.6132,29.0356,45.2709,28.7565,45.2084,28.3559 C45.146,27.9552,45.387,27.5848,45.7468,27.5284 z"/>
            </defs>
            <use xlink:href="#49" style="fill:#efc442;fill-opacity:1;fill-rule:evenodd;opacity:1;stroke:none;"/>
          </g>
        </defs>
        <use xlink:href="#48"/>
        <defs>
          <title>Path Copy Copy Copy Copy Copy Copy Copy Copy Copy Copy Copy Copy Copy Copy Copy Copy Copy Copy Copy</title>
          <g id="50">
            <defs>
              <path id="51" d="M49.5043,25.2425 C49.8641,25.1861,50.2064,25.4652,50.2688,25.8658 C50.3313,26.2665,50.0903,26.6369,49.7305,26.6933 C49.3707,26.7496,49.0284,26.4705,48.9659,26.0699 C48.9035,25.6693,49.1445,25.2988,49.5043,25.2425 z"/>
            </defs>
            <use xlink:href="#51" style="fill:#efc442;fill-opacity:1;fill-rule:evenodd;opacity:1;stroke:none;"/>
          </g>
        </defs>
        <use xlink:href="#50"/>
        <defs>
          <title>Path Copy Copy Copy Copy Copy Copy Copy Copy Copy Copy</title>
          <g id="52">
            <defs>
              <path id="53" d="M46.5039,33.4552 C46.8636,33.3988,47.2059,33.6779,47.2684,34.0786 C47.3308,34.4792,47.0898,34.8496,46.73,34.906 C46.3702,34.9623,46.028,34.6833,45.9655,34.2826 C45.903,33.882,46.1441,33.5116,46.5039,33.4552 z"/>
            </defs>
            <use xlink:href="#53" style="fill:#efc442;fill-opacity:1;fill-rule:evenodd;opacity:1;stroke:none;"/>
          </g>
        </defs>
        <use xlink:href="#52"/>
        <defs>
          <title>Path Copy Copy Copy Copy Copy Copy Copy Copy Copy Copy Copy</title>
          <g id="54">
            <defs>
              <path id="55" d="M42.2734,36.5153 C42.6332,36.4589,42.9755,36.738,43.0379,37.1386 C43.1004,37.5392,42.8593,37.9097,42.4996,37.9661 C42.1398,38.0224,41.7975,37.7433,41.735,37.3427 C41.6726,36.9421,41.9136,36.5716,42.2734,36.5153 z"/>
            </defs>
            <use xlink:href="#55" style="fill:#efc442;fill-opacity:1;fill-rule:evenodd;opacity:1;stroke:none;"/>
          </g>
        </defs>
        <use xlink:href="#54"/>
        <defs>
          <title>Path Copy Copy Copy Copy Copy Copy Copy Copy Copy Copy Copy Copy</title>
          <g id="56">
            <defs>
              <path id="57" d="M43.3242,41.9694 C43.684,41.9131,44.0263,42.1922,44.0887,42.5928 C44.1512,42.9934,43.9101,43.3639,43.5504,43.4202 C43.1906,43.4766,42.8483,43.1975,42.7858,42.7969 C42.7234,42.3962,42.9644,42.0258,43.3242,41.9694 z"/>
            </defs>
            <use xlink:href="#57" style="fill:#efc442;fill-opacity:1;fill-rule:evenodd;opacity:1;stroke:none;"/>
          </g>
        </defs>
        <use xlink:href="#56"/>
        <defs>
          <title>Path Copy Copy Copy</title>
          <g id="58">
            <defs>
              <path id="59" d="M50.0526,29.2849 C50.4124,29.2285,50.7547,29.5076,50.8171,29.9082 C50.8796,30.3088,50.6385,30.6793,50.2788,30.7357 C49.919,30.792,49.5767,30.5129,49.5142,30.1123 C49.4518,29.7117,49.6928,29.3412,50.0526,29.2849 z"/>
            </defs>
            <use xlink:href="#59" style="fill:#efc442;fill-opacity:1;fill-rule:evenodd;opacity:1;stroke:none;"/>
          </g>
        </defs>
        <use xlink:href="#58"/>
        <defs>
          <title>Path Copy Copy Copy Copy</title>
          <g id="60">
            <defs>
              <path id="61" d="M50.8245,35.0543 C51.1842,34.998,51.5265,35.2771,51.589,35.6777 C51.6514,36.0783,51.4104,36.4488,51.0506,36.5051 C50.6908,36.5615,50.3485,36.2824,50.2861,35.8818 C50.2236,35.4811,50.4647,35.1107,50.8245,35.0543 z"/>
            </defs>
            <use xlink:href="#61" style="fill:#efc442;fill-opacity:1;fill-rule:evenodd;opacity:1;stroke:none;"/>
          </g>
        </defs>
        <use xlink:href="#60"/>
        <defs>
          <title>Path Copy Copy Copy Copy Copy</title>
          <g id="62">
            <defs>
              <path id="63" d="M49.4206,51.1183 C49.7804,51.062,50.1227,51.341,50.1852,51.7417 C50.2476,52.1423,50.0066,52.5128,49.6468,52.5691 C49.287,52.6255,48.9447,52.3464,48.8823,51.9458 C48.8198,51.5451,49.0609,51.1747,49.4206,51.1183 z"/>
            </defs>
            <use xlink:href="#63" style="fill:#efc442;fill-opacity:1;fill-rule:evenodd;opacity:1;stroke:none;"/>
          </g>
        </defs>
        <use xlink:href="#62"/>
        <defs>
          <title>Path Copy Copy Copy Copy Copy Copy</title>
          <g id="64">
            <defs>
              <path id="65" d="M49.9158,46.4865 C50.2756,46.4301,50.6179,46.7092,50.6803,47.1098 C50.7428,47.5104,50.5017,47.8809,50.1419,47.9372 C49.7822,47.9936,49.4399,47.7145,49.3774,47.3139 C49.315,46.9133,49.556,46.5428,49.9158,46.4865 z"/>
            </defs>
            <use xlink:href="#65" style="fill:#efc442;fill-opacity:1;fill-rule:evenodd;opacity:1;stroke:none;"/>
          </g>
        </defs>
        <use xlink:href="#64"/>
        <defs>
          <title>Path Copy Copy Copy Copy Copy Copy Copy</title>
          <g id="66">
            <defs>
              <path id="67" d="M55.3421,52.0089 C55.7019,51.9525,56.0442,52.2316,56.1066,52.6322 C56.1691,53.0329,55.9281,53.4033,55.5683,53.4597 C55.2085,53.516,54.8662,53.2369,54.8038,52.8363 C54.7413,52.4357,54.9823,52.0652,55.3421,52.0089 z"/>
            </defs>
            <use xlink:href="#67" style="fill:#efc442;fill-opacity:1;fill-rule:evenodd;opacity:1;stroke:none;"/>
          </g>
        </defs>
        <use xlink:href="#66"/>
        <defs>
          <title>Path Copy Copy Copy Copy Copy Copy Copy Copy</title>
          <g id="68">
            <defs>
              <path id="69" d="M53.6592,48.5976 C54.0189,48.5413,54.3612,48.8203,54.4237,49.221 C54.4861,49.6216,54.2451,49.992,53.8853,50.0484 C53.5255,50.1048,53.1832,49.8257,53.1208,49.425 C53.0583,49.0244,53.2994,48.654,53.6592,48.5976 z"/>
            </defs>
            <use xlink:href="#69" style="fill:#efc442;fill-opacity:1;fill-rule:evenodd;opacity:1;stroke:none;"/>
          </g>
        </defs>
        <use xlink:href="#68"/>
        <defs>
          <title>Path Copy Copy Copy Copy Copy Copy Copy Copy Copy</title>
          <g id="70">
            <defs>
              <path id="71" d="M58.3367,48.2919 C58.6964,48.2356,59.0387,48.5146,59.1012,48.9153 C59.1636,49.3159,58.9226,49.6863,58.5628,49.7427 C58.203,49.7991,57.8608,49.52,57.7983,49.1193 C57.7358,48.7187,57.9769,48.3483,58.3367,48.2919 z"/>
            </defs>
            <use xlink:href="#71" style="fill:#efc442;fill-opacity:1;fill-rule:evenodd;opacity:1;stroke:none;"/>
          </g>
        </defs>
        <use xlink:href="#70"/>
        <defs>
          <title>Path Copy Copy Copy Copy Copy Copy Copy Copy Copy Copy</title>
          <g id="72">
            <defs>
              <path id="73" d="M56.7972,45.2623 C57.157,45.2059,57.4993,45.485,57.5617,45.8856 C57.6242,46.2863,57.3831,46.6567,57.0234,46.7131 C56.6636,46.7694,56.3213,46.4903,56.2588,46.0897 C56.1964,45.6891,56.4374,45.3187,56.7972,45.2623 z"/>
            </defs>
            <use xlink:href="#73" style="fill:#efc442;fill-opacity:1;fill-rule:evenodd;opacity:1;stroke:none;"/>
          </g>
        </defs>
        <use xlink:href="#72"/>
        <defs>
          <title>Path Copy Copy Copy Copy Copy Copy Copy Copy Copy Copy Copy</title>
          <g id="74">
            <defs>
              <path id="75" d="M60.0558,42.1608 C60.4156,42.1044,60.7579,42.3835,60.8204,42.7841 C60.8828,43.1848,60.6418,43.5552,60.282,43.6116 C59.9222,43.6679,59.5799,43.3888,59.5175,42.9882 C59.455,42.5876,59.6961,42.2171,60.0558,42.1608 z"/>
            </defs>
            <use xlink:href="#75" style="fill:#efc442;fill-opacity:1;fill-rule:evenodd;opacity:1;stroke:none;"/>
          </g>
        </defs>
        <use xlink:href="#74"/>
        <defs>
          <title>Path Copy Copy</title>
          <g id="76">
            <defs>
              <path id="77" d="M60.0929,36.5496 C60.4527,36.4932,60.7949,36.7723,60.8574,37.1729 C60.9198,37.5736,60.6788,37.944,60.319,38.0004 C59.9593,38.0567,59.617,37.7776,59.5545,37.377 C59.4921,36.9764,59.7331,36.6059,60.0929,36.5496 z"/>
            </defs>
            <use xlink:href="#77" style="fill:#efc442;fill-opacity:1;fill-rule:evenodd;opacity:1;stroke:none;"/>
          </g>
        </defs>
        <use xlink:href="#76"/>
        <defs>
          <title>Path Copy Copy Copy</title>
          <g id="78">
            <defs>
              <path id="79" d="M58.1723,27.7371 C58.5321,27.6808,58.8743,27.9598,58.9368,28.3605 C58.9992,28.7611,58.7582,29.1315,58.3984,29.1879 C58.0387,29.2443,57.6964,28.9652,57.6339,28.5645 C57.5715,28.1639,57.8125,27.7935,58.1723,27.7371 z"/>
            </defs>
            <use xlink:href="#79" style="fill:#efc442;fill-opacity:1;fill-rule:evenodd;opacity:1;stroke:none;"/>
          </g>
        </defs>
        <use xlink:href="#78"/>
        <defs>
          <title>Path Copy Copy Copy Copy</title>
          <g id="80">
            <defs>
              <path id="81" d="M58.0373,31.8796 C58.3971,31.8233,58.7394,32.1023,58.8018,32.503 C58.8643,32.9036,58.6232,33.274,58.2635,33.3304 C57.9037,33.3868,57.5614,33.1077,57.4989,32.707 C57.4365,32.3064,57.6775,31.936,58.0373,31.8796 z"/>
            </defs>
            <use xlink:href="#81" style="fill:#efc442;fill-opacity:1;fill-rule:evenodd;opacity:1;stroke:none;"/>
          </g>
        </defs>
        <use xlink:href="#80"/>
        <defs>
          <title>Path Copy Copy Copy Copy Copy</title>
          <g id="82">
            <defs>
              <path id="83" d="M54.7864,27.857 C55.1462,27.8006,55.4885,28.0797,55.5509,28.4803 C55.6134,28.8809,55.3724,29.2514,55.0126,29.3078 C54.6528,29.3641,54.3105,29.085,54.248,28.6844 C54.1856,28.2838,54.4266,27.9133,54.7864,27.857 z"/>
            </defs>
            <use xlink:href="#83" style="fill:#efc442;fill-opacity:1;fill-rule:evenodd;opacity:1;stroke:none;"/>
          </g>
        </defs>
        <use xlink:href="#82"/>
      </g>
    </g>
    <g id="84">
      <title>Face Copy</title>
      <defs>
        <title>Shape 67</title>
        <g id="85">
          <defs>
            <path id="86" d="M49.2784,40.3321 C49.2784,42.3477,48.1628,43.5298,46.3196,43.5298 C44.4763,43.5298,43.354,42.351,43.354,40.3354"/>
          </defs>
          <use xlink:href="#86" style="fill:none;opacity:1;stroke:#000000;stroke-linecap:butt;stroke-linejoin:miter;stroke-miterlimit:10;stroke-opacity:1;stroke-width:0.5;"/>
        </g>
      </defs>
      <use xlink:href="#85"/>
      <defs>
        <title>Shape 30</title>
        <g id="87">
          <defs>
            <path id="88" d="M36.9197,32.6573 C38.6945,32.6573,40.1307,34.0991,40.1307,35.8776 C40.1307,37.656,38.6945,39.0978,36.9197,39.0978 C35.1447,39.0978,33.7085,37.656,33.7085,35.8776 C33.7085,34.0991,35.1447,32.6573,36.9197,32.6573 z"/>
          </defs>
          <use xlink:href="#88" style="fill:#000000;fill-opacity:1;fill-rule:evenodd;opacity:1;stroke:none;"/>
          <use xlink:href="#88" style="fill:none;opacity:1;stroke:#000000;stroke-linecap:butt;stroke-linejoin:miter;stroke-miterlimit:10;stroke-opacity:1;stroke-width:1;"/>
        </g>
      </defs>
      <use xlink:href="#87"/>
      <defs>
        <title>Shape 35</title>
        <g id="89">
          <defs>
            <path id="90" d="M37.6856,32.9615 C37.229,33.4052,37.4941,33.386,37.4425,33.5447 C37.472,33.671,37.5014,33.826,37.553,34.0061 C37.6488,34.3693,37.8034,34.8322,37.9507,35.2966 C38.1054,35.7617,38.2821,36.2164,38.4147,36.5664 C38.4883,36.7406,38.5473,36.8853,38.6062,36.9997 C38.7461,37.0942,38.5178,37.2426,39.1585,37.3149 C39.6667,36.8971,39.431,36.7007,39.431,36.3013 C39.3721,35.9233,39.2469,35.4391,39.0702,34.9171 C38.9008,34.3959,38.7093,33.936,38.5252,33.5971 C38.2748,33.2834,38.3484,32.9807,37.6856,32.9615 z"/>
          </defs>
          <use xlink:href="#90" style="fill:#ffffff;fill-opacity:1;fill-rule:nonzero;opacity:1;stroke:none;"/>
        </g>
      </defs>
      <use xlink:href="#89"/>
      <defs>
        <title>Shape 28</title>
        <g id="91">
          <defs>
            <path id="92" d="M55.5527,32.5606 C57.3276,32.5606,58.7637,34.0024,58.7637,35.7809 C58.7637,37.5593,57.3276,39.0011,55.5527,39.0011 C53.7777,39.0011,52.3416,37.5593,52.3416,35.7809 C52.3416,34.0024,53.7777,32.5606,55.5527,32.5606 z"/>
          </defs>
          <use xlink:href="#92" style="fill:#000000;fill-opacity:1;fill-rule:evenodd;opacity:1;stroke:none;"/>
          <use xlink:href="#92" style="fill:none;opacity:1;stroke:#000000;stroke-linecap:butt;stroke-linejoin:miter;stroke-miterlimit:10;stroke-opacity:1;stroke-width:1;"/>
        </g>
      </defs>
      <use xlink:href="#91"/>
      <defs>
        <title>Shape 37</title>
        <g id="93">
          <defs>
            <path id="94" d="M56.7163,32.9615 C56.2597,33.4052,56.5249,33.386,56.4733,33.5447 C56.4954,33.671,56.5321,33.826,56.5838,34.0061 C56.6795,34.3693,56.8268,34.8322,56.9815,35.2966 C57.1361,35.7617,57.3129,36.2164,57.4455,36.5664 C57.5117,36.7406,57.578,36.8853,57.6369,36.9997 C57.7769,37.0942,57.5485,37.2426,58.182,37.3149 C58.6975,36.8971,58.4618,36.7007,58.4618,36.3013 C58.3955,35.9233,58.2777,35.4391,58.1009,34.9171 C57.9242,34.3959,57.7326,33.936,57.556,33.5971 C57.3055,33.2834,57.3791,32.9807,56.7163,32.9615 z"/>
          </defs>
          <use xlink:href="#94" style="fill:#ffffff;fill-opacity:1;fill-rule:nonzero;opacity:1;stroke:none;"/>
        </g>
      </defs>
      <use xlink:href="#93"/>
    </g>
  </g>
</svg>
