<?xml version="1.0" encoding="utf-8"?>
<svg x="1401.18pt" y="558.254pt" width="94.3993pt" height="102.32pt" viewBox="1401.18 558.254 94.3993 102.32" xmlns="http://www.w3.org/2000/svg" xmlns:xlink="http://www.w3.org/1999/xlink">
  <defs>
    <title>Shape 149</title>
    <g id="1">
      <defs>
        <path id="2" d="M1445,590.879 C1445,590.879,1453.75,569.051,1453.75,569.051 C1453.75,569.051,1466.25,570.053,1466.25,570.053 C1466.25,570.053,1451.25,589.964,1451.25,589.964 C1451.25,589.964,1445.14,590.879,1445.14,590.879"/>
      </defs>
      <use xlink:href="#2" style="fill:#603812;fill-opacity:1;fill-rule:evenodd;opacity:1;stroke:none;"/>
    </g>
  </defs>
  <use xlink:href="#1"/>
  <defs>
    <title>Path</title>
    <g id="3">
      <defs>
        <path id="4" d="M1445.14,590.879 C1445.14,578.824,1448.99,569.051,1453.75,569.051"/>
      </defs>
      <use xlink:href="#4" style="fill:#603812;fill-opacity:1;fill-rule:evenodd;opacity:1;stroke:none;"/>
    </g>
  </defs>
  <use xlink:href="#3"/>
  <defs>
    <title>Compound Group</title>
    <g id="5">
      <defs>
        <path id="6" d="M1454.99,659.911 C1461.56,661.527,1464.52,659.727,1465.76,659.382 C1472.5,657.5,1489.26,642.971,1492.5,630 C1495,620,1495,620,1495.49,613.955 C1496.68,599.338,1485,585,1478.31,582.884 C1471.15,580.618,1464.93,582.925,1458.12,586.007 C1458.12,586.007,1450.58,590.418,1448.54,590.256 C1448.52,590.207,1448.5,590.186,1448.48,590.195 C1448.45,590.208,1448.41,590.22,1448.38,590.229 C1448.34,590.22,1448.31,590.208,1448.28,590.195 C1448.26,590.186,1448.23,590.206,1448.21,590.256 C1446.17,590.418,1438.63,586.007,1438.63,586.007 C1431.82,582.925,1425.61,580.618,1418.44,582.884 C1411.75,585,1400.07,599.339,1401.26,613.956 C1401.75,620,1401.75,620,1404.25,630 C1407.5,642.971,1424.25,657.5,1431,659.382 C1432.23,659.727,1435.19,661.527,1441.76,659.911 C1441.78,659.974,1441.79,660.004,1441.81,660 C1442.32,659.885,1442.84,659.692,1443.38,659.466 C1444.58,659.1,1445.88,658.628,1447.3,658.027 C1447.65,657.879,1448.01,657.807,1448.38,657.795 C1448.75,657.808,1449.11,657.879,1449.46,658.027 C1450.87,658.628,1452.18,659.1,1453.37,659.465 C1453.91,659.692,1454.44,659.885,1454.95,660 C1454.96,660.004,1454.98,659.974,1454.99,659.911 z"/>
      </defs>
      <use xlink:href="#6" style="fill:#ff4224;fill-opacity:1;fill-rule:evenodd;opacity:1;stroke:none;"/>
    </g>
  </defs>
  <use xlink:href="#5"/>
  <defs>
    <title>Path</title>
    <g id="7">
      <defs>
        <path id="8" d="M1468.75,617.5 C1472.2,617.5,1475,620.298,1475,623.75 C1475,627.202,1472.2,630,1468.75,630 C1465.3,630,1462.5,627.202,1462.5,623.75 C1462.5,620.298,1465.3,617.5,1468.75,617.5 z"/>
        <path id="9" d="M1468.75,617.974 C1471.93,618.021,1474.49,620.576,1474.49,623.75 C1474.49,626.92,1471.92,629.486,1468.75,629.495 C1465.59,629.493,1462.99,626.931,1463,623.75 C1463,620.562,1465.58,618.033,1468.75,617.974 z M1468.75,617.041 C1465.02,616.967,1462,620.035,1462,623.75 C1462.01,627.472,1465.01,630.507,1468.75,630.505 C1472.48,630.514,1475.51,627.484,1475.51,623.75 C1475.51,620.02,1472.48,616.979,1468.75,617.041 z"/>
      </defs>
      <use xlink:href="#8" style="fill:#000000;fill-opacity:1;fill-rule:evenodd;opacity:1;stroke:none;"/>
      <use xlink:href="#9" style="fill:#000000;fill-opacity:1;fill-rule:nonzero;opacity:1;stroke:none;"/>
    </g>
  </defs>
  <use xlink:href="#7"/>
  <defs>
    <title>Path Copy</title>
    <g id="10">
      <defs>
        <path id="11" d="M1432.5,617.688 C1435.95,617.688,1438.75,620.486,1438.75,623.938 C1438.75,627.39,1435.95,630.188,1432.5,630.188 C1429.05,630.188,1426.25,627.39,1426.25,623.938 C1426.25,620.486,1429.05,617.688,1432.5,617.688 z"/>
        <path id="12" d="M1432.5,618.162 C1435.68,618.209,1438.24,620.765,1438.24,623.938 C1438.24,627.108,1435.67,629.674,1432.5,629.683 C1429.34,629.681,1426.74,627.119,1426.75,623.938 C1426.75,620.75,1429.33,618.221,1432.5,618.162 z M1432.5,617.229 C1428.77,617.156,1425.75,620.223,1425.75,623.938 C1425.76,627.661,1428.76,630.696,1432.5,630.693 C1436.23,630.702,1439.26,627.672,1439.26,623.938 C1439.26,620.208,1436.23,617.168,1432.5,617.229 z"/>
      </defs>
      <use xlink:href="#11" style="fill:#000000;fill-opacity:1;fill-rule:evenodd;opacity:1;stroke:none;"/>
      <use xlink:href="#12" style="fill:#000000;fill-opacity:1;fill-rule:nonzero;opacity:1;stroke:none;"/>
    </g>
  </defs>
  <use xlink:href="#10"/>
  <defs>
    <title>Path</title>
    <g id="13">
      <defs>
        <path id="14" d="M1444.54,632.5 C1444.51,636.216,1447.3,639.299,1450.81,639.295 C1450.81,638.974,1450.81,638.653,1450.81,638.332 C1447.9,638.328,1445.49,635.758,1445.46,632.5 C1445.15,632.5,1444.85,632.5,1444.54,632.5 z"/>
      </defs>
      <use xlink:href="#14" style="fill:#000000;fill-opacity:1;fill-rule:nonzero;opacity:1;stroke:none;"/>
    </g>
  </defs>
  <use xlink:href="#13"/>
  <defs>
    <title>Path Copy</title>
    <g id="15">
      <defs>
        <path id="16" d="M1456.17,632.5 C1456.14,635.758,1453.72,638.328,1450.81,638.332 C1450.81,638.653,1450.81,638.974,1450.81,639.295 C1454.33,639.299,1457.12,636.216,1457.09,632.5 C1456.78,632.5,1456.48,632.5,1456.17,632.5 z"/>
      </defs>
      <use xlink:href="#16" style="fill:#000000;fill-opacity:1;fill-rule:nonzero;opacity:1;stroke:none;"/>
    </g>
  </defs>
  <use xlink:href="#15"/>
  <defs>
    <title>Path</title>
    <g id="17">
      <defs>
        <path id="18" d="M1434.23,618.95 C1434.55,618.839,1435.35,620.34,1436.02,622.302 C1436.68,624.264,1436.95,625.945,1436.63,626.055 C1436.3,626.166,1433.9,619.06,1434.23,618.95 z"/>
        <path id="19" d="M1434.38,619.421 C1433.76,619.298,1434.34,619.479,1434.56,620.084 C1434.86,620.655,1435.22,621.502,1435.55,622.461 C1435.87,623.42,1436.1,624.311,1436.21,624.952 C1436.4,625.563,1436.05,626.058,1436.47,625.586 C1437.26,625.707,1436.83,625.74,1436.85,625.556 C1436.77,625.398,1436.65,625.138,1436.52,624.82 C1436.26,624.187,1435.95,623.306,1435.65,622.428 C1435.34,621.549,1435.07,620.657,1434.89,619.994 C1434.81,619.661,1434.73,619.385,1434.71,619.208 C1434.58,619.075,1434.94,618.841,1434.38,619.421 z M1434.07,618.481 C1433.43,619.086,1433.79,619.098,1433.73,619.375 C1433.78,619.607,1433.84,619.904,1433.94,620.25 C1434.13,620.947,1434.42,621.845,1434.72,622.742 C1435.01,623.64,1435.35,624.523,1435.61,625.194 C1435.75,625.528,1435.87,625.806,1435.98,626.016 C1436.19,626.2,1435.91,626.43,1436.78,626.524 C1437.53,625.941,1437.21,625.541,1437.18,624.794 C1437.06,624.077,1436.83,623.146,1436.49,622.143 C1436.15,621.14,1435.78,620.256,1435.44,619.614 C1435,619.005,1435.02,618.491,1434.07,618.481 z"/>
      </defs>
      <use xlink:href="#18" style="fill:#ffffff;fill-opacity:1;fill-rule:evenodd;opacity:1;stroke:none;"/>
      <use xlink:href="#19" style="fill:#ffffff;fill-opacity:1;fill-rule:nonzero;opacity:1;stroke:none;"/>
    </g>
  </defs>
  <use xlink:href="#17"/>
  <defs>
    <title>Path Copy</title>
    <g id="20">
      <defs>
        <path id="21" d="M1471.25,618.95 C1471.57,618.839,1472.38,620.34,1473.04,622.302 C1473.7,624.264,1473.97,625.945,1473.65,626.055 C1473.32,626.166,1470.92,619.06,1471.25,618.95 z"/>
        <path id="22" d="M1471.41,619.421 C1470.78,619.298,1471.36,619.479,1471.58,620.084 C1471.88,620.655,1472.24,621.502,1472.57,622.461 C1472.89,623.42,1473.13,624.311,1473.23,624.952 C1473.42,625.563,1473.07,626.058,1473.49,625.586 C1474.28,625.707,1473.85,625.74,1473.87,625.556 C1473.79,625.398,1473.67,625.138,1473.55,624.82 C1473.28,624.187,1472.97,623.306,1472.67,622.428 C1472.36,621.549,1472.1,620.657,1471.91,619.994 C1471.83,619.661,1471.76,619.385,1471.73,619.208 C1471.6,619.075,1471.96,618.841,1471.41,619.421 z M1471.09,618.481 C1470.45,619.086,1470.81,619.098,1470.75,619.375 C1470.8,619.607,1470.86,619.904,1470.96,620.25 C1471.15,620.947,1471.44,621.845,1471.74,622.742 C1472.03,623.64,1472.37,624.523,1472.63,625.194 C1472.77,625.528,1472.89,625.806,1473,626.016 C1473.21,626.2,1472.93,626.43,1473.81,626.524 C1474.55,625.941,1474.23,625.541,1474.2,624.794 C1474.08,624.077,1473.85,623.146,1473.51,622.143 C1473.17,621.14,1472.8,620.256,1472.46,619.614 C1472.02,619.005,1472.04,618.491,1471.09,618.481 z"/>
      </defs>
      <use xlink:href="#21" style="fill:#ffffff;fill-opacity:1;fill-rule:evenodd;opacity:1;stroke:none;"/>
      <use xlink:href="#22" style="fill:#ffffff;fill-opacity:1;fill-rule:nonzero;opacity:1;stroke:none;"/>
    </g>
  </defs>
  <use xlink:href="#20"/>
  <defs>
    <title>Path</title>
    <g id="23">
      <defs>
        <path id="24" d="M1452.5,588.412 C1452.5,588.412,1466.24,569.051,1466.24,569.051"/>
      </defs>
      <use xlink:href="#24" style="fill:#603812;fill-opacity:1;fill-rule:evenodd;opacity:1;stroke:none;"/>
    </g>
  </defs>
  <use xlink:href="#23"/>
  <defs>
    <title>Shape 150</title>
    <g id="25">
      <defs>
        <path id="26" d="M1420,558.75 C1420,573.938,1432.31,586.25,1447.5,586.25 C1447.5,571.062,1435.19,558.75,1420,558.75"/>
        <path id="27" d="M1419.5,558.75 C1419.5,574.217,1432.04,586.742,1447.5,586.745 C1447.67,586.745,1447.83,586.745,1448,586.745 C1448,586.58,1448,586.415,1448,586.25 C1447.98,570.791,1435.47,558.259,1420,558.255 C1419.36,558.225,1419.36,559.275,1420,559.245 C1434.91,559.241,1447.02,571.333,1447,586.25 C1447.17,586.085,1447.33,585.92,1447.5,585.755 C1432.58,585.758,1420.5,573.659,1420.5,558.75 C1420.53,558.106,1419.47,558.106,1419.5,558.75 z"/>
      </defs>
      <use xlink:href="#26" style="fill:#006736;fill-opacity:1;fill-rule:evenodd;opacity:1;stroke:none;"/>
      <use xlink:href="#27" style="fill:#006736;fill-opacity:1;fill-rule:nonzero;opacity:1;stroke:none;"/>
    </g>
  </defs>
  <use xlink:href="#25"/>
  <defs>
    <title>Path</title>
    <g id="28">
      <defs>
        <path id="29" d="M1465.92,569.504 C1465.92,569.504,1455,567.5,1455,567.5"/>
      </defs>
      <use xlink:href="#29" style="fill:#603812;fill-opacity:1;fill-rule:evenodd;opacity:1;stroke:none;"/>
    </g>
  </defs>
  <use xlink:href="#28"/>
</svg>
