<?xml version="1.0" encoding="utf-8"?>
<svg x="29.75pt" y="14.985pt" width="45.499pt" height="45.015pt" viewBox="29.75 14.985 45.499 45.015" xmlns="http://www.w3.org/2000/svg" xmlns:xlink="http://www.w3.org/1999/xlink">
  <g id="1">
    <title>Group</title>
    <g id="2">
      <title>Group</title>
      <defs>
        <title>Path</title>
        <g id="3">
          <defs>
            <path id="4" d="M65.7877,17.3713 C77.2609,19.0983,74.7722,32.7557,74.7722,44.4344 C74.7722,56.1131,66.7987,59.4393,57.9095,59.4393 C49.0204,59.4393,26.7757,31.2387,34.0939,23.5527 C46.0844,10.9597,56.9675,16.0436,65.7877,17.3713 z"/>
            <path id="5" d="M65.7505,17.6185 C76.9103,19.2172,74.5548,32.6839,74.5222,44.4344 C74.4904,55.9599,66.765,59.1551,57.9095,59.1893 C49.28,59.3438,27.0327,30.9499,34.275,23.7251 C46.1808,11.2483,56.849,16.2769,65.7505,17.6185 z M65.8249,17.1241 C57.0861,15.8103,45.9879,10.6711,33.9129,23.3803 C26.5187,31.5276,48.7609,59.5348,57.9095,59.6893 C66.8323,59.7235,75.0539,56.2663,75.0222,44.4344 C74.9895,32.8275,77.6116,18.9794,65.8249,17.1241 z"/>
          </defs>
          <use xlink:href="#4" style="fill:#fca000;fill-opacity:1;fill-rule:evenodd;opacity:1;stroke:none;"/>
          <use xlink:href="#5" style="fill:#fca000;fill-opacity:1;fill-rule:nonzero;opacity:1;stroke:none;"/>
        </g>
      </defs>
      <use xlink:href="#3"/>
      <defs>
        <title>Shape 58</title>
        <g id="6">
          <defs>
            <path id="7" d="M63.7174,54.5307 C63.7174,59.3086,56.0187,60.7069,54.575,57.5974 C55.1737,53.5325,38.401,53.8884,37.8023,57.9534 C33.0506,60.1517,31.0122,56.9209,30.5833,49.7952 C30.5833,49.7952,30,31.8594,30,31.8594 C30,27.0815,33.294,23.2083,37.3573,23.2083 C37.3998,22.9931,55.6294,23.3511,58.1356,24.2216 C63.3621,26.0369,63.5451,27.254,63.8617,34.4447 C64.0383,38.4567,63.7174,54.5307,63.7174,54.5307 z"/>
          </defs>
          <use xlink:href="#7" style="fill:#ff9903;fill-opacity:1;fill-rule:evenodd;opacity:1;stroke:none;"/>
          <use xlink:href="#7" style="fill:none;opacity:1;stroke:#e27d03;stroke-linecap:butt;stroke-linejoin:miter;stroke-miterlimit:10;stroke-opacity:1;stroke-width:0.5;"/>
        </g>
      </defs>
      <use xlink:href="#6"/>
      <defs>
        <title>Path</title>
        <g id="8">
          <defs>
            <path id="9" d="M45.8924,32.499 C54.6833,33.0871,55.2253,37.4506,55.1397,43.2738 C55.05,49.3747,56.7372,54.7386,45.8924,54.0485 C37.9232,53.5414,36.9981,51.6732,36.645,43.2738 C36.3952,37.3303,39.0864,32.0437,45.8924,32.499 z"/>
          </defs>
          <use xlink:href="#9" style="fill:#92cc05;fill-opacity:1;fill-rule:evenodd;opacity:1;stroke:none;"/>
          <use xlink:href="#9" style="fill:none;opacity:1;stroke:#92cc05;stroke-linecap:butt;stroke-linejoin:miter;stroke-miterlimit:10;stroke-opacity:1;stroke-width:0.5;"/>
        </g>
      </defs>
      <use xlink:href="#8"/>
      <defs>
        <title>Shape 62</title>
        <g id="10">
          <defs>
            <path id="11" d="M34.0985,33.556 C33.5186,32.9788,33.1513,32.2064,33.1513,31.233 C33.1513,29.3282,34.5214,27.784,36.2115,27.784 C36.7398,27.784,37.1331,27.9804,37.4566,28.2944 C37.988,27.2739,38.9719,26.5887,40.0977,26.5887 C40.9482,26.5887,41.7176,26.9797,42.2722,27.6108 C42.8056,26.8998,43.5835,26.4517,44.4498,26.4517 C45.4695,26.4517,46.3668,27.0725,46.887,28.0124 C47.4003,27.1426,48.2375,26.5762,49.1831,26.5762 C50.0979,26.5762,50.9112,27.1063,51.428,27.9283 C51.9428,27.2716,52.6681,26.8626,53.4717,26.8626 C54.7591,26.8626,55.8455,27.9123,56.1872,29.3485 C56.3616,29.2903,56.5515,29.259,56.7598,29.259 C58.3213,29.259,59.5871,30.8032,59.5871,32.708 C59.5871,33.5882,59.3013,34.2736,58.847,34.8107 C59.7087,35.3815,60.2909,36.4691,60.2909,37.7169 C60.2909,39.0338,59.5902,39.8382,58.6567,40.4282 C60.0922,40.5874,61.2154,42.0117,61.2154,43.7449 C61.2154,44.6905,60.7447,45.6229,60.0753,46.3101 C60.6097,46.9162,60.9422,47.7677,60.9422,48.7107 C60.9422,50.2265,60.0831,51.5059,58.9073,51.9096 C58.9073,51.9096,58.9073,51.9096,58.9073,51.9096 C59.0739,52.3343,59.1668,52.8073,59.1668,53.3059 C59.1668,55.1458,57.901,56.6374,56.3396,56.6374 C56.1824,56.6374,56.0282,56.6223,55.878,56.5932 C55.826,58.485,54.4936,60,52.8576,60 C51.7698,60,50.8163,59.3303,50.2841,58.3255 C49.7337,58.9978,48.9574,59.4166,48.0972,59.4166 C47.172,59.4166,46.3439,58.9322,45.7896,58.169 C45.2592,59.1836,44.3009,59.8611,43.2069,59.8611 C42.4196,59.8611,41.7027,59.5103,41.1649,58.9356 C40.7925,59.1372,40.3763,59.25,39.9371,59.25 C38.8268,59.25,37.8633,58.5294,37.3833,57.474 C37.2523,57.4949,37.1184,57.5057,36.9823,57.5057 C35.3928,57.5057,34.1043,56.0289,34.1043,54.2072 C34.1043,53.4899,34.304,52.8261,34.6433,52.2849 C33.719,51.736,33.0874,50.6297,33.0874,49.3542 C33.0874,48.7312,33.2382,48.1484,33.5001,47.6514 C32.665,47.074,32.1065,46.0242,32.1065,44.8248 C32.1065,44.0576,32.3351,43.3515,32.7184,42.7912 C32.7184,42.7912,32.7184,42.7912,32.7184,42.7912 C32.2422,42.2027,31.951,41.4146,31.951,40.5486 C31.951,39.3151,32.5417,38.2398,33.4166,37.6739 C33.1915,37.2037,33.0635,36.6638,33.0635,36.0896 C33.0635,35.0714,33.466,34.1611,34.0985,33.556 z M45.8924,32.499 C54.6833,33.0871,55.2253,37.4506,55.1397,43.2738 C55.05,49.3747,56.7372,54.7386,45.8924,54.0485 C37.9232,53.5414,36.9981,51.6732,36.645,43.2738 C36.3952,37.3303,39.0864,32.0437,45.8924,32.499 z"/>
          </defs>
          <use xlink:href="#11" style="fill:#fdfdf5;fill-opacity:1;fill-rule:evenodd;opacity:1;stroke:none;"/>
        </g>
      </defs>
      <use xlink:href="#10"/>
      <defs>
        <title>Path</title>
        <g id="12">
          <defs>
            <path id="13" d="M36.9748,20.4071 C37.6435,21.5713,38.7074,21.9283,39.1425,22.1397 C39.5935,22.4763,39.4141,22.0645,39.5408,22.8431 C40.2075,22.843,40.8742,22.843,41.5408,22.843 C41.6675,21.5401,40.6469,20.518,40.0009,20.3333 C39.339,20.0235,39.05,19.9481,38.6949,19.3867 C38.1215,19.7268,37.5482,20.0669,36.9748,20.4071 z"/>
          </defs>
          <use xlink:href="#13" style="fill:#f5cd84;fill-opacity:1;fill-rule:nonzero;opacity:1;stroke:none;"/>
        </g>
      </defs>
      <use xlink:href="#12"/>
      <defs>
        <title>Path</title>
        <g id="14">
          <defs>
            <path id="15" d="M43.5782,16.5895 C44.1564,18.4438,46.579,19.7631,47.1282,20.9134 C47.3708,21.4216,47.9282,21.5661,47.9101,23.055"/>
          </defs>
          <use xlink:href="#15" style="fill:none;opacity:1;stroke:#f5cd84;stroke-linecap:butt;stroke-linejoin:miter;stroke-miterlimit:10;stroke-opacity:1;stroke-width:2;"/>
        </g>
      </defs>
      <use xlink:href="#14"/>
      <defs>
        <title>Path</title>
        <g id="16">
          <defs>
            <path id="17" d="M51.6213,15 C51.6147,19.884,55.0182,19.2852,55.9873,21.1415 C56.2742,21.691,57.2853,22.3793,57.1226,23.8306"/>
          </defs>
          <use xlink:href="#17" style="fill:none;opacity:1;stroke:#f5cd84;stroke-linecap:butt;stroke-linejoin:miter;stroke-miterlimit:10;stroke-opacity:1;stroke-width:2;"/>
        </g>
      </defs>
      <use xlink:href="#16"/>
      <defs>
        <title>Path</title>
        <g id="18">
          <defs>
            <path id="19" d="M61.415,16.2566 C61.0768,18.9039,64.0694,21.7071,64.8076,23.988 C67.2364,31.492,67.5644,39.4879,67.5627,47.4301 C67.5622,49.5247,67.145,55.7753,67.8612,57.6787"/>
          </defs>
          <use xlink:href="#19" style="fill:none;opacity:1;stroke:#f5cd84;stroke-linecap:butt;stroke-linejoin:miter;stroke-miterlimit:10;stroke-opacity:1;stroke-width:2;"/>
        </g>
      </defs>
      <use xlink:href="#18"/>
      <defs>
        <title>Path</title>
        <g id="20">
          <defs>
            <path id="21" d="M70.8916,19.332 C69.7872,21.139,71.339,51.445,73.077,52.7568"/>
          </defs>
          <use xlink:href="#21" style="fill:none;opacity:1;stroke:#f5cd84;stroke-linecap:butt;stroke-linejoin:miter;stroke-miterlimit:10;stroke-opacity:1;stroke-width:2;"/>
        </g>
      </defs>
      <use xlink:href="#20"/>
    </g>
    <g id="22">
      <title>Group Copy Copy</title>
      <g id="23">
        <title>Group</title>
        <g id="24">
          <title>Group</title>
          <g id="25">
            <title>Group</title>
            <defs>
              <title>Shape 28</title>
              <g id="26">
                <defs>
                  <path id="27" d="M54.212,37.8356 C55.967,37.8356,57.387,39.2578,57.387,41.0121 C57.387,42.7663,55.967,44.1885,54.212,44.1885 C52.4569,44.1885,51.037,42.7663,51.037,41.0121 C51.037,39.2578,52.4569,37.8356,54.212,37.8356 z"/>
                </defs>
                <use xlink:href="#27" style="fill:#000000;fill-opacity:1;fill-rule:evenodd;opacity:1;stroke:none;"/>
              </g>
            </defs>
            <use xlink:href="#26"/>
          </g>
          <g id="28">
            <title>Group</title>
            <defs>
              <title>Shape 29</title>
              <g id="29">
                <defs>
                  <path id="30" d="M54.212,38.1808 C55.7631,38.2142,57.0156,39.4602,57.0156,41.0121 C57.0156,42.561,55.7631,43.8142,54.212,43.8208 C52.6682,43.8193,51.3866,42.569,51.4011,41.0121 C51.3938,39.4493,52.6609,38.223,54.212,38.1808 z M54.212,37.5013 C52.2531,37.4474,50.6728,39.0655,50.6656,41.0121 C50.6801,42.9637,52.2458,44.5577,54.212,44.5563 C56.1709,44.5628,57.7584,42.9717,57.7584,41.0121 C57.7584,39.0553,56.1636,37.4562,54.212,37.5013 z"/>
                </defs>
                <use xlink:href="#30" style="fill:#000000;fill-opacity:1;fill-rule:nonzero;opacity:1;stroke:none;"/>
              </g>
            </defs>
            <use xlink:href="#29"/>
          </g>
        </g>
      </g>
      <g id="31">
        <title>Group</title>
        <g id="32">
          <title>Group</title>
          <g id="33">
            <title>Group</title>
            <defs>
              <title>Shape 30</title>
              <g id="34">
                <defs>
                  <path id="35" d="M35.7881,37.931 C37.5431,37.931,38.9631,39.3532,38.9631,41.1075 C38.9631,42.8617,37.5431,44.2839,35.7881,44.2839 C34.0331,44.2839,32.613,42.8617,32.613,41.1075 C32.613,39.3532,34.0331,37.931,35.7881,37.931 z"/>
                </defs>
                <use xlink:href="#35" style="fill:#000000;fill-opacity:1;fill-rule:evenodd;opacity:1;stroke:none;"/>
              </g>
            </defs>
            <use xlink:href="#34"/>
          </g>
          <g id="36">
            <title>Group</title>
            <defs>
              <title>Shape 31</title>
              <g id="37">
                <defs>
                  <path id="38" d="M35.7881,38.2761 C37.3391,38.3104,38.5917,39.5556,38.5917,41.1075 C38.5917,42.6564,37.3391,43.9096,35.7881,43.9162 C34.2442,43.9147,32.9626,42.6651,32.9771,41.1075 C32.9698,39.5454,34.237,38.3191,35.7881,38.2761 z M35.7881,37.5967 C33.8292,37.5436,32.2489,39.1617,32.2416,41.1075 C32.2562,43.0591,33.8219,44.6539,35.7881,44.6517 C37.747,44.6582,39.3345,43.0671,39.3345,41.1075 C39.3345,39.1507,37.7397,37.5523,35.7881,37.5967 z"/>
                </defs>
                <use xlink:href="#38" style="fill:#000000;fill-opacity:1;fill-rule:nonzero;opacity:1;stroke:none;"/>
              </g>
            </defs>
            <use xlink:href="#37"/>
          </g>
        </g>
      </g>
      <g id="39">
        <title>Group</title>
        <g id="40">
          <title>Group</title>
          <g id="41">
            <title>Group</title>
            <defs>
              <title>Shape 32</title>
              <g id="42">
                <defs>
                  <path id="43" d="M41.8031,45.4593 C41.7813,47.3985,43.2451,49.021,45.0947,49.0188 C45.0947,48.7851,45.0947,48.5513,45.0947,48.3168 C43.682,48.3146,42.495,47.0643,42.4731,45.4593 C42.2546,45.4593,42.0289,45.4593,41.8031,45.4593 z"/>
                </defs>
                <use xlink:href="#43" style="fill:#000000;fill-opacity:1;fill-rule:nonzero;opacity:1;stroke:none;"/>
              </g>
            </defs>
            <use xlink:href="#42"/>
          </g>
        </g>
      </g>
      <g id="44">
        <title>Group</title>
        <g id="45">
          <title>Group</title>
          <g id="46">
            <title>Group</title>
            <defs>
              <title>Shape 33</title>
              <g id="47">
                <defs>
                  <path id="48" d="M47.7162,45.4593 C47.6945,47.0643,46.5075,48.3146,45.0947,48.3168 C45.0947,48.5513,45.0947,48.7851,45.0947,49.0188 C46.9444,49.021,48.4081,47.3985,48.3862,45.4593 C48.1605,45.4593,47.942,45.4593,47.7162,45.4593 z"/>
                </defs>
                <use xlink:href="#48" style="fill:#000000;fill-opacity:1;fill-rule:nonzero;opacity:1;stroke:none;"/>
              </g>
            </defs>
            <use xlink:href="#47"/>
          </g>
        </g>
      </g>
      <g id="49">
        <title>Group</title>
        <g id="50">
          <title>Group</title>
          <g id="51">
            <title>Group</title>
            <defs>
              <title>Shape 34</title>
              <g id="52">
                <defs>
                  <path id="53" d="M36.6619,38.5725 C36.8294,38.5157,37.2373,39.2789,37.5722,40.2758 C37.9145,41.2735,38.0529,42.1277,37.8853,42.1838 C37.7178,42.2398,36.4945,38.6286,36.6619,38.5725 z"/>
                </defs>
                <use xlink:href="#53" style="fill:#ffffff;fill-opacity:1;fill-rule:evenodd;opacity:1;stroke:none;"/>
              </g>
            </defs>
            <use xlink:href="#52"/>
          </g>
          <g id="54">
            <title>Group</title>
            <defs>
              <title>Shape 35</title>
              <g id="55">
                <defs>
                  <path id="56" d="M36.7785,38.9155 C36.2906,38.8383,36.6547,38.8937,36.7348,39.2003 C36.8876,39.4828,37.0697,39.9095,37.23,40.3923 C37.3975,40.8744,37.514,41.323,37.5649,41.6405 C37.6815,41.9362,37.4266,42.1983,37.7689,41.8415 C38.3587,41.9274,38.0602,41.9726,38.0965,41.8794 C38.0602,41.8051,38.0018,41.6747,37.9363,41.5145 C37.7979,41.197,37.645,40.7499,37.4848,40.3057 C37.3319,39.8607,37.2008,39.4078,37.1061,39.0743 C37.0697,38.9068,37.0261,38.7691,37.0188,38.6854 C36.9314,38.6337,37.1935,38.4902,36.7785,38.9155 z M36.5454,38.231 C36.094,38.6687,36.3561,38.6497,36.3051,38.8063 C36.3343,38.9308,36.3634,39.0837,36.4144,39.2614 C36.509,39.6197,36.6619,40.0763,36.8076,40.5343 C36.9605,40.9931,37.1353,41.4417,37.2663,41.7869 C37.3391,41.9587,37.3975,42.1015,37.4557,42.2143 C37.5941,42.3076,37.3683,42.4539,38.0018,42.5253 C38.5044,42.1131,38.2713,41.9194,38.2713,41.5254 C38.2131,41.1526,38.0892,40.6749,37.9145,40.16 C37.747,39.6459,37.5576,39.1922,37.3756,38.858 C37.128,38.5485,37.2008,38.2499,36.5454,38.231 z"/>
                </defs>
                <use xlink:href="#56" style="fill:#ffffff;fill-opacity:1;fill-rule:nonzero;opacity:1;stroke:none;"/>
              </g>
            </defs>
            <use xlink:href="#55"/>
          </g>
        </g>
      </g>
      <g id="57">
        <title>Group</title>
        <g id="58">
          <title>Group</title>
          <g id="59">
            <title>Group</title>
            <defs>
              <title>Shape 36</title>
              <g id="60">
                <defs>
                  <path id="61" d="M55.4791,38.5725 C55.6465,38.5157,56.0544,39.2789,56.3893,40.2758 C56.7244,41.2735,56.8627,42.1277,56.7025,42.1838 C56.535,42.2398,55.3116,38.6286,55.4791,38.5725 z"/>
                </defs>
                <use xlink:href="#61" style="fill:#ffffff;fill-opacity:1;fill-rule:evenodd;opacity:1;stroke:none;"/>
              </g>
            </defs>
            <use xlink:href="#60"/>
          </g>
          <g id="62">
            <title>Group</title>
            <defs>
              <title>Shape 37</title>
              <g id="63">
                <defs>
                  <path id="64" d="M55.5956,38.9155 C55.1077,38.8383,55.4646,38.8937,55.5519,39.2003 C55.7049,39.4828,55.8869,39.9095,56.0471,40.3923 C56.2146,40.8744,56.3311,41.323,56.382,41.6405 C56.4913,41.9362,56.2437,42.1983,56.586,41.8415 C57.1686,41.9274,56.8773,41.9726,56.9136,41.8794 C56.87,41.8051,56.8118,41.6747,56.7462,41.5145 C56.6078,41.197,56.4621,40.7499,56.302,40.3057 C56.1491,39.8607,56.0179,39.4078,55.9233,39.0743 C55.8796,38.9068,55.8432,38.7691,55.8359,38.6854 C55.7485,38.6337,56.0106,38.4902,55.5956,38.9155 z M55.3625,38.231 C54.911,38.6687,55.1733,38.6497,55.1222,38.8063 C55.1441,38.9308,55.1805,39.0837,55.2315,39.2614 C55.3262,39.6197,55.4718,40.0763,55.6248,40.5343 C55.7777,40.9931,55.9524,41.4417,56.0835,41.7869 C56.1491,41.9587,56.2146,42.1015,56.2728,42.2143 C56.4112,42.3076,56.1854,42.4539,56.8118,42.5253 C57.3215,42.1131,57.0885,41.9194,57.0885,41.5254 C57.0229,41.1526,56.9064,40.6749,56.7316,40.16 C56.5569,39.6459,56.3675,39.1922,56.1928,38.858 C55.9451,38.5485,56.0179,38.2499,55.3625,38.231 z"/>
                </defs>
                <use xlink:href="#64" style="fill:#ffffff;fill-opacity:1;fill-rule:nonzero;opacity:1;stroke:none;"/>
              </g>
            </defs>
            <use xlink:href="#63"/>
          </g>
        </g>
      </g>
    </g>
  </g>
</svg>
