<?xml version="1.0" encoding="utf-8"?>
<svg x="82.25pt" y="14.75pt" width="45.5pt" height="45.502pt" viewBox="82.25 14.75 45.5 45.502" xmlns="http://www.w3.org/2000/svg" xmlns:xlink="http://www.w3.org/1999/xlink">
  <defs>
    <title>Shape 89</title>
    <g id="1">
      <defs>
        <path id="2" d="M98.107,39.4276 C98.107,39.4276,103.09,40.2214,103.09,40.2214 C103.09,40.2214,103.188,40.1655,103.188,40.1655 C103.123,40.5483,103.089,40.9552,103.089,41.3771 C103.089,43.6273,103.607,45.4618,105.291,45.4514 C107.23,45.4394,107.492,43.6273,107.492,41.3771 C107.492,40.8497,107.438,40.3457,107.339,39.8831 C107.339,39.8831,107.667,39.9583,107.667,39.9583 C107.667,39.9583,112.216,39.742,112.216,39.742 C112.216,39.742,112.519,39.6441,112.519,39.6441 C111.139,42.3916,117.243,51.6109,114.764,57.3908 C113.798,59.6428,103.212,61.624,96.1971,58.0014 C91.4469,55.5483,99.2604,42.4526,97.8808,39.2574 C97.8808,39.2574,98.107,39.4276,98.107,39.4276 z"/>
      </defs>
      <use xlink:href="#2" style="fill:#8cc631;fill-opacity:1;fill-rule:evenodd;opacity:1;stroke:none;"/>
      <use xlink:href="#2" style="fill:none;opacity:1;stroke:#262f07;stroke-linecap:butt;stroke-linejoin:miter;stroke-miterlimit:10;stroke-opacity:1;stroke-width:0.5;"/>
    </g>
  </defs>
  <use xlink:href="#1"/>
  <g id="3">
    <title>Group Copy</title>
    <g id="4">
      <title>Group</title>
      <g id="5">
        <title>Group</title>
        <g id="6">
          <title>Group</title>
          <defs>
            <title>Shape 28</title>
            <g id="7">
              <defs>
                <path id="8" d="M114.212,47.0762 C115.967,47.0762,117.387,48.4984,117.387,50.2526 C117.387,52.0069,115.967,53.4291,114.212,53.4291 C112.457,53.4291,111.037,52.0069,111.037,50.2526 C111.037,48.4984,112.457,47.0762,114.212,47.0762 z"/>
              </defs>
              <use xlink:href="#8" style="fill:#000000;fill-opacity:1;fill-rule:evenodd;opacity:1;stroke:none;"/>
            </g>
          </defs>
          <use xlink:href="#7"/>
        </g>
        <g id="9">
          <title>Group</title>
          <defs>
            <title>Shape 29</title>
            <g id="10">
              <defs>
                <path id="11" d="M114.212,47.4213 C115.763,47.4548,117.016,48.7008,117.016,50.2526 C117.016,51.8016,115.763,53.0548,114.212,53.0614 C112.668,53.0599,111.387,51.8096,111.401,50.2526 C111.394,48.6899,112.661,47.4636,114.212,47.4213 z M114.212,46.7419 C112.253,46.688,110.673,48.3061,110.666,50.2526 C110.68,52.2043,112.246,53.7983,114.212,53.7969 C116.171,53.8034,117.758,52.2123,117.758,50.2526 C117.758,48.2959,116.164,46.6968,114.212,46.7419 z"/>
              </defs>
              <use xlink:href="#11" style="fill:#000000;fill-opacity:1;fill-rule:nonzero;opacity:1;stroke:none;"/>
            </g>
          </defs>
          <use xlink:href="#10"/>
        </g>
      </g>
    </g>
    <g id="12">
      <title>Group</title>
      <g id="13">
        <title>Group</title>
        <g id="14">
          <title>Group</title>
          <defs>
            <title>Shape 30</title>
            <g id="15">
              <defs>
                <path id="16" d="M95.7881,47.1716 C97.5431,47.1716,98.9632,48.5938,98.9632,50.348 C98.9632,52.1023,97.5431,53.5245,95.7881,53.5245 C94.0331,53.5245,92.613,52.1023,92.613,50.348 C92.613,48.5938,94.0331,47.1716,95.7881,47.1716 z"/>
              </defs>
              <use xlink:href="#16" style="fill:#000000;fill-opacity:1;fill-rule:evenodd;opacity:1;stroke:none;"/>
            </g>
          </defs>
          <use xlink:href="#15"/>
        </g>
        <g id="17">
          <title>Group</title>
          <defs>
            <title>Shape 31</title>
            <g id="18">
              <defs>
                <path id="19" d="M95.7881,47.5167 C97.3391,47.5509,98.5918,48.7962,98.5918,50.348 C98.5918,51.897,97.3391,53.1502,95.7881,53.1568 C94.2442,53.1553,92.9626,51.9057,92.9771,50.348 C92.9698,48.786,94.237,47.5597,95.7881,47.5167 z M95.7881,46.8373 C93.8292,46.7841,92.2489,48.4022,92.2416,50.348 C92.2562,52.2997,93.8219,53.8945,95.7881,53.8923 C97.747,53.8988,99.3345,52.3077,99.3345,50.348 C99.3345,48.3913,97.7397,46.7929,95.7881,46.8373 z"/>
              </defs>
              <use xlink:href="#19" style="fill:#000000;fill-opacity:1;fill-rule:nonzero;opacity:1;stroke:none;"/>
            </g>
          </defs>
          <use xlink:href="#18"/>
        </g>
      </g>
    </g>
    <g id="20">
      <title>Group</title>
      <g id="21">
        <title>Group</title>
        <g id="22">
          <title>Group</title>
          <defs>
            <title>Shape 32</title>
            <g id="23">
              <defs>
                <path id="24" d="M101.803,54.6999 C101.781,56.6391,103.245,58.2616,105.095,58.2594 C105.095,58.0256,105.095,57.7919,105.095,57.5574 C103.682,57.5552,102.495,56.3049,102.473,54.6999 C102.255,54.6999,102.029,54.6999,101.803,54.6999 z"/>
              </defs>
              <use xlink:href="#24" style="fill:#000000;fill-opacity:1;fill-rule:nonzero;opacity:1;stroke:none;"/>
            </g>
          </defs>
          <use xlink:href="#23"/>
        </g>
      </g>
    </g>
    <g id="25">
      <title>Group</title>
      <g id="26">
        <title>Group</title>
        <g id="27">
          <title>Group</title>
          <defs>
            <title>Shape 33</title>
            <g id="28">
              <defs>
                <path id="29" d="M107.716,54.6999 C107.694,56.3049,106.507,57.5552,105.095,57.5574 C105.095,57.7919,105.095,58.0256,105.095,58.2594 C106.944,58.2616,108.408,56.6391,108.386,54.6999 C108.161,54.6999,107.942,54.6999,107.716,54.6999 z"/>
              </defs>
              <use xlink:href="#29" style="fill:#000000;fill-opacity:1;fill-rule:nonzero;opacity:1;stroke:none;"/>
            </g>
          </defs>
          <use xlink:href="#28"/>
        </g>
      </g>
    </g>
    <g id="30">
      <title>Group</title>
      <g id="31">
        <title>Group</title>
        <g id="32">
          <title>Group</title>
          <defs>
            <title>Shape 34</title>
            <g id="33">
              <defs>
                <path id="34" d="M96.662,47.8131 C96.8294,47.7563,97.2373,48.5195,97.5722,49.5164 C97.9146,50.5141,98.0529,51.3683,97.8853,51.4243 C97.7178,51.4804,96.4945,47.8692,96.662,47.8131 z"/>
              </defs>
              <use xlink:href="#34" style="fill:#ffffff;fill-opacity:1;fill-rule:evenodd;opacity:1;stroke:none;"/>
            </g>
          </defs>
          <use xlink:href="#33"/>
        </g>
        <g id="35">
          <title>Group</title>
          <defs>
            <title>Shape 35</title>
            <g id="36">
              <defs>
                <path id="37" d="M96.7785,48.1561 C96.2906,48.0789,96.6547,48.1343,96.7348,48.4408 C96.8877,48.7234,97.0697,49.1501,97.23,49.6329 C97.3975,50.115,97.514,50.5636,97.5649,50.8811 C97.6815,51.1768,97.4266,51.4389,97.7689,51.0821 C98.3587,51.168,98.0602,51.2132,98.0965,51.1199 C98.0602,51.0457,98.0018,50.9153,97.9363,50.7551 C97.7979,50.4376,97.645,49.9905,97.4848,49.5463 C97.3319,49.1013,97.2008,48.6484,97.1062,48.3149 C97.0697,48.1474,97.0261,48.0097,97.0188,47.926 C96.9314,47.8743,97.1935,47.7308,96.7785,48.1561 z M96.5454,47.4716 C96.094,47.9092,96.3561,47.8903,96.3051,48.0469 C96.3343,48.1714,96.3634,48.3243,96.4144,48.502 C96.5091,48.8603,96.662,49.3169,96.8076,49.7749 C96.9605,50.2337,97.1353,50.6823,97.2663,51.0275 C97.3391,51.1993,97.3975,51.3421,97.4557,51.4549 C97.5941,51.5481,97.3683,51.6945,98.0018,51.7659 C98.5044,51.3537,98.2713,51.16,98.2713,50.766 C98.2131,50.3932,98.0892,49.9155,97.9146,49.4006 C97.747,48.8865,97.5576,48.4328,97.3756,48.0986 C97.128,47.7891,97.2008,47.4905,96.5454,47.4716 z"/>
              </defs>
              <use xlink:href="#37" style="fill:#ffffff;fill-opacity:1;fill-rule:nonzero;opacity:1;stroke:none;"/>
            </g>
          </defs>
          <use xlink:href="#36"/>
        </g>
      </g>
    </g>
    <g id="38">
      <title>Group</title>
      <g id="39">
        <title>Group</title>
        <g id="40">
          <title>Group</title>
          <defs>
            <title>Shape 36</title>
            <g id="41">
              <defs>
                <path id="42" d="M115.479,47.8131 C115.647,47.7563,116.054,48.5195,116.389,49.5164 C116.724,50.5141,116.863,51.3683,116.703,51.4243 C116.535,51.4804,115.312,47.8692,115.479,47.8131 z"/>
              </defs>
              <use xlink:href="#42" style="fill:#ffffff;fill-opacity:1;fill-rule:evenodd;opacity:1;stroke:none;"/>
            </g>
          </defs>
          <use xlink:href="#41"/>
        </g>
        <g id="43">
          <title>Group</title>
          <defs>
            <title>Shape 37</title>
            <g id="44">
              <defs>
                <path id="45" d="M115.596,48.1561 C115.108,48.0789,115.465,48.1343,115.552,48.4408 C115.705,48.7234,115.887,49.1501,116.047,49.6329 C116.215,50.115,116.331,50.5636,116.382,50.8811 C116.491,51.1768,116.244,51.4389,116.586,51.0821 C117.169,51.168,116.877,51.2132,116.914,51.1199 C116.87,51.0457,116.812,50.9153,116.746,50.7551 C116.608,50.4376,116.462,49.9905,116.302,49.5463 C116.149,49.1013,116.018,48.6484,115.923,48.3149 C115.88,48.1474,115.843,48.0097,115.836,47.926 C115.749,47.8743,116.011,47.7308,115.596,48.1561 z M115.363,47.4716 C114.911,47.9092,115.173,47.8903,115.122,48.0469 C115.144,48.1714,115.18,48.3243,115.231,48.502 C115.326,48.8603,115.472,49.3169,115.625,49.7749 C115.778,50.2337,115.952,50.6823,116.084,51.0275 C116.149,51.1993,116.215,51.3421,116.273,51.4549 C116.411,51.5481,116.185,51.6945,116.812,51.7659 C117.321,51.3537,117.088,51.16,117.088,50.766 C117.023,50.3932,116.906,49.9155,116.732,49.4006 C116.557,48.8865,116.367,48.4328,116.193,48.0986 C115.945,47.7891,116.018,47.4905,115.363,47.4716 z"/>
              </defs>
              <use xlink:href="#45" style="fill:#ffffff;fill-opacity:1;fill-rule:nonzero;opacity:1;stroke:none;"/>
            </g>
          </defs>
          <use xlink:href="#44"/>
        </g>
      </g>
    </g>
  </g>
  <defs>
    <title>Shape 77</title>
    <g id="46">
      <defs>
        <path id="47" d="M123.75,36.7539 C123.938,37.1845,124.042,37.6537,124.042,38.1446 C124.042,40.2394,122.159,41.9375,119.836,41.9375 C118.638,41.9375,117.349,41.1012,116.583,40.3767 C116.583,40.3767,116.454,40.2137,116.454,40.2137 C115.696,41.212,114.423,41.8671,112.98,41.8671 C111.238,41.8671,109.743,40.9119,109.104,39.5506 C109.104,39.5506,109.034,39.3516,109.034,39.3516 C109.034,39.3516,116.621,29.1882,116.621,29.1882 C116.621,29.1882,116.756,29.0098,116.756,29.0098 C116.681,28.7651,116.64,28.5087,116.64,28.2444 C116.64,26.553,118.288,25.1819,120.321,25.1819 C122.354,25.1819,124.001,26.553,124.001,28.2444 C124.001,28.5087,123.744,29.0799,123.668,29.3245 C123.668,29.3245,123.816,29.4663,123.816,29.4663 C123.999,29.4376,124.186,29.4226,124.376,29.4226 C126.409,29.4226,127.5,31.245,127.5,33.3397 C127.5,35.1399,125.696,36.4006,124.063,36.789 C124.063,36.789,123.75,36.7539,123.75,36.7539 z"/>
      </defs>
      <use xlink:href="#47" style="fill:#2d753b;fill-opacity:1;fill-rule:evenodd;opacity:1;stroke:none;"/>
      <use xlink:href="#47" style="fill:none;opacity:1;stroke:#262f07;stroke-linecap:butt;stroke-linejoin:miter;stroke-miterlimit:10;stroke-opacity:1;stroke-width:0.5;"/>
    </g>
  </defs>
  <use xlink:href="#46"/>
  <defs>
    <title>Shape 51</title>
    <g id="48">
      <defs>
        <path id="49" d="M95.4768,21.1491 C95.3014,20.67,95.2714,20.5379,95.2714,20.0084 C95.2714,17.2424,97.8535,15,101.039,15 C102.831,15,103.977,15.716,105.035,16.8291 C105.035,16.8291,105.152,16.8194,105.152,16.8194 C106.207,15.8113,107.729,15.1785,109.421,15.1785 C112.606,15.1785,115.188,17.4208,115.188,20.1869 C115.188,20.4894,115.157,20.7857,115.098,21.0735 C115.098,21.0735,115.138,21.164,115.138,21.164 C117.837,21.5826,119.648,23.4792,119.648,25.9427 C119.648,28.7088,117.066,30.9511,113.881,30.9511 C113.881,30.9511,113.695,30.9571,113.695,30.9571 C113.695,30.9571,96.4822,31.1366,96.4822,31.1366 C96.4822,31.1366,96.6556,31.1296,96.6556,31.1296 C93.4703,31.1296,90.8881,28.8872,90.8881,26.1212 C90.8881,23.7441,92.7951,21.7538,95.3531,21.241 C95.3531,21.241,95.4768,21.1491,95.4768,21.1491 z"/>
      </defs>
      <use xlink:href="#49" style="fill:#2d753b;fill-opacity:1;fill-rule:evenodd;opacity:1;stroke:none;"/>
      <use xlink:href="#49" style="fill:none;opacity:1;stroke:#262f07;stroke-linecap:butt;stroke-linejoin:miter;stroke-miterlimit:10;stroke-opacity:1;stroke-width:0.5;"/>
    </g>
  </defs>
  <use xlink:href="#48"/>
  <defs>
    <title>Shape 65</title>
    <g id="50">
      <defs>
        <path id="51" d="M94.2253,40.4237 C94.991,41.2985,96.1245,41.9851,97.5449,41.9851 C99.8777,41.9851,101.769,40.4461,101.769,38.5478 C101.769,37.7766,101.457,37.0647,100.93,36.4913 C100.93,36.4913,100.929,36.3616,100.929,36.3616 C100.929,36.3616,100.766,30.6256,100.766,30.6256 C100.766,30.6256,100.746,30.451,100.746,30.451 C101.273,29.8775,101.585,29.1656,101.585,28.3944 C101.585,26.4961,99.694,24.9572,97.3612,24.9572 C95.7938,24.9572,94.4259,25.6519,93.6969,26.6835 C93.6969,26.6835,93.6082,26.4921,93.6082,26.4921 C92.8491,25.5778,92.0167,24.8832,90.5587,24.8832 C88.2259,24.8832,86.3348,26.4221,86.3348,28.3205 C86.3348,29.1213,86.4807,29.5448,87.045,30.1291 C87.045,30.1291,87.5431,30.5647,87.5431,30.5647 C87.4711,30.5617,86.7968,30.0579,86.7239,30.0579 C84.3911,30.0579,82.5,31.5968,82.5,33.4951 C82.5,35.3934,84.3911,36.9323,86.7239,36.9323 C86.9061,36.9323,87.0857,36.9229,87.2619,36.9047 C87.2619,36.9047,87.1211,37.061,87.1211,37.061 C86.7651,37.5648,86.2662,37.9729,86.2662,38.5958 C86.2662,40.4941,88.1573,42.033,90.4901,42.033 C92.0757,42.033,93.4572,41.3221,94.1796,40.2706 C94.1796,40.2706,94.2253,40.4237,94.2253,40.4237 z"/>
      </defs>
      <use xlink:href="#51" style="fill:#2d753b;fill-opacity:1;fill-rule:evenodd;opacity:1;stroke:none;"/>
      <use xlink:href="#51" style="fill:none;opacity:1;stroke:#262f07;stroke-linecap:butt;stroke-linejoin:miter;stroke-miterlimit:10;stroke-opacity:1;stroke-width:0.5;"/>
    </g>
  </defs>
  <use xlink:href="#50"/>
  <defs>
    <title>Shape 37</title>
    <g id="52">
      <defs>
        <path id="53" d="M105.335,39.1187 C104.701,40.3337,103.289,41.1793,101.649,41.1793 C99.416,41.1793,97.606,39.6125,97.606,37.6798 C97.606,37.1645,97.7346,36.6753,97.9657,36.2348 C97.9657,36.2348,97.8784,36.115,97.8784,36.115 C95.6457,36.115,93.8358,34.5482,93.8358,32.6155 C93.8358,30.6827,95.6457,29.116,97.8784,29.116 C97.8784,29.116,97.9836,29.3374,97.9836,29.3374 C97.7413,28.8882,97.606,28.3871,97.606,27.8586 C97.606,25.9259,99.416,24.3591,101.649,24.3591 C103.253,24.3591,104.368,25.0558,105.021,26.2287 C105.021,26.2287,105.122,26.2869,105.122,26.2869 C105.713,24.989,107.175,24.0706,108.884,24.0706 C111.117,24.0706,112.927,25.6374,112.927,27.5701 C112.927,28.2043,112.732,28.7991,112.391,29.312 C112.391,29.312,112.741,29.3246,112.741,29.3246 C114.974,29.3246,116.784,30.8914,116.784,32.8241 C116.784,34.7568,114.835,36.1077,112.603,36.1077 C112.799,36.5461,112.927,37.0336,112.927,37.547 C112.927,39.4797,111.117,41.0465,108.884,41.0465 C107.349,41.0465,106.043,40.1777,105.358,39.0869 C105.358,39.0869,105.335,39.1187,105.335,39.1187 z"/>
      </defs>
      <use xlink:href="#53" style="fill:#2d753b;fill-opacity:1;fill-rule:evenodd;opacity:1;stroke:none;"/>
      <use xlink:href="#53" style="fill:none;opacity:1;stroke:#262f07;stroke-linecap:butt;stroke-linejoin:miter;stroke-miterlimit:10;stroke-opacity:1;stroke-width:0.5;"/>
    </g>
  </defs>
  <use xlink:href="#52"/>
</svg>
